<?xml version="1.0" encoding="UTF-8" standalone="no"?>
<!DOCTYPE svg PUBLIC "-//W3C//DTD SVG 1.1//EN" "http://www.w3.org/Graphics/SVG/1.1/DTD/svg11.dtd">
<!-- Created with Linearity Curve (http://linearity.io/curve) -->
<svg height="25.600000381469727px" stroke-miterlimit="10" style="fill-rule:nonzero;clip-rule:evenodd;stroke-linecap:round;stroke-linejoin:round;" version="1.1" viewBox="0 0 25.6 25.6" width="25.600000381469727px" xml:space="preserve" xmlns="http://www.w3.org/2000/svg" xmlns:xlink="http://www.w3.org/1999/xlink">
<defs/>
<clipPath id="ArtboardFrame">
<rect height="25.6" width="25.6" x="0" y="0"/>
</clipPath>
<g clip-path="url(#ArtboardFrame)" id="RouteTo">
<path d="M0 1.77636e-15L25.6 1.77636e-15L25.6 25.6L0 25.6L0 1.77636e-15Z" fill="#ffffff" fill-rule="nonzero" opacity="0" stroke="none"/>
<path d="M13.8351 10.6C14.4979 10.6 15.0351 11.1373 15.0351 11.8L15.0351 19.8C15.0351 20.4627 14.4979 21 13.8351 21L13.0351 21C12.3724 21 11.8351 20.4627 11.8351 19.8L11.8344 16.2656L4.32519 23.6604C3.8581 24.1204 3.10835 24.1204 2.64127 23.6604L2.15804 23.1846C1.68581 22.7196 1.67995 21.9598 2.14495 21.4876L2.15804 21.4745L2.15804 21.4745L9.9512 13.8L5.83512 13.8C5.17238 13.8 4.63512 13.2627 4.63512 12.6L4.63512 11.8C4.63512 11.1373 5.17238 10.6 5.83512 10.6L13.8351 10.6Z" fill="#5a5b59" fill-rule="evenodd" opacity="1" stroke="none"/>
<path d="M17.9088 0.81C14.1982 0.810001 11.19 3.81817 11.19 7.52875C11.19 8.34473 11.3897 9.09018 11.6588 9.81L13.8457 9.81C14.9333 9.81 15.815 10.6917 15.815 11.7793L15.815 13.8413C16.4801 14.0661 17.17 14.2475 17.9088 14.2475C21.6193 14.2475 24.6275 11.2393 24.6275 7.52875C24.6275 3.81817 21.6193 0.809999 17.9088 0.81ZM13.1588 3.09125L15.3775 3.09125L17.5025 3.09125L19.6588 5.2475L20.5338 4.3725L21.94 5.7475L21.94 8.7475L20.69 8.7475L20.69 6.27875L19.6588 5.2475L19.2213 5.685L20.065 6.52875L20.065 8.31L18.3463 6.56L17.8775 6.9975L19.6275 8.7475L17.8775 8.7475L17.0025 7.90375L16.565 8.31L14.4088 6.185L14.4088 4.96625L15.6588 4.96625L15.6588 5.65375L16.565 6.56L17.8775 5.2475L16.9713 4.34125L14.4088 4.34125L13.1588 3.09125ZM16.565 8.34125L17.5963 9.3725L20.1275 9.3725L21.94 9.3725L23.1588 10.5913L19.19 10.5913L17.0963 10.5913L15.69 9.185L16.565 8.34125Z" fill="#8b8b8b" fill-rule="nonzero" opacity="1" stroke="none"/>
</g>
</svg>
