<?xml version="1.0" encoding="UTF-8"?>
<svg width="92px" height="92px" viewBox="0 0 92 92" version="1.1" xmlns="http://www.w3.org/2000/svg" xmlns:xlink="http://www.w3.org/1999/xlink">
    <title>AzureFunction</title>
    <g id="AzureFunction" stroke="none" stroke-width="1" fill="none" fill-rule="evenodd" stroke-linecap="round" stroke-linejoin="round">
        <g id="A" transform="translate(1.000000, 7.000000)" fill="#0078D7">
            <path d="M89.4189337,37.424 L85.0609337,33.221 L65.6629337,15.052 C64.8199337,14.238 63.5539337,14.238 62.5699337,15.052 C61.7269337,15.865 61.4449337,17.357 62.5699337,18.171 L82.9519337,37.425 C83.7949337,38.238 83.7949337,39.73 82.9519337,40.544 L62.1489337,60.475 C61.3049337,61.289 61.3049337,62.78 62.1489337,63.594 C62.9929337,64.408 64.5389337,64.272 65.2409337,63.594 L84.4989337,45.153 L84.6399337,45.017 L89.4189337,40.542 C90.2619337,39.728 90.1219337,38.237 89.4189337,37.423 L89.4189337,37.424 Z M7.46893372,40.543 C6.62593372,39.729 6.62593372,38.238 7.46893372,37.424 L27.4289337,18.17 C28.5529337,17.356 28.2719337,15.865 27.4289337,15.051 C26.4449337,14.237 25.1799337,14.237 24.3359337,15.051 L4.93893372,33.221 L0.580933722,37.424 C-0.122066278,38.237 -0.262066278,39.729 0.580933722,40.543 L4.93893372,45.289 L5.07993372,45.425 L24.7589337,63.594 C25.4619337,64.272 27.0079337,64.408 27.8519337,63.594 C28.6959337,62.78 28.6949337,61.289 27.8519337,60.475 L7.46893372,40.543 L7.46893372,40.543 Z M67.4899337,26.983 L48.6539337,26.983 L66.9279337,0 L39.5179337,0 L24.7579337,40.136 L42.7509337,40.272 L28.6939337,80 L67.4899337,26.983 Z" id="Shape"></path>
        </g>
    </g>
</svg>