<?xml version="1.0" encoding="UTF-8" standalone="no"?>
<!DOCTYPE svg PUBLIC "-//W3C//DTD SVG 1.1//EN" "http://www.w3.org/Graphics/SVG/1.1/DTD/svg11.dtd">
<!-- Created with Vectornator (http://vectornator.io/) -->
<svg height="100%" stroke-miterlimit="10" style="fill-rule:nonzero;clip-rule:evenodd;stroke-linecap:round;stroke-linejoin:round;" version="1.1" viewBox="0 0 32 32" width="100%" xml:space="preserve" xmlns="http://www.w3.org/2000/svg" xmlns:vectornator="http://vectornator.io" xmlns:xlink="http://www.w3.org/1999/xlink">
<defs>
<path d="M19.6436 2L6.72727 2C5.52291 2 4.54545 2.97745 4.54545 4.18182L4.54545 28.1818C4.54545 29.3862 5.52291 30.3636 6.72727 30.3636L25.2727 30.3636C26.4771 30.3636 27.4545 29.3862 27.4545 28.1818L27.4545 9.80982L19.6436 2Z" id="Fill"/>
</defs>
<g id="CAST_HTML5_Jade_SourceCode" vectornator:layerName="CAST_HTML5_Jade_SourceCode">
<g opacity="1" vectornator:layerName="file">
<g opacity="1" vectornator:layerName="Group">
<g opacity="1" vectornator:layerName="Shape">
<use fill="#d0021b" fill-rule="evenodd" stroke="none" xlink:href="#Fill"/>
<mask height="28.3636" id="StrokeMask" maskUnits="userSpaceOnUse" width="22.9091" x="4.54545" y="2">
<rect fill="#000000" height="28.3636" stroke="none" width="22.9091" x="4.54545" y="2"/>
<use fill="#ffffff" fill-rule="evenodd" stroke="none" xlink:href="#Fill"/>
</mask>
<use fill="none" mask="url(#StrokeMask)" stroke="#d0021b" stroke-linecap="butt" stroke-linejoin="miter" stroke-width="2" xlink:href="#Fill"/>
</g>
<path d="M20.2611 9.188L27.4545 16.3749L27.4545 9.82945L20.2611 2.64255L20.2611 9.188Z" fill="#000000" fill-rule="evenodd" opacity="0.1" stroke="none" vectornator:layerName="Shape"/>
<path d="M19.6436 2L19.624 7.64764C19.624 8.852 20.6015 9.82945 21.8058 9.82945L27.4545 9.80982L19.6436 2Z" fill="#e8a994" fill-rule="evenodd" opacity="1" stroke="none" vectornator:layerName="Shape"/>
</g>
</g>
<path d="M16 8.03125C11.3814 8.03125 8.9886 8.04104 8.84375 8.0625C8.6989 8.08396 8.56166 8.11333 8.4375 8.15625C8.31334 8.19917 8.20549 8.25241 8.09375 8.3125C7.98201 8.37259 7.85532 8.45091 7.71875 8.5625C7.58218 8.6741 7.47846 8.80874 7.375 8.9375C7.27154 9.06626 7.1641 9.17944 7.09375 9.3125C7.02339 9.44556 6.97061 9.56182 6.9375 9.65625C6.90439 9.75068 6.87272 9.87244 6.84375 10.0312C6.81478 10.1901 6.8125 12.7516 6.8125 17.6875C6.8125 22.6234 6.81478 25.1537 6.84375 25.3125C6.87272 25.4713 6.90439 25.6243 6.9375 25.7188C6.97061 25.8132 7.01284 25.9013 7.0625 26C7.11216 26.0987 7.17551 26.2052 7.25 26.3125C7.32449 26.4198 7.41537 26.5091 7.53125 26.625C7.64713 26.7409 7.79265 26.8431 7.9375 26.9375C8.08235 27.0319 8.23015 27.1317 8.375 27.1875C8.51985 27.2433 8.68235 27.2867 8.84375 27.3125C9.00515 27.3383 11.3814 27.3438 16 27.3438C20.6186 27.3438 22.9903 27.3254 23.0938 27.3125C23.1972 27.2996 23.3133 27.2843 23.4375 27.25C23.5617 27.2157 23.6801 27.1581 23.8125 27.0938C23.9449 27.0294 24.0758 26.9565 24.1875 26.875C24.2992 26.7934 24.4154 26.687 24.5312 26.5625C24.6471 26.438 24.715 26.3218 24.7812 26.2188C24.8475 26.1157 24.9296 25.9842 25 25.8125C25.0704 25.6408 25.1273 25.4713 25.1562 25.3125C25.1852 25.1537 25.1875 22.6234 25.1875 17.6875C25.1875 12.7516 25.1852 10.1901 25.1562 10.0312C25.1392 9.93783 25.1122 9.88364 25.0938 9.8125L24.4688 9.8125C24.509 9.91457 24.542 10.0259 24.5625 10.125C24.5873 10.2452 24.6209 10.4856 24.625 10.9062C24.6271 11.1166 24.6229 11.3522 24.625 11.5625C21.7549 11.5646 18.8701 11.5604 16 11.5625C13.1299 11.5646 10.2763 11.5604 7.40625 11.5625C7.40625 11.35 7.40625 11.15 7.40625 10.9375C7.40625 10.5126 7.40853 10.2268 7.4375 10.0938C7.46647 9.96069 7.51284 9.83035 7.5625 9.71875C7.61216 9.60715 7.65667 9.49638 7.71875 9.40625C7.78083 9.31612 7.86715 9.26047 7.9375 9.1875C8.00786 9.11453 8.08176 9.02455 8.15625 8.96875C8.23074 8.91295 8.31563 8.84993 8.46875 8.78125C8.62188 8.71258 8.75912 8.67771 8.875 8.65625C8.99088 8.63479 11.3731 8.625 16 8.625C18.6117 8.625 18.8115 8.65351 19.9688 8.65625C19.861 8.46963 19.7677 8.27869 19.7188 8.0625C18.5223 8.05555 18.4001 8.03125 16 8.03125ZM9.1875 9.375C9.10473 9.37071 9.03269 9.40316 8.9375 9.4375C8.84231 9.47184 8.77255 9.51529 8.71875 9.5625C8.66495 9.60971 8.60803 9.66416 8.5625 9.75C8.51698 9.83584 8.47703 9.92395 8.46875 10.0312C8.46047 10.1386 8.46689 10.2493 8.5 10.3438C8.53311 10.4382 8.59831 10.5294 8.65625 10.5938C8.71419 10.6581 8.76926 10.7114 8.84375 10.75C8.91824 10.7886 9.00684 10.8039 9.09375 10.8125C9.18066 10.8211 9.25456 10.8254 9.3125 10.8125C9.37044 10.7996 9.41909 10.7758 9.46875 10.75C9.51841 10.7242 9.5712 10.6765 9.625 10.625C9.6788 10.5735 9.73986 10.4921 9.78125 10.4062C9.82264 10.3204 9.83547 10.2378 9.84375 10.1562C9.85203 10.0747 9.83733 10.0007 9.8125 9.90625C9.78767 9.81182 9.75372 9.70655 9.6875 9.625C9.62128 9.54345 9.52441 9.51167 9.4375 9.46875C9.35059 9.42583 9.27027 9.37929 9.1875 9.375ZM11.1562 9.375C11.0569 9.36642 10.9619 9.3762 10.875 9.40625C10.7881 9.43629 10.7225 9.50241 10.6562 9.5625C10.59 9.62259 10.5143 9.70949 10.4688 9.8125C10.4232 9.91551 10.4062 10.0036 10.4062 10.0938C10.4062 10.1839 10.4398 10.2622 10.4688 10.3438C10.4977 10.4253 10.5399 10.4981 10.5938 10.5625C10.6476 10.6269 10.6985 10.6758 10.7812 10.7188C10.864 10.7617 10.9443 10.8039 11.0312 10.8125C11.1182 10.8211 11.2132 10.8156 11.3125 10.7812C11.4118 10.7469 11.5087 10.7035 11.5625 10.6562C11.6163 10.609 11.6691 10.5362 11.7188 10.4375C11.7684 10.3388 11.7771 10.2237 11.7812 10.125C11.7854 10.0263 11.7748 9.95226 11.75 9.875C11.7252 9.79774 11.6829 9.69796 11.625 9.625C11.5671 9.55203 11.5161 9.51167 11.4375 9.46875C11.3589 9.42583 11.2556 9.38358 11.1562 9.375ZM13.0938 9.375C13.011 9.37071 12.9077 9.40316 12.8125 9.4375C12.7173 9.47184 12.6287 9.49812 12.5625 9.5625C12.4963 9.62688 12.4435 9.72666 12.4062 9.8125C12.369 9.89834 12.3479 9.97666 12.3438 10.0625C12.3396 10.1483 12.3773 10.2224 12.4062 10.3125C12.4352 10.4026 12.4692 10.4895 12.5312 10.5625C12.5933 10.6355 12.6755 10.7114 12.75 10.75C12.8245 10.7886 12.8818 10.8039 12.9688 10.8125C13.0557 10.8211 13.1631 10.807 13.25 10.7812C13.3369 10.7555 13.4214 10.6937 13.5 10.625C13.5786 10.5563 13.619 10.4835 13.6562 10.4062C13.6935 10.329 13.7105 10.2507 13.7188 10.1562C13.727 10.0618 13.7165 9.96943 13.6875 9.875C13.6585 9.78057 13.6246 9.69797 13.5625 9.625C13.5004 9.55203 13.4307 9.51167 13.3438 9.46875C13.2568 9.42583 13.1765 9.37929 13.0938 9.375ZM7.375 12.1562C10.2472 12.1562 13.1278 12.1562 16 12.1562C18.8722 12.1562 21.7528 12.1562 24.625 12.1562C24.625 14.2723 24.625 16.4152 24.625 18.5312C24.625 22.7633 24.6062 24.938 24.5938 25.0625C24.5813 25.187 24.5832 25.2665 24.5625 25.3438C24.5418 25.421 24.4872 25.5134 24.4375 25.625C24.3878 25.7366 24.358 25.8376 24.3125 25.9062C24.267 25.9749 24.1807 26.0618 24.0938 26.1562C24.0068 26.2507 23.916 26.3333 23.8125 26.4062C23.709 26.4792 23.5929 26.5422 23.4688 26.5938C23.3446 26.6453 23.2409 26.666 23.125 26.6875C23.0091 26.709 20.6269 26.7187 16 26.7188C11.3731 26.7188 9.02027 26.7316 8.9375 26.7188C8.85473 26.7059 8.75144 26.6863 8.65625 26.6562C8.56106 26.6262 8.45735 26.5546 8.3125 26.4688C8.16765 26.3829 8.0451 26.2991 7.9375 26.1875C7.8299 26.0759 7.73902 25.9272 7.65625 25.7812C7.57348 25.6353 7.50186 25.5178 7.46875 25.4062C7.43564 25.2947 7.41867 25.187 7.40625 25.0625C7.39383 24.938 7.375 22.7633 7.375 18.5312C7.375 16.4152 7.375 14.2723 7.375 12.1562ZM9.71875 14.5938C8.81654 14.5938 8.34975 14.6078 8.3125 14.625C8.27525 14.6422 8.24358 14.6617 8.21875 14.6875C8.19392 14.7133 8.19991 14.72 8.1875 14.75C8.17508 14.78 8.15625 15.2745 8.15625 16.2188C8.15625 17.163 8.17508 17.6575 8.1875 17.6875C8.19992 17.7175 8.18978 17.7512 8.21875 17.7812C8.24772 17.8113 8.28353 17.8309 8.3125 17.8438C8.34147 17.8566 8.8124 17.875 9.71875 17.875C10.6251 17.875 11.1149 17.8652 11.1562 17.8438C11.1976 17.8223 11.2169 17.7788 11.25 17.7188C11.2831 17.6587 11.3125 17.1459 11.3125 16.2188C11.3125 15.2917 11.3019 14.7972 11.2812 14.75C11.2606 14.7028 11.2101 14.6906 11.1562 14.6562C11.1024 14.6219 10.621 14.5938 9.71875 14.5938ZM13.8125 14.5938C12.9144 14.5938 12.4394 14.6121 12.4062 14.625C12.3731 14.6379 12.3415 14.6575 12.3125 14.6875C12.2835 14.7175 12.2666 14.761 12.25 14.8125C12.2334 14.864 12.2187 15.3131 12.2188 16.2188C12.2188 17.1244 12.2252 17.6274 12.25 17.6875C12.2748 17.7476 12.3253 17.7825 12.375 17.8125C12.4247 17.8425 12.9062 17.875 13.8125 17.875C14.7188 17.875 15.1774 17.8652 15.2188 17.8438C15.2601 17.8223 15.2918 17.7758 15.3125 17.75C15.3332 17.7242 15.3626 17.6949 15.375 17.6562C15.3874 17.6176 15.4062 17.1373 15.4062 16.2188C15.4062 15.3002 15.3686 14.8058 15.3438 14.75C15.3189 14.6942 15.3038 14.655 15.25 14.625C15.1962 14.595 14.7106 14.5937 13.8125 14.5938ZM20.25 14.5938C18.0359 14.5938 16.9288 14.6035 16.875 14.625C16.8212 14.6465 16.7519 14.663 16.7188 14.7188C16.6856 14.7745 16.6875 15.9819 16.6875 18.3125C16.6875 20.6431 16.6751 21.8137 16.6875 21.8438C16.6999 21.8738 16.7252 21.9117 16.75 21.9375C16.7748 21.9633 16.8065 21.9828 16.8438 22C16.881 22.0172 18.011 22.0313 20.25 22.0312C22.489 22.0312 23.6544 22.0129 23.6875 22C23.7206 21.9871 23.7523 21.9676 23.7812 21.9375C23.8102 21.9075 23.8001 21.8738 23.8125 21.8438C23.8249 21.8137 23.8437 20.6474 23.8438 18.3125C23.8438 15.9776 23.8291 14.7843 23.8125 14.75C23.7959 14.7157 23.779 14.682 23.75 14.6562C23.721 14.6305 23.6976 14.6066 23.6562 14.5938C23.6149 14.5809 22.4641 14.5938 20.25 14.5938ZM8.34375 18.8438C8.3065 18.8609 8.27069 18.8848 8.25 18.9062C8.22931 18.9277 8.20405 18.9614 8.1875 19C8.17095 19.0386 8.15625 19.5276 8.15625 20.4375C8.15625 21.3474 8.17094 21.8051 8.1875 21.8438C8.20405 21.8824 8.21689 21.9075 8.25 21.9375C8.28311 21.9675 8.31892 21.9914 8.34375 22C8.36858 22.0086 9.52574 22.0313 11.7812 22.0312C14.0368 22.0312 15.1815 22.0172 15.2188 22C15.256 21.9828 15.2794 21.9535 15.3125 21.9062C15.3456 21.859 15.3709 21.356 15.375 20.4375C15.3791 19.519 15.3603 19.0429 15.3438 19C15.3272 18.9571 15.2955 18.9406 15.25 18.9062C15.2045 18.8719 14.0492 18.848 11.7812 18.8438C9.51332 18.8395 8.381 18.8266 8.34375 18.8438ZM8.375 23.7188C8.33361 23.7359 8.30608 23.7867 8.28125 23.8125C8.25642 23.8383 8.23531 23.8547 8.21875 23.9062C8.2022 23.9578 8.2022 24.0294 8.21875 24.0938C8.2353 24.1581 8.25228 24.1887 8.28125 24.2188C8.31022 24.2488 8.34189 24.2684 8.375 24.2812C8.40811 24.2941 10.951 24.3125 16 24.3125C21.049 24.3125 23.5919 24.2941 23.625 24.2812C23.6581 24.2684 23.6898 24.2488 23.7188 24.2188C23.7477 24.1887 23.7647 24.1453 23.7812 24.0938C23.7978 24.0422 23.7978 24.0019 23.7812 23.9375C23.7647 23.8731 23.7436 23.8383 23.7188 23.8125C23.6939 23.7867 23.6664 23.7359 23.625 23.7188C23.5836 23.7016 21.0408 23.7188 16 23.7188C10.9592 23.7188 8.41639 23.7016 8.375 23.7188Z" fill="#ffffff" fill-rule="nonzero" opacity="0.820123" stroke="none" vectornator:layerName="Curve 1"/>
</g>
</svg>
