<?xml version="1.0" encoding="UTF-8" standalone="no"?>
<!DOCTYPE svg PUBLIC "-//W3C//DTD SVG 1.1//EN" "http://www.w3.org/Graphics/SVG/1.1/DTD/svg11.dtd">
<!-- Created with Vectornator (http://vectornator.io/) -->
<svg height="25.600000381469727px" stroke-miterlimit="10" style="fill-rule:nonzero;clip-rule:evenodd;stroke-linecap:round;stroke-linejoin:round;" version="1.1" viewBox="0 0 25.6 25.6" width="25.600000381469727px" xml:space="preserve" xmlns="http://www.w3.org/2000/svg" xmlns:xlink="http://www.w3.org/1999/xlink">
<defs/>
<g id="RouteFrom">
<path d="M0.8 20C0.8 17.349 2.94903 15.2 5.6 15.2C8.25097 15.2 10.4 17.349 10.4 20C10.4 22.651 8.25097 24.8 5.6 24.8C2.94903 24.8 0.8 22.651 0.8 20Z" fill="#559410" fill-rule="evenodd" opacity="0" stroke="none"/>
<path d="M7.5 11.375C3.79652 11.375 0.8125 14.3903 0.8125 18.0938C0.812501 21.7972 3.79652 24.8125 7.5 24.8125C11.2035 24.8125 14.2188 21.7972 14.2188 18.0938C14.2188 17.0866 13.9603 16.1384 13.5625 15.2812L12.5 16.3125C11.8475 16.955 10.8088 16.955 10.1562 16.3125L9.5 15.625C8.84028 14.9754 8.81913 13.941 9.46875 13.2812L9.5 13.25L10.5625 12.1875C9.63831 11.7072 8.61352 11.375 7.5 11.375ZM5.6875 16.875C6.36586 16.875 6.90625 17.4154 6.90625 18.0938C6.90625 18.7721 6.36586 19.3125 5.6875 19.3125C5.00914 19.3125 4.46875 18.7721 4.46875 18.0938C4.46875 17.4154 5.00914 16.875 5.6875 16.875ZM9.34375 16.875C10.0221 16.875 10.5625 17.4154 10.5625 18.0938C10.5625 18.7721 10.0221 19.3125 9.34375 19.3125C8.66539 19.3125 8.125 18.7721 8.125 18.0938C8.125 17.4154 8.66539 16.875 9.34375 16.875Z" fill="#559410" fill-rule="nonzero" opacity="1" stroke="none"/>
<path d="M22 2.4C22.6627 2.4 23.2 2.93726 23.2 3.6L23.2 11.6C23.2 12.2627 22.6627 12.8 22 12.8L21.2 12.8C20.5373 12.8 20 12.2627 20 11.6L19.9993 8.0656L12.4901 15.4604C12.023 15.9204 11.2732 15.9204 10.8062 15.4604L10.3229 14.9846C9.85069 14.5196 9.84484 13.7598 10.3098 13.2876L10.3229 13.2745L10.3229 13.2745L18.1161 5.6L14 5.6C13.3373 5.6 12.8 5.06274 12.8 4.4L12.8 3.6C12.8 2.93726 13.3373 2.4 14 2.4L22 2.4Z" fill="#5a5b59" fill-rule="evenodd" opacity="1" stroke="none"/>
</g>
</svg>
