<?xml version="1.0" encoding="UTF-8" standalone="no"?>
<!DOCTYPE svg PUBLIC "-//W3C//DTD SVG 1.1//EN" "http://www.w3.org/Graphics/SVG/1.1/DTD/svg11.dtd">
<!-- Created with Vectornator (http://vectornator.io/) -->
<svg height="25.600000381469727px" stroke-miterlimit="10" style="fill-rule:nonzero;clip-rule:evenodd;stroke-linecap:round;stroke-linejoin:round;" version="1.1" viewBox="0 0 25.6 25.6" width="25.600000381469727px" xml:space="preserve" xmlns="http://www.w3.org/2000/svg" xmlns:xlink="http://www.w3.org/1999/xlink">
<defs/>
<g id="RouteTo">
<path d="M13.8351 10.6C14.4979 10.6 15.0351 11.1373 15.0351 11.8L15.0351 19.8C15.0351 20.4627 14.4979 21 13.8351 21L13.0351 21C12.3724 21 11.8351 20.4627 11.8351 19.8L11.8344 16.2656L4.32519 23.6604C3.8581 24.1204 3.10835 24.1204 2.64127 23.6604L2.15804 23.1846C1.68581 22.7196 1.67995 21.9598 2.14495 21.4876L2.15804 21.4745L2.15804 21.4745L9.9512 13.8L5.83512 13.8C5.17238 13.8 4.63512 13.2627 4.63512 12.6L4.63512 11.8C4.63512 11.1373 5.17238 10.6 5.83512 10.6L13.8351 10.6Z" fill="#5a5b59" fill-rule="evenodd" opacity="1" stroke="none"/>
<path d="M17.9062 0.8125C14.1957 0.812501 11.1875 3.82067 11.1875 7.53125C11.1875 8.34723 11.3872 9.09268 11.6562 9.8125L13.8432 9.8125C14.9308 9.8125 15.8125 10.6942 15.8125 11.7818L15.8125 13.8438C16.4776 14.0686 17.1675 14.25 17.9062 14.25C21.6168 14.25 24.625 11.2418 24.625 7.53125C24.625 3.82067 21.6168 0.812499 17.9062 0.8125ZM16.0625 6.3125C16.7409 6.3125 17.2812 6.85289 17.2812 7.53125C17.2812 8.20961 16.7409 8.75 16.0625 8.75C15.3841 8.75 14.8437 8.20961 14.8438 7.53125C14.8438 6.85289 15.3841 6.3125 16.0625 6.3125ZM19.7188 6.3125C20.3971 6.3125 20.9375 6.85289 20.9375 7.53125C20.9375 8.20961 20.3971 8.75 19.7188 8.75C19.0404 8.75 18.5 8.20961 18.5 7.53125C18.5 6.85289 19.0404 6.3125 19.7188 6.3125Z" fill="#9013fe" fill-rule="nonzero" opacity="1" stroke="none"/>
</g>
</svg>
