<?xml version="1.0" encoding="UTF-8" standalone="no"?>
<!DOCTYPE svg PUBLIC "-//W3C//DTD SVG 1.1//EN" "http://www.w3.org/Graphics/SVG/1.1/DTD/svg11.dtd">
<!-- Created with Vectornator (http://vectornator.io/) -->
<svg height="25.600000381469727px" stroke-miterlimit="10" style="fill-rule:nonzero;clip-rule:evenodd;stroke-linecap:round;stroke-linejoin:round;" version="1.1" viewBox="0 0 25.6 25.6" width="25.600000381469727px" xml:space="preserve" xmlns="http://www.w3.org/2000/svg" xmlns:xlink="http://www.w3.org/1999/xlink">
<defs/>
<g id="File">
<g opacity="1">
<path d="M5.375 1.59375C4.41151 1.59375 3.625 2.38026 3.625 3.34375L3.625 22.5312C3.625 23.4947 4.41151 24.2812 5.375 24.2812L20.2188 24.2812L20.3438 24.2812C21.2492 24.2173 21.9688 23.4529 21.9688 22.5312L21.9688 8.375L17.2188 8.40625C16.1114 8.40625 15.1875 7.51379 15.1875 6.40625L15.2188 1.59375L5.375 1.59375ZM11.25 9L14.3438 9C14.5155 9 14.6558 9.16293 14.6562 9.34375L14.6562 11.0312C15.0828 11.213 15.4803 11.4495 15.8438 11.75L17.2188 10.9062C17.2893 10.8642 17.3583 10.8522 17.4375 10.875C17.5167 10.8974 17.5835 10.9559 17.625 11.0312L19.1875 13.8438C19.2727 13.9999 19.21 14.1913 19.0625 14.2812L17.6875 15.125C17.7186 15.3643 17.75 15.6017 17.75 15.8438C17.75 16.0858 17.7186 16.3545 17.6875 16.5938L19.0625 17.4375C19.2096 17.5265 19.2727 17.7184 19.1875 17.875L17.625 20.6875C17.5835 20.7628 17.5167 20.8205 17.4375 20.8438C17.3583 20.8657 17.2893 20.8559 17.2188 20.8125L15.8438 19.9688C15.4795 20.2683 15.0828 20.5053 14.6562 20.6875L14.6562 22.375C14.6562 22.5549 14.5151 22.7188 14.3438 22.7188L11.25 22.7188C11.0795 22.7187 10.9375 22.5549 10.9375 22.375L10.9375 20.6875C10.5109 20.5048 10.113 20.2683 9.75 19.9688L8.375 20.8125C8.30405 20.8554 8.20374 20.8657 8.125 20.8438C8.0454 20.8205 7.9786 20.7628 7.9375 20.6875L6.40625 17.875C6.32102 17.7188 6.35248 17.4962 6.5 17.4062L7.90625 16.5938C7.87467 16.3545 7.84375 16.0858 7.84375 15.8438C7.84375 15.6017 7.87424 15.3643 7.90625 15.125L6.5 14.2812C6.42905 14.2379 6.3962 14.1773 6.375 14.0938C6.35423 14.0093 6.36515 13.9191 6.40625 13.8438L7.9375 11.0312C8.02316 10.8751 8.22748 10.8154 8.375 10.9062L9.75 11.75C10.113 11.4495 10.5109 11.2125 10.9375 11.0312L10.9375 9.34375C10.9375 9.16292 11.0791 9 11.25 9ZM11.5625 9.65625L11.5625 11.25C11.5625 11.3888 11.4679 11.5164 11.3438 11.5625C10.8415 11.7502 10.375 12.0079 9.96875 12.375C9.86881 12.464 9.73835 12.4757 9.625 12.4062L8.3125 11.625L7.09375 13.875L8.375 14.6875C8.48835 14.756 8.55548 14.8961 8.53125 15.0312C8.48366 15.3061 8.46875 15.5634 8.46875 15.8438C8.46875 16.1232 8.48323 16.4131 8.53125 16.6875C8.55548 16.8236 8.48835 16.9628 8.375 17.0312L7.09375 17.8125L8.3125 20.0938L9.625 19.2812C9.73835 19.2114 9.86925 19.2225 9.96875 19.3125C10.375 19.6796 10.8419 19.9686 11.3438 20.1562C11.4679 20.2024 11.5625 20.329 11.5625 20.4688L11.5625 22.0625L14.0312 22.0625L14.0312 20.4688C14.0312 20.329 14.1271 20.2024 14.25 20.1562C14.7523 19.9686 15.188 19.6796 15.5938 19.3125C15.6933 19.2225 15.855 19.2118 15.9688 19.2812L17.25 20.0938L18.5 17.8125L17.1875 17.0312C17.0742 16.9628 17.007 16.8236 17.0312 16.6875C17.0788 16.4135 17.125 16.1232 17.125 15.8438C17.125 15.5634 17.0788 15.3061 17.0312 15.0312C17.0075 14.8961 17.0742 14.756 17.1875 14.6875L18.5 13.875L17.25 11.625L15.9688 12.4062C15.8554 12.4761 15.6933 12.464 15.5938 12.375C15.1879 12.0079 14.7523 11.7502 14.25 11.5625C14.1267 11.5164 14.0312 11.3888 14.0312 11.25L14.0312 9.65625L11.5625 9.65625ZM12.8125 13.8125C13.9171 13.8125 14.8125 14.7079 14.8125 15.8125C14.8125 16.9171 13.9171 17.8125 12.8125 17.8125C11.7079 17.8125 10.8125 16.9171 10.8125 15.8125C10.8125 14.7079 11.7079 13.8125 12.8125 13.8125Z" fill="#000000" fill-rule="nonzero" opacity="1" stroke="none"/>
<path d="M15.7149 1.6L15.6992 6.11811C15.6992 7.0816 16.4812 7.86356 17.4447 7.86356L21.9636 7.84785L15.7149 1.6L15.7149 1.6Z" fill="#000000" fill-rule="evenodd" opacity="1" stroke="none"/>
</g>
</g>
</svg>
