<?xml version="1.0" encoding="UTF-8" standalone="no"?>
<!DOCTYPE svg PUBLIC "-//W3C//DTD SVG 1.1//EN" "http://www.w3.org/Graphics/SVG/1.1/DTD/svg11.dtd">
<!-- Created with Vectornator (http://vectornator.io/) -->
<svg height="100%" stroke-miterlimit="10" style="fill-rule:nonzero;clip-rule:evenodd;stroke-linecap:round;stroke-linejoin:round;" version="1.1" viewBox="0 0 32 32" width="100%" xml:space="preserve" xmlns="http://www.w3.org/2000/svg" xmlns:vectornator="http://vectornator.io" xmlns:xlink="http://www.w3.org/1999/xlink">
<defs/>
<clipPath id="ArtboardFrame">
<rect height="32" width="32" x="0" y="0"/>
</clipPath>
<g clip-path="url(#ArtboardFrame)" id="View-Column" vectornator:layerName="View Column">
<path d="M0 0L5 0L5 5L0 5L0 0Z" fill="#d391e0" fill-rule="evenodd" opacity="1" stroke="none" vectornator:layerName="Rectangle 7 Copy 3"/>
<path d="M5 1L26 1L26 5L5 5L5 1Z" fill="#a771b2" fill-rule="evenodd" opacity="1" stroke="none" vectornator:layerName="Rectangle 7 Copy 6"/>
<path d="M0 7L5 7L5 12L0 12L0 7Z" fill="#d391e0" fill-rule="evenodd" opacity="1" stroke="none" vectornator:layerName="Rectangle 7 Copy 4"/>
<path d="M5 8L7.00475 8L7.00475 12L5 12L5 8Z" fill="#a771b2" fill-rule="evenodd" opacity="1" stroke="none" vectornator:layerName="Rectangle 7 Copy 7"/>
<path d="M0 14L5 14L5 19L0 19L0 14Z" fill="#d391e0" fill-rule="evenodd" opacity="1" stroke="none" vectornator:layerName="Rectangle 7 Copy 5"/>
<path d="M5 15L7.00247 15L7.00247 19L5 19L5 15Z" fill="#a771b2" fill-rule="evenodd" opacity="1" stroke="none" vectornator:layerName="Rectangle 7 Copy 8"/>
<path d="M0 21L5 21L5 26L0 26L0 21Z" fill="#d391e0" fill-rule="evenodd" opacity="1" stroke="none" vectornator:layerName="Rectangle 7 Copy 10"/>
<path d="M5 21.9444L7 21.9444L7 25.9399L5 25.9399L5 21.9444Z" fill="#a771b2" fill-rule="evenodd" opacity="1" stroke="none" vectornator:layerName="Rectangle 7 Copy 9"/>
<path d="M5 5L9 5L6.92 1L5 1L5 5Z" fill="#272727" fill-opacity="0.415421" fill-rule="evenodd" opacity="1" stroke="none" vectornator:layerName="Rectangle 15 Copy 3"/>
<path d="M8 6L13 6L13 11L8 11L8 6Z" fill="#86bffb" fill-rule="evenodd" opacity="1" stroke="none" vectornator:layerName="Rectangle 7 Copy 3"/>
<path d="M13 7L20 7L20 11L13 11L13 7Z" fill="#4095f7" fill-rule="evenodd" opacity="1" stroke="none" vectornator:layerName="Rectangle 7 Copy 6"/>
<path d="M8 13L13 13L13 18L8 18L8 13Z" fill="#86bffb" fill-rule="evenodd" opacity="1" stroke="none" vectornator:layerName="Rectangle 7 Copy 4"/>
<path d="M13 14L20 14L20 18L13 18L13 14Z" fill="#4095f7" fill-rule="evenodd" opacity="1" stroke="none" vectornator:layerName="Rectangle 7 Copy 7"/>
<path d="M8 20L13 20L13 25L8 25L8 20Z" fill="#86bffb" fill-rule="evenodd" opacity="1" stroke="none" vectornator:layerName="Rectangle 7 Copy 5"/>
<path d="M13 21L20 21L20 25L13 25L13 21Z" fill="#4095f7" fill-rule="evenodd" opacity="1" stroke="none" vectornator:layerName="Rectangle 7 Copy 8"/>
<path d="M8 27L13 27L13 32L8 32L8 27Z" fill="#86bffb" fill-rule="evenodd" opacity="1" stroke="none" vectornator:layerName="Rectangle 7 Copy 10"/>
<path d="M13 28L20 28L20 32L13 32L13 28Z" fill="#4095f7" fill-rule="evenodd" opacity="1" stroke="none" vectornator:layerName="Rectangle 7 Copy 9"/>
<path d="M13 18L17 18L14.92 14L13 14L13 18Z" fill="#272727" fill-opacity="0.415421" fill-rule="evenodd" opacity="1" stroke="none" vectornator:layerName="Rectangle 15"/>
<path d="M13 25L17 25L14.92 21L13 21L13 25Z" fill="#272727" fill-opacity="0.415421" fill-rule="evenodd" opacity="1" stroke="none" vectornator:layerName="Rectangle 15 Copy"/>
<path d="M13 32L17 32L14.92 28L13 28L13 32Z" fill="#272727" fill-opacity="0.415421" fill-rule="evenodd" opacity="1" stroke="none" vectornator:layerName="Rectangle 15 Copy 2"/>
<path d="M13 11L17 11L14.92 7L13 7L13 11Z" fill="#272727" fill-opacity="0.415421" fill-rule="evenodd" opacity="1" stroke="none" vectornator:layerName="Rectangle 15 Copy 3"/>
<path d="M21 6L24 6L24 32.0889L21 32.0889L21 6Z" fill="#e94420" fill-rule="evenodd" opacity="1" stroke="none" vectornator:layerName="Rectangle"/>
<path d="M25 28L32 28L32 32L25 32L25 28Z" fill="#4095f7" fill-rule="evenodd" opacity="1" stroke="none" vectornator:layerName="Rectangle 7 Copy 9"/>
<path d="M25 21L32 21L32 25L25 25L25 21Z" fill="#4095f7" fill-rule="evenodd" opacity="1" stroke="none" vectornator:layerName="Rectangle 7 Copy 9"/>
<path d="M25 14L32 14L32 18L25 18L25 14Z" fill="#4095f7" fill-rule="evenodd" opacity="1" stroke="none" vectornator:layerName="Rectangle 7 Copy 9"/>
<path d="M25 7L32 7L32 11L25 11L25 7Z" fill="#4095f7" fill-rule="evenodd" opacity="1" stroke="none" vectornator:layerName="Rectangle 7 Copy 9"/>
</g>
</svg>
