<?xml version="1.0" encoding="UTF-8" standalone="no"?>
<!DOCTYPE svg PUBLIC "-//W3C//DTD SVG 1.1//EN" "http://www.w3.org/Graphics/SVG/1.1/DTD/svg11.dtd">
<!-- Created with Linearity Curve (http://linearity.io/curve) -->
<svg height="25.600000381469727px" stroke-miterlimit="10" style="fill-rule:nonzero;clip-rule:evenodd;stroke-linecap:round;stroke-linejoin:round;" version="1.1" viewBox="0 0 25.6 25.6" width="25.600000381469727px" xml:space="preserve" xmlns="http://www.w3.org/2000/svg" xmlns:xlink="http://www.w3.org/1999/xlink">
<defs/>
<clipPath id="ArtboardFrame">
<rect height="25.6" width="25.6" x="0" y="0"/>
</clipPath>
<g clip-path="url(#ArtboardFrame)" id="RouteFrom">
<path d="M0.8 20C0.8 17.349 2.94903 15.2 5.6 15.2C8.25097 15.2 10.4 17.349 10.4 20C10.4 22.651 8.25097 24.8 5.6 24.8C2.94903 24.8 0.8 22.651 0.8 20Z" fill="#559410" fill-rule="evenodd" opacity="0" stroke="none"/>
<path d="M0 1.77636e-15L25.6 1.77636e-15L25.6 25.6L0 25.6L0 1.77636e-15Z" fill="#ffffff" fill-rule="nonzero" opacity="0" stroke="none"/>
<path d="M22 2.4C22.6627 2.4 23.2 2.93726 23.2 3.6L23.2 11.6C23.2 12.2627 22.6627 12.8 22 12.8L21.2 12.8C20.5373 12.8 20 12.2627 20 11.6L19.9993 8.0656L12.4901 15.4604C12.023 15.9204 11.2732 15.9204 10.8062 15.4604L10.3229 14.9846C9.85069 14.5196 9.84484 13.7598 10.3098 13.2876L10.3229 13.2745L10.3229 13.2745L18.1161 5.6L14 5.6C13.3373 5.6 12.8 5.06274 12.8 4.4L12.8 3.6C12.8 2.93726 13.3373 2.4 14 2.4L22 2.4Z" fill="#5a5b59" fill-rule="evenodd" opacity="1" stroke="none"/>
<path d="M7.5 11.375C3.79652 11.375 0.8125 14.3903 0.8125 18.0938C0.812501 21.7972 3.79652 24.8125 7.5 24.8125C11.2035 24.8125 14.2188 21.7972 14.2188 18.0938C14.2188 17.0866 13.9603 16.1384 13.5625 15.2812L12.5 16.3125C11.8475 16.955 10.8088 16.955 10.1562 16.3125L9.5 15.625C8.84028 14.9754 8.81913 13.941 9.46875 13.2812L9.5 13.25L10.5625 12.1875C9.63831 11.7072 8.61352 11.375 7.5 11.375ZM1.84375 15.0938L4.0625 15.0938L6.1875 15.0938L8.34375 17.2188L9.21875 16.3438L10.625 17.75L10.625 20.7188L9.375 20.7188L9.375 18.25L8.34375 17.25L7.90625 17.6875L8.75 18.5312L8.75 20.2812L7 18.5625L6.5625 19L8.3125 20.7188L6.5625 20.7188L5.6875 19.875L5.25 20.3125L6.28125 21.3438L8.8125 21.3438L10.625 21.3438L11.8438 22.5938L7.875 22.5938L5.78125 22.5938L4.375 21.1875L5.25 20.3125L3.09375 18.1562L3.09375 16.9375L4.34375 16.9375L4.34375 17.6562L5.25 18.5625L6.5625 17.2188L5.65625 16.3125L3.09375 16.3125L1.84375 15.0938Z" fill="#559410" fill-rule="nonzero" opacity="1" stroke="none"/>
</g>
</svg>
