<?xml version="1.0" encoding="UTF-8" standalone="no"?>
<!DOCTYPE svg PUBLIC "-//W3C//DTD SVG 1.1//EN" "http://www.w3.org/Graphics/SVG/1.1/DTD/svg11.dtd">
<!-- Created with Vectornator (http://vectornator.io/) -->
<svg height="100%" stroke-miterlimit="10" style="fill-rule:nonzero;clip-rule:evenodd;stroke-linecap:round;stroke-linejoin:round;" version="1.1" viewBox="0 0 32 32" width="100%" xml:space="preserve" xmlns="http://www.w3.org/2000/svg" xmlns:vectornator="http://vectornator.io" xmlns:xlink="http://www.w3.org/1999/xlink">
<defs/>
<clipPath id="ArtboardFrame">
<rect height="32" width="32" x="0" y="0"/>
</clipPath>
<g clip-path="url(#ArtboardFrame)" id="Untitled" vectornator:layerName="Untitled">
<path d="M16.9062 0.03125C15.0287-0.0743526 13.1037 0.158459 11.2188 0.75C4.46952 2.8681 0.0316302 9.11119 0.03125 16L16 16L16 18.9062L18.7812 18.9062C20.2216 18.9062 21.4737 17.8619 21.6875 16.4375C21.8136 15.6035 21.5804 14.7652 21.0312 14.125C20.4821 13.4848 19.6872 13.1273 18.8438 13.125L5.8125 13.125L13.0625 5.875L13.0625 8.71875L18.8125 8.71875C22.2557 8.71875 25.5682 11.4986 26.0625 14.9062C26.3756 16.9416 25.8093 19.0044 24.5 20.5938C23.1907 22.1831 21.2763 23.1364 19.2188 23.2188L25.125 29.125C31.6135 24.6145 33.8533 16.0643 30.375 8.96875C27.7663 3.6471 22.5388 0.348058 16.9062 0.03125ZM16 26.2188L16 32C17.6997 32.0023 19.3912 31.7359 21 31.1875L16 26.2188Z" fill="#000000" fill-rule="nonzero" opacity="0" stroke="none"/>
<g opacity="1" vectornator:layerName="web-service-post">
<path d="M13.375 1.6875C5.99234 1.6875 0 8.02137 0 15.8438L3.65625 15.8438L3.65625 15.5312C3.78159 10.8635 6.83155 6.99476 10.9375 5.875L10.9375 13.25L6.0625 13.25L8.5 15.8438L14.5938 15.8438L14.5938 1.75C14.1927 1.71266 13.7845 1.6875 13.375 1.6875Z" fill="#000000" fill-rule="nonzero" opacity="1" stroke="none" vectornator:layerName="Curve 1"/>
<path d="M17.0135 9.39784L25.5203 18.4113L20.6591 18.4106L20.6601 25.8123C24.7655 24.6921 27.8215 20.8017 27.9468 16.1344L27.9508 15.836C27.9508 10.1472 23.5978 5.53494 18.2288 5.53494C17.8156 5.53494 17.4049 5.5388 17.0135 5.53494L17.0135 5.53494L17.0135 1.7377C17.4146 1.69907 17.818 1.67203 18.2288 1.67203C25.6115 1.67203 31.5966 8.01363 31.5966 15.836C31.5966 23.6584 25.6115 30 18.2288 30C17.818 30 17.4146 29.973 17.0135 29.9343L17.0135 29.9343L17.0135 9.39784Z" fill="#000000" fill-rule="evenodd" opacity="1" stroke="none" vectornator:layerName="path"/>
</g>
<path d="M12.5 18C13.3284 18 14 18.6716 14 19.5L14 26.5C14 27.3284 13.3284 28 12.5 28C11.6716 28 11 27.3284 11 26.5L10.9993 23.313L4.18198 30.1317C3.59619 30.7175 2.64645 30.7175 2.06066 30.1317C1.47487 29.5459 1.47487 28.5962 2.06066 28.0104L9.07032 21L5.5 21C4.67157 21 4 20.3284 4 19.5C4 18.6716 4.67157 18 5.5 18L12.5 18L12.5 18Z" fill="#000000" fill-rule="evenodd" opacity="1" stroke="none" vectornator:layerName="path"/>
</g>
</svg>
