<?xml version="1.0" encoding="UTF-8"?>
<svg width="92px" height="92px" viewBox="0 0 92 92" version="1.1" xmlns="http://www.w3.org/2000/svg" xmlns:xlink="http://www.w3.org/1999/xlink">
    <title>CallAzureFunction</title>
    <g id="CallAzureFunction" stroke="none" stroke-width="1" fill="none" fill-rule="evenodd">
        <g id="functions" transform="translate(5.130000, 7.000000)" fill="#0078D7" stroke-linecap="round" stroke-linejoin="round">
            <g id="A">
                <path d="M85.2889337,37.424 L80.9309337,33.221 L61.5329337,15.052 C60.6899337,14.238 59.4239337,14.238 58.4399337,15.052 C57.5969337,15.865 57.3149337,17.357 58.4399337,18.171 L78.8219337,37.425 C79.6649337,38.238 79.6649337,39.73 78.8219337,40.544 L58.0189337,60.475 C57.1749337,61.289 57.1749337,62.78 58.0189337,63.594 C58.8629337,64.408 60.4089337,64.272 61.1109337,63.594 L80.3689337,45.153 L80.5099337,45.017 L85.2889337,40.542 C86.1319337,39.728 85.9919337,38.237 85.2889337,37.423 L85.2889337,37.424 Z M20.2059337,15.051 C21.0499337,14.237 22.3149337,14.237 23.2989337,15.051 C24.1419337,15.865 24.4229337,17.356 23.2989337,18.17 L23.2989337,18.17 L6.888,33.9995 L0,33.9995 L0.808933722,33.221 Z M62.7979337,0 L44.5239337,26.983 L63.3599337,26.983 L42.8699337,54.982 L42.87,34 L22.8839337,34 L35.3879337,0 L62.7979337,0 Z" id="Shape"></path>
            </g>
        </g>
        <rect id="Rectangle" fill="#000000" x="4" y="46" width="40" height="8" rx="4"></rect>
        <rect id="Rectangle-Copy-2" fill="#000000" x="36" y="46" width="8" height="40" rx="4"></rect>
        <rect id="Rectangle-Copy-3" fill="#000000" transform="translate(22.403806, 67.596194) rotate(45.000000) translate(-22.403806, -67.596194) " x="18.4038059" y="41.0961941" width="8" height="53" rx="4"></rect>
    </g>
</svg>