<?xml version="1.0" encoding="UTF-8" standalone="no"?>
<!DOCTYPE svg PUBLIC "-//W3C//DTD SVG 1.1//EN" "http://www.w3.org/Graphics/SVG/1.1/DTD/svg11.dtd">
<!-- Created with Linearity Curve (http://linearity.io/curve) -->
<svg height="25.600000381469727px" stroke-miterlimit="10" style="fill-rule:nonzero;clip-rule:evenodd;stroke-linecap:round;stroke-linejoin:round;" version="1.1" viewBox="0 0 25.6 25.6" width="25.600000381469727px" xml:space="preserve" xmlns="http://www.w3.org/2000/svg" xmlns:xlink="http://www.w3.org/1999/xlink">
<defs/>
<g id="Database">
<path d="M0.15625 10.5312L0.15625 14.4688C1.45423 15.2615 3.92805 15.7438 6.71875 15.9688L6.71875 12.0312C3.92805 11.8063 1.45422 11.324 0.15625 10.5312Z" fill="#000000" fill-rule="nonzero" opacity="1" stroke="none"/>
<path d="M0.15625 4.9375L0.15625 8.875C1.45442 9.66788 3.92749 10.1501 6.71875 10.375L6.71875 6.4375C3.92805 6.21257 1.45422 5.73026 0.15625 4.9375Z" fill="#000000" fill-rule="nonzero" opacity="1" stroke="none"/>
<path d="M0.15625 16.2188L0.15625 19.8438C0.157561 20.8994 3.09221 21.6495 6.71875 21.9375L6.71875 17.6875C3.92805 17.4625 1.45422 17.0121 0.15625 16.2188Z" fill="#000000" fill-rule="nonzero" opacity="1" stroke="none"/>
<path d="M8.96875 0.25C4.10875 0.25 0.15625 1.30495 0.15625 2.59375C0.156249 3.65921 3.13328 4.40802 6.8125 4.6875C6.79361 4.62508 6.6875 4.56371 6.6875 4.5C6.6875 3.2112 10.6087 2.15625 15.4688 2.15625C16.3118 2.15625 16.8531 2.34756 17.625 2.40625C17.2393 1.21259 13.5724 0.25 8.96875 0.25Z" fill="#000000" fill-rule="nonzero" opacity="1" stroke="none"/>
</g>
<g id="Database-copy">
<path d="M25.131 17.1894L25.131 13.2622C23.419 14.2302 20.1558 14.8854 16.4062 14.8854C12.5422 14.8854 9.19582 14.1894 7.53102 13.1726L7.53102 17.1038C9.19582 18.1206 12.5422 18.8166 16.4062 18.8166C20.159 18.8158 23.4214 18.159 25.131 17.1894L25.131 17.1894Z" fill="#000000" fill-rule="evenodd" opacity="1" stroke="none"/>
<path d="M25.131 11.5894L25.131 7.66216C23.419 8.63016 20.1558 9.28536 16.4062 9.28536C12.5422 9.28536 9.19582 8.58936 7.53102 7.57256L7.53102 11.5038C9.19582 12.5206 12.5422 13.2166 16.4062 13.2166C20.159 13.2158 23.4214 12.559 25.131 11.5894L25.131 11.5894Z" fill="#000000" fill-rule="evenodd" opacity="1" stroke="none"/>
<path d="M16.4062 20.5518C12.5422 20.5518 9.19582 19.8558 7.53102 18.8382L7.53102 22.4854C7.53262 23.7742 11.4718 24.8182 16.331 24.8182C21.1902 24.8182 25.1294 23.7742 25.131 22.4854L25.131 18.9278C23.419 19.8966 20.1558 20.5518 16.4062 20.5518L16.4062 20.5518Z" fill="#000000" fill-rule="evenodd" opacity="1" stroke="none"/>
<path d="M16.331 2.88536C21.191 2.88536 25.131 3.93016 25.131 5.21816C25.131 6.50696 21.191 7.55176 16.331 7.55176C11.471 7.55176 7.53102 6.50696 7.53102 5.21816C7.53102 3.92936 11.471 2.88536 16.331 2.88536L16.331 2.88536Z" fill="#000000" fill-rule="evenodd" opacity="1" stroke="none"/>
</g>
</svg>
