<?xml version="1.0" encoding="UTF-8" standalone="no"?>
<!DOCTYPE svg PUBLIC "-//W3C//DTD SVG 1.1//EN" "http://www.w3.org/Graphics/SVG/1.1/DTD/svg11.dtd">
<!-- Created with Vectornator (http://vectornator.io/) -->
<svg height="100%" stroke-miterlimit="10" style="fill-rule:nonzero;clip-rule:evenodd;stroke-linecap:round;stroke-linejoin:round;" version="1.1" viewBox="0 0 32 32" width="100%" xml:space="preserve" xmlns="http://www.w3.org/2000/svg" xmlns:vectornator="http://vectornator.io" xmlns:xlink="http://www.w3.org/1999/xlink">
<defs/>
<g id="File" vectornator:layerName="File">
<g opacity="1" vectornator:layerName="Group">
<path d="M6.71875 2C5.51439 2 4.53125 2.98314 4.53125 4.1875L4.53125 28.1875C4.53125 29.3919 5.51439 30.375 6.71875 30.375L25.2812 30.375L25.4375 30.3438C26.5693 30.2638 27.4688 29.3395 27.4688 28.1875L27.4688 10.4688L25.1562 10.4688C25.1588 10.4798 25.154 10.4877 25.1562 10.5C25.1852 10.6588 25.1875 13.2203 25.1875 18.1562C25.1875 23.0922 25.1852 25.6224 25.1562 25.7812C25.1273 25.9401 25.0704 26.1096 25 26.2812C24.9296 26.4529 24.8475 26.5845 24.7812 26.6875C24.715 26.7905 24.6471 26.9068 24.5312 27.0312C24.4154 27.1557 24.2992 27.2622 24.1875 27.3438C24.0758 27.4253 23.9449 27.4981 23.8125 27.5625C23.6801 27.6269 23.5617 27.6844 23.4375 27.7188C23.3133 27.7531 23.1972 27.7684 23.0938 27.7812C22.9903 27.7941 20.6186 27.8125 16 27.8125C11.3814 27.8125 9.00515 27.807 8.84375 27.7812C8.68234 27.7555 8.51985 27.712 8.375 27.6562C8.23015 27.6005 8.08235 27.5007 7.9375 27.4062C7.79265 27.3118 7.64713 27.2096 7.53125 27.0938C7.41537 26.9779 7.32449 26.8886 7.25 26.7812C7.1755 26.6739 7.11216 26.5675 7.0625 26.4688C7.01284 26.37 6.97061 26.2819 6.9375 26.1875C6.90439 26.0931 6.87272 25.9401 6.84375 25.7812C6.81478 25.6224 6.8125 23.0922 6.8125 18.1562C6.8125 13.2203 6.81478 10.6588 6.84375 10.5C6.87272 10.3412 6.90439 10.2194 6.9375 10.125C6.97061 10.0306 7.02339 9.91431 7.09375 9.78125C7.1641 9.64819 7.27154 9.53501 7.375 9.40625C7.47846 9.27749 7.58218 9.14285 7.71875 9.03125C7.85532 8.91966 7.98201 8.84134 8.09375 8.78125C8.20549 8.72116 8.31334 8.66792 8.4375 8.625C8.56166 8.58208 8.6989 8.55271 8.84375 8.53125C8.9886 8.50979 11.3814 8.5 16 8.5C18.0774 8.5 18.3807 8.52185 19.2188 8.53125C19.1706 8.33723 19 8.20886 19 8L19.0312 2L6.71875 2ZM16 9.09375C11.3731 9.09375 8.99088 9.10354 8.875 9.125C8.75912 9.14646 8.62188 9.18133 8.46875 9.25C8.31563 9.31868 8.23074 9.3817 8.15625 9.4375C8.08176 9.4933 8.00786 9.58328 7.9375 9.65625C7.86715 9.72922 7.78083 9.78487 7.71875 9.875C7.65667 9.96513 7.61216 10.0759 7.5625 10.1875C7.51284 10.2991 7.46647 10.4294 7.4375 10.5625C7.40853 10.6956 7.40625 10.9813 7.40625 11.4062C7.40625 11.6187 7.40625 11.8188 7.40625 12.0312C10.2763 12.0291 13.1299 12.0334 16 12.0312C18.8701 12.0291 21.7549 12.0334 24.625 12.0312C24.6229 11.8209 24.6271 11.5853 24.625 11.375C24.6209 10.9544 24.5873 10.7139 24.5625 10.5938C24.5544 10.5546 24.5429 10.5103 24.5312 10.4688L21.5 10.5C20.5588 10.5 19.8976 9.89274 19.4688 9.125C18.6214 9.11769 18.2827 9.09375 16 9.09375ZM9.1875 9.84375C9.27027 9.84804 9.35059 9.89458 9.4375 9.9375C9.52441 9.98042 9.62128 10.0122 9.6875 10.0938C9.75372 10.1753 9.78767 10.2806 9.8125 10.375C9.83733 10.4694 9.85203 10.5434 9.84375 10.625C9.83547 10.7065 9.82264 10.7892 9.78125 10.875C9.73986 10.9608 9.6788 11.0422 9.625 11.0938C9.5712 11.1453 9.51841 11.193 9.46875 11.2188C9.41909 11.2445 9.37044 11.2684 9.3125 11.2812C9.25456 11.2941 9.18066 11.2898 9.09375 11.2812C9.00684 11.2727 8.91824 11.2574 8.84375 11.2188C8.76926 11.1801 8.71419 11.1269 8.65625 11.0625C8.59831 10.9981 8.53311 10.9069 8.5 10.8125C8.46689 10.7181 8.46047 10.6073 8.46875 10.5C8.47702 10.3927 8.51698 10.3046 8.5625 10.2188C8.60803 10.1329 8.66495 10.0785 8.71875 10.0312C8.77255 9.98404 8.84231 9.94059 8.9375 9.90625C9.03269 9.87191 9.10473 9.83946 9.1875 9.84375ZM11.1562 9.84375C11.2556 9.85233 11.3589 9.89458 11.4375 9.9375C11.5161 9.98042 11.5671 10.0208 11.625 10.0938C11.6829 10.1667 11.7252 10.2665 11.75 10.3438C11.7748 10.421 11.7854 10.495 11.7812 10.5938C11.7771 10.6925 11.7684 10.8075 11.7188 10.9062C11.6691 11.005 11.6163 11.0778 11.5625 11.125C11.5087 11.1722 11.4118 11.2157 11.3125 11.25C11.2132 11.2843 11.1182 11.2898 11.0312 11.2812C10.9443 11.2727 10.864 11.2304 10.7812 11.1875C10.6985 11.1446 10.6476 11.0956 10.5938 11.0312C10.5399 10.9669 10.4977 10.8941 10.4688 10.8125C10.4398 10.731 10.4062 10.6526 10.4062 10.5625C10.4062 10.4724 10.4232 10.3843 10.4688 10.2812C10.5143 10.1782 10.59 10.0913 10.6562 10.0312C10.7225 9.97116 10.7881 9.90504 10.875 9.875C10.9619 9.84495 11.0569 9.83517 11.1562 9.84375ZM13.0938 9.84375C13.1765 9.84804 13.2568 9.89458 13.3438 9.9375C13.4307 9.98042 13.5004 10.0208 13.5625 10.0938C13.6246 10.1667 13.6585 10.2493 13.6875 10.3438C13.7165 10.4382 13.727 10.5306 13.7188 10.625C13.7105 10.7194 13.6935 10.7977 13.6562 10.875C13.619 10.9523 13.5786 11.0251 13.5 11.0938C13.4214 11.1624 13.3369 11.2242 13.25 11.25C13.1631 11.2758 13.0557 11.2898 12.9688 11.2812C12.8818 11.2727 12.8245 11.2574 12.75 11.2188C12.6755 11.1801 12.5933 11.1042 12.5312 11.0312C12.4692 10.9583 12.4352 10.8714 12.4062 10.7812C12.3773 10.6911 12.3396 10.6171 12.3438 10.5312C12.3479 10.4454 12.369 10.3671 12.4062 10.2812C12.4435 10.1954 12.4963 10.0956 12.5625 10.0312C12.6287 9.96687 12.7173 9.94059 12.8125 9.90625C12.9077 9.87191 13.011 9.83946 13.0938 9.84375ZM7.375 12.625C7.375 14.741 7.375 16.884 7.375 19C7.375 23.232 7.39383 25.4068 7.40625 25.5312C7.41867 25.6557 7.43564 25.7634 7.46875 25.875C7.50186 25.9866 7.57348 26.1041 7.65625 26.25C7.73902 26.3959 7.8299 26.5447 7.9375 26.6562C8.0451 26.7678 8.16765 26.8517 8.3125 26.9375C8.45735 27.0233 8.56106 27.095 8.65625 27.125C8.75144 27.1551 8.85473 27.1746 8.9375 27.1875C9.02027 27.2004 11.3731 27.1875 16 27.1875C20.6269 27.1875 23.0091 27.1777 23.125 27.1562C23.2409 27.1348 23.3446 27.114 23.4688 27.0625C23.5929 27.011 23.709 26.948 23.8125 26.875C23.916 26.802 24.0068 26.7194 24.0938 26.625C24.1807 26.5306 24.267 26.4437 24.3125 26.375C24.358 26.3063 24.3878 26.2053 24.4375 26.0938C24.4872 25.9821 24.5418 25.8898 24.5625 25.8125C24.5832 25.7353 24.5813 25.6557 24.5938 25.5312C24.6062 25.4068 24.625 23.232 24.625 19C24.625 16.884 24.625 14.741 24.625 12.625C21.7528 12.625 18.8722 12.625 16 12.625C13.1278 12.625 10.2472 12.625 7.375 12.625ZM9.71875 15.0625C10.621 15.0625 11.1024 15.0907 11.1562 15.125C11.2101 15.1593 11.2606 15.1715 11.2812 15.2188C11.3019 15.266 11.3125 15.7604 11.3125 16.6875C11.3125 17.6146 11.2831 18.1274 11.25 18.1875C11.2169 18.2476 11.1976 18.291 11.1562 18.3125C11.1149 18.334 10.6251 18.3438 9.71875 18.3438C8.8124 18.3438 8.34147 18.3254 8.3125 18.3125C8.28353 18.2996 8.24772 18.28 8.21875 18.25C8.18978 18.22 8.19992 18.1863 8.1875 18.1562C8.17508 18.1262 8.15625 17.6318 8.15625 16.6875C8.15625 15.7432 8.17508 15.2488 8.1875 15.2188C8.19991 15.1887 8.19392 15.182 8.21875 15.1562C8.24358 15.1305 8.27525 15.1109 8.3125 15.0938C8.34975 15.0766 8.81654 15.0625 9.71875 15.0625ZM13.8125 15.0625C14.7106 15.0625 15.1962 15.0637 15.25 15.0938C15.3038 15.1238 15.3189 15.163 15.3438 15.2188C15.3686 15.2745 15.4062 15.769 15.4062 16.6875C15.4062 17.606 15.3874 18.0864 15.375 18.125C15.3626 18.1636 15.3332 18.193 15.3125 18.2188C15.2918 18.2445 15.2601 18.291 15.2188 18.3125C15.1774 18.334 14.7188 18.3438 13.8125 18.3438C12.9062 18.3438 12.4247 18.3113 12.375 18.2812C12.3253 18.2512 12.2748 18.2163 12.25 18.1562C12.2252 18.0962 12.2188 17.5931 12.2188 16.6875C12.2187 15.7819 12.2334 15.3328 12.25 15.2812C12.2666 15.2297 12.2835 15.1863 12.3125 15.1562C12.3415 15.1262 12.3731 15.1066 12.4062 15.0938C12.4394 15.0809 12.9144 15.0625 13.8125 15.0625ZM20.25 15.0625C22.4641 15.0625 23.6149 15.0496 23.6562 15.0625C23.6976 15.0754 23.721 15.0992 23.75 15.125C23.779 15.1508 23.7959 15.1844 23.8125 15.2188C23.8291 15.2531 23.8438 16.4463 23.8438 18.7812C23.8438 21.1162 23.8249 22.2825 23.8125 22.3125C23.8001 22.3425 23.8102 22.3762 23.7812 22.4062C23.7523 22.4363 23.7206 22.4559 23.6875 22.4688C23.6544 22.4816 22.489 22.5 20.25 22.5C18.011 22.5 16.881 22.4859 16.8438 22.4688C16.8065 22.4516 16.7748 22.432 16.75 22.4062C16.7252 22.3805 16.6999 22.3425 16.6875 22.3125C16.6751 22.2825 16.6875 21.1119 16.6875 18.7812C16.6875 16.4506 16.6856 15.2433 16.7188 15.1875C16.7519 15.1317 16.8212 15.1152 16.875 15.0938C16.9288 15.0723 18.0359 15.0625 20.25 15.0625ZM8.34375 19.3125C8.381 19.2953 9.51332 19.3082 11.7812 19.3125C14.0492 19.3168 15.2045 19.3407 15.25 19.375C15.2955 19.4093 15.3272 19.4258 15.3438 19.4688C15.3603 19.5117 15.3791 19.9877 15.375 20.9062C15.3709 21.8248 15.3456 22.3278 15.3125 22.375C15.2794 22.4222 15.256 22.4516 15.2188 22.4688C15.1815 22.4859 14.0368 22.5 11.7812 22.5C9.52574 22.5 8.36858 22.4773 8.34375 22.4688C8.31892 22.4602 8.28311 22.4363 8.25 22.4062C8.21689 22.3762 8.20405 22.3511 8.1875 22.3125C8.17094 22.2739 8.15625 21.8162 8.15625 20.9062C8.15625 19.9963 8.17095 19.5074 8.1875 19.4688C8.20405 19.4301 8.22931 19.3965 8.25 19.375C8.27069 19.3535 8.3065 19.3297 8.34375 19.3125ZM8.375 24.1875C8.41639 24.1703 10.9592 24.1875 16 24.1875C21.0408 24.1875 23.5836 24.1703 23.625 24.1875C23.6664 24.2047 23.6939 24.2555 23.7188 24.2812C23.7436 24.307 23.7647 24.3419 23.7812 24.4062C23.7978 24.4706 23.7978 24.511 23.7812 24.5625C23.7647 24.614 23.7477 24.6575 23.7188 24.6875C23.6898 24.7176 23.6581 24.7371 23.625 24.75C23.5919 24.7629 21.049 24.7812 16 24.7812C10.951 24.7812 8.40811 24.7629 8.375 24.75C8.34189 24.7371 8.31022 24.7175 8.28125 24.6875C8.25228 24.6575 8.2353 24.6269 8.21875 24.5625C8.2022 24.4981 8.2022 24.4265 8.21875 24.375C8.2353 24.3235 8.25642 24.307 8.28125 24.2812C8.30608 24.2555 8.33361 24.2047 8.375 24.1875Z" fill="#000000" fill-rule="nonzero" opacity="1" stroke="none" vectornator:layerName="Curve 1"/>
<path d="M19.6436 2L19.624 7.64764C19.624 8.852 20.6015 9.82945 21.8058 9.82945L27.4545 9.80982L19.6436 2L19.6436 2Z" fill="#000000" fill-rule="evenodd" opacity="1" stroke="none" vectornator:layerName="path"/>
</g>
</g>
</svg>
