<?xml version="1.0" encoding="UTF-8" standalone="no"?>
<!DOCTYPE svg PUBLIC "-//W3C//DTD SVG 1.1//EN" "http://www.w3.org/Graphics/SVG/1.1/DTD/svg11.dtd">
<!-- Created with Vectornator (http://vectornator.io/) -->
<svg height="100%" stroke-miterlimit="10" style="fill-rule:nonzero;clip-rule:evenodd;stroke-linecap:round;stroke-linejoin:round;" version="1.1" viewBox="0 0 32 32" width="100%" xml:space="preserve" xmlns="http://www.w3.org/2000/svg" xmlns:vectornator="http://vectornator.io" xmlns:xlink="http://www.w3.org/1999/xlink">
<defs/>
<g id="Table" vectornator:layerName="Table">
<path d="M7 25L7 31L1 31L1 25L7 25ZM31 26L31 31L8 31L8 26L31 26ZM7 17L7 23L1 23L1 17L7 17ZM31 18L31 23L8 23L8 18L31 18ZM7 9L7 15L1 15L1 9L7 9ZM31 10L31 15L8 15L8 10L31 10ZM7 1L7 7L1 7L1 1L7 1ZM31 2L31 7L8 7L8 2L31 2Z" fill="#000000" fill-rule="evenodd" opacity="1" stroke="none"/>
</g>
</svg>
