<?xml version="1.0" encoding="UTF-8" standalone="no"?>
<!DOCTYPE svg PUBLIC "-//W3C//DTD SVG 1.1//EN" "http://www.w3.org/Graphics/SVG/1.1/DTD/svg11.dtd">
<!-- Created with Linearity Curve (http://linearity.io/curve) -->
<svg height="25.600000381469727px" stroke-miterlimit="10" style="fill-rule:nonzero;clip-rule:evenodd;stroke-linecap:round;stroke-linejoin:round;" version="1.1" viewBox="0 0 25.6 25.6" width="25.600000381469727px" xml:space="preserve" xmlns="http://www.w3.org/2000/svg" xmlns:xlink="http://www.w3.org/1999/xlink">
<defs/>
<clipPath id="ArtboardFrame">
<rect height="25.6" width="25.6" x="0" y="0"/>
</clipPath>
<g clip-path="url(#ArtboardFrame)" id="RouteFrom">
<path d="M0.8 20C0.8 17.349 2.94903 15.2 5.6 15.2C8.25097 15.2 10.4 17.349 10.4 20C10.4 22.651 8.25097 24.8 5.6 24.8C2.94903 24.8 0.8 22.651 0.8 20Z" fill="#559410" fill-rule="evenodd" opacity="0" stroke="none"/>
<path d="M0 1.77636e-15L25.6 1.77636e-15L25.6 25.6L0 25.6L0 1.77636e-15Z" fill="#ffffff" fill-rule="nonzero" opacity="0" stroke="none"/>
<path d="M7.4975 11.4298C3.79402 11.4298 0.81 14.4451 0.81 18.1485C0.810001 21.852 3.79402 24.8673 7.4975 24.8673C11.201 24.8673 14.2163 21.852 14.2163 18.1485C14.2163 17.1413 13.9578 16.1932 13.56 15.336L12.4975 16.3673C11.845 17.0098 10.8063 17.0098 10.1537 16.3673L9.4975 15.6798C8.83778 15.0302 8.81663 13.9958 9.46625 13.336L9.4975 13.3048L10.56 12.2423C9.63581 11.762 8.61102 11.4298 7.4975 11.4298ZM1.84125 15.1485L4.06 15.1485L6.185 15.1485L8.34125 17.2735L9.21625 16.3985L10.6225 17.8048L10.6225 20.7735L9.3725 20.7735L9.3725 18.3048L8.34125 17.3048L7.90375 17.7423L8.7475 18.586L8.7475 20.336L6.9975 18.6173L6.56 19.0548L8.31 20.7735L6.56 20.7735L5.685 19.9298L5.2475 20.3673L6.27875 21.3985L8.81 21.3985L10.6225 21.3985L11.8413 22.6485L7.8725 22.6485L5.77875 22.6485L4.3725 21.2423L5.2475 20.3673L3.09125 18.211L3.09125 16.9923L4.34125 16.9923L4.34125 17.711L5.2475 18.6173L6.56 17.2735L5.65375 16.3673L3.09125 16.3673L1.84125 15.1485Z" fill="#000000" fill-rule="nonzero" opacity="1" stroke="none"/>
<path d="M22 2.4C22.6627 2.4 23.2 2.93726 23.2 3.6L23.2 11.6C23.2 12.2627 22.6627 12.8 22 12.8L21.2 12.8C20.5373 12.8 20 12.2627 20 11.6L19.9993 8.0656L12.4901 15.4604C12.023 15.9204 11.2732 15.9204 10.8062 15.4604L10.3229 14.9846C9.85069 14.5196 9.84484 13.7598 10.3098 13.2876L10.3229 13.2745L10.3229 13.2745L18.1161 5.6L14 5.6C13.3373 5.6 12.8 5.06274 12.8 4.4L12.8 3.6C12.8 2.93726 13.3373 2.4 14 2.4L22 2.4Z" fill="#000000" fill-rule="evenodd" opacity="1" stroke="none"/>
</g>
</svg>
