<?xml version="1.0" encoding="UTF-8" standalone="no"?>
<!DOCTYPE svg PUBLIC "-//W3C//DTD SVG 1.1//EN" "http://www.w3.org/Graphics/SVG/1.1/DTD/svg11.dtd">
<!-- Created with Vectornator (http://vectornator.io/) -->
<svg height="100%" stroke-miterlimit="10" style="fill-rule:nonzero;clip-rule:evenodd;stroke-linecap:round;stroke-linejoin:round;" version="1.1" viewBox="0 0 220 220" width="100%" xml:space="preserve" xmlns="http://www.w3.org/2000/svg" xmlns:xlink="http://www.w3.org/1999/xlink">
<defs/>
<g id="com.castsoftware.mainframe">
<g opacity="1">
<path d="M15 13L205 13C206.105 13 207 13.8954 207 15L207 205C207 206.105 206.105 207 205 207L15 207C13.8954 207 13 206.105 13 205L13 15C13 13.8954 13.8954 13 15 13Z" fill="#4a90e2" fill-rule="evenodd" opacity="1" stroke="none"/>
<path d="M15 13C13.8954 13 13 13.8954 13 15L13 110L207 110L207 15C207 13.8954 206.105 13 205 13L15 13Z" fill="#000000" fill-rule="evenodd" opacity="1" stroke="none"/>
<path d="M37 31L37 35.2419L65.4187 35.2419L65.4187 31L37 31ZM69.4451 31L69.4451 35.2419L109.943 35.2419C109.943 35.2419 105.806 31 100.327 31L69.4451 31ZM117.887 31L117.887 35.2419L142.388 35.2419L140.934 31L117.887 31ZM159.954 31L158.499 35.2419L182.778 35.2419L182.778 31L159.954 31ZM37 39.2494L37 43.4913L65.4187 43.4913L65.4187 39.2494L37 39.2494ZM69.4451 39.2555L69.4451 43.4913L114.642 43.4913C114.642 43.4913 114.114 40.2266 113.194 39.2555L69.4451 39.2555ZM117.887 39.2555L117.887 43.4913L145.074 43.4913L143.728 39.2555L117.887 39.2555ZM157.045 39.2555L155.699 43.4913L182.778 43.4913L182.778 39.2555L157.045 39.2555ZM45.1669 47.4989L45.1669 51.7468L57.4742 51.7468L57.4742 47.4989L45.1669 47.4989ZM77.612 47.4989L77.612 51.7468L89.9193 51.7468L89.9193 47.4989L77.612 47.4989ZM101.89 47.4989L101.89 51.7468L114.197 51.7468C114.198 51.7468 114.979 49.5035 114.979 47.4989L101.89 47.4989ZM126.054 47.4989L126.054 51.7468L147.874 51.7468L146.42 47.4989L126.054 47.4989ZM154.365 47.4989L152.905 51.7468L174.833 51.7468L174.833 47.4989L154.365 47.4989ZM45.1669 55.7543L45.1669 59.9962L57.4742 59.9962L57.4742 55.7543L45.1669 55.7543ZM77.612 55.7543L77.612 59.9962L109.048 59.9962C109.048 59.9962 111.677 57.8197 112.515 55.7543L77.612 55.7543ZM126.054 55.7543L126.054 59.9962L138.362 59.9962L138.362 57.6349L139.143 59.9962L161.687 59.9962L162.526 57.6349L162.526 59.9962L174.833 59.9962L174.833 55.7543L151.73 55.7543L150.504 59.3473L149.272 55.7543L126.054 55.7543ZM45.1669 64.0038L45.1669 68.2457L57.4742 68.2457L57.4742 64.0038L45.1669 64.0038ZM77.612 64.0038L77.612 68.2457L112.515 68.2457C111.677 66.1871 109.048 64.0038 109.048 64.0038L77.612 64.0038ZM126.054 64.0038L126.054 68.2457L138.362 68.2457L138.362 64.0038L126.054 64.0038ZM140.597 64.0038L142.086 68.2457L158.99 68.2457L160.404 64.0038L140.597 64.0038ZM162.526 64.0038L162.526 68.2457L174.833 68.2457L174.833 64.0038L162.526 64.0038ZM45.1669 72.2532L45.1669 76.4951L57.4742 76.4951L57.4742 72.2532L45.1669 72.2532ZM77.612 72.2532L77.612 76.4951L89.9193 76.4951L89.9193 72.2532L77.612 72.2532ZM101.89 72.2532L101.89 76.4951L114.979 76.4951C114.979 74.4932 114.197 72.2532 114.197 72.2532L101.89 72.2532ZM126.054 72.2532L126.054 76.4951L138.362 76.4951L138.362 72.2532L126.054 72.2532ZM143.392 72.2532L144.835 76.4951L156.167 76.4951L157.621 72.2532L143.392 72.2532ZM162.526 72.2532L162.526 76.4951L174.833 76.4951L174.833 72.2532L162.526 72.2532ZM37.2224 80.5027L37.2224 84.7506L65.6411 84.7506L65.6411 80.5027L37.2224 80.5027ZM69.4451 80.5027L69.4451 84.7506L113.194 84.7506C114.114 83.7779 114.642 80.5027 114.642 80.5027L69.4451 80.5027ZM118.11 80.5027L118.11 84.7506L138.362 84.7506L138.362 80.5027L118.11 80.5027ZM146.192 80.5027L147.675 84.7506L153.441 84.7506L154.832 80.5027L146.192 80.5027ZM162.526 80.5027L162.526 84.7506L183 84.7506L183 80.5027L162.526 80.5027ZM37.2224 88.7581L37.2224 93L65.6411 93L65.6411 88.7581L37.2224 88.7581ZM69.4451 88.7581L69.4451 92.994L100.327 92.994C105.806 92.994 109.943 88.7581 109.943 88.7581L69.4451 88.7581ZM118.11 88.7581L118.11 93L138.362 93L138.362 88.7581L118.11 88.7581ZM149.004 88.7581L150.429 92.988L150.675 92.994L152.123 88.7581L149.004 88.7581ZM162.526 88.7581L162.526 93L183 93L183 88.7581L162.526 88.7581Z" fill="#ffffff" fill-rule="nonzero" opacity="1" stroke="none"/>
</g>
<path d="M86 122.719L86 131.469L86 189.719L86 195.719L135 195.719L135 193.219L134.75 193.219L134.75 131.469L135 131.469L135 122.719L86 122.719ZM98 134.719L122 134.719L122 140.719L98 140.719L98 134.719ZM98 146.719L122 146.719L122 152.719L98 152.719L98 146.719ZM98 159.719L122 159.719L122 165.719L98 165.719L98 159.719ZM58 134.719L58 189.719L84 189.719L84 165.719L67 165.719L67 159.719L84 159.719L84 152.719L67 152.719L67 146.719L84 146.719L84 134.719L58 134.719ZM136.75 134.719L136.75 146.719L153 146.719L153 152.719L136.75 152.719L136.75 159.719L153 159.719L153 165.719L136.75 165.719L136.75 189.719L163 189.719L163 134.719L136.75 134.719Z" fill="#ffffff" fill-rule="nonzero" opacity="1" stroke="none"/>
</g>
</svg>
