<?xml version="1.0" encoding="UTF-8" standalone="no"?>
<!DOCTYPE svg PUBLIC "-//W3C//DTD SVG 1.1//EN" "http://www.w3.org/Graphics/SVG/1.1/DTD/svg11.dtd">
<!-- Created with Vectornator (http://vectornator.io/) -->
<svg height="100%" stroke-miterlimit="10" style="fill-rule:nonzero;clip-rule:evenodd;stroke-linecap:round;stroke-linejoin:round;" version="1.1" viewBox="0 0 220 220" width="100%" xml:space="preserve" xmlns="http://www.w3.org/2000/svg" xmlns:vectornator="http://vectornator.io" xmlns:xlink="http://www.w3.org/1999/xlink">
<defs>
<filter color-interpolation-filters="sRGB" filterUnits="userSpaceOnUse" height="110" id="Filter" width="110" x="104.851" y="105.415">
<feDropShadow dx="0" dy="0" flood-color="#000000" flood-opacity="0.5" in="SourceGraphic" result="Shadow" stdDeviation="2"/>
</filter>
</defs>
<g id="com.castsoftware.jeeqr" vectornator:layerName="com.castsoftware.jeeqr">
<g opacity="1" vectornator:layerName="AUTH Copy">
<path d="M10.1486 106.591L10.1486 168.332L109.851 195.551L109.851 133.64L10.1486 106.591Z" fill="#a0c5ca" fill-rule="nonzero" opacity="1" stroke="none" vectornator:layerName="Shape"/>
<path d="M53.3758 150.08C53.3758 153.901 51.1253 156.534 48.1529 156.534C47.6858 156.534 47.2187 156.492 46.7091 156.322C46.1146 156.152 45.5202 155.897 44.9682 155.557C44.586 155.345 44.2463 155.09 43.9066 154.793C42.5478 153.646 41.4013 152.033 40.7219 150.249C40.2972 149.061 40.0425 147.787 40.0425 146.513C40.0425 142.097 43.0149 139.294 46.7091 140.271C48.5775 140.78 50.2335 142.139 51.4225 143.923C51.6773 144.262 51.8896 144.644 52.0594 145.027C52.3567 145.579 52.6115 146.173 52.7813 146.81C52.9087 147.192 52.9936 147.574 53.0786 147.999C53.2909 148.678 53.3758 149.4 53.3758 150.08Z" fill="#7a7a7a" fill-rule="evenodd" opacity="0" stroke="none" vectornator:layerName="Path"/>
<path d="M109.851 133.64L109.851 195.551L209.597 168.714L209.597 106.591L109.851 133.64Z" fill="#c9f8ff" fill-rule="nonzero" opacity="1" stroke="none" vectornator:layerName="Shape"/>
<path d="M109.851 133.64L10.1486 106.591L109.851 79.5849L209.597 106.591L109.851 133.64Z" fill="#bce9f0" fill-rule="nonzero" opacity="1" stroke="none" vectornator:layerName="Shape"/>
<path d="M109.894 111.305C120.494 111.305 129.087 108.605 129.087 105.275C129.087 101.945 120.494 99.2452 109.894 99.2452C99.2937 99.2452 90.7006 101.945 90.7006 105.275C90.7006 108.605 99.2937 111.305 109.894 111.305Z" fill="#7a7a7a" fill-rule="nonzero" opacity="0" stroke="none" vectornator:layerName="Oval"/>
</g>
<g opacity="1" vectornator:layerName="AUTH">
<path d="M10.1486 36.5913L10.1486 98.3323L109.851 125.551L109.851 63.6401L10.1486 36.5913Z" fill="#a0c5ca" fill-rule="nonzero" opacity="1" stroke="none" vectornator:layerName="Shape"/>
<path d="M53.3758 80.0796C53.3758 83.9013 51.1253 86.534 48.1529 86.534C47.6858 86.534 47.2187 86.4915 46.7091 86.3217C46.1146 86.1518 45.5202 85.897 44.9682 85.5573C44.586 85.345 44.2463 85.0902 43.9066 84.793C42.5478 83.6465 41.4013 82.0329 40.7219 80.2495C40.2972 79.0605 40.0425 77.7866 40.0425 76.5127C40.0425 72.0966 43.0149 69.2941 46.7091 70.2707C48.5775 70.7803 50.2335 72.1391 51.4225 73.9225C51.6773 74.2622 51.8896 74.6444 52.0594 75.0265C52.3567 75.5786 52.6115 76.173 52.7813 76.81C52.9087 77.1921 52.9936 77.5743 53.0786 77.9989C53.2909 78.6783 53.3758 79.4002 53.3758 80.0796Z" fill="#7a7a7a" fill-rule="evenodd" opacity="0" stroke="none" vectornator:layerName="Path"/>
<path d="M109.851 63.6401L109.851 125.551L209.597 98.7144L209.597 36.5913L109.851 63.6401Z" fill="#c9f8ff" fill-rule="nonzero" opacity="1" stroke="none" vectornator:layerName="Shape"/>
<path d="M109.851 63.6401L10.1486 36.5913L109.851 9.58493L209.597 36.5913L109.851 63.6401Z" fill="#bce9f0" fill-rule="nonzero" opacity="1" stroke="none" vectornator:layerName="Shape"/>
<path d="M109.894 41.3047C120.494 41.3047 129.087 38.6051 129.087 35.2749C129.087 31.9448 120.494 29.2452 109.894 29.2452C99.2937 29.2452 90.7006 31.9448 90.7006 35.2749C90.7006 38.6051 99.2937 41.3047 109.894 41.3047Z" fill="#7a7a7a" fill-rule="nonzero" opacity="0" stroke="none" vectornator:layerName="Oval"/>
</g>
<path d="M159.851 210.415C187.466 210.415 209.851 188.029 209.851 160.415C209.851 132.801 187.466 110.415 159.851 110.415C132.237 110.415 109.851 132.801 109.851 160.415C109.851 188.029 132.237 210.415 159.851 210.415Z" fill="#ffffff" fill-rule="evenodd" filter="url(#Filter)" stroke="none" vectornator:layerName="Oval" vectornator:shadowAngle="0" vectornator:shadowColor="#000000" vectornator:shadowOffset="0" vectornator:shadowOpacity="0.5" vectornator:shadowRadius="4"/>
<g opacity="1" vectornator:layerName="java">
<g opacity="1" vectornator:layerName="Group">
<path d="M142.162 178.781C141.272 178.781 140.389 178.723 139.515 178.796C138.267 178.891 137.071 179.211 136.022 179.941C136.016 179.947 136.006 179.953 135.997 179.959C135.065 180.646 135.007 181.528 135.914 182.245C136.42 182.648 137.003 182.977 137.598 183.234C139.076 183.881 140.65 184.238 142.235 184.54C145.428 185.141 148.654 185.434 151.896 185.596C155.325 185.767 158.753 185.767 162.182 185.581C166.129 185.364 170.058 184.958 173.897 183.978C175.777 183.499 177.63 182.91 179.249 181.796C179.914 181.341 180.494 180.798 180.853 180.057C181.193 179.348 181.206 178.622 180.973 177.88C180.942 177.786 180.917 177.691 180.874 177.545C181.776 177.984 182.616 178.427 183.23 179.184C183.929 180.035 183.96 181.228 183.355 182.318C182.724 183.45 181.742 184.204 180.651 184.845C178.636 186.032 176.427 186.722 174.179 187.299C171.189 188.062 168.153 188.52 165.089 188.846C161.194 189.264 157.29 189.429 153.377 189.377C150.237 189.331 147.099 189.16 143.977 188.794C141.499 188.501 139.04 188.108 136.623 187.488C134.743 187.006 132.897 186.429 131.192 185.474C130.127 184.879 129.149 184.177 128.511 183.102C127.769 181.845 127.938 180.588 128.977 179.553C129.854 178.683 130.922 178.125 132.078 177.737C134.301 176.986 136.577 176.882 138.889 177.154C139.322 177.206 139.696 177.349 140.058 177.566C140.757 177.981 141.469 178.381 142.162 178.781Z" fill="#5382a1" fill-rule="nonzero" opacity="1" stroke="none" vectornator:layerName="Shape"/>
<path d="M158.137 156.972C157.996 156.874 157.855 156.782 157.717 156.682C155.19 154.841 152.825 152.818 150.743 150.489C149.237 148.802 147.894 147.001 147.056 144.88C146.483 143.439 146.216 141.956 146.523 140.412C146.765 139.185 147.348 138.114 148.074 137.109C149.424 135.257 151.141 133.762 152.883 132.3C154.892 130.615 156.932 128.967 158.925 127.261C160.532 125.884 162.004 124.374 163.123 122.564C163.909 121.3 164.421 119.948 164.448 118.444C164.464 117.641 164.356 116.854 164.08 116.097C164.034 115.975 163.994 115.853 163.952 115.731C163.982 115.718 164.01 115.703 164.037 115.688C164.366 116.28 164.718 116.86 165.019 117.467C165.835 119.112 166.292 120.846 166.233 122.695C166.175 124.419 165.672 126.028 164.887 127.551C163.774 129.718 162.222 131.57 160.563 133.331C158.766 135.239 156.922 137.106 155.147 139.032C154.125 140.14 153.248 141.364 152.724 142.801C152.288 143.998 152.294 145.167 152.782 146.354C154.251 149.943 155.941 153.419 158.051 156.688C158.1 156.761 158.14 156.843 158.183 156.923C158.167 156.935 158.149 156.953 158.137 156.972Z" fill="#e76f00" fill-rule="nonzero" opacity="1" stroke="none" vectornator:layerName="Shape"/>
<path d="M149.501 155.562C148.433 155.879 147.36 156.178 146.302 156.526C145.281 156.862 144.259 157.222 143.361 157.826C143.118 157.988 142.898 158.202 142.714 158.427C142.465 158.726 142.527 159.004 142.892 159.132C143.373 159.3 143.87 159.45 144.373 159.511C145.707 159.663 147.044 159.813 148.387 159.865C152.635 160.051 156.886 159.972 161.133 159.715C163.424 159.578 165.721 159.434 168.006 159.193C170.076 158.977 172.128 158.623 174.189 158.33C174.259 158.321 174.33 158.308 174.434 158.351C174.035 158.678 173.646 159.019 173.232 159.325C172.045 160.204 170.852 161.067 169.656 161.931C169.558 161.998 169.444 162.065 169.331 162.084C166.675 162.483 164.025 162.926 161.357 163.256C157.281 163.759 153.178 163.954 149.071 163.927C146.063 163.909 143.057 163.756 140.085 163.262C138.475 162.996 136.877 162.657 135.427 161.867C135.037 161.653 134.654 161.385 134.356 161.055C133.59 160.219 133.725 159.099 134.633 158.296C135.5 157.533 136.555 157.136 137.644 156.825C140.245 156.087 142.916 155.806 145.603 155.662C146.906 155.595 148.206 155.559 149.507 155.507C149.504 155.528 149.501 155.543 149.501 155.562Z" fill="#5382a1" fill-rule="nonzero" opacity="1" stroke="none" vectornator:layerName="Shape"/>
<path d="M160.59 158.617C161.329 157.957 161.964 157.216 162.495 156.383C163.031 155.531 163.396 154.619 163.446 153.605C163.504 152.458 163.108 151.429 162.513 150.486C161.759 149.293 160.946 148.139 160.189 146.952C159.394 145.713 158.851 144.376 158.759 142.89C158.695 141.8 158.864 140.729 159.18 139.688C159.922 137.241 161.48 135.391 163.525 133.914C165.752 132.312 168.26 131.326 170.883 130.6C172.833 130.059 174.817 129.696 176.863 129.556C176.771 129.62 176.679 129.684 176.587 129.742C174.363 131.143 172.207 132.635 170.14 134.25C168.724 135.355 167.362 136.52 166.178 137.876C165.865 138.239 165.58 138.626 165.301 139.017C164.421 140.238 164.433 141.565 164.954 142.896C165.31 143.793 165.789 144.645 166.218 145.512C166.718 146.525 167.294 147.511 167.721 148.557C168.635 150.785 168.257 152.882 166.856 154.805C165.669 156.428 164.04 157.463 162.191 158.174C161.679 158.369 161.148 158.522 160.624 158.693C160.612 158.665 160.599 158.644 160.59 158.617Z" fill="#e76f00" fill-rule="nonzero" opacity="1" stroke="none" vectornator:layerName="Shape"/>
<path d="M171.732 169.329C171.281 169.503 170.867 169.668 170.441 169.817C167.457 170.855 164.39 171.532 161.259 171.917C158.404 172.265 155.536 172.408 152.659 172.28C149.682 172.14 146.728 171.841 143.855 170.989C142.763 170.666 141.686 170.287 140.763 169.591C140.499 169.396 140.251 169.146 140.058 168.877C139.687 168.358 139.769 167.696 140.239 167.058C140.824 166.262 141.634 165.743 142.502 165.313C143.388 164.87 144.321 164.571 145.308 164.455C145.468 164.437 145.627 164.437 145.848 164.424C145.646 164.638 145.471 164.806 145.32 164.995C144.814 165.606 144.891 166.213 145.544 166.674C146.314 167.217 147.213 167.446 148.12 167.62C151.35 168.239 154.607 168.221 157.873 168.004C160.633 167.821 163.366 167.455 166.019 166.677C166.801 166.448 167.362 166.53 168.009 166.976C169.119 167.745 170.297 168.422 171.441 169.14C171.53 169.192 171.613 169.247 171.732 169.329Z" fill="#5382a1" fill-rule="nonzero" opacity="1" stroke="none" vectornator:layerName="Shape"/>
<path d="M148.12 172.707C147.992 172.906 147.881 173.052 147.798 173.211C147.547 173.687 147.639 174.099 148.071 174.423C148.593 174.816 149.209 174.972 149.835 175.1C151.638 175.463 153.466 175.457 155.291 175.39C157.342 175.317 159.388 175.109 161.394 174.661C162.688 174.374 163.952 173.947 165.233 173.589C165.353 173.556 165.525 173.55 165.62 173.611C167.193 174.615 168.754 175.628 170.321 176.641C170.361 176.666 170.395 176.702 170.49 176.776C169.864 177.087 169.291 177.398 168.699 177.661C166.601 178.579 164.396 179.126 162.145 179.507C159.186 180.008 156.199 180.203 153.196 180.121C150.779 180.057 148.384 179.84 146.057 179.138C145.063 178.836 144.097 178.463 143.321 177.737C142.6 177.053 142.459 176.217 142.919 175.344C143.26 174.694 143.769 174.197 144.376 173.791C145.495 173.049 146.74 172.741 148.12 172.707Z" fill="#5382a1" fill-rule="nonzero" opacity="1" stroke="none" vectornator:layerName="Shape"/>
<path d="M138.589 190.598C139.319 190.754 140.049 190.909 140.778 191.059C143.612 191.639 146.467 192.078 149.344 192.402C153.402 192.85 157.468 193.039 161.547 192.92C167.156 192.762 172.689 192.09 178.087 190.488C181.126 189.588 184.055 188.422 186.711 186.673C187.631 186.069 188.468 185.339 189.345 184.665C189.431 184.598 189.514 184.522 189.646 184.412C189.636 185.104 189.495 185.709 189.256 186.289C188.854 187.262 188.223 188.074 187.456 188.782C185.717 190.384 183.644 191.419 181.454 192.252C178.675 193.308 175.793 193.964 172.855 194.416C169.315 194.965 165.758 195.176 162.179 195.136C159.397 195.106 156.625 194.904 153.865 194.553C149.951 194.05 146.106 193.232 142.349 192.026C141.073 191.614 139.822 191.141 138.561 190.693C138.57 190.665 138.58 190.635 138.589 190.598Z" fill="#5382a1" fill-rule="nonzero" opacity="1" stroke="none" vectornator:layerName="Shape"/>
<path d="M175.621 157.286C176.222 156.95 176.814 156.578 177.44 156.291C178.55 155.787 179.724 155.534 180.954 155.531C183.815 155.522 186.106 157.435 186.508 160.255C187.017 163.799 185.827 166.701 183.058 168.96C181.083 170.565 178.777 171.502 176.339 172.146C175.713 172.314 175.078 172.43 174.446 172.567C174.333 172.588 174.213 172.591 174.075 172.552C174.143 172.497 174.21 172.445 174.278 172.39C176.115 171.035 177.826 169.546 179.283 167.785C180.421 166.411 181.393 164.94 181.871 163.204C182.132 162.258 182.285 161.296 181.945 160.341C181.454 158.964 180.427 158.122 179.093 157.616C177.979 157.194 176.835 157.155 175.67 157.368C175.652 157.341 175.636 157.313 175.621 157.286Z" fill="#5382a1" fill-rule="nonzero" opacity="1" stroke="none" vectornator:layerName="Shape"/>
</g>
</g>
<path d="M58.0664 96.7935C80.3891 100.985 99.8319 97.2117 101.493 88.3652C103.154 79.5188 86.4046 68.9494 64.0819 64.7578C41.7592 60.5661 22.3164 64.3396 20.6553 73.186C18.9942 82.0324 35.7437 92.6018 58.0664 96.7935Z" fill="#0c3270" fill-rule="evenodd" opacity="1" stroke="none" vectornator:layerName="Oval 1"/>
<path d="M20.5437 119.536L20.5437 149.473L20.6999 149.505C19.861 158.227 36.243 168.437 58.0749 172.536C80.3976 176.728 99.82 172.945 101.481 164.098C101.495 164.027 101.47 163.951 101.481 163.88L101.606 163.911L101.606 134.067L101.481 134.036C101.471 134.097 101.493 134.162 101.481 134.223C99.82 143.07 80.3976 146.853 58.0749 142.661C36.1875 138.551 19.7704 128.304 20.6999 119.567L20.5437 119.536Z" fill="#0c3270" fill-rule="nonzero" opacity="1" stroke="none"/>
<path d="M20.5389 81.1338L20.5389 101.259L101.601 123.103L101.601 95.6651L101.476 95.6338C101.467 95.6952 101.488 95.7602 101.476 95.8213C99.8153 104.668 80.3928 108.45 58.0701 104.259C36.1827 100.149 19.7656 89.9019 20.6951 81.1651L20.5389 81.1338ZM20.5389 109.353L20.5389 111.071L20.5437 111.108C20.0816 119.841 36.2382 130.034 58.0701 134.134C75.7949 137.462 91.5358 135.716 98.1639 130.446L20.5389 109.353Z" fill="#0c3270" fill-rule="nonzero" opacity="1" stroke="none"/>
</g>
</svg>
