<?xml version="1.0" encoding="UTF-8" standalone="no"?>
<!DOCTYPE svg PUBLIC "-//W3C//DTD SVG 1.1//EN" "http://www.w3.org/Graphics/SVG/1.1/DTD/svg11.dtd">
<!-- Created with Vectornator (http://vectornator.io/) -->
<svg height="100%" stroke-miterlimit="10" style="fill-rule:nonzero;clip-rule:evenodd;stroke-linecap:round;stroke-linejoin:round;" version="1.1" viewBox="0 0 220 220" width="100%" xml:space="preserve" xmlns="http://www.w3.org/2000/svg" xmlns:xlink="http://www.w3.org/1999/xlink">
<defs>
<path d="M126.8 188C146.75 188 153.125 188 162.125 185C172.73 181.25 181.25 172.73 185 162.125C188 153.125 188 146.75 188 126.8C188 126.8 188 69.2 188 69.2C188 49.25 188 42.875 185 33.875C181.243 23.27 172.73 14.75 162.125 11C153.125 8 146.75 8 126.8 8L69.2 8C49.25 8 42.875 8 33.875 11C23.27 14.75 14.75 23.27 11 33.875C8 42.875 8 49.25 8 69.2L8 126.8C8 146.75 8 153.125 11 162.125C14.75 172.625 23.39 181.25 33.89 185C42.89 188 49.25 188 69.2 188C58.7 188 126.8 188 126.8 188Z" id="Fill"/>
<path d="M176.64 212C188.167 212 191.85 212 197.05 210.267C203.177 208.1 208.1 203.177 210.267 197.05C212 191.85 212 188.167 212 176.64C212 176.64 212 143.36 212 143.36C212 131.833 212 128.15 210.267 122.95C208.096 116.823 203.177 111.9 197.05 109.733C191.85 108 188.167 108 176.64 108L143.36 108C131.833 108 128.15 108 122.95 109.733C116.823 111.9 111.9 116.823 109.733 122.95C108 128.15 108 131.833 108 143.36L108 176.64C108 188.167 108 191.85 109.733 197.05C111.9 203.117 116.892 208.1 122.959 210.267C128.159 212 131.833 212 143.36 212C137.293 212 176.64 212 176.64 212Z" id="Fill_2"/>
<linearGradient gradientTransform="matrix(-1 0 0 -1 352 352)" gradientUnits="userSpaceOnUse" id="LinearGradient" x1="190.24" x2="190.24" y1="244" y2="140">
<stop offset="0" stop-color="#fbad3f"/>
<stop offset="1" stop-color="#ff3727"/>
</linearGradient>
<linearGradient gradientTransform="matrix(0.71934 0.694658 -0.694658 0.71934 128.929 -98.5081)" gradientUnits="userSpaceOnUse" id="LinearGradient_2" x1="150.785" x2="209.857" y1="138.246" y2="162.57">
<stop offset="0" stop-color="#fbad3f"/>
<stop offset="0.601368" stop-color="#eb652f"/>
<stop offset="1" stop-color="#ce4521"/>
</linearGradient>
</defs>
<g id="com.castsoftware.iosswift">
<g opacity="1">
<use fill="#242424" fill-rule="evenodd" opacity="1" stroke="none" xlink:href="#Fill"/>
<clipPath id="ClipPath">
<use xlink:href="#Fill"/>
</clipPath>
<g clip-path="url(#ClipPath)">
<path d="M37.7895 65.1688C37.7895 67.3355 37.0776 69.0875 35.6599 70.4309C34.2423 71.7742 32.4098 72.449 30.1688 72.449C28.1506 72.449 26.4544 71.7619 25.0739 70.3752C23.6872 68.9946 23 67.2612 23 65.1688C23 63.0764 23.7119 61.3615 25.1296 60.0182C26.5473 58.6686 28.3054 58 30.3917 58C32.4841 58 34.2361 58.6686 35.6537 60.0182C37.0776 61.3615 37.7895 63.0825 37.7895 65.1688ZM36.4461 135.86L24.3434 135.86L24.3434 81.4131L36.44 81.4131L36.44 135.86L36.4461 135.86ZM117.098 97.3232C117.098 108.751 114.189 118.087 108.363 125.33C102.092 133.173 93.3879 137.092 82.2633 137.092C71.733 137.092 63.3694 133.248 57.1725 125.553C51.4152 118.458 48.5427 109.494 48.5427 98.6665C48.5427 87.6162 51.5266 78.3921 57.5068 70.9942C63.9265 63.0825 72.513 59.1205 83.2662 59.1205C93.8708 59.1205 102.272 62.9278 108.475 70.5485C114.226 77.5687 117.098 86.4957 117.098 97.3232ZM104.215 97.7689C104.215 90.3029 102.538 83.877 99.1762 78.4973C95.2947 72.0776 89.8407 68.8646 82.8205 68.8646C75.5774 68.8646 70.012 72.1519 66.1304 78.7202C62.8432 84.0999 61.1965 90.6372 61.1965 98.3322C61.1965 105.879 62.8741 112.336 66.2357 117.709C70.1915 124.135 75.6826 127.342 82.7028 127.342C89.9459 127.342 95.5113 124.054 99.3929 117.486C102.612 112.106 104.215 105.538 104.215 97.7689ZM173 114.682C173 121.108 170.759 126.333 166.277 130.363C161.349 134.771 154.478 136.974 145.662 136.974C137.521 136.974 130.99 135.408 126.056 132.27L128.854 122.191C134.16 125.33 139.979 126.896 146.331 126.896C150.887 126.896 154.434 125.868 156.972 123.813C159.511 121.758 160.78 119.015 160.78 115.579C160.78 112.515 159.733 109.94 157.641 107.847C155.548 105.755 152.076 103.811 147.222 102.022C134.005 97.0941 127.393 89.8882 127.393 80.3979C127.393 74.201 129.727 69.1246 134.395 65.1626C139.063 61.2068 145.241 59.2258 152.936 59.2258C159.808 59.2258 165.522 60.4206 170.078 62.8102L167.063 72.6719C162.804 70.3566 157.988 69.1989 152.614 69.1989C148.355 69.1989 145.031 70.2452 142.647 72.3376C140.629 74.2072 139.62 76.4853 139.62 79.1721C139.62 82.1622 140.778 84.6261 143.093 86.5638C145.111 88.3529 148.77 90.2967 154.069 92.3892C160.569 95.0017 165.342 98.066 168.407 101.576C171.471 105.086 173 109.457 173 114.682Z" fill="#ffffff" fill-rule="nonzero" opacity="1" stroke="none"/>
</g>
</g>
<g opacity="1">
<use fill="url(#LinearGradient)" fill-rule="evenodd" opacity="1" stroke="none" xlink:href="#Fill_2"/>
<clipPath id="ClipPath_2">
<use xlink:href="#Fill_2"/>
</clipPath>
<g clip-path="url(#ClipPath_2)">
<path d="M92.6266 96.6108L92.1705 97.0831C79.7032 109.993 80.0623 130.566 92.9726 143.033L122.966 171.997C135.876 184.465 156.449 184.106 168.916 171.195L169.372 170.723C181.839 157.813 181.48 137.24 168.57 124.773L138.577 95.8087C125.667 83.3414 105.094 83.7005 92.6266 96.6108Z" fill="url(#LinearGradient_2)" fill-rule="evenodd" opacity="1" stroke="none"/>
<path d="M167.211 123.438C200.361 144.888 190.225 171.863 190.225 171.863C190.225 171.863 193.8 175.925 195.587 180.963C197.375 186 197.355 192.175 197.03 192.338C196.705 192.5 192.515 185.35 185.187 185.35C177.86 185.35 174.137 192.337 161.137 192.338C131.867 192.338 119.172 168.328 119.172 168.328C119.172 168.328 132.05 177.55 145.538 177.225C159.025 176.9 162.762 173 162.762 173C162.762 173 156.732 167.954 146.35 157.806C135.968 147.659 126.2 133.675 126.2 133.675C126.2 133.675 141.85 146.078 146.87 149.727C151.889 153.375 156.909 156.682 156.909 156.682C156.909 156.682 152.048 151.437 148.625 147.218C145.202 143 136.438 130.263 136.438 130.263C136.438 130.263 149.88 142.399 155.996 147.218C162.113 152.038 173.813 160.163 173.813 160.163C173.813 160.163 180.861 144.075 167.211 123.438Z" fill="#ffffff" fill-rule="evenodd" opacity="1" stroke="none"/>
</g>
</g>
</g>
</svg>
