<?xml version="1.0" encoding="UTF-8" standalone="no"?>
<!DOCTYPE svg PUBLIC "-//W3C//DTD SVG 1.1//EN" "http://www.w3.org/Graphics/SVG/1.1/DTD/svg11.dtd">
<!-- Created with Vectornator (http://vectornator.io/) -->
<svg height="100%" stroke-miterlimit="10" style="fill-rule:nonzero;clip-rule:evenodd;stroke-linecap:round;stroke-linejoin:round;" version="1.1" viewBox="0 0 260 260" width="100%" xml:space="preserve" xmlns="http://www.w3.org/2000/svg" xmlns:xlink="http://www.w3.org/1999/xlink">
<defs/>
<g id="com.castsoftware.jee">
<g opacity="1">
<g opacity="1">
<path d="M79.7814 200.52C77.1051 200.52 74.4473 200.345 71.8171 200.566C68.0611 200.852 64.4619 201.819 61.3057 204.02C61.2873 204.039 61.2596 204.057 61.2319 204.075C58.4264 206.148 58.2511 208.81 60.9827 210.974C62.5055 212.19 64.2589 213.185 66.0493 213.959C70.4974 215.911 75.2317 216.989 80.0029 217.901C89.6099 219.715 99.3184 220.6 109.073 221.088C119.391 221.604 129.708 221.604 140.026 221.042C151.903 220.388 163.725 219.163 175.279 216.206C180.936 214.76 186.51 212.982 191.383 209.62C193.386 208.248 195.13 206.608 196.21 204.37C197.234 202.233 197.271 200.041 196.57 197.803C196.477 197.517 196.404 197.232 196.274 196.79C198.988 198.116 201.516 199.452 203.362 201.736C205.466 204.306 205.558 207.907 203.74 211.195C201.839 214.613 198.886 216.888 195.601 218.822C189.537 222.405 182.893 224.487 176.128 226.227C167.13 228.53 157.994 229.912 148.775 230.897C137.054 232.159 125.306 232.657 113.531 232.5C104.08 232.362 94.6395 231.846 85.2448 230.741C77.7881 229.857 70.3867 228.668 63.1146 226.799C57.4574 225.343 51.9018 223.602 46.7707 220.719C43.5683 218.923 40.6244 216.805 38.7048 213.563C36.4715 209.768 36.9791 205.973 40.1076 202.85C42.747 200.225 45.9585 198.54 49.4377 197.37C56.1285 195.104 62.9761 194.791 69.9345 195.611C71.2357 195.767 72.3616 196.2 73.4506 196.854C75.5547 198.107 77.6958 199.313 79.7814 200.52Z" fill="#5382a1" fill-rule="nonzero" opacity="1" stroke="none"/>
<path d="M127.853 134.7C127.429 134.405 127.004 134.129 126.589 133.825C118.985 128.271 111.869 122.164 105.603 115.136C101.072 110.042 97.0297 104.608 94.5103 98.2065C92.7846 93.859 91.9817 89.3825 92.9045 84.7218C93.6336 81.0191 95.387 77.7861 97.5742 74.7557C101.635 69.1648 106.803 64.6515 112.045 60.2395C118.089 55.1552 124.226 50.1813 130.225 45.0325C135.061 40.8784 139.491 36.3191 142.859 30.857C145.222 27.0438 146.763 22.9634 146.846 18.4225C146.892 16 146.569 13.6236 145.738 11.3393C145.6 10.9709 145.48 10.6025 145.351 10.2341C145.443 10.1972 145.526 10.1512 145.609 10.1051C146.597 11.892 147.658 13.6421 148.562 15.475C151.017 20.4396 152.392 25.6714 152.217 31.2531C152.042 36.4572 150.528 41.3113 148.166 45.9075C144.816 52.4472 140.146 58.0381 135.153 63.3528C129.745 69.1095 124.199 74.7465 118.855 80.5586C115.782 83.9021 113.143 87.5956 111.565 91.9339C110.254 95.5445 110.273 99.0723 111.74 102.655C116.161 113.487 121.246 123.978 127.595 133.843C127.743 134.064 127.863 134.313 127.992 134.552C127.946 134.589 127.89 134.644 127.853 134.7Z" fill="#e76f00" fill-rule="nonzero" opacity="1" stroke="none"/>
<path d="M101.866 130.444C98.654 131.402 95.424 132.305 92.2401 133.355C89.1669 134.368 86.0938 135.455 83.3898 137.279C82.6608 137.767 81.9963 138.412 81.4426 139.093C80.6951 139.996 80.8796 140.834 81.9779 141.221C83.4267 141.728 84.9218 142.179 86.4353 142.363C90.4497 142.824 94.4734 143.275 98.5155 143.432C111.297 143.993 124.088 143.754 136.87 142.98C143.763 142.566 150.676 142.133 157.551 141.405C163.78 140.751 169.954 139.683 176.156 138.798C176.368 138.771 176.58 138.734 176.894 138.863C175.695 139.849 174.522 140.88 173.277 141.801C169.705 144.454 166.115 147.061 162.516 149.667C162.221 149.87 161.879 150.073 161.538 150.128C153.546 151.334 145.572 152.67 137.543 153.665C125.279 155.184 112.931 155.774 100.574 155.691C91.5202 155.636 82.4762 155.175 73.5337 153.683C68.6886 152.882 63.8805 151.859 59.5154 149.474C58.3434 148.829 57.1898 148.018 56.2946 147.024C53.9874 144.5 54.3935 141.12 57.1252 138.697C59.7369 136.394 62.9115 135.197 66.1877 134.258C74.0136 132.029 82.0517 131.181 90.136 130.748C94.0581 130.546 97.9711 130.435 101.884 130.278C101.875 130.343 101.866 130.389 101.866 130.444Z" fill="#5382a1" fill-rule="nonzero" opacity="1" stroke="none"/>
<path d="M135.236 139.664C137.46 137.675 139.371 135.437 140.967 132.922C142.582 130.352 143.68 127.598 143.828 124.54C144.003 121.077 142.813 117.973 141.023 115.127C138.752 111.525 136.307 108.044 134.027 104.461C131.637 100.721 130.004 96.6867 129.727 92.201C129.533 88.9128 130.041 85.6798 130.991 82.5389C133.224 75.1518 137.913 69.5701 144.068 65.112C150.768 60.2764 158.317 57.3013 166.207 55.1091C172.077 53.4788 178.048 52.3827 184.203 51.959C183.926 52.1524 183.65 52.3459 183.373 52.5209C176.682 56.7486 170.194 61.2527 163.974 66.1252C159.711 69.4595 155.613 72.9781 152.051 77.0677C151.109 78.1637 150.251 79.3335 149.411 80.5125C146.763 84.1968 146.8 88.2035 148.369 92.2194C149.439 94.9274 150.879 97.4972 152.171 100.113C153.675 103.171 155.41 106.146 156.693 109.305C159.443 116.029 158.308 122.357 154.09 128.16C150.519 133.06 145.618 136.183 140.054 138.329C138.512 138.918 136.916 139.379 135.338 139.895C135.301 139.812 135.264 139.747 135.236 139.664Z" fill="#e76f00" fill-rule="nonzero" opacity="1" stroke="none"/>
<path d="M168.764 171.994C167.407 172.519 166.161 173.017 164.879 173.468C155.899 176.6 146.67 178.644 137.248 179.805C128.656 180.855 120.027 181.288 111.371 180.901C102.41 180.477 93.5229 179.575 84.8756 177.005C81.5903 176.029 78.351 174.886 75.5732 172.786C74.7795 172.197 74.032 171.442 73.4506 170.631C72.3339 169.065 72.5831 167.066 73.9951 165.141C75.7578 162.737 78.1941 161.172 80.8058 159.873C83.4729 158.537 86.2784 157.635 89.25 157.285C89.7299 157.229 90.2098 157.229 90.8742 157.192C90.2652 157.837 89.7391 158.344 89.2869 158.915C87.7642 160.757 87.9949 162.59 89.9606 163.981C92.277 165.62 94.981 166.311 97.7127 166.836C107.43 168.706 117.231 168.651 127.06 167.997C135.365 167.444 143.588 166.339 151.571 163.99C153.924 163.299 155.613 163.548 157.56 164.893C160.901 167.214 164.445 169.259 167.887 171.423C168.155 171.58 168.404 171.746 168.764 171.994Z" fill="#5382a1" fill-rule="nonzero" opacity="1" stroke="none"/>
<path d="M97.7127 182.191C97.3251 182.789 96.9928 183.231 96.7436 183.71C95.9869 185.147 96.2638 186.391 97.565 187.367C99.1339 188.555 100.989 189.025 102.871 189.412C108.298 190.508 113.798 190.49 119.289 190.287C125.463 190.066 131.619 189.439 137.654 188.085C141.549 187.22 145.351 185.93 149.208 184.853C149.568 184.751 150.085 184.733 150.371 184.917C155.105 187.947 159.803 191.005 164.519 194.063C164.639 194.137 164.74 194.248 165.026 194.469C163.144 195.408 161.418 196.348 159.637 197.14C153.324 199.912 146.689 201.561 139.915 202.712C131.01 204.223 122.021 204.812 112.986 204.564C105.714 204.37 98.5063 203.716 91.5018 201.598C88.5117 200.686 85.6047 199.562 83.2699 197.37C81.1011 195.307 80.6766 192.783 82.0609 190.149C83.0853 188.187 84.6172 186.685 86.4445 185.46C89.813 183.222 93.5598 182.292 97.7127 182.191Z" fill="#5382a1" fill-rule="nonzero" opacity="1" stroke="none"/>
<path d="M69.0301 236.184C71.2265 236.654 73.4229 237.124 75.6193 237.575C84.1466 239.325 92.7384 240.652 101.395 241.628C113.604 242.982 125.841 243.553 138.116 243.194C154.995 242.715 171.643 240.688 187.886 235.853C197.031 233.136 205.844 229.617 213.836 224.339C216.605 222.515 219.124 220.314 221.764 218.279C222.022 218.076 222.271 217.846 222.668 217.514C222.641 219.605 222.216 221.429 221.496 223.179C220.287 226.117 218.386 228.567 216.079 230.704C210.846 235.54 204.608 238.662 198.019 241.177C189.657 244.364 180.983 246.344 172.141 247.707C161.492 249.365 150.786 250.001 140.017 249.881C131.646 249.789 123.304 249.181 114.998 248.122C103.222 246.602 91.6494 244.133 80.3444 240.495C76.5053 239.252 72.74 237.824 68.947 236.47C68.9747 236.387 69.0024 236.295 69.0301 236.184Z" fill="#5382a1" fill-rule="nonzero" opacity="1" stroke="none"/>
<path d="M180.466 135.648C182.275 134.635 184.056 133.511 185.938 132.646C189.279 131.126 192.814 130.361 196.514 130.352C205.125 130.325 212.018 136.1 213.227 144.61C214.759 155.304 211.179 164.064 202.845 170.88C196.902 175.725 189.962 178.552 182.625 180.496C180.743 181.002 178.832 181.352 176.931 181.767C176.59 181.831 176.23 181.841 175.814 181.721C176.018 181.555 176.221 181.398 176.424 181.233C181.952 177.143 187.101 172.648 191.485 167.334C194.908 163.189 197.834 158.749 199.274 153.508C200.058 150.653 200.519 147.751 199.495 144.868C198.019 140.714 194.927 138.172 190.913 136.643C187.563 135.372 184.12 135.252 180.613 135.897C180.558 135.814 180.512 135.731 180.466 135.648Z" fill="#5382a1" fill-rule="nonzero" opacity="1" stroke="none"/>
</g>
</g>
</g>
</svg>
