<?xml version="1.0" encoding="UTF-8" standalone="no"?>
<!DOCTYPE svg PUBLIC "-//W3C//DTD SVG 1.1//EN" "http://www.w3.org/Graphics/SVG/1.1/DTD/svg11.dtd">
<!-- Created with Vectornator (http://vectornator.io/) -->
<svg height="100%" stroke-miterlimit="10" style="fill-rule:nonzero;clip-rule:evenodd;stroke-linecap:round;stroke-linejoin:round;" version="1.1" viewBox="0 0 200 200" width="100%" xml:space="preserve" xmlns="http://www.w3.org/2000/svg" xmlns:xlink="http://www.w3.org/1999/xlink">
<defs>
<linearGradient gradientTransform="matrix(-1 0 0 -1 230 230)" gradientUnits="userSpaceOnUse" id="LinearGradient" x1="126.955" x2="126.955" y1="220" y2="40">
<stop offset="0" stop-color="#6ec9f6"/>
<stop offset="1" stop-color="#1a73e4"/>
</linearGradient>
</defs>
<g id="com.castsoftware.objective-c">
<g opacity="1">
<g opacity="1">
<path d="M128.8 190C148.75 190 155.125 190 164.125 187C174.73 183.25 183.25 174.73 187 164.125C190 155.125 190 148.75 190 128.8C190 128.8 190 71.2 190 71.2C190 51.25 190 44.875 187 35.875C183.243 25.27 174.73 16.75 164.125 13C155.125 10 148.75 10 128.8 10L71.2 10C51.25 10 44.875 10 35.875 13C25.27 16.75 16.75 25.27 13 35.875C10 44.875 10 51.25 10 71.2L10 128.8C10 148.75 10 155.125 13 164.125C16.75 174.625 25.39 183.25 35.89 187C44.89 190 51.25 190 71.2 190C60.7 190 128.8 190 128.8 190Z" fill="url(#LinearGradient)" fill-rule="evenodd" opacity="1" stroke="none"/>
</g>
<path d="M35.0455 77.209L28.9465 77.209L28.9465 122.353L35.0455 122.353L35.0455 126.229L24.3865 126.229L24.3865 73.333L35.0455 73.333L35.0455 77.209ZM42.6265 94.651C42.6265 96.703 42.8925 98.7265 43.4245 100.721C43.9565 102.717 44.7925 104.512 45.9325 106.108C47.0725 107.704 48.5355 108.986 50.3215 109.956C52.1075 110.925 54.2355 111.409 56.7055 111.409C59.1755 111.409 61.3035 110.925 63.0895 109.956C64.8755 108.986 66.3385 107.704 67.4785 106.108C68.6185 104.512 69.4545 102.717 69.9865 100.721C70.5185 98.7265 70.7845 96.703 70.7845 94.651C70.7845 92.599 70.5185 90.5755 69.9865 88.5805C69.4545 86.5855 68.6185 84.79 67.4785 83.194C66.3385 81.598 64.8755 80.3155 63.0895 79.3465C61.3035 78.3775 59.1755 77.893 56.7055 77.893C54.2355 77.893 52.1075 78.3775 50.3215 79.3465C48.5355 80.3155 47.0725 81.598 45.9325 83.194C44.7925 84.79 43.9565 86.5855 43.4245 88.5805C42.8925 90.5755 42.6265 92.599 42.6265 94.651ZM37.2115 94.651C37.2115 91.877 37.62 89.2075 38.437 86.6425C39.254 84.0775 40.4795 81.807 42.1135 79.831C43.7475 77.855 45.7805 76.278 48.2125 75.1C50.6445 73.922 53.4755 73.333 56.7055 73.333C59.9355 73.333 62.7665 73.922 65.1985 75.1C67.6305 76.278 69.6635 77.855 71.2975 79.831C72.9315 81.807 74.157 84.0775 74.974 86.6425C75.791 89.2075 76.1995 91.877 76.1995 94.651C76.1995 97.425 75.791 100.094 74.974 102.66C74.157 105.225 72.9315 107.495 71.2975 109.471C69.6635 111.447 67.6305 113.014 65.1985 114.173C62.7665 115.333 59.9355 115.912 56.7055 115.912C53.4755 115.912 50.6445 115.333 48.2125 114.173C45.7805 113.014 43.7475 111.447 42.1135 109.471C40.4795 107.495 39.254 105.225 38.437 102.66C37.62 100.094 37.2115 97.425 37.2115 94.651ZM82.1845 74.302L87.0295 74.302L87.0295 89.521L87.1435 89.521C87.9415 87.887 89.1955 86.6995 90.9055 85.9585C92.6155 85.2175 94.4965 84.847 96.5485 84.847C98.8285 84.847 100.814 85.265 102.505 86.101C104.196 86.937 105.602 88.0675 106.723 89.4925C107.844 90.9175 108.689 92.561 109.259 94.423C109.83 96.285 110.114 98.261 110.114 100.351C110.114 102.441 109.839 104.417 109.288 106.279C108.737 108.141 107.901 109.765 106.78 111.153C105.659 112.54 104.253 113.632 102.562 114.43C100.871 115.228 98.9045 115.627 96.6625 115.627C95.9405 115.627 95.133 115.551 94.24 115.399C93.347 115.247 92.4635 115 91.5895 114.658C90.7155 114.316 89.889 113.851 89.11 113.262C88.331 112.672 87.6755 111.941 87.1435 111.067L87.0295 111.067L87.0295 115L82.1845 115L82.1845 74.302ZM104.984 100.009C104.984 98.641 104.804 97.3015 104.443 95.9905C104.082 94.6795 103.531 93.511 102.79 92.485C102.049 91.459 101.099 90.642 99.94 90.034C98.781 89.426 97.4225 89.122 95.8645 89.122C94.2305 89.122 92.8435 89.445 91.7035 90.091C90.5635 90.737 89.6325 91.5825 88.9105 92.6275C88.1885 93.6725 87.666 94.86 87.343 96.19C87.02 97.52 86.8585 98.869 86.8585 100.237C86.8585 101.681 87.0295 103.077 87.3715 104.427C87.7135 105.776 88.255 106.963 88.996 107.989C89.737 109.015 90.6965 109.841 91.8745 110.469C93.0525 111.096 94.4775 111.409 96.1495 111.409C97.8215 111.409 99.218 111.086 100.339 110.44C101.46 109.794 102.362 108.939 103.046 107.875C103.731 106.811 104.224 105.595 104.528 104.227C104.833 102.859 104.984 101.453 104.984 100.009ZM120.944 80.23L116.099 80.23L116.099 74.302L120.944 74.302L120.944 80.23ZM120.944 118.705C120.944 121.327 120.308 123.236 119.035 124.434C117.762 125.631 116.043 126.229 113.876 126.229C113.002 126.229 112.186 126.153 111.425 126.001L111.425 121.84C111.616 121.878 111.777 121.906 111.91 121.925C112.043 121.945 112.185 121.954 112.337 121.954L113.363 121.954C114.428 121.954 115.149 121.66 115.529 121.071C115.91 120.481 116.099 119.427 116.099 117.907L116.099 85.531L120.944 85.531L120.944 118.705ZM157.88 86.557C157.272 83.669 155.933 81.503 153.862 80.059C151.791 78.615 149.331 77.893 146.48 77.893C144.048 77.893 141.968 78.349 140.239 79.261C138.51 80.173 137.085 81.3985 135.964 82.9375C134.843 84.4765 134.017 86.234 133.484 88.21C132.952 90.186 132.686 92.238 132.686 94.366C132.686 96.684 132.952 98.8785 133.484 100.95C134.017 103.021 134.843 104.825 135.964 106.364C137.085 107.904 138.519 109.129 140.267 110.041C142.016 110.953 144.105 111.409 146.537 111.409C148.324 111.409 149.91 111.115 151.297 110.525C152.684 109.936 153.881 109.12 154.888 108.075C155.895 107.029 156.683 105.785 157.253 104.341C157.824 102.897 158.165 101.339 158.279 99.667L163.694 99.667C163.162 104.797 161.396 108.787 158.393 111.637C155.391 114.487 151.288 115.912 146.081 115.912C142.927 115.912 140.173 115.371 137.816 114.287C135.46 113.204 133.504 111.713 131.945 109.813C130.387 107.913 129.219 105.671 128.44 103.087C127.661 100.503 127.271 97.729 127.271 94.765C127.271 91.801 127.689 89.0175 128.525 86.4145C129.362 83.8115 130.587 81.541 132.202 79.603C133.817 77.665 135.831 76.1355 138.244 75.0145C140.657 73.8935 143.421 73.333 146.537 73.333C148.666 73.333 150.679 73.618 152.579 74.188C154.48 74.758 156.17 75.594 157.652 76.696C159.135 77.798 160.369 79.1755 161.357 80.8285C162.346 82.4815 162.991 84.391 163.295 86.557L157.88 86.557ZM165.974 122.353L172.073 122.353L172.073 77.209L165.974 77.209L165.974 73.333L176.633 73.333L176.633 126.229L165.974 126.229L165.974 122.353Z" fill="#ffffff" fill-rule="evenodd" opacity="1" stroke="none"/>
</g>
</g>
</svg>
