<?xml version="1.0" encoding="UTF-8" standalone="no"?>
<!DOCTYPE svg PUBLIC "-//W3C//DTD SVG 1.1//EN" "http://www.w3.org/Graphics/SVG/1.1/DTD/svg11.dtd">
<!-- Created with Vectornator (http://vectornator.io/) -->
<svg height="100%" stroke-miterlimit="10" style="fill-rule:nonzero;clip-rule:evenodd;stroke-linecap:round;stroke-linejoin:round;" version="1.1" viewBox="0 0 200 200" width="100%" xml:space="preserve" xmlns="http://www.w3.org/2000/svg" xmlns:vectornator="http://vectornator.io" xmlns:xlink="http://www.w3.org/1999/xlink">
<defs>
<filter color-interpolation-filters="sRGB" filterUnits="userSpaceOnUse" height="110" id="Filter" width="110" x="88.3561" y="89.5069">
<feDropShadow dx="0" dy="0" flood-color="#000000" flood-opacity="0.5" in="SourceGraphic" result="Shadow" stdDeviation="2"/>
</filter>
</defs>
<g id="com.castsoftware.sqlanalyzer" vectornator:layerName="com.castsoftware.sqlanalyzer">
<g opacity="1" vectornator:layerName="database">
<g opacity="1" vectornator:layerName="Group">
<path d="M163.11 121.218L163.11 88.6867C149.103 96.7051 122.404 102.133 91.7251 102.133C60.1105 102.133 32.7309 96.3672 19.1098 87.9444L19.1098 120.509C32.7309 128.932 60.1105 134.697 91.7251 134.697C122.43 134.69 149.122 129.25 163.11 121.218Z" fill="#4a4a4a" fill-rule="evenodd" opacity="1" stroke="none" vectornator:layerName="Shape"/>
<path d="M91.7251 81.1254C122.43 81.1254 149.129 75.6848 163.11 67.653L163.11 24.817L19.1098 24.817L19.1098 66.9439C32.7309 75.36 60.1105 81.1254 91.7251 81.1254Z" fill="#9b9b9b" fill-rule="evenodd" opacity="1" stroke="none" vectornator:layerName="Shape"/>
<path d="M91.7251 155.697C60.1105 155.697 32.7309 149.932 19.1098 141.503L19.1098 171.715C19.1229 182.39 51.3527 191.038 91.1098 191.038C130.867 191.038 163.097 182.39 163.11 171.715L163.11 142.245C149.103 150.27 122.404 155.697 91.7251 155.697Z" fill="#000000" fill-rule="evenodd" opacity="1" stroke="none" vectornator:layerName="Shape"/>
</g>
<path d="M91.1098 5.49312C130.873 5.49312 163.11 14.1478 163.11 24.817C163.11 35.4929 130.873 44.1476 91.1098 44.1476C51.3461 44.1476 19.1098 35.4929 19.1098 24.817C19.1098 14.1412 51.3461 5.49312 91.1098 5.49312Z" fill="#cfcecf" fill-rule="evenodd" opacity="1" stroke="none" vectornator:layerName="Shape"/>
</g>
<path d="M143.356 194.507C170.97 194.507 193.356 172.121 193.356 144.507C193.356 116.893 170.97 94.5069 143.356 94.5069C115.742 94.5069 93.3561 116.893 93.3561 144.507C93.3561 172.121 115.742 194.507 143.356 194.507Z" fill="#ffffff" fill-rule="evenodd" filter="url(#Filter)" stroke="none" vectornator:layerName="Oval" vectornator:shadowAngle="0" vectornator:shadowColor="#000000" vectornator:shadowOffset="0" vectornator:shadowOpacity="0.5" vectornator:shadowRadius="4"/>
<g opacity="1" vectornator:layerName="Group">
<path d="M143.371 186.586C142.239 186.586 141.114 186.291 140.122 185.722L129.779 179.627C128.234 178.767 128.988 178.463 129.498 178.287C131.557 177.569 131.975 177.407 134.174 176.164C134.405 176.033 134.707 176.08 134.944 176.218L142.889 180.912C143.176 181.066 143.583 181.066 143.849 180.912L174.83 163.111C175.116 162.949 175.303 162.617 175.303 162.277L175.303 126.691C175.303 126.336 175.116 126.02 174.823 125.842L143.855 108.057C143.569 107.887 143.189 107.887 142.902 108.057L111.94 125.842C111.64 126.012 111.449 126.344 111.449 126.684L111.449 162.27C111.449 162.609 111.635 162.934 111.93 163.096L120.414 167.974C125.02 170.267 127.835 167.565 127.835 164.848L127.835 129.725C127.835 129.223 128.23 128.837 128.734 128.837L132.658 128.837C133.147 128.837 133.55 129.223 133.55 129.725L133.55 164.863C133.55 170.977 130.2 174.489 124.376 174.489C122.585 174.489 121.174 174.489 117.234 172.56L109.107 167.897C107.099 166.739 105.858 164.578 105.858 162.27L105.858 126.684C105.858 124.368 107.099 122.206 109.107 121.064L140.118 103.255C142.08 102.151 144.686 102.151 146.632 103.255L177.605 121.072C179.606 122.222 180.854 124.375 180.854 126.691L180.854 162.277C180.854 164.585 179.606 166.739 177.605 167.897L146.632 185.706C145.64 186.277 144.515 186.57 143.368 186.57" fill="#689f63" fill-rule="nonzero" opacity="1" stroke="none" vectornator:layerName="Shape"/>
<path d="M152.94 162.065C139.385 162.065 136.543 155.871 136.543 150.676C136.543 150.182 136.943 149.788 137.44 149.788L141.441 149.788C141.883 149.788 142.256 150.109 142.325 150.543C142.93 154.602 144.729 156.649 152.926 156.649C159.456 156.649 162.232 155.181 162.232 151.734C162.232 149.75 161.441 148.276 151.298 147.288C142.814 146.454 137.572 144.594 137.572 137.84C137.572 131.618 142.845 127.912 151.678 127.912C161.596 127.912 166.513 131.34 167.133 138.704C167.156 138.959 167.063 139.206 166.893 139.391C166.722 139.569 166.482 139.677 166.233 139.677L162.209 139.677C161.79 139.677 161.425 139.383 161.34 138.982C160.371 134.713 158.029 133.347 151.662 133.347C144.536 133.347 143.706 135.817 143.706 137.67C143.706 139.916 144.683 140.572 154.299 141.838C163.822 143.096 168.343 144.872 168.343 151.534C168.343 158.249 162.713 162.101 152.895 162.101L152.94 162.065Z" fill="#689f63" fill-rule="nonzero" opacity="1" stroke="none" vectornator:layerName="Shape"/>
</g>
</g>
</svg>
