<?xml version="1.0" encoding="UTF-8" standalone="no"?>
<!DOCTYPE svg PUBLIC "-//W3C//DTD SVG 1.1//EN" "http://www.w3.org/Graphics/SVG/1.1/DTD/svg11.dtd">
<!-- Created with Vectornator (http://vectornator.io/) -->
<svg height="100%" stroke-miterlimit="10" style="fill-rule:nonzero;clip-rule:evenodd;stroke-linecap:round;stroke-linejoin:round;" version="1.1" viewBox="0 0 256 256" width="100%" xml:space="preserve" xmlns="http://www.w3.org/2000/svg" xmlns:vectornator="http://vectornator.io" xmlns:xlink="http://www.w3.org/1999/xlink">
<defs>
<linearGradient gradientTransform="matrix(0.786216 0 0 0.786216 80.8209 95.6475)" gradientUnits="userSpaceOnUse" id="LinearGradient" x1="141.349" x2="141.349" y1="258.046" y2="85.4829">
<stop offset="0.3033" stop-color="#473788"/>
<stop offset="0.872" stop-color="#2c2255"/>
</linearGradient>
<linearGradient gradientTransform="matrix(0.786216 0 0 0.786216 80.8209 95.6475)" gradientUnits="userSpaceOnUse" id="LinearGradient_2" x1="141.349" x2="141.349" y1="258.049" y2="85.4853">
<stop offset="0.3033" stop-color="#473788"/>
<stop offset="0.872" stop-color="#2c2255"/>
</linearGradient>
<linearGradient gradientTransform="matrix(0.786216 0 0 0.786216 80.8209 95.6475)" gradientUnits="userSpaceOnUse" id="LinearGradient_3" x1="141.349" x2="141.349" y1="258.044" y2="85.4893">
<stop offset="0.3033" stop-color="#473788"/>
<stop offset="0.8631" stop-color="#2c2255"/>
</linearGradient>
</defs>
<g id="Untitled" vectornator:layerName="Untitled">
<g opacity="1" vectornator:layerName="g">
<path d="M228.921 137.907C224.805 151.919 217.171 164.481 206.002 175.577L205.511 176.068C191.564 189.925 175.322 198.234 156.802 201.029C152.122 201.735 147.304 202.105 142.331 202.105C117.453 202.105 96.18 193.27 78.4883 175.577C67.3909 164.478 59.8109 151.919 55.7261 137.907L55.7261 137.907L228.921 137.907ZM232.398 116.956C232.232 120.294 231.887 123.556 231.387 126.755L231.215 127.819L53.4488 127.819C52.9165 124.634 52.5394 121.387 52.3363 118.066L52.2751 116.956L232.398 116.956ZM231.211 96.0049C231.747 99.1921 232.126 102.439 232.33 105.759L232.392 106.868L52.2751 106.868C52.4393 103.532 52.781 100.27 53.2776 97.0695L53.4488 96.0049L231.211 96.0049Z" fill="#2c2255" fill-rule="nonzero" opacity="1" stroke="none" vectornator:layerName="path"/>
<path d="M228.925 85.9154C224.812 71.8645 217.177 59.2471 206.002 48.0705C191.982 34.0509 175.623 25.6399 156.946 22.8099C152.221 22.0931 147.355 21.7173 142.331 21.7173C117.453 21.7173 96.1781 30.5041 78.4883 48.0705C67.3873 59.2471 59.8035 71.8645 55.7206 85.9154" fill="#2c2255" fill-rule="nonzero" opacity="1" stroke="none" vectornator:layerName="path"/>
<path d="M46.919 111.915C46.919 64.3342 82.6542 24.7998 129.142 17.8462C127.989 17.8038 126.83 17.7577 125.665 17.7577C73.497 17.7577 31.2025 59.9141 31.2025 111.915C31.2025 163.918 73.4951 206.072 125.665 206.072C126.834 206.072 127.993 206.028 129.15 205.985C82.6542 199.032 46.919 159.497 46.919 111.915Z" fill="#f7941e" fill-rule="nonzero" opacity="1" stroke="none" vectornator:layerName="path"/>
<g opacity="1" vectornator:layerName="g">
<path d="M203.629 106.866C203.327 103.143 202.7 99.5112 201.764 96.0031L82.9048 96.0031C81.9688 99.5093 81.3405 103.141 81.0383 106.866L203.629 106.866Z" fill="url(#LinearGradient)" fill-rule="nonzero" opacity="1" stroke="none" vectornator:layerName="path"/>
<path d="M203.629 116.956L81.0402 116.956C81.3423 120.68 81.9669 124.311 82.9048 127.819L201.766 127.819C202.702 124.311 203.327 120.68 203.629 116.956Z" fill="url(#LinearGradient_2)" fill-rule="nonzero" opacity="1" stroke="none" vectornator:layerName="path"/>
<path d="M142.335 173.432C167.018 173.432 188.296 158.889 198.094 137.907L86.575 137.907C96.3734 158.889 117.651 173.432 142.335 173.432Z" fill="url(#LinearGradient_3)" fill-rule="nonzero" opacity="1" stroke="none" vectornator:layerName="path"/>
</g>
<path d="M231.191 127.817C230.585 131.252 229.79 134.62 228.807 137.907L228.807 137.907L55.7242 137.907C54.7385 134.618 54.0513 131.25 53.4469 127.817L53.4469 127.817L231.191 127.817ZM232.239 106.866C232.339 108.604 232.403 110.349 232.403 112.108C232.403 113.735 232.355 115.351 232.27 116.956L232.27 116.956L52.2438 116.956C52.159 115.351 52.1111 113.735 52.1111 112.108C52.1111 110.349 52.1756 108.602 52.2751 106.866L52.2751 106.866L232.239 106.866ZM228.217 85.9154C229.217 89.2024 230.019 92.5723 230.642 96.0049L230.642 96.0049L53.4488 96.0049C54.0697 92.5705 54.7164 89.2006 55.7187 85.9154L55.7187 85.9154L228.217 85.9154Z" fill="#ffffff" fill-rule="nonzero" opacity="1" stroke="none" vectornator:layerName="path"/>
</g>
<g fill="#5e5e5e" opacity="1" stroke="none">
<path d="M62.4321 219.793L76.5517 219.793L76.5517 222.166L64.9897 222.166L64.9897 228.046L75.6816 228.046L75.6816 230.287L64.9897 230.287L64.9897 236.853L76.7494 236.853L76.7494 239.16L62.4321 239.16L62.4321 219.793Z"/>
<path d="M85.3188 224.632C86.9096 224.632 88.2038 225.018 89.2013 225.792C90.1989 226.565 90.7988 227.897 91.0009 229.786L88.6938 229.786C88.5531 228.916 88.2323 228.193 87.7314 227.618C87.2304 227.042 86.4262 226.754 85.3188 226.754C83.8071 226.754 82.726 227.493 82.0756 228.969C81.6537 229.927 81.4428 231.109 81.4428 232.515C81.4428 233.931 81.7416 235.121 82.3393 236.088C82.9369 237.055 83.8774 237.538 85.1606 237.538C86.1449 237.538 86.925 237.237 87.5007 236.635C88.0763 236.033 88.474 235.209 88.6938 234.163L91.0009 234.163C90.7372 236.035 90.078 237.404 89.0234 238.27C87.9687 239.136 86.6196 239.569 84.976 239.569C83.1303 239.569 81.6581 238.894 80.5595 237.545C79.4609 236.196 78.9115 234.511 78.9115 232.489C78.9115 230.011 79.5136 228.081 80.7177 226.702C81.9218 225.322 83.4555 224.632 85.3188 224.632Z"/>
<path d="M93.4399 219.793L95.8129 219.793L95.8129 239.16L93.4399 239.16L93.4399 219.793Z"/>
<path d="M99.3725 225.106L101.785 225.106L101.785 239.16L99.3725 239.16L99.3725 225.106ZM99.3725 219.793L101.785 219.793L101.785 222.483L99.3725 222.483L99.3725 219.793Z"/>
<path d="M111.33 237.565C112.437 237.565 113.358 237.101 114.092 236.174C114.826 235.247 115.193 233.86 115.193 232.014C115.193 230.889 115.03 229.923 114.705 229.114C114.09 227.558 112.965 226.781 111.33 226.781C109.686 226.781 108.561 227.602 107.955 229.246C107.63 230.125 107.467 231.241 107.467 232.595C107.467 233.684 107.63 234.612 107.955 235.376C108.57 236.835 109.695 237.565 111.33 237.565ZM105.186 225.106L107.494 225.106L107.494 226.978C107.968 226.337 108.487 225.84 109.049 225.489C109.849 224.961 110.789 224.698 111.871 224.698C113.47 224.698 114.828 225.311 115.944 226.537C117.06 227.763 117.619 229.514 117.619 231.79C117.619 234.867 116.814 237.064 115.206 238.382C114.186 239.217 113 239.635 111.646 239.635C110.583 239.635 109.691 239.402 108.97 238.936C108.548 238.672 108.078 238.22 107.559 237.578L107.559 244.789L105.186 244.789L105.186 225.106Z"/>
<path d="M121.798 234.73C121.868 235.521 122.066 236.128 122.391 236.55C122.989 237.314 124.026 237.697 125.502 237.697C126.381 237.697 127.155 237.505 127.823 237.123C128.491 236.741 128.825 236.15 128.825 235.35C128.825 234.743 128.557 234.282 128.02 233.966C127.678 233.772 127.001 233.548 125.99 233.293L124.105 232.819C122.901 232.52 122.013 232.186 121.442 231.817C120.422 231.175 119.913 230.287 119.913 229.154C119.913 227.818 120.394 226.737 121.356 225.91C122.319 225.084 123.613 224.671 125.239 224.671C127.366 224.671 128.899 225.295 129.84 226.543C130.429 227.334 130.714 228.187 130.697 229.101L128.455 229.101C128.412 228.565 128.223 228.077 127.889 227.638C127.344 227.014 126.399 226.702 125.054 226.702C124.158 226.702 123.479 226.873 123.017 227.216C122.556 227.558 122.325 228.011 122.325 228.574C122.325 229.189 122.628 229.681 123.235 230.05C123.586 230.27 124.105 230.463 124.79 230.63L126.359 231.013C128.064 231.426 129.207 231.826 129.787 232.212C130.71 232.819 131.171 233.772 131.171 235.073C131.171 236.33 130.695 237.415 129.741 238.329C128.787 239.243 127.335 239.701 125.384 239.701C123.283 239.701 121.796 239.224 120.921 238.27C120.047 237.316 119.579 236.137 119.517 234.73L121.798 234.73Z"/>
<path d="M139.767 224.724C140.769 224.724 141.74 224.959 142.681 225.429C143.621 225.9 144.337 226.508 144.83 227.255C145.304 227.967 145.621 228.798 145.779 229.747C145.919 230.397 145.99 231.434 145.99 232.858L135.641 232.858C135.684 234.291 136.023 235.44 136.656 236.306C137.288 237.171 138.268 237.604 139.596 237.604C140.835 237.604 141.824 237.196 142.562 236.378C142.984 235.904 143.283 235.354 143.458 234.73L145.792 234.73C145.73 235.249 145.526 235.827 145.179 236.464C144.832 237.101 144.443 237.622 144.012 238.026C143.291 238.729 142.399 239.204 141.336 239.45C140.765 239.591 140.119 239.661 139.398 239.661C137.64 239.661 136.15 239.022 134.929 237.743C133.707 236.464 133.096 234.673 133.096 232.37C133.096 230.103 133.711 228.262 134.942 226.847C136.172 225.431 137.781 224.724 139.767 224.724ZM143.551 230.973C143.454 229.945 143.23 229.123 142.878 228.508C142.228 227.365 141.143 226.794 139.622 226.794C138.532 226.794 137.618 227.187 136.88 227.974C136.142 228.76 135.75 229.76 135.706 230.973L143.551 230.973Z"/>
<path d="M149.22 219.793L151.843 219.793L151.843 236.853L161.652 236.853L161.652 239.16L149.22 239.16L149.22 219.793Z"/>
<path d="M163.919 225.106L166.332 225.106L166.332 239.16L163.919 239.16L163.919 225.106ZM163.919 219.793L166.332 219.793L166.332 222.483L163.919 222.483L163.919 219.793Z"/>
<path d="M169.918 225.04L172.172 225.04L172.172 227.044C172.84 226.218 173.548 225.625 174.295 225.264C175.042 224.904 175.872 224.724 176.787 224.724C178.79 224.724 180.144 225.423 180.847 226.82C181.234 227.585 181.427 228.679 181.427 230.103L181.427 239.16L179.015 239.16L179.015 230.261C179.015 229.4 178.887 228.705 178.632 228.178C178.21 227.299 177.446 226.86 176.338 226.86C175.776 226.86 175.314 226.917 174.954 227.031C174.304 227.224 173.732 227.611 173.24 228.191C172.845 228.657 172.588 229.138 172.469 229.635C172.35 230.131 172.291 230.841 172.291 231.764L172.291 239.16L169.918 239.16L169.918 225.04Z"/>
<path d="M184.881 219.793L187.162 219.793L187.162 231.039L193.253 225.04L196.285 225.04L190.88 230.327L196.588 239.16L193.556 239.16L189.153 232.041L187.162 233.86L187.162 239.16L184.881 239.16L184.881 219.793Z"/>
</g>
</g>
</svg>
