<?xml version="1.0" encoding="UTF-8" standalone="no"?>
<!DOCTYPE svg PUBLIC "-//W3C//DTD SVG 1.1//EN" "http://www.w3.org/Graphics/SVG/1.1/DTD/svg11.dtd">
<!-- Created with Vectornator (http://vectornator.io/) -->
<svg height="100%" stroke-miterlimit="10" style="fill-rule:nonzero;clip-rule:evenodd;stroke-linecap:round;stroke-linejoin:round;" version="1.1" viewBox="0 0 200 200" width="100%" xml:space="preserve" xmlns="http://www.w3.org/2000/svg" xmlns:vectornator="http://vectornator.io" xmlns:xlink="http://www.w3.org/1999/xlink">
<defs>
<filter color-interpolation-filters="sRGB" filterUnits="userSpaceOnUse" height="110" id="Filter" width="110" x="88.3561" y="89.5069">
<feDropShadow dx="0" dy="0" flood-color="#000000" flood-opacity="0.5" in="SourceGraphic" result="Shadow" stdDeviation="2"/>
</filter>
</defs>
<g id="com.castsoftware.sqlanalyzer" vectornator:layerName="com.castsoftware.sqlanalyzer">
<g opacity="1" vectornator:layerName="database">
<g opacity="1" vectornator:layerName="Group">
<path d="M163.11 121.218L163.11 88.6867C149.103 96.7051 122.404 102.133 91.7251 102.133C60.1105 102.133 32.7309 96.3672 19.1098 87.9444L19.1098 120.509C32.7309 128.932 60.1105 134.697 91.7251 134.697C122.43 134.69 149.122 129.25 163.11 121.218Z" fill="#4a4a4a" fill-rule="evenodd" opacity="1" stroke="none" vectornator:layerName="Shape"/>
<path d="M91.7251 81.1254C122.43 81.1254 149.129 75.6848 163.11 67.653L163.11 24.817L19.1098 24.817L19.1098 66.9439C32.7309 75.36 60.1105 81.1254 91.7251 81.1254Z" fill="#9b9b9b" fill-rule="evenodd" opacity="1" stroke="none" vectornator:layerName="Shape"/>
<path d="M91.7251 155.697C60.1105 155.697 32.7309 149.932 19.1098 141.503L19.1098 171.715C19.1229 182.39 51.3527 191.038 91.1098 191.038C130.867 191.038 163.097 182.39 163.11 171.715L163.11 142.245C149.103 150.27 122.404 155.697 91.7251 155.697Z" fill="#000000" fill-rule="evenodd" opacity="1" stroke="none" vectornator:layerName="Shape"/>
</g>
<path d="M91.1098 5.49312C130.873 5.49312 163.11 14.1478 163.11 24.817C163.11 35.4929 130.873 44.1476 91.1098 44.1476C51.3461 44.1476 19.1098 35.4929 19.1098 24.817C19.1098 14.1412 51.3461 5.49312 91.1098 5.49312Z" fill="#cfcecf" fill-rule="evenodd" opacity="1" stroke="none" vectornator:layerName="Shape"/>
</g>
<path d="M143.356 194.507C170.97 194.507 193.356 172.121 193.356 144.507C193.356 116.893 170.97 94.5069 143.356 94.5069C115.742 94.5069 93.3561 116.893 93.3561 144.507C93.3561 172.121 115.742 194.507 143.356 194.507Z" fill="#ffffff" fill-rule="evenodd" filter="url(#Filter)" stroke="none" vectornator:layerName="Oval" vectornator:shadowAngle="0" vectornator:shadowColor="#000000" vectornator:shadowOffset="0" vectornator:shadowOpacity="0.5" vectornator:shadowRadius="4"/>
<g opacity="1" vectornator:layerName="Group">
<path d="M115.443 112.507L172.661 112.507C174.918 112.507 176.748 114.337 176.748 116.594L176.748 173.812C176.748 176.069 174.918 177.899 172.661 177.899L115.443 177.899C113.186 177.899 111.356 176.069 111.356 173.812L111.356 116.594C111.356 114.337 113.186 112.507 115.443 112.507Z" fill="#541094" fill-rule="evenodd" opacity="1" stroke="none" vectornator:layerName="Rectangle 2"/>
<path d="M115.443 112.507C113.186 112.507 111.356 114.337 111.356 116.594L111.356 145.203L176.748 145.203L176.748 116.594C176.748 114.337 174.918 112.507 172.661 112.507L115.443 112.507Z" fill="#000000" fill-rule="evenodd" opacity="1" stroke="none" vectornator:layerName="Combined Shape"/>
<path d="M119.53 118.637L119.53 120.057L129.076 120.057L129.076 118.637L119.53 118.637ZM130.429 118.637L130.429 120.057L144.033 120.057C144.033 120.057 142.643 118.637 140.803 118.637L130.429 118.637ZM146.701 118.637L146.701 120.057L154.932 120.057L154.443 118.637L146.701 118.637ZM160.832 118.637L160.344 120.057L168.499 120.057L168.499 118.637L160.832 118.637ZM119.53 121.398L119.53 122.818L129.076 122.818L129.076 121.398L119.53 121.398ZM130.429 121.4L130.429 122.818L145.611 122.818C145.611 122.818 145.434 121.725 145.125 121.4L130.429 121.4ZM146.701 121.4L146.701 122.818L155.834 122.818L155.382 121.4L146.701 121.4ZM159.855 121.4L159.403 122.818L168.499 122.818L168.499 121.4L159.855 121.4ZM122.273 124.159L122.273 125.581L126.408 125.581L126.408 124.159L122.273 124.159ZM133.172 124.159L133.172 125.581L137.306 125.581L137.306 124.159L133.172 124.159ZM141.328 124.159L141.328 125.581L145.462 125.581C145.462 125.581 145.724 124.83 145.724 124.159L141.328 124.159ZM149.445 124.159L149.445 125.581L156.775 125.581L156.286 124.159L149.445 124.159ZM158.955 124.159L158.464 125.581L165.83 125.581L165.83 124.159L158.955 124.159ZM122.273 126.922L122.273 128.341L126.408 128.341L126.408 126.922L122.273 126.922ZM133.172 126.922L133.172 128.341L143.732 128.341C143.732 128.341 144.615 127.613 144.897 126.922L133.172 126.922ZM149.445 126.922L149.445 128.341L153.579 128.341L153.579 127.551L153.841 128.341L161.415 128.341L161.696 127.551L161.696 128.341L165.83 128.341L165.83 126.922L158.07 126.922L157.658 128.124L157.244 126.922L149.445 126.922ZM122.273 129.683L122.273 131.102L126.408 131.102L126.408 129.683L122.273 129.683ZM133.172 129.683L133.172 131.102L144.897 131.102C144.615 130.413 143.732 129.683 143.732 129.683L133.172 129.683ZM149.445 129.683L149.445 131.102L153.579 131.102L153.579 129.683L149.445 129.683ZM154.33 129.683L154.83 131.102L160.508 131.102L160.983 129.683L154.33 129.683ZM161.696 129.683L161.696 131.102L165.83 131.102L165.83 129.683L161.696 129.683ZM122.273 132.443L122.273 133.863L126.408 133.863L126.408 132.443L122.273 132.443ZM133.172 132.443L133.172 133.863L137.306 133.863L137.306 132.443L133.172 132.443ZM141.328 132.443L141.328 133.863L145.724 133.863C145.724 133.193 145.462 132.443 145.462 132.443L141.328 132.443ZM149.445 132.443L149.445 133.863L153.579 133.863L153.579 132.443L149.445 132.443ZM155.269 132.443L155.753 133.863L159.56 133.863L160.049 132.443L155.269 132.443ZM161.696 132.443L161.696 133.863L165.83 133.863L165.83 132.443L161.696 132.443ZM119.605 135.204L119.605 136.626L129.151 136.626L129.151 135.204L119.605 135.204ZM130.429 135.204L130.429 136.626L145.125 136.626C145.434 136.3 145.611 135.204 145.611 135.204L130.429 135.204ZM146.776 135.204L146.776 136.626L153.579 136.626L153.579 135.204L146.776 135.204ZM156.209 135.204L156.707 136.626L158.644 136.626L159.112 135.204L156.209 135.204ZM161.696 135.204L161.696 136.626L168.574 136.626L168.574 135.204L161.696 135.204ZM119.605 137.967L119.605 139.387L129.151 139.387L129.151 137.967L119.605 137.967ZM130.429 137.967L130.429 139.385L140.803 139.385C142.643 139.385 144.033 137.967 144.033 137.967L130.429 137.967ZM146.776 137.967L146.776 139.387L153.579 139.387L153.579 137.967L146.776 137.967ZM157.154 137.967L157.633 139.383L157.715 139.385L158.202 137.967L157.154 137.967ZM161.696 137.967L161.696 139.387L168.574 139.387L168.574 137.967L161.696 137.967Z" fill="#ffffff" fill-rule="nonzero" opacity="1" stroke="none" vectornator:layerName="Shape"/>
<path d="M125.751 167.681L125.751 162.024L129.819 162.024C130.549 162.024 131.085 162.104 131.426 162.266C132.025 162.559 132.345 163.137 132.387 163.999L132.387 163.999L132.495 166.199C132.519 166.714 132.549 167.061 132.584 167.241C132.62 167.421 132.668 167.567 132.728 167.681L132.728 167.681L134.919 167.681L134.919 167.385C134.644 167.265 134.452 166.996 134.345 166.577C134.279 166.331 134.237 165.957 134.219 165.454L134.219 165.454L134.156 163.685C134.126 162.919 133.981 162.365 133.72 162.024C133.46 161.682 133.072 161.407 132.557 161.197C133.144 160.892 133.601 160.488 133.927 159.985C134.253 159.482 134.416 158.836 134.416 158.045C134.416 156.531 133.797 155.492 132.557 154.929C131.905 154.636 131.076 154.489 130.07 154.489L130.07 154.489L123.963 154.489L123.963 167.681L125.751 167.681ZM129.881 160.533L125.751 160.533L125.751 156.025L130.115 156.025C130.726 156.025 131.213 156.115 131.579 156.294C132.261 156.635 132.602 157.276 132.602 158.216C132.602 159.09 132.358 159.695 131.871 160.03C131.383 160.365 130.72 160.533 129.881 160.533ZM140.173 167.681L140.173 162.104L144.321 162.104C145.65 162.104 146.635 161.723 147.276 160.959C147.916 160.196 148.237 159.3 148.237 158.27C148.237 157.072 147.878 156.143 147.159 155.482C146.441 154.82 145.495 154.489 144.321 154.489L144.321 154.489L138.385 154.489L138.385 167.681L140.173 167.681ZM143.729 160.596L140.173 160.596L140.173 156.025L143.729 156.025C144.417 156.025 144.959 156.118 145.354 156.303C146.073 156.65 146.432 157.309 146.432 158.279C146.432 159.141 146.182 159.743 145.682 160.084C145.182 160.425 144.531 160.596 143.729 160.596ZM157.028 168.031C158.237 168.031 159.234 167.81 160.019 167.367C160.486 167.109 161.021 166.648 161.626 165.984L161.626 165.984L162.057 167.681L163.207 167.681L163.207 160.623L157.414 160.623L157.414 162.104L161.545 162.104C161.527 163.649 161.128 164.767 160.346 165.458C159.565 166.15 158.579 166.496 157.387 166.496C155.831 166.496 154.708 166.003 154.02 165.018C153.331 164.034 152.987 162.757 152.987 161.188C152.987 159.374 153.405 158.009 154.24 157.093C155.075 156.177 156.103 155.719 157.325 155.719C158.354 155.719 159.207 155.939 159.884 156.38C160.56 156.82 161.006 157.522 161.222 158.485L161.222 158.485L162.991 158.485C162.698 156.761 161.895 155.555 160.584 154.866C159.68 154.387 158.609 154.148 157.369 154.148C155.561 154.148 154.089 154.771 152.951 156.016C151.754 157.321 151.155 159.078 151.155 161.287C151.155 163.502 151.769 165.244 152.996 166.514C154.122 167.525 155.466 168.031 157.028 168.031Z" fill="#ffffff" fill-rule="nonzero" opacity="1" stroke="none" vectornator:layerName="RPG"/>
</g>
</g>
</svg>
