<?xml version="1.0" encoding="UTF-8" standalone="no"?>
<!DOCTYPE svg PUBLIC "-//W3C//DTD SVG 1.1//EN" "http://www.w3.org/Graphics/SVG/1.1/DTD/svg11.dtd">
<!-- Created with Vectornator (http://vectornator.io/) -->
<svg height="100%" stroke-miterlimit="10" style="fill-rule:nonzero;clip-rule:evenodd;stroke-linecap:round;stroke-linejoin:round;" version="1.1" viewBox="0 0 260 260" width="100%" xml:space="preserve" xmlns="http://www.w3.org/2000/svg" xmlns:vectornator="http://vectornator.io" xmlns:xlink="http://www.w3.org/1999/xlink">
<defs>
<linearGradient gradientTransform="matrix(1.25739 0 0 1.25739 -33.2223 -32.777)" gradientUnits="userSpaceOnUse" id="LinearGradient" x1="118.508" x2="118.508" y1="59.0596" y2="144.622">
<stop offset="0" stop-color="#0994dc"/>
<stop offset="0.350006" stop-color="#66cef5"/>
<stop offset="0.350006" stop-color="#66cef5"/>
<stop offset="0.846161" stop-color="#127bca"/>
<stop offset="0.846161" stop-color="#127bca"/>
<stop offset="1" stop-color="#127bca"/>
</linearGradient>
<linearGradient gradientTransform="matrix(1.25739 0 0 1.25739 -33.2223 -32.777)" gradientUnits="userSpaceOnUse" id="LinearGradient_2" x1="121.77" x2="121.77" y1="56.8933" y2="144.636">
<stop offset="0" stop-color="#0e76bc"/>
<stop offset="0.360001" stop-color="#36aee8"/>
<stop offset="0.360001" stop-color="#36aee8"/>
<stop offset="0.846161" stop-color="#00adef"/>
<stop offset="0.846161" stop-color="#00adef"/>
<stop offset="1" stop-color="#00adef"/>
</linearGradient>
<linearGradient gradientTransform="matrix(1.25739 0 0 1.25739 -33.2223 -32.777)" gradientUnits="userSpaceOnUse" id="LinearGradient_3" x1="139.405" x2="139.405" y1="125.655" y2="55.8387">
<stop offset="0" stop-color="#1c63b7"/>
<stop offset="0.5" stop-color="#33bdf2"/>
<stop offset="1" stop-color="#33bdf2" stop-opacity="0.419608"/>
</linearGradient>
<linearGradient gradientTransform="matrix(1.25739 0 0 1.25739 -33.2223 -32.777)" gradientUnits="userSpaceOnUse" id="LinearGradient_4" x1="134.816" x2="134.816" y1="48.0029" y2="139.103">
<stop offset="0" stop-color="#166ab8"/>
<stop offset="0.399994" stop-color="#36aee8"/>
<stop offset="0.399994" stop-color="#36aee8"/>
<stop offset="0.846161" stop-color="#0798dd"/>
<stop offset="0.846161" stop-color="#0798dd"/>
<stop offset="1" stop-color="#0798dd"/>
</linearGradient>
<linearGradient gradientTransform="matrix(1.25739 0 0 1.25739 -33.2223 -32.777)" gradientUnits="userSpaceOnUse" id="LinearGradient_5" x1="127.635" x2="127.635" y1="48.4817" y2="145.355">
<stop offset="0" stop-color="#124379"/>
<stop offset="0.389999" stop-color="#1487cb"/>
<stop offset="0.389999" stop-color="#1487cb"/>
<stop offset="0.780228" stop-color="#165197"/>
<stop offset="0.780228" stop-color="#165197"/>
<stop offset="1" stop-color="#165197"/>
</linearGradient>
<linearGradient gradientTransform="matrix(1.25739 0 0 1.25739 -33.2223 -32.777)" gradientUnits="userSpaceOnUse" id="LinearGradient_6" x1="88.7271" x2="102.423" y1="78.2193" y2="78.2193">
<stop offset="0" stop-color="#33bdf2" stop-opacity="0.698039"/>
<stop offset="1" stop-color="#1dacd8"/>
</linearGradient>
<linearGradient gradientTransform="matrix(1.25739 0 0 1.25739 -33.2223 -32.777)" gradientUnits="userSpaceOnUse" id="LinearGradient_7" x1="191.59" x2="191.59" y1="123.905" y2="55.8948">
<stop offset="0" stop-color="#136ab4"/>
<stop offset="0.6" stop-color="#59caf5" stop-opacity="0.54902"/>
<stop offset="1" stop-color="#59caf5" stop-opacity="0.235294"/>
</linearGradient>
<linearGradient gradientTransform="matrix(1.25739 0 0 1.25739 -33.2223 -32.777)" gradientUnits="userSpaceOnUse" id="LinearGradient_8" x1="40.1242" x2="90.9258" y1="94.4707" y2="94.4707">
<stop offset="0" stop-color="#05a1e6" stop-opacity="0.247059"/>
<stop offset="1" stop-color="#05a1e6"/>
</linearGradient>
<linearGradient gradientTransform="matrix(1.25739 0 0 1.25739 -33.2223 -32.777)" gradientUnits="userSpaceOnUse" id="LinearGradient_9" x1="68.2602" x2="68.2602" y1="125.618" y2="55.9808">
<stop offset="0" stop-color="#318ed5"/>
<stop offset="1" stop-color="#38a7e4"/>
</linearGradient>
<linearGradient gradientTransform="matrix(1.25739 0 0 1.25739 -33.2223 -32.777)" gradientUnits="userSpaceOnUse" id="LinearGradient_10" x1="72.6434" x2="72.6434" y1="125.863" y2="58.172">
<stop offset="0" stop-color="#05a1e6"/>
<stop offset="1" stop-color="#05a1e6" stop-opacity="0.54902"/>
</linearGradient>
<linearGradient gradientTransform="matrix(1.25739 0 0 1.25739 -33.2223 -32.777)" gradientUnits="userSpaceOnUse" id="LinearGradient_11" x1="76.283" x2="76.283" y1="129.317" y2="72.1167">
<stop offset="0" stop-color="#1959a6"/>
<stop offset="0.5" stop-color="#05a1e6"/>
<stop offset="0.5" stop-color="#05a1e6"/>
<stop offset="0.917587" stop-color="#7ec5ea"/>
<stop offset="1" stop-color="#7ec5ea"/>
</linearGradient>
<linearGradient gradientTransform="matrix(1.25739 0 0 1.25739 -33.2223 -32.777)" gradientUnits="userSpaceOnUse" id="LinearGradient_12" x1="78.4747" x2="67.5387" y1="125.663" y2="63.6419">
<stop offset="0" stop-color="#165096"/>
<stop offset="1" stop-color="#0d82ca"/>
</linearGradient>
<linearGradient gradientTransform="matrix(1.25739 0 0 1.25739 -33.2223 -32.777)" gradientUnits="userSpaceOnUse" id="LinearGradient_13" x1="179.945" x2="179.945" y1="90.5882" y2="58.1764">
<stop offset="0" stop-color="#05a1e6"/>
<stop offset="0.873627" stop-color="#0495d6"/>
<stop offset="1" stop-color="#0495d6"/>
</linearGradient>
<linearGradient gradientTransform="matrix(1.25739 0 0 1.25739 -33.2223 -32.777)" gradientUnits="userSpaceOnUse" id="LinearGradient_14" x1="195.179" x2="182.001" y1="55.1806" y2="129.92">
<stop offset="0" stop-color="#38a7e4" stop-opacity="0.329412"/>
<stop offset="0.961533" stop-color="#0e88d3"/>
<stop offset="0.961533" stop-color="#0e88d3"/>
<stop offset="1" stop-color="#0e88d3"/>
</linearGradient>
<linearGradient gradientTransform="matrix(1.25739 0 0 1.25739 -33.2223 -32.777)" gradientUnits="userSpaceOnUse" id="LinearGradient_15" x1="183.382" x2="183.382" y1="57.8033" y2="128.513">
<stop offset="0" stop-color="#168cd4"/>
<stop offset="0.5" stop-color="#1c87cc"/>
<stop offset="1" stop-color="#154b8d"/>
</linearGradient>
<linearGradient gradientTransform="matrix(1.25739 1.53985e-16 1.53985e-16 -1.25739 -33.2223 123.19)" gradientUnits="userSpaceOnUse" id="LinearGradient_16" x1="93.191" x2="109.479" y1="67.6911" y2="60.9355">
<stop offset="0" stop-color="#97d6ee"/>
<stop offset="0.703293" stop-color="#55c1ea"/>
<stop offset="1" stop-color="#55c1ea"/>
</linearGradient>
<linearGradient gradientTransform="matrix(1.25739 1.53985e-16 1.53985e-16 -1.25739 -33.2223 123.19)" gradientUnits="userSpaceOnUse" id="LinearGradient_17" x1="102.608" x2="115.472" y1="59.5808" y2="65.4125">
<stop offset="0" stop-color="#7accec"/>
<stop offset="1" stop-color="#3fb7ed"/>
</linearGradient>
<linearGradient gradientTransform="matrix(1.25739 0 0 1.25739 -33.2223 -32.777)" gradientUnits="userSpaceOnUse" id="LinearGradient_18" x1="173.809" x2="173.809" y1="61.7133" y2="130.875">
<stop offset="0" stop-color="#1da7e7"/>
<stop offset="1" stop-color="#37abe7" stop-opacity="0"/>
</linearGradient>
</defs>
<g id="com.castsoftware.asp" vectornator:layerName="com.castsoftware.asp">
<g opacity="1" vectornator:layerName="Microsoft_.NET_Logo">
<path d="M95.564 58.5003C103.692 83.3568 106.772 127.699 130.54 127.699L130.54 127.699C132.35 127.699 134.178 127.522 136.014 127.172L136.014 127.172C114.407 122.135 111.846 78.2751 98.6615 55.562L98.6615 55.562C97.6277 56.5015 96.6013 57.4808 95.564 58.5003" fill="url(#LinearGradient)" fill-rule="nonzero" opacity="1" stroke="none" vectornator:layerName="path12339"/>
<path d="M98.6615 55.562C111.846 78.2751 114.407 122.135 136.014 127.172L136.014 127.172C137.711 126.861 139.412 126.389 141.117 125.794L141.117 125.794C121.723 116.291 116.362 73.7013 101.389 53.1971L101.389 53.1971C100.482 53.9518 99.572 54.7425 98.6615 55.562" fill="url(#LinearGradient_2)" fill-rule="nonzero" opacity="1" stroke="none" vectornator:layerName="path12367"/>
<path d="M117.658 42.0543C115.852 42.0543 114.02 42.2313 112.181 42.5804C107.372 43.4871 102.486 45.5581 97.5606 48.6919C98.9061 50.0194 100.186 51.5391 101.391 53.1968C106.4 49.0401 111.376 45.9681 116.335 44.1217C118.195 43.4326 120.049 42.914 121.909 42.5731C120.567 42.2318 119.153 42.0543 117.658 42.0543" fill="#14559a" fill-rule="nonzero" opacity="1" stroke="none" vectornator:layerName="path12379"/>
<path d="M156.257 117.034C158.241 115.457 160.228 113.712 162.22 111.808C153.961 87.0672 151.005 42.0909 127.069 42.0909C125.357 42.0909 123.631 42.2504 121.908 42.5696C143.71 47.9923 146.503 95.4278 156.257 117.034" fill="url(#LinearGradient_3)" fill-rule="nonzero" opacity="1" stroke="none" vectornator:layerName="path12459"/>
<path d="M121.908 42.5713C120.566 42.2304 119.152 42.0528 117.657 42.0528L127.07 42.0873C125.358 42.0873 123.631 42.2469 121.908 42.5699" fill="#3092c4" fill-rule="nonzero" opacity="1" stroke="none" vectornator:layerName="path12521"/>
<path d="M155.839 122.29C154.903 121.398 154.014 120.419 153.14 119.374C149.114 122.225 145.102 124.387 141.116 125.794C142.534 126.487 144.021 127.002 145.599 127.321C146.822 127.571 148.088 127.699 149.419 127.699C153.891 127.699 157.427 127.169 160.438 125.725C158.78 124.829 157.26 123.669 155.839 122.29" fill="#1969bc" fill-rule="nonzero" opacity="1" stroke="none" vectornator:layerName="path12525"/>
<path d="M116.333 44.1258C135.861 54.3397 137.559 100.593 153.141 119.374L153.141 119.374C154.186 118.638 155.219 117.858 156.253 117.034L156.253 117.034C146.5 95.4278 143.71 47.9885 121.911 42.5696L121.911 42.5696C120.051 42.9178 118.194 43.4332 116.333 44.1258" fill="url(#LinearGradient_4)" fill-rule="nonzero" opacity="1" stroke="none" vectornator:layerName="path12553"/>
<path d="M101.389 53.1971C116.362 73.7013 121.723 116.291 141.117 125.794L141.117 125.794C145.103 124.387 149.115 122.225 153.141 119.374L153.141 119.374C137.559 100.593 135.861 54.3397 116.333 44.1258L116.333 44.1258C111.375 45.9683 106.398 49.0404 101.389 53.1971" fill="url(#LinearGradient_5)" fill-rule="nonzero" opacity="1" stroke="none" vectornator:layerName="path12581"/>
<path d="M85.9843 57.9016C83.6376 63.2083 81.24 70.183 78.3419 79.2872C84.1054 71.1659 89.8508 64.1693 95.5635 58.5003C94.7765 56.0808 93.9314 53.8502 93.021 51.8623C90.6851 53.6506 88.3311 55.6638 85.9843 57.9016" fill="url(#LinearGradient_6)" fill-rule="nonzero" opacity="1" stroke="none" vectornator:layerName="path12651"/>
<path d="M95.102 50.3323C94.4128 50.8255 93.7201 51.3298 93.0238 51.8629C93.934 53.8506 94.7755 56.0814 95.5628 58.5005C96.5998 57.4849 97.6299 56.5021 98.66 55.5626C97.5539 53.6619 96.3787 51.9064 95.102 50.3323" fill="#2b74b1" fill-rule="nonzero" opacity="1" stroke="none" vectornator:layerName="path12655"/>
<path d="M97.5606 48.6919C96.7408 49.2108 95.9249 49.7583 95.1014 50.3313C96.3781 51.9055 97.5533 53.661 98.6633 55.5654C99.5737 54.742 100.484 53.9477 101.391 53.1968C100.187 51.5394 98.9064 50.0194 97.5606 48.6919" fill="#125a9e" fill-rule="nonzero" opacity="1" stroke="none" vectornator:layerName="path12659"/>
<path d="M230.762 40.1615C219.717 82.7547 196.648 116.966 177.308 125.591L177.272 125.591C176.92 125.751 176.572 125.896 176.227 126.037C176.18 126.066 176.137 126.069 176.1 126.087C175.999 126.128 175.904 126.159 175.803 126.2C175.755 126.228 175.712 126.238 175.669 126.255C175.506 126.313 175.346 126.362 175.186 126.426C175.117 126.455 175.052 126.473 174.987 126.496C174.914 126.525 174.83 126.551 174.747 126.574C174.675 126.603 174.599 126.624 174.515 126.656C174.446 126.684 174.374 126.697 174.308 126.725C174.167 126.766 174.037 126.801 173.895 126.85C173.837 126.85 173.783 126.882 173.721 126.897C173.634 126.925 173.536 126.946 173.441 126.972C173.376 127.001 173.322 127.01 173.253 127.025C173.155 127.053 173.046 127.08 172.948 127.103C172.818 127.132 172.702 127.158 172.578 127.184C173.452 127.507 174.363 127.67 175.346 127.67C193.684 127.67 212.175 94.805 242.77 40.1515L230.757 40.1515L230.762 40.1615Z" fill="url(#LinearGradient_7)" fill-rule="nonzero" opacity="1" stroke="none" vectornator:layerName="path12741"/>
<path d="M74.3594 43.7828C74.3709 43.7828 74.3853 43.7541 74.3925 43.7541C74.4068 43.7541 74.4291 43.7541 74.4363 43.7253C74.4363 43.7253 74.4507 43.7253 74.4593 43.7253C74.5608 43.6908 74.6551 43.6499 74.7567 43.6122C74.7825 43.6122 74.7962 43.6122 74.8149 43.5834C74.8407 43.5834 74.8659 43.5547 74.8912 43.5511C75 43.5166 75.1088 43.4756 75.2104 43.4379C75.2104 43.4379 75.2219 43.4379 75.2277 43.4379C75.4708 43.3654 75.6955 43.2755 75.9313 43.1913C75.9643 43.1913 75.9967 43.1626 76.0363 43.1626C76.1344 43.131 76.236 43.0958 76.3374 43.0726C76.3848 43.0439 76.4317 43.0439 76.4752 43.0288C76.5802 42.9972 76.6821 42.962 76.7799 42.9388C76.8237 42.9388 76.8635 42.9101 76.896 42.9072C77.2333 42.8144 77.567 42.7273 77.9043 42.646C77.9517 42.646 77.9914 42.6173 78.0421 42.6144C78.1399 42.5857 78.2308 42.5706 78.3359 42.5562C78.3797 42.5275 78.4303 42.5275 78.4811 42.5124C78.5788 42.4837 78.6731 42.4808 78.7784 42.4571C78.8043 42.4571 78.818 42.4571 78.8474 42.4571C79.0505 42.4161 79.2573 42.3816 79.4604 42.3439C79.4971 42.3439 79.5437 42.3439 79.5837 42.3439C79.6815 42.3152 79.7686 42.3123 79.8667 42.2943C79.9206 42.2943 79.9755 42.2656 80.0263 42.2656C80.1168 42.2656 80.2076 42.2369 80.2982 42.2246C80.3456 42.2246 80.3924 42.2246 80.447 42.1959C80.6609 42.1672 80.8822 42.1557 81.1071 42.1377C80.4724 42.0766 79.8195 42.0361 79.1557 42.0361C58.5029 42.0361 30.0481 80.3566 17.2298 129.983C17.2298 129.983 18.1656 129.983 19.6999 129.983C23.8022 122.667 27.4873 115.747 30.8569 109.25C39.8341 74.0999 58.1184 50.1281 74.3607 43.7771" fill="url(#LinearGradient_8)" fill-rule="nonzero" opacity="1" stroke="none" vectornator:layerName="path12803"/>
<path d="M85.9846 57.9016C88.3314 55.6638 90.6853 53.6506 93.0212 51.8626C92.4881 50.6947 91.9368 49.6138 91.3454 48.6234C89.4558 50.9158 87.7293 53.9408 85.9846 57.9016" fill="#0d82ca" fill-rule="nonzero" opacity="1" stroke="none" vectornator:layerName="path12807"/>
<path d="M87.6812 44.0733C89.0305 45.2049 90.2381 46.7611 91.3445 48.6255C91.6927 48.1974 92.0447 47.802 92.411 47.432C90.8768 45.9994 89.2191 44.8242 87.42 43.9392C87.4926 43.9795 87.5651 44.0118 87.6405 44.0437C87.6405 44.0437 87.6692 44.0724 87.6815 44.0724" fill="#0d82ca" fill-rule="nonzero" opacity="1" stroke="none" vectornator:layerName="path12811"/>
<path d="M30.856 109.254C49.688 72.9649 58.6108 49.998 74.3598 43.7811L74.3598 43.7811C58.1211 50.136 39.8331 74.1076 30.856 109.254" fill="url(#LinearGradient_9)" fill-rule="nonzero" opacity="1" stroke="none" vectornator:layerName="path12831"/>
<path d="M92.4097 47.4311C92.0436 47.8049 91.6954 48.1966 91.3434 48.6246C91.9347 49.6146 92.4858 50.692 93.0229 51.8635C93.7193 51.3304 94.4119 50.8261 95.1011 50.3328C94.2489 49.281 93.3493 48.3054 92.4097 47.4311" fill="#127bca" fill-rule="nonzero" opacity="1" stroke="none" vectornator:layerName="path12843"/>
<path d="M39.4051 129.824L39.4051 129.824C39.2891 129.853 39.173 129.853 39.0642 129.865C39.0279 129.865 39.0207 129.865 38.9989 129.865C38.9008 129.865 38.7992 129.894 38.7087 129.894C38.7087 129.894 38.6724 129.894 38.6614 129.894C38.4258 129.922 38.1935 129.922 37.9687 129.94L37.8961 129.94C56.9567 129.407 65.669 119.864 69.9925 106.023C73.2787 95.5297 75.9773 86.6903 78.3422 79.2729C70.3589 90.5098 62.3393 103.905 54.2762 118.91C50.3879 126.143 44.4757 129.164 39.405 129.81" fill="url(#LinearGradient_10)" fill-rule="nonzero" opacity="1" stroke="none" vectornator:layerName="path12923"/>
<path d="M39.4051 129.817L39.4051 129.817C44.4759 129.171 50.3881 126.153 54.2764 118.917L54.2764 118.917C62.3394 103.915 70.3626 90.5168 78.3387 79.2799L78.3387 79.2799C81.2404 70.172 83.6343 63.201 85.9847 57.8943L85.9847 57.8943C70.087 73.0267 54.1276 98.1883 39.4051 129.81" fill="url(#LinearGradient_11)" fill-rule="nonzero" opacity="1" stroke="none" vectornator:layerName="path12949"/>
<path d="M30.8551 109.255C27.4857 115.752 23.8005 122.672 19.6981 129.988C21.4719 129.988 24.0399 129.988 26.8836 129.988C27.8339 122.723 29.1832 115.795 30.8551 109.259" fill="#05a1e6" fill-rule="nonzero" opacity="1" stroke="none" vectornator:layerName="path12961"/>
<path d="M80.4461 42.2144C80.3879 42.2144 80.3445 42.2432 80.2938 42.2432L80.2938 42.2432C80.2067 42.2719 80.1159 42.2719 80.0253 42.2813L80.0253 42.2813C79.9714 42.2813 79.9203 42.2813 79.8658 42.31L79.8658 42.31C79.7677 42.3387 79.6771 42.3416 79.5828 42.3596L79.5828 42.3596C79.539 42.3596 79.4958 42.3596 79.4595 42.3883L79.4595 42.3883C79.2526 42.4228 79.0496 42.4609 78.8465 42.4957L78.8465 42.4957C78.8106 42.4957 78.7991 42.4957 78.7775 42.4957L78.7775 42.4957C78.6725 42.5244 78.5779 42.5395 78.4801 42.5539L78.4801 42.5539C78.4291 42.5826 78.3785 42.5826 78.3312 42.5941L78.3312 42.5941C78.2335 42.6228 78.1354 42.6351 78.0411 42.6523L78.0411 42.6523C77.9901 42.681 77.9506 42.681 77.9032 42.6839L77.9032 42.6839C77.566 42.7652 77.2322 42.8523 76.8949 42.9451L76.8949 42.9451C76.859 42.9451 76.8224 42.9738 76.7788 42.9796L76.7788 42.9796C76.6773 43.0083 76.5792 43.0378 76.4742 43.0695L76.4742 43.0695C76.4304 43.0983 76.3799 43.0983 76.3363 43.1098L76.3363 43.1098C76.2348 43.1385 76.1332 43.168 76.0353 43.1997L76.0353 43.1997C75.9957 43.1997 75.9628 43.2285 75.9265 43.2285L75.9265 43.2285C75.6943 43.3155 75.4658 43.4026 75.2264 43.4751L75.2264 43.4751L75.2264 43.4751L75.2264 43.4751C75.1249 43.5067 75.0161 43.5476 74.9073 43.5854L74.9073 43.5854C74.8634 43.6141 74.8237 43.6206 74.7732 43.6407L74.7732 43.6407C74.6716 43.6723 74.5701 43.7132 74.4757 43.751L74.4757 43.751C74.4398 43.7797 74.4032 43.7826 74.3779 43.7977L74.3779 43.7977C58.629 50.0145 49.7063 72.9815 30.8742 109.271L30.8742 109.271C29.2021 115.807 27.8492 122.735 26.9025 130L26.9025 130L27.9109 130C30.7509 130 31.5525 129.971 34.8205 129.971L34.8205 129.971L34.9874 129.971L35.4734 129.971L35.6403 129.971L35.6875 129.971L35.8544 129.971L35.9487 129.971L36.014 129.971L36.1446 129.971L36.5508 129.971L36.9571 129.971L37.298 129.971L37.3885 129.971C37.5844 129.971 37.7839 129.971 37.987 129.971L37.987 129.971C38.2119 129.943 38.444 129.943 38.6798 129.925L38.6798 129.925C38.6798 129.925 38.7161 129.925 38.7233 129.925L38.7233 129.925C38.8214 129.925 38.9192 129.896 39.0135 129.896L39.0135 129.896C39.0498 129.896 39.0532 129.896 39.0823 129.896L39.0823 129.896C39.1873 129.896 39.3071 129.867 39.4232 129.855L39.4232 129.855L39.4232 129.855C54.1457 98.2336 70.1051 73.0721 86.0027 57.9397L86.0027 57.9397C87.751 53.9789 89.4739 50.9539 91.3601 48.6653L91.3601 48.6653C90.2574 46.801 89.0496 45.2413 87.7003 44.1094L87.7003 44.1094C87.7003 44.1094 87.6636 44.1094 87.6608 44.0806L87.6608 44.0806C87.5845 44.049 87.5122 44.0109 87.4359 43.9733L87.4359 43.9733C87.3596 43.9323 87.2943 43.9007 87.2148 43.8601L87.2148 43.8601C87.1458 43.8314 87.066 43.7933 86.9972 43.7556L86.9972 43.7556C86.9029 43.7269 86.8266 43.6859 86.7433 43.6482L86.7433 43.6482C86.6743 43.6195 86.6127 43.59 86.5436 43.5612L86.5436 43.5612C86.402 43.5059 86.2608 43.448 86.1265 43.3871L86.1265 43.3871C86.0647 43.3584 86.007 43.3433 85.9486 43.3203L85.9486 43.3203C85.8508 43.2851 85.7383 43.239 85.6367 43.1955L85.6367 43.1955C85.5857 43.1667 85.5279 43.161 85.4699 43.1402L85.4699 43.1402C85.3213 43.0906 85.1761 43.0386 85.0382 42.9922L85.0382 42.9922C85.0023 42.9922 85.0023 42.9922 85.0023 42.9922L85.0023 42.9922C84.8354 42.9368 84.6722 42.8964 84.5017 42.85L84.5017 42.85C84.4622 42.8212 84.4291 42.8212 84.3894 42.8155L84.3894 42.8155C84.2405 42.7745 84.11 42.7342 83.9686 42.6965L83.9686 42.6965C83.9327 42.6965 83.8997 42.6677 83.8709 42.6677L83.8709 42.6677C83.5299 42.5778 83.1781 42.5053 82.8226 42.4385L82.8226 42.4385C82.786 42.4385 82.7501 42.4098 82.7138 42.4098L82.7138 42.4098C82.5615 42.3811 82.4128 42.3545 82.2605 42.3372L82.2605 42.3372C82.2238 42.3085 82.2023 42.3085 82.1699 42.3085L82.1699 42.3085C81.9886 42.2798 81.8108 42.2589 81.6331 42.2388L81.6331 42.2388C81.5971 42.2388 81.5713 42.2388 81.5388 42.2388L81.5388 42.2388C81.3937 42.2101 81.2597 42.2072 81.1253 42.1921L81.1253 42.1921C80.8967 42.2208 80.6792 42.233 80.4651 42.2532" fill="url(#LinearGradient_12)" fill-rule="nonzero" opacity="1" stroke="none" vectornator:layerName="path12981"/>
<path d="M187.62 63.7413C183.997 75.3481 181.063 84.9237 178.509 92.8018L178.509 92.8018C188.451 79.1203 198.244 61.9094 207.57 42.0476L207.57 42.0476C196.692 45.464 190.888 53.2844 187.62 63.7413" fill="url(#LinearGradient_13)" fill-rule="nonzero" opacity="1" stroke="none" vectornator:layerName="path13003"/>
<path d="M178.825 124.866C178.317 125.124 177.809 125.37 177.308 125.591C196.648 116.966 219.717 82.7547 230.762 40.1615L228.523 40.1615C203.148 85.4895 194.987 115.834 178.825 124.866" fill="url(#LinearGradient_14)" fill-rule="nonzero" opacity="1" stroke="none" vectornator:layerName="path13093"/>
<path d="M166.196 121.057C170.403 115.921 173.831 107.191 178.51 92.8021C173.113 100.216 167.68 106.589 162.242 111.787C162.242 111.815 162.242 111.815 162.214 111.833C163.4 115.388 164.702 118.525 166.185 121.057" fill="#079ae1" fill-rule="nonzero" opacity="1" stroke="none" vectornator:layerName="path13097"/>
<path d="M166.196 121.057C164.763 122.806 163.247 124.137 161.56 125.124C161.191 125.338 160.817 125.541 160.436 125.726C162.217 126.687 164.161 127.329 166.337 127.586L166.337 127.586L166.337 127.586C166.656 127.618 166.972 127.647 167.302 127.67L167.36 127.67C167.508 127.67 167.665 127.67 167.825 127.699L167.889 127.699C168.048 127.699 168.208 127.699 168.364 127.699C168.535 127.699 168.705 127.699 168.875 127.699C168.931 127.699 168.983 127.699 169.035 127.699C169.151 127.699 169.276 127.699 169.398 127.699C169.456 127.699 169.517 127.699 169.575 127.67C169.688 127.67 169.807 127.67 169.923 127.642C169.952 127.642 169.952 127.642 169.964 127.642C170.011 127.642 170.051 127.642 170.094 127.642C170.213 127.642 170.344 127.613 170.472 127.601L170.5 127.601C170.538 127.601 170.579 127.572 170.616 127.572C170.75 127.543 170.889 127.531 171.019 127.511C171.063 127.511 171.095 127.511 171.138 127.511C171.286 127.482 171.439 127.464 171.591 127.435L171.62 127.435C171.649 127.435 171.652 127.435 171.664 127.435C171.969 127.377 172.266 127.319 172.567 127.244C170.072 126.33 167.982 124.175 166.183 121.107" fill="#1969bc" fill-rule="nonzero" opacity="1" stroke="none" vectornator:layerName="path13101"/>
<path d="M130.541 127.699C132.351 127.699 134.179 127.522 136.014 127.17C137.712 126.861 139.413 126.39 141.117 125.795C142.536 126.488 144.023 127.003 145.597 127.322C146.819 127.571 148.089 127.699 149.42 127.699L130.541 127.699Z" fill="#1e5cb3" fill-rule="nonzero" opacity="1" stroke="none" vectornator:layerName="path13105"/>
<path d="M149.42 127.699C153.889 127.699 157.429 127.17 160.436 125.726C162.217 126.687 164.161 127.329 166.337 127.587L166.337 127.587L166.337 127.587C166.656 127.618 166.972 127.648 167.302 127.671L167.36 127.671C167.508 127.671 167.665 127.671 167.825 127.7L167.891 127.7C168.051 127.7 168.211 127.7 168.367 127.7L149.408 127.7L149.42 127.699Z" fill="#1e5cb3" fill-rule="nonzero" opacity="1" stroke="none" vectornator:layerName="path13109"/>
<path d="M168.378 127.699C168.552 127.699 168.723 127.699 168.893 127.699C168.943 127.699 169 127.699 169.053 127.699C169.169 127.699 169.288 127.699 169.412 127.699C169.473 127.699 169.531 127.699 169.589 127.67C169.702 127.67 169.821 127.67 169.941 127.642C169.97 127.642 169.97 127.642 169.979 127.642C170.026 127.642 170.069 127.642 170.112 127.642C170.231 127.642 170.362 127.613 170.486 127.601C170.486 127.601 170.515 127.601 170.518 127.601C170.556 127.601 170.593 127.573 170.631 127.573C170.764 127.544 170.904 127.532 171.033 127.512C171.077 127.512 171.112 127.512 171.158 127.483C171.306 127.454 171.459 127.439 171.612 127.41L171.641 127.41C171.669 127.41 171.672 127.41 171.684 127.41C171.989 127.352 172.286 127.294 172.587 127.219L172.587 127.219C173.461 127.541 174.372 127.705 175.355 127.705L168.383 127.734L168.378 127.699Z" fill="#1d60b5" fill-rule="nonzero" opacity="1" stroke="none" vectornator:layerName="path13113"/>
<path d="M162.225 111.834L162.225 111.805C160.234 113.709 158.246 115.454 156.262 117.032C155.225 117.855 154.191 118.635 153.147 119.371C154.021 120.416 154.91 121.395 155.845 122.287C157.267 123.666 158.787 124.826 160.444 125.722C160.822 125.536 161.199 125.334 161.565 125.12C163.255 124.134 164.772 122.803 166.204 121.054C164.721 118.523 163.419 115.385 162.233 111.83" fill="#175fab" fill-rule="nonzero" opacity="1" stroke="none" vectornator:layerName="path13117"/>
<path d="M221.436 40.1615L212.027 40.1615C211.712 40.1615 211.4 40.1615 211.092 40.1615L211.092 40.1615C210.79 40.1615 210.5 40.1615 210.207 40.1615L210.207 40.1615L210.172 40.1615C209.563 40.1902 208.972 40.211 208.387 40.2485L208.387 40.2485C208.112 40.8399 207.829 41.4313 207.557 42.0261L207.557 42.0261C198.232 61.8879 188.438 79.0988 178.496 92.7804L178.496 92.7804C173.821 107.169 170.39 115.9 166.182 121.036L166.182 121.036C167.981 124.104 170.074 126.262 172.562 127.176L172.562 127.176C172.635 127.148 172.693 127.148 172.758 127.132L172.758 127.132C172.758 127.132 172.794 127.132 172.798 127.132L172.798 127.132C172.842 127.132 172.889 127.104 172.936 127.104L172.936 127.104C173.038 127.075 173.147 127.057 173.248 127.025L173.248 127.025C173.314 126.997 173.368 126.994 173.433 126.973L173.433 126.973C173.528 126.944 173.625 126.923 173.713 126.9L173.713 126.9C173.771 126.872 173.829 126.862 173.887 126.851L173.887 126.851C174.032 126.804 174.162 126.77 174.3 126.726L174.3 126.726C174.366 126.697 174.435 126.674 174.507 126.656L174.507 126.656C174.587 126.628 174.667 126.607 174.739 126.572L174.739 126.572C174.823 126.543 174.906 126.528 174.979 126.497L174.979 126.497C175.044 126.468 175.113 126.45 175.174 126.424L175.174 126.424C175.337 126.366 175.497 126.317 175.66 126.253L175.66 126.253C175.704 126.253 175.748 126.213 175.795 126.203L175.795 126.203C175.893 126.162 175.994 126.131 176.092 126.087L176.092 126.087C176.128 126.058 176.172 126.056 176.219 126.041L176.219 126.041C176.56 125.898 176.912 125.753 177.264 125.595L177.264 125.595L177.3 125.595L177.3 125.595C177.801 125.374 178.309 125.127 178.813 124.869L178.813 124.869C194.979 115.838 203.14 85.493 228.515 40.165L228.515 40.165L221.428 40.165L221.436 40.1615Z" fill="url(#LinearGradient_15)" fill-rule="nonzero" opacity="1" stroke="none" vectornator:layerName="path13139"/>
<path d="M81.107 42.1532C81.1472 42.1532 81.1833 42.1532 81.223 42.182C81.3208 42.182 81.4189 42.182 81.5168 42.2136C81.5535 42.2136 81.5858 42.2136 81.6149 42.2136C81.7925 42.2423 81.9703 42.2574 82.1517 42.2833C82.1847 42.2833 82.2135 42.2833 82.2422 42.312C82.3908 42.3408 82.5433 42.3645 82.6956 42.3875C82.7286 42.3875 82.772 42.4162 82.8082 42.4162C83.1564 42.4859 83.5119 42.5584 83.8528 42.6483C83.8852 42.6483 83.9182 42.6771 83.9472 42.6771C84.0922 42.7116 84.2228 42.7554 84.3678 42.796C84.4117 42.796 84.4439 42.8247 84.484 42.8312C84.6545 42.875 84.814 42.9183 84.9809 42.9734C84.9881 42.9734 84.9981 42.9734 85.0175 43.0021C85.1588 43.0452 85.3039 43.1008 85.4527 43.1501C85.5109 43.1788 85.565 43.191 85.6196 43.2054C85.7212 43.2492 85.8337 43.2924 85.9315 43.3331C85.9897 43.3331 86.0476 43.3733 86.1091 43.3942C86.2432 43.4552 86.3848 43.5102 86.5226 43.5682C86.5951 43.597 86.6567 43.6293 86.7257 43.6553C86.8055 43.6962 86.8888 43.7337 86.9759 43.7627C87.0484 43.7972 87.1282 43.8352 87.197 43.8671C87.2733 43.908 87.3456 43.9396 87.4183 43.9802C89.2174 44.8653 90.875 46.0442 92.4093 47.4733C92.9751 46.8785 93.5663 46.3451 94.1793 45.8664C90.8242 43.487 87.023 42.1304 82.6378 42.1304C82.13 42.1304 81.6222 42.1592 81.1072 42.1973" fill="#7dcbec" fill-rule="nonzero" opacity="1" stroke="none" vectornator:layerName="path13231"/>
<path d="M92.4098 47.4311C93.3493 48.3051 94.2488 49.281 95.1011 50.3328C95.9245 49.7598 96.7406 49.2084 97.5603 48.6934C96.4867 47.6197 95.355 46.6549 94.1762 45.8241C93.5632 46.2994 92.9756 46.8362 92.4098 47.4311" fill="#5ec5ed" fill-rule="nonzero" opacity="1" stroke="none" vectornator:layerName="path13235"/>
<g opacity="1" vectornator:layerName="g13243">
<path d="M81.1061 42.1526C81.6212 42.1091 82.129 42.091 82.6368 42.091C87.022 42.091 90.8232 43.4475 94.1783 45.8233C97.7184 43.0304 101.998 42.0547 107.943 42.0547L79.1547 42.0547C79.8185 42.0547 80.4677 42.0946 81.1061 42.1526" fill="url(#LinearGradient_16)" fill-rule="nonzero" opacity="1" stroke="none" vectornator:layerName="path13245"/>
</g>
<g opacity="1" vectornator:layerName="g13253">
<path d="M107.943 42.0547C101.998 42.0547 97.7184 43.0304 94.1783 45.8233C95.3535 46.6539 96.4851 47.6187 97.5588 48.6923C102.488 45.5585 107.37 43.4838 112.183 42.577C114.019 42.2324 115.85 42.0547 117.657 42.0547C117.657 42.0547 107.943 42.0547 107.943 42.0547Z" fill="url(#LinearGradient_17)" fill-rule="nonzero" opacity="1" stroke="none" vectornator:layerName="path13255"/>
</g>
<path d="M178.509 92.8091C181.066 84.9237 183.993 75.3519 187.624 63.7413C190.896 53.2807 196.688 45.4606 207.566 42.0476C207.853 41.4635 208.125 40.8613 208.404 40.27C190.671 41.3329 182.383 50.3534 178.212 63.7123C170.918 87.0347 166.5 102.153 162.245 111.786C167.678 106.592 173.112 100.216 178.509 92.8091" fill="url(#LinearGradient_18)" fill-rule="nonzero" opacity="1" stroke="none" vectornator:layerName="path13333"/>
</g>
<g fill="#4a4a4a" opacity="1" stroke="none">
<path d="M9.73633 181L5.53223 181L5.53223 159.408L12.0947 159.408L16.0205 176.386L19.917 159.408L26.4062 159.408L26.4062 181L22.2021 181L22.2021 166.396C22.2021 165.976 22.207 165.387 22.2168 164.63C22.2266 163.874 22.2314 163.29 22.2314 162.88L18.1445 181L13.7646 181L9.70703 162.88C9.70703 163.29 9.71191 163.874 9.72168 164.63C9.73145 165.387 9.73633 165.976 9.73633 166.396L9.73633 181Z"/>
<path d="M38.4326 177.88C39.4971 177.88 40.3613 177.763 41.0254 177.528C42.2852 177.079 42.915 176.244 42.915 175.023C42.915 174.311 42.6025 173.759 41.9775 173.368C41.3525 172.987 40.3711 172.65 39.0332 172.357L36.748 171.845C34.502 171.337 32.9492 170.785 32.0898 170.189C30.6348 169.193 29.9072 167.636 29.9072 165.517C29.9072 163.583 30.6104 161.977 32.0166 160.697C33.4229 159.418 35.4883 158.778 38.2129 158.778C40.4883 158.778 42.4292 159.381 44.0356 160.587C45.6421 161.793 46.4844 163.544 46.5625 165.839L42.2266 165.839C42.1484 164.54 41.582 163.617 40.5273 163.07C39.8242 162.709 38.9502 162.528 37.9053 162.528C36.7432 162.528 35.8154 162.763 35.1221 163.231C34.4287 163.7 34.082 164.354 34.082 165.194C34.082 165.966 34.4238 166.542 35.1074 166.923C35.5469 167.177 36.4844 167.475 37.9199 167.816L41.6406 168.71C43.2715 169.101 44.502 169.623 45.332 170.277C46.6211 171.293 47.2656 172.763 47.2656 174.687C47.2656 176.659 46.5112 178.297 45.0024 179.601C43.4937 180.905 41.3623 181.557 38.6084 181.557C35.7959 181.557 33.584 180.915 31.9727 179.63C30.3613 178.346 29.5557 176.581 29.5557 174.335L33.8623 174.335C33.999 175.321 34.2676 176.059 34.668 176.547C35.4004 177.436 36.6553 177.88 38.4326 177.88Z"/>
<path d="M70.4834 176.562L62.5293 176.562L61.0352 181L56.3184 181L64.0234 159.408L69.1211 159.408L76.7676 181L71.875 181L70.4834 176.562ZM69.2236 172.841L66.5283 164.345L63.7451 172.841L69.2236 172.841Z"/>
<path d="M88.6768 173.236L84.0918 173.236L84.0918 181L79.6094 181L79.6094 159.408L89.0137 159.408C91.1816 159.408 92.9102 159.965 94.1992 161.078C95.4883 162.191 96.1328 163.915 96.1328 166.249C96.1328 168.798 95.4883 170.6 94.1992 171.654C92.9102 172.709 91.0693 173.236 88.6768 173.236ZM90.7861 168.739C91.3721 168.222 91.665 167.401 91.665 166.278C91.665 165.155 91.3696 164.354 90.7788 163.876C90.188 163.397 89.3604 163.158 88.2959 163.158L84.0918 163.158L84.0918 169.516L88.2959 169.516C89.3604 169.516 90.1904 169.257 90.7861 168.739Z"/>
<path d="M108.687 173.236L104.102 173.236L104.102 181L99.6191 181L99.6191 159.408L109.023 159.408C111.191 159.408 112.92 159.965 114.209 161.078C115.498 162.191 116.143 163.915 116.143 166.249C116.143 168.798 115.498 170.6 114.209 171.654C112.92 172.709 111.079 173.236 108.687 173.236ZM110.796 168.739C111.382 168.222 111.675 167.401 111.675 166.278C111.675 165.155 111.379 164.354 110.789 163.876C110.198 163.397 109.37 163.158 108.306 163.158L104.102 163.158L104.102 169.516L108.306 169.516C109.37 169.516 110.2 169.257 110.796 168.739Z"/>
<path d="M119.526 159.408L124.038 159.408L124.038 177.118L134.731 177.118L134.731 181L119.526 181L119.526 159.408Z"/>
<path d="M137.5 159.408L141.982 159.408L141.982 181L137.5 181L137.5 159.408Z"/>
<path d="M161.421 179.389C159.81 180.863 157.749 181.601 155.239 181.601C152.134 181.601 149.692 180.604 147.915 178.612C146.138 176.61 145.249 173.866 145.249 170.38C145.249 166.61 146.26 163.705 148.281 161.664C150.039 159.887 152.275 158.998 154.99 158.998C158.623 158.998 161.279 160.189 162.959 162.572C163.887 163.91 164.385 165.253 164.453 166.601L159.941 166.601C159.648 165.565 159.272 164.784 158.813 164.257C157.993 163.319 156.777 162.851 155.166 162.851C153.525 162.851 152.231 163.512 151.284 164.835C150.337 166.159 149.863 168.031 149.863 170.453C149.863 172.875 150.364 174.689 151.365 175.895C152.366 177.101 153.638 177.704 155.181 177.704C156.763 177.704 157.969 177.187 158.799 176.151C159.258 175.595 159.639 174.76 159.941 173.646L164.409 173.646C164.019 176 163.022 177.914 161.421 179.389Z"/>
<path d="M180.493 176.562L172.539 176.562L171.045 181L166.328 181L174.033 159.408L179.131 159.408L186.777 181L181.885 181L180.493 176.562ZM179.233 172.841L176.538 164.345L173.755 172.841L179.233 172.841Z"/>
<path d="M202.993 159.408L202.993 163.231L196.533 163.231L196.533 181L191.992 181L191.992 163.231L185.503 163.231L185.503 159.408L202.993 159.408Z"/>
<path d="M205.278 159.408L209.761 159.408L209.761 181L205.278 181L205.278 159.408Z"/>
<path d="M223.516 181.601C220.43 181.601 218.071 180.761 216.44 179.081C214.253 177.021 213.159 174.052 213.159 170.175C213.159 166.22 214.253 163.251 216.44 161.269C218.071 159.589 220.43 158.749 223.516 158.749C226.602 158.749 228.96 159.589 230.591 161.269C232.769 163.251 233.857 166.22 233.857 170.175C233.857 174.052 232.769 177.021 230.591 179.081C228.96 180.761 226.602 181.601 223.516 181.601ZM227.778 175.8C228.823 174.481 229.346 172.606 229.346 170.175C229.346 167.753 228.821 165.88 227.771 164.557C226.721 163.234 225.303 162.572 223.516 162.572C221.729 162.572 220.303 163.231 219.238 164.55C218.174 165.868 217.642 167.743 217.642 170.175C217.642 172.606 218.174 174.481 219.238 175.8C220.303 177.118 221.729 177.777 223.516 177.777C225.303 177.777 226.724 177.118 227.778 175.8Z"/>
<path d="M254.761 181L250.249 181L241.431 165.663L241.431 181L237.227 181L237.227 159.408L241.958 159.408L250.557 174.481L250.557 159.408L254.761 159.408L254.761 181Z"/>
<path d="M35.1953 217L25.4102 217L25.4102 195.408L35.8984 195.408C38.5449 195.447 40.4199 196.214 41.5234 197.708C42.1875 198.626 42.5195 199.725 42.5195 201.004C42.5195 202.322 42.1875 203.382 41.5234 204.183C41.1523 204.632 40.6055 205.042 39.8828 205.413C40.9863 205.813 41.8188 206.448 42.3804 207.317C42.9419 208.187 43.2227 209.241 43.2227 210.481C43.2227 211.761 42.9004 212.908 42.2559 213.924C41.8457 214.598 41.333 215.164 40.7178 215.623C40.0244 216.15 39.2065 216.512 38.2642 216.707C37.3218 216.902 36.2988 217 35.1953 217ZM35.0928 207.493L29.7168 207.493L29.7168 213.25L35.0195 213.25C35.9668 213.25 36.7041 213.123 37.2314 212.869C38.1885 212.4 38.667 211.502 38.667 210.174C38.667 209.051 38.2031 208.279 37.2754 207.859C36.7578 207.625 36.0303 207.503 35.0928 207.493ZM37.334 203.377C37.9199 203.025 38.2129 202.396 38.2129 201.487C38.2129 200.481 37.8223 199.817 37.041 199.495C36.3672 199.271 35.5078 199.158 34.4629 199.158L29.7168 199.158L29.7168 203.919L35.0195 203.919C35.9668 203.919 36.7383 203.738 37.334 203.377Z"/>
<path d="M47.002 195.408L51.5137 195.408L51.5137 213.118L62.207 213.118L62.207 217L47.002 217L47.002 195.408Z"/>
<path d="M74.8779 217.601C71.792 217.601 69.4336 216.761 67.8027 215.081C65.6152 213.021 64.5215 210.052 64.5215 206.175C64.5215 202.22 65.6152 199.251 67.8027 197.269C69.4336 195.589 71.792 194.749 74.8779 194.749C77.9639 194.749 80.3223 195.589 81.9531 197.269C84.1309 199.251 85.2197 202.22 85.2197 206.175C85.2197 210.052 84.1309 213.021 81.9531 215.081C80.3223 216.761 77.9639 217.601 74.8779 217.601ZM79.1406 211.8C80.1855 210.481 80.708 208.606 80.708 206.175C80.708 203.753 80.1831 201.88 79.1333 200.557C78.0835 199.234 76.665 198.572 74.8779 198.572C73.0908 198.572 71.665 199.231 70.6006 200.55C69.5361 201.868 69.0039 203.743 69.0039 206.175C69.0039 208.606 69.5361 210.481 70.6006 211.8C71.665 213.118 73.0908 213.777 74.8779 213.777C76.665 213.777 78.0859 213.118 79.1406 211.8Z"/>
<path d="M103.896 215.389C102.285 216.863 100.225 217.601 97.7148 217.601C94.6094 217.601 92.168 216.604 90.3906 214.612C88.6133 212.61 87.7246 209.866 87.7246 206.38C87.7246 202.61 88.7354 199.705 90.7568 197.664C92.5146 195.887 94.751 194.998 97.4658 194.998C101.099 194.998 103.755 196.189 105.435 198.572C106.362 199.91 106.86 201.253 106.929 202.601L102.417 202.601C102.124 201.565 101.748 200.784 101.289 200.257C100.469 199.319 99.2529 198.851 97.6416 198.851C96.001 198.851 94.707 199.512 93.7598 200.835C92.8125 202.159 92.3389 204.031 92.3389 206.453C92.3389 208.875 92.8394 210.689 93.8403 211.895C94.8413 213.101 96.1133 213.704 97.6562 213.704C99.2383 213.704 100.444 213.187 101.274 212.151C101.733 211.595 102.114 210.76 102.417 209.646L106.885 209.646C106.494 212 105.498 213.914 103.896 215.389Z"/>
<path d="M129.458 217L123.657 217L116.992 207.566L114.839 209.778L114.839 217L110.4 217L110.4 195.408L114.839 195.408L114.839 204.3L123.174 195.408L129.004 195.408L120.156 204.3L129.458 217Z"/>
<path d="M139.829 213.88C140.894 213.88 141.758 213.763 142.422 213.528C143.682 213.079 144.312 212.244 144.312 211.023C144.312 210.311 143.999 209.759 143.374 209.368C142.749 208.987 141.768 208.65 140.43 208.357L138.145 207.845C135.898 207.337 134.346 206.785 133.486 206.189C132.031 205.193 131.304 203.636 131.304 201.517C131.304 199.583 132.007 197.977 133.413 196.697C134.819 195.418 136.885 194.778 139.609 194.778C141.885 194.778 143.826 195.381 145.432 196.587C147.039 197.793 147.881 199.544 147.959 201.839L143.623 201.839C143.545 200.54 142.979 199.617 141.924 199.07C141.221 198.709 140.347 198.528 139.302 198.528C138.14 198.528 137.212 198.763 136.519 199.231C135.825 199.7 135.479 200.354 135.479 201.194C135.479 201.966 135.82 202.542 136.504 202.923C136.943 203.177 137.881 203.475 139.316 203.816L143.037 204.71C144.668 205.101 145.898 205.623 146.729 206.277C148.018 207.293 148.662 208.763 148.662 210.687C148.662 212.659 147.908 214.297 146.399 215.601C144.89 216.905 142.759 217.557 140.005 217.557C137.192 217.557 134.98 216.915 133.369 215.63C131.758 214.346 130.952 212.581 130.952 210.335L135.259 210.335C135.396 211.321 135.664 212.059 136.064 212.547C136.797 213.436 138.052 213.88 139.829 213.88Z"/>
<path d="M169.639 217L160.337 217L160.337 195.408L169.639 195.408C170.977 195.428 172.09 195.584 172.979 195.877C174.492 196.375 175.718 197.288 176.655 198.616C177.407 199.69 177.92 200.853 178.193 202.103C178.467 203.353 178.604 204.544 178.604 205.677C178.604 208.548 178.027 210.979 176.875 212.972C175.312 215.657 172.9 217 169.639 217ZM172.993 200.916C172.3 199.744 170.928 199.158 168.877 199.158L164.717 199.158L164.717 213.25L168.877 213.25C171.006 213.25 172.49 212.2 173.33 210.101C173.789 208.948 174.019 207.576 174.019 205.984C174.019 203.787 173.677 202.098 172.993 200.916Z"/>
<path d="M194.644 212.562L186.689 212.562L185.195 217L180.479 217L188.184 195.408L193.281 195.408L200.928 217L196.035 217L194.644 212.562ZM193.384 208.841L190.688 200.345L187.905 208.841L193.384 208.841Z"/>
<path d="M217.144 195.408L217.144 199.231L210.684 199.231L210.684 217L206.143 217L206.143 199.231L199.653 199.231L199.653 195.408L217.144 195.408Z"/>
<path d="M230.21 212.562L222.256 212.562L220.762 217L216.045 217L223.75 195.408L228.848 195.408L236.494 217L231.602 217L230.21 212.562ZM228.95 208.841L226.255 200.345L223.472 208.841L228.95 208.841Z"/>
</g>
</g>
</svg>
