<?xml version="1.0" encoding="UTF-8" standalone="no"?>
<!DOCTYPE svg PUBLIC "-//W3C//DTD SVG 1.1//EN" "http://www.w3.org/Graphics/SVG/1.1/DTD/svg11.dtd">
<!-- Created with Vectornator (http://vectornator.io/) -->
<svg height="100%" stroke-miterlimit="10" style="fill-rule:nonzero;clip-rule:evenodd;stroke-linecap:round;stroke-linejoin:round;" version="1.1" viewBox="0 0 200 200" width="100%" xml:space="preserve" xmlns="http://www.w3.org/2000/svg" xmlns:xlink="http://www.w3.org/1999/xlink">
<defs>
<filter color-interpolation-filters="sRGB" filterUnits="userSpaceOnUse" height="110" id="Filter" width="110" x="88.3561" y="89.5069">
<feDropShadow dx="0" dy="0" flood-color="#000000" flood-opacity="0.5" in="SourceGraphic" result="Shadow" stdDeviation="2"/>
</filter>
</defs>
<g id="com.castsoftware.sqlanalyzer">
<g opacity="1">
<g opacity="1">
<path d="M163.11 121.218L163.11 88.6867C149.103 96.7051 122.404 102.133 91.7251 102.133C60.1105 102.133 32.7309 96.3672 19.1098 87.9444L19.1098 120.509C32.7309 128.932 60.1105 134.697 91.7251 134.697C122.43 134.69 149.122 129.25 163.11 121.218Z" fill="#4a4a4a" fill-rule="evenodd" opacity="1" stroke="none"/>
<path d="M91.7251 81.1254C122.43 81.1254 149.129 75.6848 163.11 67.653L163.11 24.817L19.1098 24.817L19.1098 66.9439C32.7309 75.36 60.1105 81.1254 91.7251 81.1254Z" fill="#9b9b9b" fill-rule="evenodd" opacity="1" stroke="none"/>
<path d="M91.7251 155.697C60.1105 155.697 32.7309 149.932 19.1098 141.503L19.1098 171.715C19.1229 182.39 51.3527 191.038 91.1098 191.038C130.867 191.038 163.097 182.39 163.11 171.715L163.11 142.245C149.103 150.27 122.404 155.697 91.7251 155.697Z" fill="#000000" fill-rule="evenodd" opacity="1" stroke="none"/>
</g>
<path d="M91.1098 5.49312C130.873 5.49312 163.11 14.1478 163.11 24.817C163.11 35.4929 130.873 44.1476 91.1098 44.1476C51.3461 44.1476 19.1098 35.4929 19.1098 24.817C19.1098 14.1412 51.3461 5.49312 91.1098 5.49312Z" fill="#cfcecf" fill-rule="evenodd" opacity="1" stroke="none"/>
</g>
<path d="M143.356 194.507C170.97 194.507 193.356 172.121 193.356 144.507C193.356 116.893 170.97 94.5069 143.356 94.5069C115.742 94.5069 93.3561 116.893 93.3561 144.507C93.3561 172.121 115.742 194.507 143.356 194.507Z" fill="#ffffff" fill-rule="evenodd" filter="url(#Filter)" stroke="none"/>
<g opacity="1">
<g opacity="1">
<path d="M112.016 112.507L174.696 112.507C175.061 112.507 175.356 112.802 175.356 113.167L175.356 175.847C175.356 176.211 175.061 176.507 174.696 176.507L112.016 176.507C111.651 176.507 111.356 176.211 111.356 175.847L111.356 113.167C111.356 112.802 111.651 112.507 112.016 112.507Z" fill="#4a90e2" fill-rule="evenodd" opacity="1" stroke="none"/>
<path d="M112.016 112.507C111.651 112.507 111.356 112.802 111.356 113.167L111.356 144.507L175.356 144.507L175.356 113.167C175.356 112.802 175.061 112.507 174.696 112.507L112.016 112.507Z" fill="#000000" fill-rule="evenodd" opacity="1" stroke="none"/>
<path d="M119.274 118.445L119.274 119.844L128.649 119.844L128.649 118.445L119.274 118.445ZM129.977 118.445L129.977 119.844L143.337 119.844C143.337 119.844 141.973 118.445 140.165 118.445L129.977 118.445ZM145.958 118.445L145.958 119.844L154.041 119.844L153.561 118.445L145.958 118.445ZM159.836 118.445L159.356 119.844L167.365 119.844L167.365 118.445L159.836 118.445ZM119.274 121.166L119.274 122.566L128.649 122.566L128.649 121.166L119.274 121.166ZM129.977 121.168L129.977 122.566L144.888 122.566C144.888 122.566 144.713 121.489 144.41 121.168L129.977 121.168ZM145.958 121.168L145.958 122.566L154.927 122.566L154.483 121.168L145.958 121.168ZM158.876 121.168L158.432 122.566L167.365 122.566L167.365 121.168L158.876 121.168ZM121.968 123.888L121.968 125.289L126.028 125.289L126.028 123.888L121.968 123.888ZM132.671 123.888L132.671 125.289L136.732 125.289L136.732 123.888L132.671 123.888ZM140.681 123.888L140.681 125.289L144.741 125.289C144.741 125.289 144.999 124.549 144.999 123.888L140.681 123.888ZM148.652 123.888L148.652 125.289L155.851 125.289L155.371 123.888L148.652 123.888ZM157.992 123.888L157.51 125.289L164.744 125.289L164.744 123.888L157.992 123.888ZM121.968 126.611L121.968 128.011L126.028 128.011L126.028 126.611L121.968 126.611ZM132.671 126.611L132.671 128.011L143.042 128.011C143.042 128.011 143.909 127.293 144.186 126.611L132.671 126.611ZM148.652 126.611L148.652 128.011L152.712 128.011L152.712 127.232L152.97 128.011L160.408 128.011L160.684 127.232L160.684 128.011L164.744 128.011L164.744 126.611L157.123 126.611L156.718 127.797L156.312 126.611L148.652 126.611ZM121.968 129.333L121.968 130.732L126.028 130.732L126.028 129.333L121.968 129.333ZM132.671 129.333L132.671 130.732L144.186 130.732C143.909 130.053 143.042 129.333 143.042 129.333L132.671 129.333ZM148.652 129.333L148.652 130.732L152.712 130.732L152.712 129.333L148.652 129.333ZM153.45 129.333L153.941 130.732L159.518 130.732L159.984 129.333L153.45 129.333ZM160.684 129.333L160.684 130.732L164.744 130.732L164.744 129.333L160.684 129.333ZM121.968 132.054L121.968 133.454L126.028 133.454L126.028 132.054L121.968 132.054ZM132.671 132.054L132.671 133.454L136.732 133.454L136.732 132.054L132.671 132.054ZM140.681 132.054L140.681 133.454L144.999 133.454C144.999 132.793 144.741 132.054 144.741 132.054L140.681 132.054ZM148.652 132.054L148.652 133.454L152.712 133.454L152.712 132.054L148.652 132.054ZM154.372 132.054L154.848 133.454L158.586 133.454L159.066 132.054L154.372 132.054ZM160.684 132.054L160.684 133.454L164.744 133.454L164.744 132.054L160.684 132.054ZM119.347 134.776L119.347 136.177L128.722 136.177L128.722 134.776L119.347 134.776ZM129.977 134.776L129.977 136.177L144.41 136.177C144.713 135.856 144.888 134.776 144.888 134.776L129.977 134.776ZM146.031 134.776L146.031 136.177L152.712 136.177L152.712 134.776L146.031 134.776ZM155.296 134.776L155.785 136.177L157.687 136.177L158.146 134.776L155.296 134.776ZM160.684 134.776L160.684 136.177L167.439 136.177L167.439 134.776L160.684 134.776ZM119.347 137.499L119.347 138.899L128.722 138.899L128.722 137.499L119.347 137.499ZM129.977 137.499L129.977 138.897L140.165 138.897C141.973 138.897 143.337 137.499 143.337 137.499L129.977 137.499ZM146.031 137.499L146.031 138.899L152.712 138.899L152.712 137.499L146.031 137.499ZM156.223 137.499L156.694 138.895L156.775 138.897L157.252 137.499L156.223 137.499ZM160.684 137.499L160.684 138.899L167.439 138.899L167.439 137.499L160.684 137.499Z" fill="#ffffff" fill-rule="nonzero" opacity="1" stroke="none"/>
</g>
<path d="M135.439 148.703L135.439 151.589L135.439 170.806L135.439 172.785L151.603 172.785L151.603 171.96L151.521 171.96L151.521 151.589L151.603 151.589L151.603 148.703L135.439 148.703ZM139.397 152.662L147.315 152.662L147.315 154.641L139.397 154.641L139.397 152.662ZM139.397 156.62L147.315 156.62L147.315 158.6L139.397 158.6L139.397 156.62ZM139.397 160.909L147.315 160.909L147.315 162.888L139.397 162.888L139.397 160.909ZM126.201 152.662L126.201 170.806L134.779 170.806L134.779 162.888L129.17 162.888L129.17 160.909L134.779 160.909L134.779 158.6L129.17 158.6L129.17 156.62L134.779 156.62L134.779 152.662L126.201 152.662ZM152.181 152.662L152.181 156.62L157.542 156.62L157.542 158.6L152.181 158.6L152.181 160.909L157.542 160.909L157.542 162.888L152.181 162.888L152.181 170.806L160.841 170.806L160.841 152.662L152.181 152.662Z" fill="#ffffff" fill-rule="nonzero" opacity="1" stroke="none"/>
</g>
</g>
</svg>
