<?xml version="1.0" encoding="UTF-8" standalone="no"?>
<!DOCTYPE svg PUBLIC "-//W3C//DTD SVG 1.1//EN" "http://www.w3.org/Graphics/SVG/1.1/DTD/svg11.dtd">
<!-- Created with Vectornator (http://vectornator.io/) -->
<svg height="100%" stroke-miterlimit="10" style="fill-rule:nonzero;clip-rule:evenodd;stroke-linecap:round;stroke-linejoin:round;" version="1.1" viewBox="0 0 200 200" width="100%" xml:space="preserve" xmlns="http://www.w3.org/2000/svg" xmlns:vectornator="http://vectornator.io" xmlns:xlink="http://www.w3.org/1999/xlink">
<defs>
<filter color-interpolation-filters="sRGB" filterUnits="userSpaceOnUse" height="110" id="Filter" width="110" x="47.6104" y="87.7727">
<feDropShadow dx="0" dy="0" flood-color="#000000" flood-opacity="0.5" in="SourceGraphic" result="Shadow" stdDeviation="2"/>
</filter>
</defs>
<g id="com.castsoftware.databaseextractor" vectornator:layerName="com.castsoftware.databaseextractor">
<g opacity="1" vectornator:layerName="database">
<g opacity="1" vectornator:layerName="Group">
<path d="M172 122.952L172 90.4209C157.993 98.4394 131.294 103.867 100.615 103.867C69.0007 103.867 41.6211 98.1014 28 89.6787L28 122.243C41.6211 130.666 69.0007 136.431 100.615 136.431C131.32 136.425 158.012 130.984 172 122.952Z" fill="#4a4a4a" fill-rule="evenodd" opacity="1" stroke="none" vectornator:layerName="Shape"/>
<path d="M100.615 82.8596C131.32 82.8596 158.019 77.419 172 69.3872L172 26.5513L28 26.5513L28 68.6782C41.6211 77.0943 69.0007 82.8596 100.615 82.8596Z" fill="#9b9b9b" fill-rule="evenodd" opacity="1" stroke="none" vectornator:layerName="Shape"/>
<path d="M100.615 157.432C69.0007 157.432 41.6211 151.666 28 143.237L28 173.449C28.0131 184.125 60.2429 192.773 100 192.773C139.757 192.773 171.987 184.125 172 173.449L172 143.979C157.993 152.004 131.294 157.432 100.615 157.432Z" fill="#000000" fill-rule="evenodd" opacity="1" stroke="none" vectornator:layerName="Shape"/>
</g>
<path d="M100 7.22735C139.764 7.22735 172 15.882 172 26.5513C172 37.2271 139.764 45.8818 100 45.8818C60.2364 45.8818 28 37.2271 28 26.5513C28 15.8754 60.2364 7.22735 100 7.22735Z" fill="#cfcecf" fill-rule="evenodd" opacity="1" stroke="none" vectornator:layerName="Shape"/>
</g>
<path d="M102.61 192.773C130.225 192.773 152.61 170.387 152.61 142.773C152.61 115.158 130.225 92.7727 102.61 92.7727C74.9962 92.7727 52.6104 115.158 52.6104 142.773C52.6104 170.387 74.9962 192.773 102.61 192.773Z" fill="#ffffff" fill-rule="evenodd" filter="url(#Filter)" stroke="none" vectornator:layerName="Oval" vectornator:shadowAngle="0" vectornator:shadowColor="#000000" vectornator:shadowOffset="0" vectornator:shadowOpacity="0.5" vectornator:shadowRadius="4"/>
<g opacity="1" vectornator:layerName="ExtractorBlack">
<path d="M109.236 125.879L132.61 139.137L132.61 167.498L102.61 184.773L72.6104 167.498L72.6104 139.137L102.61 156.154L102.61 177.296L126.089 163.888L126.089 143.778L109.236 133.599L109.236 125.879ZM96.0887 133.266L85.6539 139.137L79.1321 135.269L96.0887 125.773L96.0887 133.266Z" fill="#000000" fill-rule="nonzero" opacity="1" stroke="none" vectornator:layerName="Shape-2"/>
<path d="M100.029 111.115L86.1382 119.035L79.6104 115.112L103.11 101.773L126.61 115.112L120.083 119.035L106.296 111.174L106.296 144.773L100.029 144.773L100.029 111.115Z" fill="#000000" fill-rule="nonzero" opacity="1" stroke="none" vectornator:layerName="Combined-Shape"/>
</g>
</g>
</svg>
