<?xml version="1.0" encoding="UTF-8" standalone="no"?>
<!DOCTYPE svg PUBLIC "-//W3C//DTD SVG 1.1//EN" "http://www.w3.org/Graphics/SVG/1.1/DTD/svg11.dtd">
<!-- Created with Vectornator (http://vectornator.io/) -->
<svg height="100%" stroke-miterlimit="10" style="fill-rule:nonzero;clip-rule:evenodd;stroke-linecap:round;stroke-linejoin:round;" version="1.1" viewBox="0 0 200 200" width="100%" xml:space="preserve" xmlns="http://www.w3.org/2000/svg" xmlns:vectornator="http://vectornator.io" xmlns:xlink="http://www.w3.org/1999/xlink">
<defs>
<filter color-interpolation-filters="sRGB" filterUnits="userSpaceOnUse" height="110" id="Filter" width="110" x="88.3561" y="89.5069">
<feDropShadow dx="0" dy="0" flood-color="#000000" flood-opacity="0.5" in="SourceGraphic" result="Shadow" stdDeviation="2"/>
</filter>
</defs>
<g id="com.castsoftware.sqlanalyzer" vectornator:layerName="com.castsoftware.sqlanalyzer">
<g opacity="1" vectornator:layerName="database">
<g opacity="1" vectornator:layerName="Group">
<path d="M163.11 121.218L163.11 88.6867C149.103 96.7051 122.404 102.133 91.7251 102.133C60.1105 102.133 32.7309 96.3672 19.1098 87.9444L19.1098 120.509C32.7309 128.932 60.1105 134.697 91.7251 134.697C122.43 134.69 149.122 129.25 163.11 121.218Z" fill="#771c96" fill-rule="evenodd" opacity="1" stroke="none" vectornator:layerName="Shape"/>
<path d="M91.7251 81.1254C122.43 81.1254 149.129 75.6848 163.11 67.653L163.11 24.817L19.1098 24.817L19.1098 66.9439C32.7309 75.36 60.1105 81.1254 91.7251 81.1254Z" fill="#b646db" fill-rule="evenodd" opacity="1" stroke="none" vectornator:layerName="Shape"/>
<path d="M91.7251 155.697C60.1105 155.697 32.7309 149.932 19.1098 141.503L19.1098 171.715C19.1229 182.39 51.3527 191.038 91.1098 191.038C130.867 191.038 163.097 182.39 163.11 171.715L163.11 142.245C149.103 150.27 122.404 155.697 91.7251 155.697Z" fill="#350a43" fill-rule="evenodd" opacity="1" stroke="none" vectornator:layerName="Shape"/>
</g>
<path d="M91.1098 5.49312C130.873 5.49312 163.11 14.1478 163.11 24.817C163.11 35.4929 130.873 44.1476 91.1098 44.1476C51.3461 44.1476 19.1098 35.4929 19.1098 24.817C19.1098 14.1412 51.3461 5.49312 91.1098 5.49312Z" fill="#d69de9" fill-rule="evenodd" opacity="1" stroke="none" vectornator:layerName="Shape"/>
</g>
<path d="M143.356 194.507C170.97 194.507 193.356 172.121 193.356 144.507C193.356 116.893 170.97 94.5069 143.356 94.5069C115.742 94.5069 93.3561 116.893 93.3561 144.507C93.3561 172.121 115.742 194.507 143.356 194.507Z" fill="#5c2d91" fill-rule="evenodd" filter="url(#Filter)" stroke="none" vectornator:layerName="Oval" vectornator:shadowAngle="0" vectornator:shadowColor="#000000" vectornator:shadowOffset="0" vectornator:shadowOpacity="0.5" vectornator:shadowRadius="4"/>
<g opacity="1" vectornator:layerName="netcore">
<path d="M101.686 160.129C100.914 160.141 100.173 159.832 99.6416 159.276C99.0959 158.741 98.7932 158.008 98.8034 157.246C98.7979 156.486 99.0998 155.754 99.6416 155.216C100.168 154.651 100.911 154.334 101.686 154.343C102.46 154.342 103.2 154.658 103.73 155.216C104.282 155.75 104.592 156.482 104.589 157.246C104.596 158.012 104.286 158.746 103.73 159.276C103.195 159.826 102.456 160.134 101.686 160.129Z" fill="#ffffff" fill-rule="nonzero" opacity="1" stroke="none" vectornator:layerName="Shape"/>
<path d="M136.991 160.129L132.241 160.129L115.253 135.209C114.829 134.595 114.477 133.94 114.201 133.255L114.056 133.255C114.217 134.678 114.278 136.109 114.237 137.54L114.237 160.129L110.375 160.129L110.375 128.884L115.398 128.884L131.933 153.359C132.622 154.376 133.069 155.073 133.275 155.45L133.365 155.45C133.174 153.926 133.095 152.391 133.13 150.857L133.13 128.884L136.991 128.884L136.991 160.129Z" fill="#ffffff" fill-rule="nonzero" opacity="1" stroke="none" vectornator:layerName="Shape"/>
<path d="M161.275 160.129L143.935 160.129L143.935 128.884L160.47 128.884L160.47 132.192L147.836 132.192L147.836 142.579L159.611 142.579L159.611 145.869L147.836 145.869L147.836 156.701L161.293 156.701L161.275 160.129Z" fill="#ffffff" fill-rule="nonzero" opacity="1" stroke="none" vectornator:layerName="Shape"/>
<path d="M187.909 132.192L178.227 132.192L178.227 160.129L174.337 160.129L174.337 132.192L164.765 132.192L164.765 128.884L187.909 128.884L187.909 132.192Z" fill="#ffffff" fill-rule="nonzero" opacity="1" stroke="none" vectornator:layerName="Shape"/>
</g>
</g>
</svg>
