<?xml version="1.0" encoding="UTF-8" standalone="no"?>
<!DOCTYPE svg PUBLIC "-//W3C//DTD SVG 1.1//EN" "http://www.w3.org/Graphics/SVG/1.1/DTD/svg11.dtd">
<!-- Created with Vectornator (http://vectornator.io/) -->
<svg height="100%" stroke-miterlimit="10" style="fill-rule:nonzero;clip-rule:evenodd;stroke-linecap:round;stroke-linejoin:round;" version="1.1" viewBox="0 0 260 260" width="100%" xml:space="preserve" xmlns="http://www.w3.org/2000/svg" xmlns:xlink="http://www.w3.org/1999/xlink">
<defs/>
<g id="com.castsoftware.web">
<path d="M130 225C182.467 225 225 182.467 225 130C225 77.5329 182.467 35 130 35C77.5329 35 35 77.5329 35 130C35 182.467 77.5329 225 130 225Z" fill="#e66434" fill-rule="evenodd" opacity="1" stroke="none"/>
<path d="M149.296 210.496C156.28 203.224 162.184 192.208 166.36 178.6C174.28 181.048 181.84 184.144 189.04 187.96C178.312 198.904 164.632 206.824 149.296 210.496ZM70.96 187.96C78.088 184.216 85.576 181.048 93.424 178.672C97.6 192.208 103.504 203.224 110.416 210.424C95.224 206.752 81.616 198.832 70.96 187.96ZM110.416 49.576C103.504 56.776 97.6 67.792 93.424 81.256C85.576 78.88 78.088 75.784 71.032 71.968C81.616 61.168 95.224 53.248 110.416 49.576ZM188.968 71.968C181.84 75.784 174.28 78.952 166.36 81.328C162.184 67.792 156.28 56.776 149.296 49.504C164.632 53.176 178.312 61.096 188.968 71.968ZM173.272 126.4C172.984 112.648 171.256 99.76 168.304 88.312C177.304 85.576 185.872 81.904 193.936 77.512C205.024 90.904 211.936 107.896 212.728 126.4L173.272 126.4ZM173.272 133.6L212.728 133.6C211.936 152.104 205.024 169.096 194.008 182.488C185.872 178.024 177.304 174.424 168.376 171.688C171.256 160.24 172.984 147.28 173.272 133.6ZM133.6 166.072L133.6 133.6L166 133.6C165.712 146.992 164.056 159.232 161.392 169.816C152.464 167.656 143.176 166.36 133.6 166.072ZM133.6 212.224L133.6 173.272C142.456 173.56 151.096 174.712 159.376 176.728C153.112 196.6 143.32 209.56 133.6 212.224ZM126.4 173.272L126.4 212.296C116.608 209.776 106.672 196.744 100.408 176.8C108.76 174.712 117.472 173.56 126.4 173.272ZM93.784 133.6L126.4 133.6L126.4 166.072C116.752 166.36 107.392 167.656 98.392 169.888C95.728 159.232 94.072 146.992 93.784 133.6ZM86.512 133.6C86.8 147.352 88.528 160.312 91.48 171.76C82.552 174.496 74.056 178.096 65.992 182.488C54.976 169.096 48.064 152.104 47.272 133.6L86.512 133.6ZM86.512 126.4L47.272 126.4C48.064 107.896 54.976 90.904 65.992 77.512C74.056 81.904 82.552 85.504 91.48 88.24C88.528 99.688 86.8 112.648 86.512 126.4ZM126.4 93.856L126.4 126.4L93.784 126.4C94.072 113.008 95.728 100.768 98.392 90.112C107.392 92.344 116.752 93.568 126.4 93.856ZM126.4 47.704L126.4 86.656C117.472 86.44 108.76 85.216 100.408 83.2C106.672 63.184 116.608 50.224 126.4 47.704ZM133.6 86.656L133.6 47.776C143.32 50.44 153.112 63.4 159.376 83.2C151.096 85.216 142.456 86.44 133.6 86.656ZM133.6 93.856C143.176 93.64 152.392 92.344 161.392 90.184C164.056 100.768 165.712 113.008 166 126.4L133.6 126.4L133.6 93.856ZM130 40L129.928 40L129.784 40C80.176 40.144 40 80.392 40 130C40 179.608 80.176 219.856 129.784 220L129.856 220L130 220C179.68 220 220 179.68 220 130C220 80.32 179.68 40 130 40Z" fill="#ffffff" fill-rule="evenodd" opacity="1" stroke="none"/>
</g>
</svg>
