<?xml version="1.0" encoding="UTF-8" standalone="no"?>
<!DOCTYPE svg PUBLIC "-//W3C//DTD SVG 1.1//EN" "http://www.w3.org/Graphics/SVG/1.1/DTD/svg11.dtd">
<!-- Created with Vectornator (http://vectornator.io/) -->
<svg height="100%" stroke-miterlimit="10" style="fill-rule:nonzero;clip-rule:evenodd;stroke-linecap:round;stroke-linejoin:round;" version="1.1" viewBox="0 0 200 200" width="100%" xml:space="preserve" xmlns="http://www.w3.org/2000/svg" xmlns:xlink="http://www.w3.org/1999/xlink">
<defs>
<filter color-interpolation-filters="sRGB" filterUnits="userSpaceOnUse" height="110" id="Filter" width="110" x="88.3561" y="89.5069">
<feDropShadow dx="0" dy="0" flood-color="#000000" flood-opacity="0.5" in="SourceGraphic" result="Shadow" stdDeviation="2"/>
</filter>
</defs>
<g id="com.castsoftware.sqlanalyzer">
<g opacity="1">
<g opacity="1">
<path d="M163.11 121.218L163.11 88.6867C149.103 96.7051 122.404 102.133 91.7251 102.133C60.1105 102.133 32.7309 96.3672 19.1098 87.9444L19.1098 120.509C32.7309 128.932 60.1105 134.697 91.7251 134.697C122.43 134.69 149.122 129.25 163.11 121.218Z" fill="#4a4a4a" fill-rule="evenodd" opacity="1" stroke="none"/>
<path d="M91.7251 81.1254C122.43 81.1254 149.129 75.6848 163.11 67.653L163.11 24.817L19.1098 24.817L19.1098 66.9439C32.7309 75.36 60.1105 81.1254 91.7251 81.1254Z" fill="#9b9b9b" fill-rule="evenodd" opacity="1" stroke="none"/>
<path d="M91.7251 155.697C60.1105 155.697 32.7309 149.932 19.1098 141.503L19.1098 171.715C19.1229 182.39 51.3527 191.038 91.1098 191.038C130.867 191.038 163.097 182.39 163.11 171.715L163.11 142.245C149.103 150.27 122.404 155.697 91.7251 155.697Z" fill="#000000" fill-rule="evenodd" opacity="1" stroke="none"/>
</g>
<path d="M91.1098 5.49312C130.873 5.49312 163.11 14.1478 163.11 24.817C163.11 35.4929 130.873 44.1476 91.1098 44.1476C51.3461 44.1476 19.1098 35.4929 19.1098 24.817C19.1098 14.1412 51.3461 5.49312 91.1098 5.49312Z" fill="#cfcecf" fill-rule="evenodd" opacity="1" stroke="none"/>
</g>
<path d="M143.356 194.507C170.97 194.507 193.356 172.121 193.356 144.507C193.356 116.893 170.97 94.5069 143.356 94.5069C115.742 94.5069 93.3561 116.893 93.3561 144.507C93.3561 172.121 115.742 194.507 143.356 194.507Z" fill="#ffffff" fill-rule="evenodd" filter="url(#Filter)" stroke="none"/>
<g opacity="1">
<path d="M112.356 113.507L174.356 113.507L174.356 175.507L112.356 175.507L112.356 113.507Z" fill="#f7df1e" fill-rule="evenodd" opacity="1" stroke="none"/>
<path d="M154.083 162.008C155.332 164.058 156.956 165.566 159.829 165.566C162.242 165.566 163.784 164.352 163.784 162.676C163.784 160.666 162.2 159.955 159.544 158.786L158.088 158.157C153.885 156.356 151.093 154.1 151.093 149.329C151.093 144.935 154.421 141.589 159.622 141.589C163.325 141.589 165.988 142.886 167.906 146.281L163.371 149.21C162.372 147.409 161.295 146.699 159.622 146.699C157.916 146.699 156.835 147.788 156.835 149.21C156.835 150.968 157.917 151.68 160.416 152.768L161.872 153.396C166.821 155.531 169.615 157.707 169.615 162.6C169.615 167.876 165.496 170.766 159.964 170.766C154.555 170.766 151.06 168.173 149.35 164.774L154.083 162.008ZM133.509 162.515C134.424 164.148 135.256 165.529 137.257 165.529C139.171 165.529 140.378 164.776 140.378 161.847L140.378 141.924L146.202 141.924L146.202 161.926C146.202 167.993 142.666 170.755 137.505 170.755C132.842 170.755 130.141 168.327 128.768 165.403L133.509 162.515Z" fill="#000000" fill-rule="evenodd" opacity="1" stroke="none"/>
</g>
</g>
</svg>
