<?xml version="1.0" encoding="UTF-8" standalone="no"?>
<!DOCTYPE svg PUBLIC "-//W3C//DTD SVG 1.1//EN" "http://www.w3.org/Graphics/SVG/1.1/DTD/svg11.dtd">
<!-- Created with Vectornator (http://vectornator.io/) -->
<svg height="100%" stroke-miterlimit="10" style="fill-rule:nonzero;clip-rule:evenodd;stroke-linecap:round;stroke-linejoin:round;" version="1.1" viewBox="0 0 220 220" width="100%" xml:space="preserve" xmlns="http://www.w3.org/2000/svg" xmlns:xlink="http://www.w3.org/1999/xlink">
<defs/>
<g id="com.castsoftware.xset">
<g opacity="1">
<path d="M10.276 114.023L10.276 175.764L109.979 202.983L109.979 141.072L10.276 114.023Z" fill="#a0a4ca" fill-rule="nonzero" opacity="1" stroke="none"/>
<path d="M53.5032 157.512C53.5032 161.333 51.2527 163.966 48.2803 163.966C47.8132 163.966 47.3461 163.924 46.8365 163.754C46.242 163.584 45.6476 163.329 45.0955 162.989C44.7134 162.777 44.3737 162.522 44.034 162.225C42.6752 161.079 41.5287 159.465 40.8493 157.682C40.4246 156.493 40.1699 155.219 40.1699 153.945C40.1699 149.529 43.1423 146.726 46.8365 147.703C48.7049 148.212 50.3609 149.571 51.5499 151.355C51.8047 151.694 52.017 152.076 52.1868 152.459C52.4841 153.011 52.7389 153.605 52.9087 154.242C53.0361 154.624 53.121 155.006 53.2059 155.431C53.4183 156.11 53.5032 156.832 53.5032 157.512Z" fill="#7a7a7a" fill-rule="evenodd" opacity="0" stroke="none"/>
<path d="M109.979 141.072L109.979 202.983L209.724 176.146L209.724 114.023L109.979 141.072Z" fill="#c9d2ff" fill-rule="nonzero" opacity="1" stroke="none"/>
<path d="M109.979 141.072L10.276 114.023L109.979 87.017L209.724 114.023L109.979 141.072Z" fill="#bcc7f0" fill-rule="nonzero" opacity="1" stroke="none"/>
<path d="M110.021 118.737C120.621 118.737 129.214 116.037 129.214 112.707C129.214 109.377 120.621 106.677 110.021 106.677C99.4211 106.677 90.828 109.377 90.828 112.707C90.828 116.037 99.4211 118.737 110.021 118.737Z" fill="#7a7a7a" fill-rule="nonzero" opacity="0" stroke="none"/>
</g>
<g opacity="1">
<path d="M10.276 44.0234L10.276 105.764L109.979 132.983L109.979 71.0722L10.276 44.0234Z" fill="#a0a4ca" fill-rule="nonzero" opacity="1" stroke="none"/>
<path d="M53.5032 87.5117C53.5032 91.3333 51.2527 93.966 48.2803 93.966C47.8132 93.966 47.3461 93.9236 46.8365 93.7537C46.242 93.5839 45.6476 93.3291 45.0955 92.9894C44.7134 92.7771 44.3737 92.5223 44.034 92.2251C42.6752 91.0786 41.5287 89.465 40.8493 87.6815C40.4246 86.4926 40.1699 85.2187 40.1699 83.9448C40.1699 79.5287 43.1423 76.7261 46.8365 77.7028C48.7049 78.2123 50.3609 79.5711 51.5499 81.3546C51.8047 81.6943 52.017 82.0764 52.1868 82.4586C52.4841 83.0106 52.7389 83.6051 52.9087 84.242C53.0361 84.6242 53.121 85.0064 53.2059 85.431C53.4183 86.1104 53.5032 86.8323 53.5032 87.5117Z" fill="#7a7a7a" fill-rule="evenodd" opacity="0" stroke="none"/>
<path d="M109.979 71.0722L109.979 132.983L209.724 106.146L209.724 44.0234L109.979 71.0722Z" fill="#c9d2ff" fill-rule="nonzero" opacity="1" stroke="none"/>
<path d="M109.979 71.0722L10.276 44.0234L109.979 17.017L209.724 44.0234L109.979 71.0722Z" fill="#bcc7f0" fill-rule="nonzero" opacity="1" stroke="none"/>
<path d="M110.021 48.7367C120.621 48.7367 129.214 46.0371 129.214 42.707C129.214 39.3769 120.621 36.6773 110.021 36.6773C99.4211 36.6773 90.828 39.3769 90.828 42.707C90.828 46.0371 99.4211 48.7367 110.021 48.7367Z" fill="#7a7a7a" fill-rule="nonzero" opacity="0" stroke="none"/>
</g>
</g>
</svg>
