<?xml version="1.0" encoding="UTF-8" standalone="no"?>
<!DOCTYPE svg PUBLIC "-//W3C//DTD SVG 1.1//EN" "http://www.w3.org/Graphics/SVG/1.1/DTD/svg11.dtd">
<!-- Created with Vectornator (http://vectornator.io/) -->
<svg height="100%" stroke-miterlimit="10" style="fill-rule:nonzero;clip-rule:evenodd;stroke-linecap:round;stroke-linejoin:round;" version="1.1" viewBox="0 0 260 260" width="100%" xml:space="preserve" xmlns="http://www.w3.org/2000/svg" xmlns:vectornator="http://vectornator.io" xmlns:xlink="http://www.w3.org/1999/xlink">
<defs>
<linearGradient gradientTransform="matrix(0 85.5626 -85.5626 0 118.508 59.0596)" gradientUnits="userSpaceOnUse" id="LinearGradient" x1="0" x2="1" y1="0" y2="0">
<stop offset="0" stop-color="#0994dc"/>
<stop offset="0.350006" stop-color="#66cef5"/>
<stop offset="0.350006" stop-color="#66cef5"/>
<stop offset="0.846161" stop-color="#127bca"/>
<stop offset="0.846161" stop-color="#127bca"/>
<stop offset="1" stop-color="#127bca"/>
</linearGradient>
<linearGradient gradientTransform="matrix(0 87.7432 -87.7432 0 121.77 56.8933)" gradientUnits="userSpaceOnUse" id="LinearGradient_2" x1="0" x2="1" y1="0" y2="0">
<stop offset="0" stop-color="#0e76bc"/>
<stop offset="0.360001" stop-color="#36aee8"/>
<stop offset="0.360001" stop-color="#36aee8"/>
<stop offset="0.846161" stop-color="#00adef"/>
<stop offset="0.846161" stop-color="#00adef"/>
<stop offset="1" stop-color="#00adef"/>
</linearGradient>
<linearGradient gradientTransform="matrix(0 -69.816 69.816 0 139.405 125.655)" gradientUnits="userSpaceOnUse" id="LinearGradient_3" x1="0" x2="1" y1="0" y2="0">
<stop offset="0" stop-color="#1c63b7"/>
<stop offset="0.5" stop-color="#33bdf2"/>
<stop offset="1" stop-color="#33bdf2" stop-opacity="0.419608"/>
</linearGradient>
<linearGradient gradientTransform="matrix(0 91.1001 -91.1001 0 134.816 48.0029)" gradientUnits="userSpaceOnUse" id="LinearGradient_4" x1="0" x2="1" y1="0" y2="0">
<stop offset="0" stop-color="#166ab8"/>
<stop offset="0.399994" stop-color="#36aee8"/>
<stop offset="0.399994" stop-color="#36aee8"/>
<stop offset="0.846161" stop-color="#0798dd"/>
<stop offset="0.846161" stop-color="#0798dd"/>
<stop offset="1" stop-color="#0798dd"/>
</linearGradient>
<linearGradient gradientTransform="matrix(0 96.8729 -96.8729 0 127.635 48.4817)" gradientUnits="userSpaceOnUse" id="LinearGradient_5" x1="0" x2="1" y1="0" y2="0">
<stop offset="0" stop-color="#124379"/>
<stop offset="0.389999" stop-color="#1487cb"/>
<stop offset="0.389999" stop-color="#1487cb"/>
<stop offset="0.780228" stop-color="#165197"/>
<stop offset="0.780228" stop-color="#165197"/>
<stop offset="1" stop-color="#165197"/>
</linearGradient>
<linearGradient gradientTransform="matrix(13.6963 0 0 13.6963 88.7271 78.2193)" gradientUnits="userSpaceOnUse" id="LinearGradient_6" x1="0" x2="1" y1="0" y2="0">
<stop offset="0" stop-color="#33bdf2" stop-opacity="0.698039"/>
<stop offset="1" stop-color="#1dacd8"/>
</linearGradient>
<linearGradient gradientTransform="matrix(0 -68.0105 68.0105 0 191.59 123.905)" gradientUnits="userSpaceOnUse" id="LinearGradient_7" x1="0" x2="1" y1="0" y2="0">
<stop offset="0" stop-color="#136ab4"/>
<stop offset="0.6" stop-color="#59caf5" stop-opacity="0.54902"/>
<stop offset="1" stop-color="#59caf5" stop-opacity="0.235294"/>
</linearGradient>
<linearGradient gradientTransform="matrix(50.8016 0 0 50.8016 40.1242 94.4707)" gradientUnits="userSpaceOnUse" id="LinearGradient_8" x1="0" x2="1" y1="0" y2="0">
<stop offset="0" stop-color="#05a1e6" stop-opacity="0.247059"/>
<stop offset="1" stop-color="#05a1e6"/>
</linearGradient>
<linearGradient gradientTransform="matrix(0 -69.6372 69.6372 0 68.2602 125.618)" gradientUnits="userSpaceOnUse" id="LinearGradient_9" x1="0" x2="1" y1="0" y2="0">
<stop offset="0" stop-color="#318ed5"/>
<stop offset="1" stop-color="#38a7e4"/>
</linearGradient>
<linearGradient gradientTransform="matrix(0 -67.6912 67.6912 0 72.6434 125.863)" gradientUnits="userSpaceOnUse" id="LinearGradient_10" x1="0" x2="1" y1="0" y2="0">
<stop offset="0" stop-color="#05a1e6"/>
<stop offset="1" stop-color="#05a1e6" stop-opacity="0.54902"/>
</linearGradient>
<linearGradient gradientTransform="matrix(0 -57.2001 57.2001 0 76.283 129.317)" gradientUnits="userSpaceOnUse" id="LinearGradient_11" x1="0" x2="1" y1="0" y2="0">
<stop offset="0" stop-color="#1959a6"/>
<stop offset="0.5" stop-color="#05a1e6"/>
<stop offset="0.5" stop-color="#05a1e6"/>
<stop offset="0.917587" stop-color="#7ec5ea"/>
<stop offset="1" stop-color="#7ec5ea"/>
</linearGradient>
<linearGradient gradientTransform="matrix(-10.936 -62.0211 62.0211 -10.936 78.4747 125.663)" gradientUnits="userSpaceOnUse" id="LinearGradient_12" x1="0" x2="1" y1="0" y2="0">
<stop offset="0" stop-color="#165096"/>
<stop offset="1" stop-color="#0d82ca"/>
</linearGradient>
<linearGradient gradientTransform="matrix(0 -32.4118 32.4118 0 179.945 90.5882)" gradientUnits="userSpaceOnUse" id="LinearGradient_13" x1="0" x2="1" y1="0" y2="0">
<stop offset="0" stop-color="#05a1e6"/>
<stop offset="0.873627" stop-color="#0495d6"/>
<stop offset="1" stop-color="#0495d6"/>
</linearGradient>
<linearGradient gradientTransform="matrix(-13.1787 74.7398 -74.7398 -13.1787 195.179 55.1806)" gradientUnits="userSpaceOnUse" id="LinearGradient_14" x1="0" x2="1" y1="0" y2="0">
<stop offset="0" stop-color="#38a7e4" stop-opacity="0.329412"/>
<stop offset="0.961533" stop-color="#0e88d3"/>
<stop offset="0.961533" stop-color="#0e88d3"/>
<stop offset="1" stop-color="#0e88d3"/>
</linearGradient>
<linearGradient gradientTransform="matrix(0 70.71 -70.71 0 183.382 57.8033)" gradientUnits="userSpaceOnUse" id="LinearGradient_15" x1="0" x2="1" y1="0" y2="0">
<stop offset="0" stop-color="#168cd4"/>
<stop offset="0.5" stop-color="#1c87cc"/>
<stop offset="1" stop-color="#154b8d"/>
</linearGradient>
<linearGradient gradientTransform="matrix(16.2876 6.75563 6.75563 -16.2876 93.191 56.3497)" gradientUnits="userSpaceOnUse" id="LinearGradient_16" x1="0" x2="1" y1="0" y2="0">
<stop offset="0" stop-color="#97d6ee"/>
<stop offset="0.703293" stop-color="#55c1ea"/>
<stop offset="1" stop-color="#55c1ea"/>
</linearGradient>
<linearGradient gradientTransform="matrix(12.8639 -5.83164 -5.83164 -12.8639 102.608 64.46)" gradientUnits="userSpaceOnUse" id="LinearGradient_17" x1="0" x2="1" y1="0" y2="0">
<stop offset="0" stop-color="#7accec"/>
<stop offset="1" stop-color="#3fb7ed"/>
</linearGradient>
<linearGradient gradientTransform="matrix(0 69.1614 -69.1614 0 173.809 61.7133)" gradientUnits="userSpaceOnUse" id="LinearGradient_18" x1="0" x2="1" y1="0" y2="0">
<stop offset="0" stop-color="#1da7e7"/>
<stop offset="1" stop-color="#37abe7" stop-opacity="0"/>
</linearGradient>
</defs>
<g id="com.castsoftware.asp" vectornator:layerName="com.castsoftware.asp">
<g opacity="1" vectornator:layerName="Microsoft_.NET_Logo">
<path d="M102.424 72.5928C108.888 92.3612 111.337 127.626 130.24 127.626L130.24 127.626C131.68 127.626 133.134 127.485 134.593 127.208L134.593 127.208C117.41 123.201 115.373 88.3197 104.887 70.256L104.887 70.256C104.065 71.0032 103.249 71.7821 102.424 72.5928" fill="url(#LinearGradient)" fill-rule="nonzero" opacity="1" stroke="none" vectornator:layerName="path12339"/>
<path d="M104.887 70.256C115.373 88.3197 117.41 123.201 134.593 127.208L134.593 127.208C135.943 126.96 137.296 126.585 138.652 126.112L138.652 126.112C123.228 118.554 118.964 84.6822 107.056 68.3752L107.056 68.3752C106.335 68.9754 105.611 69.6043 104.887 70.256" fill="url(#LinearGradient_2)" fill-rule="nonzero" opacity="1" stroke="none" vectornator:layerName="path12367"/>
<path d="M119.995 59.5133C118.559 59.5133 117.102 59.6541 115.64 59.9317C111.814 60.6529 107.929 62.2999 104.012 64.7922C105.082 65.848 106.1 67.0566 107.058 68.375C111.041 65.0691 114.999 62.6259 118.943 61.1575C120.422 60.6095 121.896 60.1971 123.376 59.9259C122.309 59.6545 121.184 59.5133 119.995 59.5133" fill="#14559a" fill-rule="nonzero" opacity="1" stroke="none" vectornator:layerName="path12379"/>
<path d="M150.693 119.145C152.271 117.89 153.851 116.503 155.435 114.988C148.867 95.3121 146.516 59.5424 127.48 59.5424C126.118 59.5424 124.745 59.6693 123.375 59.9231C140.715 64.2358 142.936 101.961 150.693 119.145" fill="url(#LinearGradient_3)" fill-rule="nonzero" opacity="1" stroke="none" vectornator:layerName="path12459"/>
<path d="M123.376 59.9245C122.308 59.6534 121.183 59.5122 119.995 59.5122L127.48 59.5396C126.119 59.5396 124.746 59.6665 123.376 59.9234" fill="#3092c4" fill-rule="nonzero" opacity="1" stroke="none" vectornator:layerName="path12521"/>
<path d="M150.36 123.325C149.616 122.615 148.909 121.837 148.214 121.006C145.012 123.273 141.822 124.992 138.652 126.112C139.779 126.663 140.962 127.072 142.217 127.326C143.189 127.525 144.196 127.626 145.254 127.626C148.811 127.626 151.624 127.205 154.018 126.057C152.7 125.344 151.491 124.421 150.36 123.325" fill="#1969bc" fill-rule="nonzero" opacity="1" stroke="none" vectornator:layerName="path12525"/>
<path d="M118.941 61.1608C134.472 69.2839 135.822 106.069 148.215 121.006L148.215 121.006C149.046 120.42 149.868 119.8 150.69 119.145L150.69 119.145C142.933 101.961 140.715 64.2328 123.378 59.9231L123.378 59.9231C121.898 60.2001 120.421 60.6099 118.941 61.1608" fill="url(#LinearGradient_4)" fill-rule="nonzero" opacity="1" stroke="none" vectornator:layerName="path12553"/>
<path d="M107.056 68.3752C118.964 84.6822 123.228 118.554 138.652 126.112L138.652 126.112C141.822 124.992 145.013 123.273 148.215 121.006L148.215 121.006C135.822 106.069 134.472 69.2839 118.941 61.1608L118.941 61.1608C114.998 62.6262 111.04 65.0694 107.056 68.3752" fill="url(#LinearGradient_5)" fill-rule="nonzero" opacity="1" stroke="none" vectornator:layerName="path12581"/>
<path d="M94.8051 72.1167C92.9387 76.3371 91.0319 81.8841 88.7271 89.1246C93.3108 82.6658 97.8801 77.1014 102.423 72.5928C101.797 70.6686 101.125 68.8946 100.401 67.3137C98.5436 68.7359 96.6714 70.337 94.8051 72.1167" fill="url(#LinearGradient_6)" fill-rule="nonzero" opacity="1" stroke="none" vectornator:layerName="path12651"/>
<path d="M102.056 66.0968C101.508 66.4891 100.957 66.8902 100.404 67.3141C101.127 68.8949 101.797 70.6691 102.423 72.593C103.248 71.7853 104.067 71.0037 104.886 70.2565C104.006 68.7449 103.072 67.3487 102.056 66.0968" fill="#2b74b1" fill-rule="nonzero" opacity="1" stroke="none" vectornator:layerName="path12655"/>
<path d="M104.012 64.7922C103.36 65.2049 102.711 65.6403 102.056 66.0961C103.071 67.348 104.006 68.7442 104.889 70.2587C105.613 69.6038 106.337 68.9722 107.058 68.375C106.1 67.0568 105.082 65.848 104.012 64.7922" fill="#125a9e" fill-rule="nonzero" opacity="1" stroke="none" vectornator:layerName="path12659"/>
<path d="M209.946 58.0079C201.163 91.8823 182.816 119.09 167.435 125.95L167.406 125.95C167.126 126.077 166.849 126.192 166.575 126.305C166.538 126.328 166.503 126.331 166.474 126.344C166.393 126.377 166.318 126.402 166.238 126.434C166.2 126.457 166.166 126.465 166.131 126.478C166.001 126.525 165.874 126.564 165.747 126.614C165.693 126.637 165.641 126.652 165.589 126.67C165.531 126.693 165.464 126.714 165.398 126.732C165.341 126.755 165.28 126.772 165.214 126.797C165.159 126.82 165.101 126.829 165.049 126.852C164.937 126.885 164.833 126.912 164.72 126.951C164.674 126.951 164.631 126.977 164.582 126.989C164.513 127.011 164.435 127.028 164.36 127.049C164.308 127.071 164.265 127.079 164.21 127.09C164.132 127.113 164.045 127.134 163.967 127.153C163.864 127.175 163.771 127.197 163.673 127.217C164.368 127.474 165.092 127.604 165.874 127.604C180.459 127.604 195.165 101.466 219.497 58L209.943 58L209.946 58.0079Z" fill="url(#LinearGradient_7)" fill-rule="nonzero" opacity="1" stroke="none" vectornator:layerName="path12741"/>
<path d="M85.5597 60.888C85.5689 60.888 85.5803 60.8651 85.586 60.8651C85.5975 60.8651 85.6152 60.8651 85.6209 60.8423C85.6209 60.8423 85.6323 60.8423 85.6392 60.8423C85.7199 60.8149 85.7949 60.7823 85.8757 60.7523C85.8963 60.7523 85.9071 60.7523 85.922 60.7294C85.9425 60.7294 85.9625 60.7066 85.9827 60.7037C86.0692 60.6763 86.1557 60.6437 86.2365 60.6137C86.2365 60.6137 86.2457 60.6137 86.2503 60.6137C86.4436 60.5561 86.6224 60.4845 86.8099 60.4176C86.8361 60.4176 86.8619 60.3947 86.8934 60.3947C86.9714 60.3696 87.0522 60.3416 87.1328 60.3232C87.1705 60.3003 87.2079 60.3003 87.2424 60.2883C87.326 60.2632 87.407 60.2352 87.4848 60.2168C87.5196 60.2168 87.5512 60.1939 87.5771 60.1917C87.8453 60.1178 88.1107 60.0486 88.379 59.9839C88.4167 59.9839 88.4483 59.9611 88.4886 59.9588C88.5664 59.9359 88.6387 59.9239 88.7223 59.9125C88.7571 59.8897 88.7973 59.8897 88.8377 59.8777C88.9155 59.8548 88.9904 59.8525 89.0742 59.8337C89.0948 59.8337 89.1056 59.8337 89.1291 59.8337C89.2906 59.8011 89.4551 59.7737 89.6166 59.7437C89.6457 59.7437 89.6828 59.7437 89.7147 59.7437C89.7924 59.7208 89.8617 59.7185 89.9397 59.7042C89.9825 59.7042 90.0262 59.6814 90.0666 59.6814C90.1386 59.6814 90.2108 59.6585 90.2828 59.6488C90.3205 59.6488 90.3578 59.6488 90.4012 59.6259C90.5713 59.6031 90.7473 59.5939 90.9262 59.5797C90.4214 59.5311 89.9021 59.4989 89.3743 59.4989C72.9491 59.4989 50.3189 89.9751 40.1246 129.443C40.1246 129.443 40.8688 129.443 42.089 129.443C45.3516 123.625 48.2824 118.121 50.9622 112.954C58.1017 84.9992 72.6433 65.9344 85.5608 60.8835" fill="url(#LinearGradient_8)" fill-rule="nonzero" opacity="1" stroke="none" vectornator:layerName="path12803"/>
<path d="M94.8052 72.1167C96.6717 70.337 98.5437 68.7359 100.401 67.3139C99.9775 66.385 99.5391 65.5254 99.0687 64.7378C97.5659 66.5609 96.1928 68.9667 94.8052 72.1167" fill="#0d82ca" fill-rule="nonzero" opacity="1" stroke="none" vectornator:layerName="path12807"/>
<path d="M96.1545 61.119C97.2276 62.019 98.1881 63.2566 99.068 64.7394C99.3449 64.399 99.6249 64.0845 99.9161 63.7902C98.696 62.6509 97.3776 61.7162 95.9468 61.0124C96.0045 61.0444 96.0622 61.0701 96.1222 61.0955C96.1222 61.0955 96.1451 61.1183 96.1548 61.1183" fill="#0d82ca" fill-rule="nonzero" opacity="1" stroke="none" vectornator:layerName="path12811"/>
<path d="M50.9615 112.958C65.9386 84.0966 73.0349 65.8309 85.56 60.8866L85.56 60.8866C72.6454 65.9407 58.101 85.0053 50.9615 112.958" fill="url(#LinearGradient_9)" fill-rule="nonzero" opacity="1" stroke="none" vectornator:layerName="path12831"/>
<path d="M99.9152 63.7895C99.624 64.0867 99.3471 64.3983 99.0671 64.7387C99.5374 65.5261 99.9757 66.3829 100.403 67.3146C100.957 66.8906 101.508 66.4895 102.056 66.0973C101.378 65.2607 100.662 64.4848 99.9152 63.7895" fill="#127bca" fill-rule="nonzero" opacity="1" stroke="none" vectornator:layerName="path12843"/>
<path d="M57.7606 129.317L57.7606 129.317C57.6683 129.339 57.576 129.339 57.4895 129.349C57.4606 129.349 57.4548 129.349 57.4375 129.349C57.3595 129.349 57.2787 129.372 57.2067 129.372C57.2067 129.372 57.1779 129.372 57.1691 129.372C56.9817 129.395 56.797 129.395 56.6182 129.409L56.5605 129.409C71.7193 128.985 78.6483 121.395 82.0868 110.388C84.7003 102.042 86.8465 95.0123 88.7273 89.1133C82.3781 98.05 76.0001 108.703 69.5876 120.637C66.4952 126.389 61.7932 128.792 57.7605 129.305" fill="url(#LinearGradient_10)" fill-rule="nonzero" opacity="1" stroke="none" vectornator:layerName="path12923"/>
<path d="M57.7606 129.311L57.7606 129.311C61.7934 128.797 66.4953 126.397 69.5877 120.642L69.5877 120.642C76.0003 108.711 82.3811 98.0555 88.7245 89.1189L88.7245 89.1189C91.0322 81.8754 92.9361 76.3313 94.8053 72.1109L94.8053 72.1109C82.1619 84.1457 69.4694 104.157 57.7606 129.305" fill="url(#LinearGradient_11)" fill-rule="nonzero" opacity="1" stroke="none" vectornator:layerName="path12949"/>
<path d="M50.9608 112.958C48.281 118.125 45.3502 123.629 42.0876 129.447C43.4983 129.447 45.5406 129.447 47.8022 129.447C48.558 123.669 49.6311 118.159 50.9608 112.961" fill="#05a1e6" fill-rule="nonzero" opacity="1" stroke="none" vectornator:layerName="path12961"/>
<path d="M90.4005 59.6407C90.3542 59.6407 90.3197 59.6635 90.2793 59.6635L90.2793 59.6635C90.2101 59.6864 90.1379 59.6864 90.0659 59.6938L90.0659 59.6938C90.023 59.6938 89.9823 59.6938 89.9389 59.7167L89.9389 59.7167C89.8609 59.7395 89.7889 59.7418 89.7139 59.7561L89.7139 59.7561C89.6791 59.7561 89.6447 59.7561 89.6159 59.779L89.6159 59.779C89.4513 59.8064 89.2899 59.8367 89.1283 59.8643L89.1283 59.8643C89.0997 59.8643 89.0906 59.8643 89.0735 59.8643L89.0735 59.8643C88.9899 59.8872 88.9147 59.8992 88.8369 59.9106L88.8369 59.9106C88.7964 59.9335 88.7561 59.9335 88.7185 59.9426L88.7185 59.9426C88.6408 59.9655 88.5628 59.9752 88.4878 59.9889L88.4878 59.9889C88.4472 60.0118 88.4158 60.0118 88.3781 60.0141L88.3781 60.0141C88.1099 60.0787 87.8445 60.1479 87.5762 60.2218L87.5762 60.2218C87.5476 60.2218 87.5185 60.2446 87.4839 60.2492L87.4839 60.2492C87.4032 60.2721 87.3252 60.2955 87.2416 60.3207L87.2416 60.3207C87.2068 60.3436 87.1666 60.3436 87.132 60.3527L87.132 60.3527C87.0512 60.3756 86.9704 60.399 86.8925 60.4243L86.8925 60.4243C86.8611 60.4243 86.8349 60.4471 86.806 60.4471L86.806 60.4471C86.6214 60.5163 86.4397 60.5856 86.2493 60.6433L86.2493 60.6433L86.2493 60.6433L86.2493 60.6433C86.1685 60.6685 86.082 60.701 85.9955 60.731L85.9955 60.731C85.9606 60.7538 85.929 60.759 85.8888 60.775L85.8888 60.775C85.808 60.8001 85.7273 60.8327 85.6523 60.8627L85.6523 60.8627C85.6237 60.8855 85.5946 60.8878 85.5745 60.8998L85.5745 60.8998C73.0493 65.8441 65.9531 84.1098 50.976 112.971L50.976 112.971C49.6461 118.169 48.5702 123.679 47.8173 129.457L47.8173 129.457L48.6192 129.457C50.8779 129.457 51.5154 129.434 54.1145 129.434L54.1145 129.434L54.2472 129.434L54.6337 129.434L54.7664 129.434L54.804 129.434L54.9367 129.434L55.0117 129.434L55.0636 129.434L55.1675 129.434L55.4906 129.434L55.8136 129.434L56.0848 129.434L56.1568 129.434C56.3126 129.434 56.4712 129.434 56.6328 129.434L56.6328 129.434C56.8116 129.411 56.9962 129.411 57.1837 129.397L57.1837 129.397C57.1837 129.397 57.2126 129.397 57.2184 129.397L57.2184 129.397C57.2964 129.397 57.3741 129.374 57.4491 129.374L57.4491 129.374C57.478 129.374 57.4807 129.374 57.5038 129.374L57.5038 129.374C57.5874 129.374 57.6827 129.351 57.775 129.341L57.775 129.341L57.775 129.341C69.4838 104.193 82.1763 84.1818 94.8197 72.147L94.8197 72.147C96.2101 68.997 97.5803 66.5911 99.0804 64.771L99.0804 64.771C98.2034 63.2883 97.2428 62.0479 96.1697 61.1477L96.1697 61.1477C96.1697 61.1477 96.1406 61.1477 96.1383 61.1249L96.1383 61.1249C96.0776 61.0997 96.0202 61.0694 95.9595 61.0395L95.9595 61.0395C95.8988 61.0069 95.8469 60.9818 95.7836 60.9495L95.7836 60.9495C95.7288 60.9266 95.6653 60.8963 95.6105 60.8664L95.6105 60.8664C95.5356 60.8435 95.4749 60.811 95.4087 60.781L95.4087 60.781C95.3538 60.7581 95.3048 60.7347 95.2499 60.7118L95.2499 60.7118C95.1372 60.6678 95.0249 60.6218 94.9181 60.5733L94.9181 60.5733C94.869 60.5505 94.8231 60.5385 94.7767 60.5202L94.7767 60.5202C94.6989 60.4922 94.6093 60.4555 94.5286 60.4209L94.5286 60.4209C94.488 60.3981 94.442 60.3935 94.3959 60.3769L94.3959 60.3769C94.2777 60.3375 94.1623 60.2962 94.0526 60.2592L94.0526 60.2592C94.024 60.2592 94.024 60.2592 94.024 60.2592L94.024 60.2592C93.8913 60.2152 93.7615 60.1831 93.6259 60.1461L93.6259 60.1461C93.5945 60.1233 93.5682 60.1233 93.5366 60.1187L93.5366 60.1187C93.4182 60.0861 93.3144 60.0541 93.202 60.0241L93.202 60.0241C93.1734 60.0241 93.1471 60.0012 93.1242 60.0012L93.1242 60.0012C92.8531 59.9297 92.5732 59.872 92.2905 59.8189L92.2905 59.8189C92.2614 59.8189 92.2329 59.7961 92.204 59.7961L92.204 59.7961C92.0829 59.7732 91.9646 59.7521 91.8435 59.7383L91.8435 59.7383C91.8143 59.7155 91.7972 59.7155 91.7715 59.7155L91.7715 59.7155C91.6272 59.6926 91.4859 59.6761 91.3445 59.6601L91.3445 59.6601C91.3159 59.6601 91.2953 59.6601 91.2695 59.6601L91.2695 59.6601C91.1541 59.6372 91.0475 59.6349 90.9407 59.6229L90.9407 59.6229C90.7588 59.6458 90.5859 59.6555 90.4156 59.6715" fill="url(#LinearGradient_12)" fill-rule="nonzero" opacity="1" stroke="none" vectornator:layerName="path12981"/>
<path d="M175.636 76.761C172.754 85.9919 170.421 93.6074 168.39 99.8729L168.39 99.8729C176.297 88.9919 184.085 75.3041 191.502 59.508L191.502 59.508C182.851 62.2251 178.235 68.4446 175.636 76.761" fill="url(#LinearGradient_13)" fill-rule="nonzero" opacity="1" stroke="none" vectornator:layerName="path13003"/>
<path d="M168.641 125.373C168.237 125.579 167.833 125.774 167.435 125.95C182.816 119.09 201.163 91.8823 209.946 58.0079L208.166 58.0079C187.985 94.0574 181.495 118.19 168.641 125.373" fill="url(#LinearGradient_14)" fill-rule="nonzero" opacity="1" stroke="none" vectornator:layerName="path13093"/>
<path d="M158.597 122.345C161.944 118.26 164.669 111.317 168.391 99.8731C164.098 105.769 159.777 110.838 155.453 114.971C155.453 114.994 155.453 114.994 155.43 115.009C156.374 117.835 157.409 120.331 158.589 122.344" fill="#079ae1" fill-rule="nonzero" opacity="1" stroke="none" vectornator:layerName="path13097"/>
<path d="M158.597 122.345C157.458 123.735 156.252 124.794 154.911 125.578C154.617 125.749 154.32 125.91 154.017 126.057C155.433 126.822 156.979 127.332 158.71 127.537L158.71 127.537L158.71 127.537C158.963 127.562 159.214 127.585 159.477 127.604L159.523 127.604C159.641 127.604 159.766 127.604 159.893 127.627L159.944 127.627C160.07 127.627 160.198 127.627 160.322 127.627C160.458 127.627 160.593 127.627 160.728 127.627C160.772 127.627 160.814 127.627 160.855 127.627C160.948 127.627 161.047 127.627 161.144 127.627C161.19 127.627 161.238 127.627 161.285 127.604C161.375 127.604 161.469 127.604 161.561 127.581C161.584 127.581 161.584 127.581 161.594 127.581C161.631 127.581 161.663 127.581 161.698 127.581C161.792 127.581 161.896 127.558 161.998 127.548L162.021 127.548C162.051 127.548 162.083 127.526 162.113 127.526C162.219 127.503 162.33 127.493 162.433 127.477C162.468 127.477 162.493 127.477 162.528 127.477C162.646 127.454 162.767 127.44 162.888 127.417L162.911 127.417C162.934 127.417 162.936 127.417 162.946 127.417C163.188 127.371 163.425 127.325 163.664 127.265C161.68 126.538 160.018 124.824 158.587 122.384" fill="#1969bc" fill-rule="nonzero" opacity="1" stroke="none" vectornator:layerName="path13101"/>
<path d="M130.241 127.627C131.68 127.627 133.134 127.486 134.594 127.206C135.944 126.96 137.297 126.585 138.652 126.112C139.78 126.663 140.963 127.073 142.215 127.327C143.187 127.525 144.197 127.627 145.256 127.627L130.241 127.627Z" fill="#1e5cb3" fill-rule="nonzero" opacity="1" stroke="none" vectornator:layerName="path13105"/>
<path d="M145.256 127.627C148.81 127.627 151.625 127.206 154.017 126.057C155.433 126.822 156.979 127.332 158.71 127.537L158.71 127.537L158.71 127.537C158.964 127.563 159.215 127.586 159.477 127.604L159.523 127.604C159.641 127.604 159.766 127.604 159.893 127.627L159.946 127.627C160.073 127.627 160.2 127.627 160.324 127.627L145.246 127.627L145.256 127.627Z" fill="#1e5cb3" fill-rule="nonzero" opacity="1" stroke="none" vectornator:layerName="path13109"/>
<path d="M160.333 127.627C160.471 127.627 160.607 127.627 160.742 127.627C160.782 127.627 160.828 127.627 160.869 127.627C160.962 127.627 161.056 127.627 161.155 127.627C161.204 127.627 161.25 127.627 161.296 127.604C161.386 127.604 161.48 127.604 161.576 127.581C161.599 127.581 161.599 127.581 161.606 127.581C161.643 127.581 161.678 127.581 161.712 127.581C161.807 127.581 161.911 127.558 162.009 127.549C162.009 127.549 162.032 127.549 162.035 127.549C162.065 127.549 162.095 127.526 162.125 127.526C162.231 127.503 162.342 127.494 162.445 127.478C162.48 127.478 162.507 127.478 162.544 127.455C162.662 127.432 162.783 127.42 162.905 127.397L162.927 127.397C162.95 127.397 162.953 127.397 162.962 127.397C163.205 127.351 163.441 127.305 163.68 127.245L163.68 127.245C164.376 127.501 165.1 127.631 165.881 127.631L160.337 127.654L160.333 127.627Z" fill="#1d60b5" fill-rule="nonzero" opacity="1" stroke="none" vectornator:layerName="path13113"/>
<path d="M155.44 115.009L155.44 114.986C153.856 116.5 152.275 117.888 150.697 119.143C149.872 119.798 149.05 120.418 148.219 121.004C148.914 121.834 149.621 122.613 150.366 123.323C151.496 124.419 152.705 125.342 154.023 126.054C154.323 125.907 154.623 125.746 154.914 125.576C156.259 124.791 157.465 123.732 158.604 122.342C157.424 120.329 156.389 117.833 155.445 115.006" fill="#175fab" fill-rule="nonzero" opacity="1" stroke="none" vectornator:layerName="path13117"/>
<path d="M202.53 58.0079L195.047 58.0079C194.796 58.0079 194.548 58.0079 194.303 58.0079L194.303 58.0079C194.063 58.0079 193.833 58.0079 193.599 58.0079L193.599 58.0079L193.572 58.0079C193.087 58.0308 192.617 58.0474 192.152 58.0772L192.152 58.0772C191.933 58.5475 191.708 59.0178 191.492 59.4909L191.492 59.4909C184.075 75.287 176.287 88.9749 168.38 99.8558L168.38 99.8558C164.662 111.299 161.933 118.243 158.586 122.327L158.586 122.327C160.017 124.768 161.682 126.484 163.661 127.211L163.661 127.211C163.718 127.188 163.764 127.188 163.816 127.176L163.816 127.176C163.816 127.176 163.845 127.176 163.848 127.176L163.848 127.176C163.883 127.176 163.92 127.153 163.958 127.153L163.958 127.153C164.039 127.13 164.125 127.116 164.206 127.091L164.206 127.091C164.258 127.068 164.301 127.066 164.353 127.049L164.353 127.049C164.428 127.026 164.506 127.01 164.575 126.991L164.575 126.991C164.622 126.969 164.668 126.961 164.714 126.952L164.714 126.952C164.829 126.915 164.933 126.887 165.043 126.853L165.043 126.853C165.095 126.83 165.15 126.811 165.207 126.797L165.207 126.797C165.271 126.774 165.334 126.758 165.392 126.73L165.392 126.73C165.458 126.708 165.524 126.696 165.582 126.67L165.582 126.67C165.634 126.648 165.689 126.633 165.738 126.613L165.738 126.613C165.868 126.566 165.995 126.527 166.124 126.477L166.124 126.477C166.159 126.477 166.194 126.445 166.231 126.437L166.231 126.437C166.309 126.405 166.39 126.379 166.468 126.345L166.468 126.345C166.496 126.322 166.531 126.32 166.569 126.308L166.569 126.308C166.84 126.195 167.12 126.079 167.4 125.953L167.4 125.953L167.429 125.953L167.429 125.953C167.827 125.778 168.231 125.581 168.632 125.376L168.632 125.376C181.488 118.193 187.979 94.0602 208.16 58.0107L208.16 58.0107L202.523 58.0107L202.53 58.0079Z" fill="url(#LinearGradient_15)" fill-rule="nonzero" opacity="1" stroke="none" vectornator:layerName="path13139"/>
<path d="M90.9261 59.592C90.9581 59.592 90.9868 59.592 91.0184 59.6149C91.0961 59.6149 91.1741 59.6149 91.252 59.64C91.2812 59.64 91.3069 59.64 91.33 59.64C91.4713 59.6629 91.6127 59.6749 91.7569 59.6954C91.7832 59.6954 91.8061 59.6954 91.8289 59.7183C91.9471 59.7411 92.0684 59.76 92.1895 59.7783C92.2158 59.7783 92.2503 59.8011 92.2791 59.8011C92.556 59.8566 92.8387 59.9142 93.1099 59.9858C93.1356 59.9858 93.1619 60.0086 93.1849 60.0086C93.3003 60.0361 93.4041 60.0709 93.5195 60.1032C93.5543 60.1032 93.5799 60.1261 93.6118 60.1312C93.7475 60.1661 93.8743 60.2005 94.007 60.2443C94.0127 60.2443 94.0207 60.2443 94.0361 60.2671C94.1485 60.3014 94.2639 60.3456 94.3823 60.3848C94.4285 60.4077 94.4716 60.4174 94.5149 60.4288C94.5957 60.4637 94.6853 60.498 94.7631 60.5303C94.8093 60.5303 94.8553 60.5623 94.9043 60.5789C95.0109 60.6275 95.1235 60.6712 95.2331 60.7174C95.2908 60.7402 95.3397 60.7659 95.3947 60.7866C95.4581 60.8191 95.5244 60.8489 95.5936 60.872C95.6513 60.8994 95.7148 60.9297 95.7695 60.955C95.8301 60.9876 95.8876 61.0127 95.9455 61.045C97.3763 61.7489 98.6946 62.6865 99.9148 63.8231C100.365 63.35 100.835 62.9258 101.323 62.5451C98.6542 60.6527 95.6311 59.5739 92.1436 59.5739C91.7397 59.5739 91.3359 59.5967 90.9263 59.627" fill="#7dcbec" fill-rule="nonzero" opacity="1" stroke="none" vectornator:layerName="path13231"/>
<path d="M99.9152 63.7895C100.662 64.4846 101.378 65.2607 102.056 66.0973C102.71 65.6415 103.36 65.203 104.011 64.7934C103.158 63.9395 102.258 63.1722 101.32 62.5115C100.833 62.8895 100.365 63.3164 99.9152 63.7895" fill="#5ec5ed" fill-rule="nonzero" opacity="1" stroke="none" vectornator:layerName="path13235"/>
<g opacity="1" vectornator:layerName="g13243">
<path d="M90.9254 59.5915C91.335 59.5569 91.7389 59.5425 92.1427 59.5425C95.6303 59.5425 98.6534 60.6213 101.322 62.5108C104.137 60.2896 107.541 59.5136 112.269 59.5136L89.3735 59.5136C89.9014 59.5136 90.4177 59.5454 90.9254 59.5915" fill="url(#LinearGradient_16)" fill-rule="nonzero" opacity="1" stroke="none" vectornator:layerName="path13245"/>
</g>
<g opacity="1" vectornator:layerName="g13253">
<path d="M112.269 59.5136C107.541 59.5136 104.137 60.2896 101.322 62.5108C102.256 63.1714 103.156 63.9387 104.01 64.7926C107.93 62.3002 111.813 60.6502 115.641 59.929C117.101 59.655 118.558 59.5136 119.994 59.5136C119.994 59.5136 112.269 59.5136 112.269 59.5136Z" fill="url(#LinearGradient_17)" fill-rule="nonzero" opacity="1" stroke="none" vectornator:layerName="path13255"/>
</g>
<path d="M168.39 99.8786C170.424 93.6074 172.752 85.9949 175.639 76.761C178.241 68.4417 182.848 62.2223 191.499 59.508C191.727 59.0434 191.943 58.5646 192.165 58.0943C178.062 58.9396 171.471 66.1136 168.153 76.7379C162.352 95.2862 158.839 107.309 155.455 114.971C159.776 110.84 164.098 105.769 168.39 99.8786" fill="url(#LinearGradient_18)" fill-rule="nonzero" opacity="1" stroke="none" vectornator:layerName="path13333"/>
</g>
<g fill="#4a4a4a" opacity="1" stroke="none" vectornator:layerName="Text 1">
<path d="M76.9141 178.674L67.3691 178.674L65.5762 184L59.916 184L69.1621 158.09L75.2793 158.09L84.4551 184L78.584 184L76.9141 178.674ZM75.4023 174.209L72.168 164.014L68.8281 174.209L75.4023 174.209Z"/>
<path d="M98.9043 184L87.7422 184L87.7422 158.09L98.9043 158.09C100.51 158.113 101.846 158.301 102.912 158.652C104.729 159.25 106.199 160.346 107.324 161.939C108.227 163.229 108.842 164.623 109.17 166.123C109.498 167.623 109.662 169.053 109.662 170.412C109.662 173.857 108.971 176.775 107.588 179.166C105.713 182.389 102.818 184 98.9043 184ZM102.93 164.699C102.098 163.293 100.451 162.59 97.9902 162.59L92.998 162.59L92.998 179.5L97.9902 179.5C100.545 179.5 102.326 178.24 103.334 175.721C103.885 174.338 104.16 172.691 104.16 170.781C104.16 168.145 103.75 166.117 102.93 164.699Z"/>
<path d="M125.201 184.721C121.498 184.721 118.668 183.713 116.711 181.697C114.086 179.225 112.773 175.662 112.773 171.01C112.773 166.264 114.086 162.701 116.711 160.322C118.668 158.307 121.498 157.299 125.201 157.299C128.904 157.299 131.734 158.307 133.691 160.322C136.305 162.701 137.611 166.264 137.611 171.01C137.611 175.662 136.305 179.225 133.691 181.697C131.734 183.713 128.904 184.721 125.201 184.721ZM130.316 177.76C131.57 176.178 132.197 173.928 132.197 171.01C132.197 168.104 131.567 165.856 130.308 164.269C129.048 162.681 127.346 161.887 125.201 161.887C123.057 161.887 121.346 162.678 120.068 164.26C118.791 165.842 118.152 168.092 118.152 171.01C118.152 173.928 118.791 176.178 120.068 177.76C121.346 179.342 123.057 180.133 125.201 180.133C127.346 180.133 129.051 179.342 130.316 177.76Z"/>
<path d="M162.906 184L151.744 184L151.744 158.09L162.906 158.09C164.512 158.113 165.848 158.301 166.914 158.652C168.73 159.25 170.201 160.346 171.326 161.939C172.229 163.229 172.844 164.623 173.172 166.123C173.5 167.623 173.664 169.053 173.664 170.412C173.664 173.857 172.973 176.775 171.59 179.166C169.715 182.389 166.82 184 162.906 184ZM166.932 164.699C166.1 163.293 164.453 162.59 161.992 162.59L157 162.59L157 179.5L161.992 179.5C164.547 179.5 166.328 178.24 167.336 175.721C167.887 174.338 168.162 172.691 168.162 170.781C168.162 168.145 167.752 166.117 166.932 164.699Z"/>
<path d="M189.572 184L177.83 184L177.83 158.09L190.416 158.09C193.592 158.137 195.842 159.057 197.166 160.85C197.963 161.951 198.361 163.27 198.361 164.805C198.361 166.387 197.963 167.658 197.166 168.619C196.721 169.158 196.064 169.65 195.197 170.096C196.521 170.576 197.521 171.338 198.194 172.381C198.868 173.424 199.205 174.689 199.205 176.178C199.205 177.713 198.818 179.09 198.045 180.309C197.553 181.117 196.938 181.797 196.199 182.348C195.367 182.98 194.386 183.414 193.255 183.648C192.124 183.883 190.896 184 189.572 184ZM189.449 172.592L182.998 172.592L182.998 179.5L189.361 179.5C190.498 179.5 191.383 179.348 192.016 179.043C193.164 178.48 193.738 177.402 193.738 175.809C193.738 174.461 193.182 173.535 192.068 173.031C191.447 172.75 190.574 172.604 189.449 172.592ZM192.139 167.652C192.842 167.23 193.193 166.475 193.193 165.385C193.193 164.178 192.725 163.381 191.787 162.994C190.979 162.725 189.947 162.59 188.693 162.59L182.998 162.59L182.998 168.303L189.361 168.303C190.498 168.303 191.424 168.086 192.139 167.652Z"/>
</g>
</g>
</svg>
