<?xml version="1.0" encoding="UTF-8" standalone="no"?>
<!DOCTYPE svg PUBLIC "-//W3C//DTD SVG 1.1//EN" "http://www.w3.org/Graphics/SVG/1.1/DTD/svg11.dtd">
<!-- Created with Vectornator (http://vectornator.io/) -->
<svg height="100%" stroke-miterlimit="10" style="fill-rule:nonzero;clip-rule:evenodd;stroke-linecap:round;stroke-linejoin:round;" version="1.1" viewBox="0 0 304.477 304.479" width="100%" xml:space="preserve" xmlns="http://www.w3.org/2000/svg" xmlns:vectornator="http://vectornator.io" xmlns:xlink="http://www.w3.org/1999/xlink">
<defs/>
<clipPath id="ArtboardFrame">
<rect height="304.479" width="304.477" x="0" y="0"/>
</clipPath>
<g clip-path="url(#ArtboardFrame)" id="layer1" vectornator:layerName="layer1">
<g opacity="1" vectornator:layerName="text13081-3">
<path d="M0.742469 153.549L0.742469 149.619L15.4332 142.819L15.4332 146.375L4.45415 151.334L4.45415 151.677L15.4332 156.761L15.4332 160.317L0.742469 153.549Z" fill="#004088" fill-opacity="0.585882" fill-rule="nonzero" opacity="1" stroke="none" vectornator:layerName="path"/>
<path d="M40.9947 150.367L37.6261 150.367L36.7216 155.545L40.558 155.545L39.8718 158.976L36.1601 158.976L35.2868 163.966L31.8246 163.966L32.698 158.976L28.113 158.976L27.2396 163.966L23.7463 163.966L24.6196 158.976L21.407 158.976L22.0932 155.545L25.2122 155.545L26.1168 150.367L22.561 150.367L23.2472 146.936L26.7094 146.936L27.6139 141.634L31.0761 141.634L30.1715 146.936L34.7566 146.936L35.6611 141.634L39.1544 141.634L38.1875 146.936L41.6809 146.936L40.9947 150.367ZM34.1951 150.367L29.6101 150.367L28.6744 155.545L33.2594 155.545L34.1951 150.367Z" fill="#004088" fill-opacity="0.585882" fill-rule="nonzero" opacity="1" stroke="none" vectornator:layerName="path"/>
<path d="M48.546 142.133L62.4258 142.133L62.4258 144.441L51.0412 144.441L51.0412 152.27L61.2405 152.27L61.2405 154.547L51.0412 154.547L51.0412 163.966L48.546 163.966L48.546 142.133Z" fill="#004088" fill-opacity="0.585882" fill-rule="nonzero" opacity="1" stroke="none" vectornator:layerName="path"/>
<path d="M82.6444 163.966L78.0594 156.98C77.4771 157.021 77.0093 157.042 76.6558 157.042L70.8543 157.042L70.8543 163.966L68.3591 163.966L68.3591 142.133L76.6558 142.133C79.3798 142.133 81.4903 142.778 82.9875 144.067C84.5054 145.335 85.2644 147.134 85.2644 149.463C85.2644 151.251 84.8381 152.748 83.9856 153.954C83.133 155.16 81.9166 156.013 80.3363 156.512L85.4827 163.966L82.6444 163.966ZM76.6558 154.734C78.652 154.734 80.1803 154.297 81.2408 153.424C82.3221 152.53 82.8627 151.23 82.8627 149.525C82.8627 147.862 82.3221 146.604 81.2408 145.751C80.1803 144.878 78.652 144.441 76.6558 144.441L70.8543 144.441L70.8543 154.734L76.6558 154.734Z" fill="#004088" fill-opacity="0.585882" fill-rule="nonzero" opacity="1" stroke="none" vectornator:layerName="path"/>
<path d="M93.1676 142.133L107.983 142.133L107.983 144.441L95.6628 144.441L95.6628 151.771L106.673 151.771L106.673 154.048L95.6628 154.048L95.6628 161.658L108.389 161.658L108.389 163.966L93.1676 163.966L93.1676 142.133Z" fill="#004088" fill-opacity="0.585882" fill-rule="nonzero" opacity="1" stroke="none" vectornator:layerName="path"/>
<path d="M115.722 142.133L130.538 142.133L130.538 144.441L118.217 144.441L118.217 151.771L129.228 151.771L129.228 154.048L118.217 154.048L118.217 161.658L130.943 161.658L130.943 163.966L115.722 163.966L115.722 142.133Z" fill="#004088" fill-opacity="0.585882" fill-rule="nonzero" opacity="1" stroke="none" vectornator:layerName="path"/>
<path d="M138.276 142.133L141.302 142.133L149.63 158.04L157.864 142.133L160.921 142.133L160.921 163.966L158.582 163.966L158.55 145.782L150.316 161.658L148.881 161.658L140.585 145.782L140.585 163.966L138.276 163.966L138.276 142.133Z" fill="#004088" fill-opacity="0.585882" fill-rule="nonzero" opacity="1" stroke="none" vectornator:layerName="path"/>
<path d="M186.036 163.966L183.572 158.383L171.689 158.383L169.256 163.966L166.605 163.966L176.398 142.133L178.987 142.133L188.75 163.966L186.036 163.966ZM172.718 156.075L182.574 156.075L177.615 144.847L172.718 156.075Z" fill="#004088" fill-opacity="0.585882" fill-rule="nonzero" opacity="1" stroke="none" vectornator:layerName="path"/>
<path d="M208.758 163.966L204.173 156.98C203.591 157.021 203.123 157.042 202.769 157.042L196.968 157.042L196.968 163.966L194.473 163.966L194.473 142.133L202.769 142.133C205.493 142.133 207.604 142.778 209.101 144.067C210.619 145.335 211.378 147.134 211.378 149.463C211.378 151.251 210.952 152.748 210.099 153.954C209.247 155.16 208.03 156.013 206.45 156.512L211.596 163.966L208.758 163.966ZM202.769 154.734C204.766 154.734 206.294 154.297 207.354 153.424C208.436 152.53 208.976 151.23 208.976 149.525C208.976 147.862 208.436 146.604 207.354 145.751C206.294 144.878 204.766 144.441 202.769 144.441L196.968 144.441L196.968 154.734L202.769 154.734Z" fill="#004088" fill-opacity="0.585882" fill-rule="nonzero" opacity="1" stroke="none" vectornator:layerName="path"/>
<path d="M237.091 163.966L234.066 163.966L226.018 153.58L221.776 158.227L221.776 163.966L219.281 163.966L219.281 142.133L221.776 142.133L221.776 154.952L233.504 142.133L236.498 142.133L227.796 151.646L237.091 163.966Z" fill="#004088" fill-opacity="0.585882" fill-rule="nonzero" opacity="1" stroke="none" vectornator:layerName="path"/>
<path d="M243.359 142.133L258.174 142.133L258.174 144.441L245.854 144.441L245.854 151.771L256.864 151.771L256.864 154.048L245.854 154.048L245.854 161.658L258.58 161.658L258.58 163.966L243.359 163.966L243.359 142.133Z" fill="#004088" fill-opacity="0.585882" fill-rule="nonzero" opacity="1" stroke="none" vectornator:layerName="path"/>
<path d="M280.198 163.966L275.613 156.98C275.031 157.021 274.563 157.042 274.21 157.042L268.408 157.042L268.408 163.966L265.913 163.966L265.913 142.133L274.21 142.133C276.934 142.133 279.044 142.778 280.541 144.067C282.059 145.335 282.818 147.134 282.818 149.463C282.818 151.251 282.392 152.748 281.54 153.954C280.687 155.16 279.471 156.013 277.89 156.512L283.037 163.966L280.198 163.966ZM274.21 154.734C276.206 154.734 277.734 154.297 278.795 153.424C279.876 152.53 280.417 151.23 280.417 149.525C280.417 147.862 279.876 146.604 278.795 145.751C277.734 144.878 276.206 144.441 274.21 144.441L268.408 144.441L268.408 154.734L274.21 154.734Z" fill="#004088" fill-opacity="0.585882" fill-rule="nonzero" opacity="1" stroke="none" vectornator:layerName="path"/>
<path d="M304.477 149.619L304.477 153.549L289.786 160.317L289.786 156.761L300.765 151.677L300.765 151.334L289.786 146.375L289.786 142.819L304.477 149.619Z" fill="#004088" fill-opacity="0.585882" fill-rule="nonzero" opacity="1" stroke="none" vectornator:layerName="path"/>
</g>
<g opacity="1" vectornator:layerName="text13081">
<path d="M0 152.427L0 148.497L14.6908 141.698L14.6908 145.254L3.71168 150.213L3.71168 150.556L14.6908 155.64L14.6908 159.196L0 152.427Z" fill="#326cac" fill-opacity="0.964706" fill-rule="nonzero" opacity="1" stroke="none" vectornator:layerName="path"/>
<path d="M40.2522 149.246L36.8836 149.246L35.9791 154.424L39.8155 154.424L39.1293 157.855L35.4177 157.855L34.5443 162.845L31.0822 162.845L31.9555 157.855L27.3705 157.855L26.4971 162.845L23.0038 162.845L23.8771 157.855L20.6645 157.855L21.3507 154.424L24.4698 154.424L25.3743 149.246L21.8186 149.246L22.5048 145.815L25.9669 145.815L26.8714 140.513L30.3336 140.513L29.4291 145.815L34.0141 145.815L34.9186 140.513L38.412 140.513L37.445 145.815L40.9384 145.815L40.2522 149.246ZM33.4526 149.246L28.8676 149.246L27.9319 154.424L32.5169 154.424L33.4526 149.246Z" fill="#326cac" fill-opacity="0.964706" fill-rule="nonzero" opacity="1" stroke="none" vectornator:layerName="path"/>
<path d="M47.8035 141.012L61.6833 141.012L61.6833 143.32L50.2988 143.32L50.2988 151.149L60.4981 151.149L60.4981 153.426L50.2988 153.426L50.2988 162.845L47.8035 162.845L47.8035 141.012Z" fill="#b6b6b6" fill-opacity="0.964706" fill-rule="nonzero" opacity="1" stroke="none" vectornator:layerName="path"/>
<path d="M81.9019 162.845L77.3169 155.858C76.7347 155.9 76.2668 155.921 75.9133 155.921L70.1119 155.921L70.1119 162.845L67.6166 162.845L67.6166 141.012L75.9133 141.012C78.6373 141.012 80.7478 141.656 82.245 142.945C83.7629 144.214 84.5219 146.013 84.5219 148.341C84.5219 150.13 84.0956 151.627 83.2431 152.833C82.3905 154.039 81.1741 154.891 79.5938 155.391L84.7402 162.845L81.9019 162.845ZM75.9133 153.613C77.9095 153.613 79.4378 153.176 80.4983 152.303C81.5796 151.409 82.1202 150.109 82.1202 148.404C82.1202 146.74 81.5796 145.482 80.4983 144.63C79.4378 143.756 77.9095 143.32 75.9133 143.32L70.1119 143.32L70.1119 153.613L75.9133 153.613Z" fill="#b6b6b6" fill-opacity="0.964706" fill-rule="nonzero" opacity="1" stroke="none" vectornator:layerName="path"/>
<path d="M92.4251 141.012L107.241 141.012L107.241 143.32L94.9203 143.32L94.9203 150.65L105.931 150.65L105.931 152.926L94.9203 152.926L94.9203 160.537L107.646 160.537L107.646 162.845L92.4251 162.845L92.4251 141.012Z" fill="#b6b6b6" fill-opacity="0.964706" fill-rule="nonzero" opacity="1" stroke="none" vectornator:layerName="path"/>
<path d="M114.98 141.012L129.795 141.012L129.795 143.32L117.475 143.32L117.475 150.65L128.485 150.65L128.485 152.926L117.475 152.926L117.475 160.537L130.201 160.537L130.201 162.845L114.98 162.845L114.98 141.012Z" fill="#b6b6b6" fill-opacity="0.964706" fill-rule="nonzero" opacity="1" stroke="none" vectornator:layerName="path"/>
<path d="M137.534 141.012L140.559 141.012L148.887 156.919L157.122 141.012L160.178 141.012L160.178 162.845L157.839 162.845L157.808 144.661L149.574 160.537L148.139 160.537L139.842 144.661L139.842 162.845L137.534 162.845L137.534 141.012Z" fill="#b6b6b6" fill-opacity="0.964706" fill-rule="nonzero" opacity="1" stroke="none" vectornator:layerName="path"/>
<path d="M185.294 162.845L182.83 157.262L170.946 157.262L168.513 162.845L165.862 162.845L175.656 141.012L178.245 141.012L188.007 162.845L185.294 162.845ZM171.975 154.954L181.832 154.954L176.872 143.725L171.975 154.954Z" fill="#b6b6b6" fill-opacity="0.964706" fill-rule="nonzero" opacity="1" stroke="none" vectornator:layerName="path"/>
<path d="M208.016 162.845L203.43 155.858C202.848 155.9 202.38 155.921 202.027 155.921L196.225 155.921L196.225 162.845L193.73 162.845L193.73 141.012L202.027 141.012C204.751 141.012 206.861 141.656 208.359 142.945C209.877 144.214 210.636 146.013 210.636 148.341C210.636 150.13 210.209 151.627 209.357 152.833C208.504 154.039 207.288 154.891 205.707 155.391L210.854 162.845L208.016 162.845ZM202.027 153.613C204.023 153.613 205.551 153.176 206.612 152.303C207.693 151.409 208.234 150.109 208.234 148.404C208.234 146.74 207.693 145.482 206.612 144.63C205.551 143.756 204.023 143.32 202.027 143.32L196.225 143.32L196.225 153.613L202.027 153.613Z" fill="#b6b6b6" fill-opacity="0.964706" fill-rule="nonzero" opacity="1" stroke="none" vectornator:layerName="path"/>
<path d="M236.349 162.845L233.323 162.845L225.276 152.459L221.034 157.106L221.034 162.845L218.539 162.845L218.539 141.012L221.034 141.012L221.034 153.831L232.762 141.012L235.756 141.012L227.054 150.525L236.349 162.845Z" fill="#b6b6b6" fill-opacity="0.964706" fill-rule="nonzero" opacity="1" stroke="none" vectornator:layerName="path"/>
<path d="M242.616 141.012L257.432 141.012L257.432 143.32L245.111 143.32L245.111 150.65L256.122 150.65L256.122 152.926L245.111 152.926L245.111 160.537L257.837 160.537L257.837 162.845L242.616 162.845L242.616 141.012Z" fill="#b6b6b6" fill-opacity="0.964706" fill-rule="nonzero" opacity="1" stroke="none" vectornator:layerName="path"/>
<path d="M279.456 162.845L274.871 155.858C274.289 155.9 273.821 155.921 273.467 155.921L267.666 155.921L267.666 162.845L265.171 162.845L265.171 141.012L273.467 141.012C276.191 141.012 278.302 141.656 279.799 142.945C281.317 144.214 282.076 146.013 282.076 148.341C282.076 150.13 281.65 151.627 280.797 152.833C279.945 154.039 278.728 154.891 277.148 155.391L282.294 162.845L279.456 162.845ZM273.467 153.613C275.463 153.613 276.992 153.176 278.052 152.303C279.134 151.409 279.674 150.109 279.674 148.404C279.674 146.74 279.134 145.482 278.052 144.63C276.992 143.756 275.463 143.32 273.467 143.32L267.666 143.32L267.666 153.613L273.467 153.613Z" fill="#b6b6b6" fill-opacity="0.964706" fill-rule="nonzero" opacity="1" stroke="none" vectornator:layerName="path"/>
<path d="M303.734 148.497L303.734 152.427L289.043 159.196L289.043 155.64L300.022 150.556L300.022 150.213L289.043 145.254L289.043 141.698L303.734 148.497Z" fill="#2f649e" fill-opacity="0.964706" fill-rule="nonzero" opacity="1" stroke="none" vectornator:layerName="path"/>
</g>
</g>
</svg>
