<?xml version="1.0" encoding="UTF-8" standalone="no"?>
<!DOCTYPE svg PUBLIC "-//W3C//DTD SVG 1.1//EN" "http://www.w3.org/Graphics/SVG/1.1/DTD/svg11.dtd">
<!-- Created with Vectornator (http://vectornator.io/) -->
<svg height="100%" stroke-miterlimit="10" style="fill-rule:nonzero;clip-rule:evenodd;stroke-linecap:round;stroke-linejoin:round;" version="1.1" viewBox="0 0 200 200" width="100%" xml:space="preserve" xmlns="http://www.w3.org/2000/svg" xmlns:vectornator="http://vectornator.io" xmlns:xlink="http://www.w3.org/1999/xlink">
<defs>
<filter color-interpolation-filters="sRGB" filterUnits="userSpaceOnUse" height="110" id="Filter" width="110" x="88.3561" y="89.5069">
<feDropShadow dx="0" dy="0" flood-color="#000000" flood-opacity="0.5" in="SourceGraphic" result="Shadow" stdDeviation="2"/>
</filter>
</defs>
<g id="com.castsoftware.sqlanalyzer" vectornator:layerName="com.castsoftware.sqlanalyzer">
<path d="M143.356 194.507C170.97 194.507 193.356 172.121 193.356 144.507C193.356 116.893 170.97 94.5069 143.356 94.5069C115.742 94.5069 93.3561 116.893 93.3561 144.507C93.3561 172.121 115.742 194.507 143.356 194.507Z" fill="#ffffff" fill-rule="evenodd" filter="url(#Filter)" stroke="none" vectornator:layerName="Oval" vectornator:shadowAngle="0" vectornator:shadowColor="#000000" vectornator:shadowOffset="0" vectornator:shadowOpacity="0.5" vectornator:shadowRadius="4"/>
<g opacity="1" vectornator:layerName="java">
<g opacity="1" vectornator:layerName="Group">
<path d="M126.667 164.676C125.778 164.676 124.895 164.618 124.021 164.692C122.773 164.786 121.577 165.107 120.528 165.836C120.522 165.842 120.512 165.848 120.503 165.854C119.571 166.541 119.513 167.423 120.42 168.14C120.926 168.543 121.509 168.873 122.104 169.129C123.582 169.776 125.156 170.133 126.741 170.435C129.934 171.037 133.16 171.33 136.402 171.491C139.83 171.662 143.259 171.662 146.688 171.476C150.635 171.259 154.564 170.853 158.403 169.874C160.283 169.395 162.136 168.806 163.755 167.692C164.42 167.237 165 166.694 165.359 165.952C165.699 165.244 165.711 164.518 165.478 163.776C165.448 163.681 165.423 163.587 165.38 163.44C166.282 163.88 167.122 164.322 167.736 165.079C168.435 165.931 168.466 167.124 167.861 168.213C167.23 169.346 166.248 170.1 165.156 170.74C163.141 171.928 160.933 172.617 158.685 173.194C155.695 173.957 152.659 174.415 149.595 174.742C145.7 175.16 141.796 175.325 137.883 175.273C134.742 175.227 131.605 175.056 128.483 174.69C126.005 174.397 123.545 174.003 121.129 173.383C119.249 172.901 117.403 172.324 115.697 171.369C114.633 170.774 113.655 170.072 113.017 168.998C112.275 167.74 112.443 166.483 113.483 165.448C114.36 164.579 115.428 164.02 116.584 163.632C118.807 162.882 121.083 162.778 123.395 163.05C123.828 163.101 124.202 163.245 124.564 163.462C125.263 163.877 125.974 164.276 126.667 164.676Z" fill="#5382a1" fill-rule="nonzero" opacity="1" stroke="none" vectornator:layerName="Shape"/>
<path d="M142.643 142.867C142.502 142.769 142.361 142.678 142.223 142.577C139.695 140.737 137.331 138.713 135.249 136.385C133.743 134.697 132.399 132.896 131.562 130.775C130.989 129.335 130.722 127.851 131.029 126.307C131.271 125.08 131.854 124.009 132.58 123.005C133.93 121.152 135.647 119.657 137.389 118.195C139.398 116.51 141.437 114.862 143.431 113.156C145.038 111.78 146.51 110.269 147.629 108.459C148.414 107.196 148.927 105.844 148.954 104.339C148.97 103.537 148.862 102.749 148.586 101.992C148.54 101.87 148.5 101.748 148.457 101.626C148.488 101.614 148.516 101.599 148.543 101.583C148.871 102.175 149.224 102.755 149.525 103.363C150.34 105.008 150.797 106.741 150.739 108.591C150.681 110.315 150.178 111.923 149.393 113.446C148.28 115.613 146.728 117.466 145.069 119.227C143.271 121.134 141.428 123.002 139.653 124.928C138.631 126.036 137.754 127.259 137.23 128.697C136.794 129.893 136.8 131.062 137.288 132.249C138.757 135.838 140.447 139.315 142.557 142.583C142.606 142.656 142.646 142.739 142.689 142.818C142.673 142.83 142.655 142.849 142.643 142.867Z" fill="#e76f00" fill-rule="nonzero" opacity="1" stroke="none" vectornator:layerName="Shape"/>
<path d="M134.006 141.457C132.939 141.774 131.866 142.074 130.808 142.421C129.786 142.757 128.765 143.117 127.867 143.722C127.624 143.883 127.404 144.097 127.22 144.323C126.971 144.622 127.032 144.9 127.397 145.028C127.879 145.196 128.376 145.345 128.879 145.406C130.213 145.559 131.55 145.708 132.893 145.76C137.141 145.946 141.391 145.867 145.639 145.611C147.93 145.473 150.227 145.33 152.512 145.089C154.582 144.872 156.634 144.518 158.695 144.225C158.765 144.216 158.836 144.204 158.94 144.247C158.541 144.573 158.152 144.915 157.738 145.22C156.551 146.099 155.358 146.963 154.162 147.826C154.064 147.894 153.95 147.961 153.837 147.979C151.181 148.379 148.531 148.821 145.863 149.151C141.787 149.655 137.684 149.85 133.577 149.822C130.569 149.804 127.563 149.652 124.591 149.157C122.981 148.892 121.383 148.553 119.933 147.762C119.543 147.549 119.16 147.28 118.862 146.951C118.096 146.114 118.231 144.994 119.138 144.192C120.006 143.429 121.061 143.032 122.15 142.721C124.751 141.982 127.422 141.701 130.108 141.558C131.412 141.491 132.712 141.454 134.013 141.402C134.01 141.423 134.006 141.439 134.006 141.457Z" fill="#5382a1" fill-rule="nonzero" opacity="1" stroke="none" vectornator:layerName="Shape"/>
<path d="M145.096 144.512C145.835 143.853 146.47 143.111 147.001 142.278C147.537 141.427 147.902 140.514 147.951 139.501C148.01 138.353 147.614 137.325 147.019 136.382C146.265 135.188 145.452 134.035 144.694 132.847C143.9 131.608 143.357 130.272 143.265 128.785C143.201 127.696 143.37 126.625 143.685 125.584C144.428 123.136 145.986 121.287 148.031 119.81C150.258 118.207 152.766 117.222 155.388 116.495C157.339 115.955 159.323 115.592 161.369 115.451C161.277 115.515 161.185 115.58 161.093 115.638C158.869 117.038 156.713 118.531 154.646 120.145C153.229 121.25 151.868 122.416 150.684 123.771C150.371 124.134 150.086 124.522 149.807 124.912C148.927 126.133 148.939 127.461 149.46 128.791C149.816 129.689 150.294 130.54 150.724 131.407C151.224 132.42 151.8 133.406 152.227 134.453C153.14 136.681 152.763 138.777 151.362 140.7C150.175 142.324 148.546 143.358 146.697 144.07C146.185 144.265 145.654 144.417 145.13 144.588C145.118 144.561 145.105 144.54 145.096 144.512Z" fill="#e76f00" fill-rule="nonzero" opacity="1" stroke="none" vectornator:layerName="Shape"/>
<path d="M156.238 155.224C155.787 155.398 155.373 155.563 154.947 155.713C151.963 156.75 148.896 157.428 145.765 157.812C142.91 158.16 140.042 158.304 137.165 158.176C134.187 158.035 131.234 157.736 128.36 156.885C127.269 156.561 126.192 156.183 125.269 155.487C125.005 155.292 124.757 155.041 124.564 154.773C124.193 154.254 124.275 153.592 124.745 152.954C125.33 152.157 126.14 151.638 127.008 151.208C127.894 150.765 128.827 150.466 129.814 150.35C129.974 150.332 130.133 150.332 130.354 150.32C130.151 150.534 129.977 150.701 129.826 150.891C129.32 151.501 129.397 152.108 130.05 152.569C130.82 153.112 131.719 153.341 132.626 153.515C135.856 154.135 139.113 154.117 142.379 153.9C145.139 153.717 147.872 153.35 150.524 152.572C151.307 152.343 151.868 152.426 152.515 152.871C153.625 153.64 154.803 154.318 155.947 155.035C156.036 155.087 156.118 155.142 156.238 155.224Z" fill="#5382a1" fill-rule="nonzero" opacity="1" stroke="none" vectornator:layerName="Shape"/>
<path d="M132.626 158.603C132.498 158.801 132.387 158.948 132.304 159.106C132.053 159.583 132.145 159.995 132.577 160.318C133.099 160.712 133.715 160.867 134.341 160.996C136.144 161.359 137.972 161.353 139.797 161.286C141.848 161.212 143.894 161.005 145.9 160.556C147.194 160.269 148.457 159.842 149.739 159.485C149.859 159.451 150.031 159.445 150.126 159.506C151.699 160.51 153.26 161.524 154.827 162.537C154.867 162.561 154.901 162.598 154.996 162.671C154.37 162.982 153.797 163.294 153.205 163.556C151.107 164.475 148.902 165.021 146.651 165.403C143.692 165.903 140.704 166.098 137.702 166.016C135.285 165.952 132.89 165.735 130.562 165.033C129.569 164.731 128.603 164.359 127.827 163.632C127.106 162.949 126.965 162.113 127.425 161.24C127.765 160.59 128.275 160.092 128.882 159.686C130.001 158.945 131.246 158.636 132.626 158.603Z" fill="#5382a1" fill-rule="nonzero" opacity="1" stroke="none" vectornator:layerName="Shape"/>
<path d="M123.095 176.493C123.825 176.649 124.554 176.805 125.284 176.954C128.118 177.534 130.973 177.974 133.85 178.297C137.907 178.746 141.974 178.935 146.053 178.816C151.662 178.657 157.195 177.986 162.593 176.384C165.632 175.483 168.561 174.317 171.216 172.569C172.137 171.964 172.974 171.235 173.851 170.56C173.937 170.493 174.02 170.417 174.151 170.307C174.142 171 174.001 171.604 173.762 172.184C173.36 173.158 172.728 173.969 171.962 174.677C170.223 176.28 168.15 177.314 165.96 178.148C163.181 179.204 160.299 179.86 157.36 180.311C153.821 180.861 150.264 181.071 146.685 181.032C143.903 181.001 141.131 180.8 138.371 180.449C134.457 179.945 130.611 179.127 126.855 177.922C125.579 177.51 124.327 177.037 123.067 176.588C123.076 176.561 123.085 176.53 123.095 176.493Z" fill="#5382a1" fill-rule="nonzero" opacity="1" stroke="none" vectornator:layerName="Shape"/>
<path d="M160.127 143.181C160.728 142.846 161.32 142.473 161.945 142.186C163.056 141.683 164.23 141.43 165.46 141.427C168.321 141.417 170.612 143.331 171.014 146.151C171.523 149.694 170.333 152.597 167.564 154.855C165.589 156.46 163.283 157.397 160.844 158.041C160.219 158.209 159.584 158.325 158.952 158.462C158.839 158.484 158.719 158.487 158.581 158.447C158.649 158.392 158.716 158.34 158.783 158.285C160.621 156.93 162.332 155.441 163.789 153.68C164.926 152.307 165.899 150.836 166.377 149.099C166.638 148.153 166.791 147.192 166.451 146.236C165.96 144.86 164.933 144.018 163.598 143.511C162.485 143.09 161.341 143.05 160.176 143.264C160.157 143.236 160.142 143.209 160.127 143.181Z" fill="#5382a1" fill-rule="nonzero" opacity="1" stroke="none" vectornator:layerName="Shape"/>
</g>
</g>
<g opacity="1" vectornator:layerName="grpc-icon-color">
<path d="M21.9686 90.7717C23.442 92.7319 25.3569 94.3172 27.5577 95.3988C29.9379 96.5777 32.5642 97.1738 35.2201 97.1379C37.3674 97.1942 39.5051 96.8296 41.5124 96.0646C43.1178 95.434 44.551 94.4322 45.6948 93.1411C46.7683 91.8831 47.5519 90.4043 47.9903 88.8097C48.4682 87.0865 48.7048 85.3055 48.6934 83.5173L48.6934 77.299L48.5455 77.299C47.1536 79.5048 45.146 81.2547 42.7707 82.3323C40.5058 83.3184 38.0605 83.8227 35.5903 83.813C33.1696 83.8313 30.7684 83.3788 28.5204 82.4807C26.392 81.6357 24.4446 80.392 22.7828 78.8163C21.1341 77.2334 19.8244 75.3318 18.9333 73.2271C17.985 71.0048 17.5061 68.6106 17.5266 66.1945C17.506 63.7855 17.9589 61.3959 18.8594 59.1614C19.7106 57.0472 20.9539 55.1132 22.5238 53.461C24.0934 51.8226 25.9834 50.5249 28.0763 49.6487C30.3157 48.7175 32.721 48.2513 35.1462 48.2787C36.2504 48.2853 37.3522 48.3844 38.4399 48.5749C39.636 48.7838 40.8037 49.1317 41.9192 49.6115C44.5676 50.7592 46.857 52.6007 48.5455 54.9417L48.6934 54.9417L48.6934 49.1674L53.5795 49.1674L53.5795 83.5173C53.5627 85.5356 53.3268 87.546 52.8758 89.5133C52.4041 91.6405 51.4689 93.6373 50.1368 95.3615C48.6212 97.2634 46.6819 98.7846 44.4737 99.8035C42.0548 100.987 38.8962 101.58 34.9978 101.58C31.8307 101.634 28.6847 101.055 25.7441 99.8775C22.9304 98.6722 20.4064 96.8802 18.3408 94.6212L21.9686 90.7717ZM22.8567 66.0461C22.8446 67.8104 23.1845 69.5594 23.8566 71.1906C24.4973 72.7564 25.4262 74.1879 26.5951 75.4109C27.7571 76.6227 29.1389 77.6026 30.6669 78.2983C32.2587 79.0218 33.9896 79.3881 35.7381 79.3716C39.2007 79.3839 42.5373 78.0731 45.0656 75.7071C46.3072 74.5355 47.2797 73.1083 47.9158 71.5241C48.6015 69.7822 48.9166 67.9166 48.8412 66.0461C48.8537 64.2919 48.5529 62.5495 47.953 60.901C47.3829 59.3341 46.5014 57.8987 45.3619 56.6813C44.1904 55.4474 42.7798 54.4651 41.2161 53.7945C39.4849 53.0588 37.6189 52.6933 35.7381 52.7212C33.9897 52.705 32.2589 53.0713 30.6669 53.7945C29.1394 54.4908 27.7577 55.4704 26.5951 56.6813C25.4268 57.9046 24.498 59.3358 23.8566 60.901C23.1847 62.5326 22.8448 64.2817 22.8567 66.0461ZM73.4923 83.813L68.1627 83.813L68.1627 31.4L84.3011 31.4C89.6309 31.4 93.8381 32.5597 96.9228 34.8793C100.007 37.2004 101.549 40.7045 101.55 45.3918C101.644 48.7947 100.409 52.1005 98.1078 54.6088C95.8123 57.1014 92.4933 58.5448 88.1506 58.939L103.252 83.813L96.7378 83.813L82.3757 59.4576L73.4923 59.4576L73.4923 83.813ZM73.4923 54.5715L82.9682 54.5715C85.0044 54.6144 87.0361 54.3651 89.0015 53.8312C90.4389 53.4468 91.7853 52.78 92.9622 51.8697C93.9119 51.1056 94.6509 50.1118 95.1093 48.9823C95.5594 47.8393 95.7854 46.6203 95.7751 45.3918C95.7807 44.188 95.5547 42.9942 95.1093 41.8758C94.6455 40.7389 93.908 39.7342 92.9622 38.9511C91.7964 38.0229 90.4459 37.3542 89.0009 36.9897C87.0313 36.4824 85.0018 36.2457 82.9682 36.2861L73.4923 36.2861L73.4923 54.5715ZM112.431 31.4L127.682 31.4C133.011 31.4 137.218 32.5597 140.303 34.8793C143.387 37.2004 144.929 40.7045 144.93 45.3918C144.93 50.081 143.388 53.5974 140.303 55.941C137.218 58.2854 133.011 59.4576 127.682 59.4576L117.762 59.4576L117.762 83.813L112.431 83.813L112.431 31.4ZM117.762 54.5715L126.349 54.5715C128.385 54.6144 130.417 54.365 132.382 53.8312C133.82 53.4467 135.166 52.78 136.343 51.8697C137.293 51.1054 138.031 50.1116 138.489 48.9823C138.94 47.8393 139.166 46.6203 139.156 45.3918C139.162 44.1879 138.935 42.9942 138.49 41.8758C138.026 40.7389 137.289 39.7343 136.343 38.9511C135.177 38.0231 133.827 37.3544 132.382 36.9897C130.412 36.4824 128.383 36.2457 126.349 36.2861L117.762 36.2861L117.762 54.5715ZM198.452 75.5221C197.514 76.9114 196.408 78.1794 195.158 79.2971C193.806 80.5124 192.3 81.5454 190.679 82.3696C188.949 83.2529 187.123 83.936 185.238 84.4055C183.216 84.9074 181.14 85.1561 179.056 85.1458C175.34 85.1807 171.653 84.4762 168.211 83.0732C161.647 80.4207 156.448 75.2078 153.812 68.6373C151.049 61.5432 151.049 53.6703 153.812 46.5762C156.448 40.0056 161.648 34.7928 168.212 32.1409C171.653 30.7376 175.34 30.0329 179.056 30.0677C182.406 30.0859 185.722 30.739 188.828 31.9925C192.141 33.3183 195.033 35.5188 197.194 38.3592L192.53 41.8386C191.903 40.9055 191.157 40.0593 190.309 39.3219C189.329 38.4543 188.248 37.7086 187.089 37.1009C185.851 36.4488 184.548 35.9278 183.202 35.5463C181.855 35.1564 180.459 34.957 179.056 34.9538C175.947 34.9028 172.864 35.5346 170.025 36.8046C167.449 37.9733 165.143 39.662 163.252 41.7646C161.379 43.8729 159.934 46.3239 158.994 48.9823C157.02 54.5625 157.02 60.651 158.994 66.2312C159.933 68.8895 161.379 71.3404 163.252 73.4483C165.143 75.5516 167.449 77.2404 170.025 78.4083C172.864 79.6791 175.947 80.3109 179.056 80.2592C180.434 80.2601 181.809 80.1365 183.164 79.8901C184.544 79.6366 185.887 79.214 187.163 78.6318C188.508 78.0149 189.755 77.2041 190.865 76.2251C192.111 75.1115 193.195 73.8282 194.084 72.4129L198.452 75.5221Z" fill="#244b5a" fill-rule="nonzero" opacity="1" stroke="none" vectornator:layerName="Shape"/>
<g opacity="1" vectornator:layerName="Clipped">
<clipPath id="ClipPath">
<path d="M0 34.8584L13.7017 21.0544L27.5056 34.7561L13.804 48.5601L0 34.8584Z"/>
</clipPath>
<g clip-path="url(#ClipPath)">
<g opacity="1" vectornator:layerName="Group">
<path d="M0.243259 21.055L5.52136e-05 23.2083L5.52136e-05 21.055L0.243259 21.055Z" fill="#75caca" fill-rule="nonzero" opacity="1" stroke="none" vectornator:layerName="Path"/>
<path d="M0.565463 21.055L5.52136e-05 26.0545L5.52136e-05 23.2083L0.243259 21.055L0.565463 21.055Z" fill="#74cbca" fill-rule="nonzero" opacity="1" stroke="none" vectornator:layerName="Path"/>
<path d="M0.886537 21.055L5.52136e-05 28.8996L5.52136e-05 26.0545L0.565463 21.055L0.886537 21.055Z" fill="#74cbca" fill-rule="nonzero" opacity="1" stroke="none" vectornator:layerName="Path"/>
<path d="M1.20818 21.055L5.52136e-05 31.7453L5.52136e-05 28.8996L0.886537 21.055L1.20818 21.055Z" fill="#73cbca" fill-rule="nonzero" opacity="1" stroke="none" vectornator:layerName="Path"/>
<path d="M1.52982 21.055L5.52136e-05 34.591L5.52136e-05 31.7453L1.20818 21.055C1.20818 21.055 1.52982 21.055 1.52982 21.055Z" fill="#73cbca" fill-rule="nonzero" opacity="1" stroke="none" vectornator:layerName="Path"/>
<path d="M1.85145 21.055L5.52136e-05 37.4372L5.52136e-05 34.591L1.52982 21.055L1.85145 21.055Z" fill="#72c9c9" fill-rule="nonzero" opacity="1" stroke="none" vectornator:layerName="Path"/>
<path d="M2.17309 21.055L5.52136e-05 40.2828L5.52136e-05 37.4372L1.85145 21.055L2.17309 21.055Z" fill="#72c9c9" fill-rule="nonzero" opacity="1" stroke="none" vectornator:layerName="Path"/>
<path d="M2.49417 21.055L5.52136e-05 43.1285L5.52136e-05 40.2828L2.17309 21.055L2.49417 21.055Z" fill="#70caca" fill-rule="nonzero" opacity="1" stroke="none" vectornator:layerName="Path"/>
<path d="M2.81581 21.055L5.52136e-05 45.9742L5.52136e-05 43.1285L2.49417 21.055L2.81581 21.055Z" fill="#70caca" fill-rule="nonzero" opacity="1" stroke="none" vectornator:layerName="Path"/>
<path d="M3.13801 21.055L0.0316548 48.5433L5.52136e-05 48.5399L5.52136e-05 45.9742L2.81581 21.055L3.13801 21.055Z" fill="#6fcac8" fill-rule="nonzero" opacity="1" stroke="none" vectornator:layerName="Path"/>
<path d="M3.45908 21.055L0.351037 48.5602L0.180624 48.5602L0.0316548 48.5433L3.13801 21.055L3.45908 21.055Z" fill="#6ec8c8" fill-rule="nonzero" opacity="1" stroke="none" vectornator:layerName="Path"/>
<path d="M3.78016 21.055L0.672676 48.5602L0.351037 48.5602L3.45908 21.055L3.78016 21.055Z" fill="#6ec8c8" fill-rule="nonzero" opacity="1" stroke="none" vectornator:layerName="Path"/>
<path d="M4.10236 21.055L0.994315 48.5602L0.672676 48.5602L3.78016 21.055C3.78016 21.055 4.10236 21.055 4.10236 21.055Z" fill="#6cc9c9" fill-rule="nonzero" opacity="1" stroke="none" vectornator:layerName="Path"/>
<path d="M4.424 21.055L1.31595 48.5602L0.994315 48.5602L4.10236 21.055L4.424 21.055Z" fill="#6dc9c8" fill-rule="nonzero" opacity="1" stroke="none" vectornator:layerName="Path"/>
<path d="M4.74508 21.055L1.63759 48.5602L1.31595 48.5602L4.424 21.055L4.74508 21.055Z" fill="#69c7c8" fill-rule="nonzero" opacity="1" stroke="none" vectornator:layerName="Path"/>
<path d="M5.06672 21.055L1.95867 48.5602L1.63759 48.5602L4.74508 21.055L5.06672 21.055Z" fill="#69c7c8" fill-rule="nonzero" opacity="1" stroke="none" vectornator:layerName="Path"/>
<path d="M5.38835 21.055L2.28031 48.5602L1.95867 48.5602L5.06672 21.055L5.38835 21.055Z" fill="#69c8c7" fill-rule="nonzero" opacity="1" stroke="none" vectornator:layerName="Path"/>
<path d="M5.70999 21.055L2.60194 48.5602L2.28031 48.5602L5.38835 21.055L5.70999 21.055Z" fill="#68c8c7" fill-rule="nonzero" opacity="1" stroke="none" vectornator:layerName="Path"/>
<path d="M6.03107 21.055L2.92358 48.5602L2.60194 48.5602L5.70999 21.055L6.03107 21.055Z" fill="#67c7c7" fill-rule="nonzero" opacity="1" stroke="none" vectornator:layerName="Path"/>
<path d="M6.35271 21.055L3.24522 48.5602L2.92358 48.5602L6.03107 21.055L6.35271 21.055Z" fill="#65c7c7" fill-rule="nonzero" opacity="1" stroke="none" vectornator:layerName="Path"/>
<path d="M6.67491 21.055L3.5663 48.5602L3.24522 48.5602L6.35271 21.055L6.67491 21.055Z" fill="#64c7c7" fill-rule="nonzero" opacity="1" stroke="none" vectornator:layerName="Path"/>
<path d="M6.99598 21.055L3.88794 48.5602L3.5663 48.5602L6.67491 21.055L6.99598 21.055Z" fill="#63c6c6" fill-rule="nonzero" opacity="1" stroke="none" vectornator:layerName="Path"/>
<path d="M7.31762 21.055L4.21014 48.5602L3.88794 48.5602L6.99598 21.055L7.31762 21.055Z" fill="#60c6c6" fill-rule="nonzero" opacity="1" stroke="none" vectornator:layerName="Path"/>
<path d="M7.6387 21.055L4.53121 48.5602L4.21014 48.5602L7.31762 21.055L7.6387 21.055Z" fill="#60c6c5" fill-rule="nonzero" opacity="1" stroke="none" vectornator:layerName="Path"/>
<path d="M7.9609 21.055L4.85285 48.5602L4.53121 48.5602L7.6387 21.055C7.6387 21.055 7.9609 21.055 7.9609 21.055Z" fill="#5fc6c5" fill-rule="nonzero" opacity="1" stroke="none" vectornator:layerName="Path"/>
<path d="M8.28254 21.055L5.17449 48.5602L4.85285 48.5602L7.9609 21.055L8.28254 21.055Z" fill="#5cc5c4" fill-rule="nonzero" opacity="1" stroke="none" vectornator:layerName="Path"/>
<path d="M8.60361 21.055L5.49613 48.5602L5.17449 48.5602L8.28254 21.055L8.60361 21.055ZM8.92525 21.055L5.81721 48.5602L5.49613 48.5602L8.60361 21.055C8.60361 21.055 8.92525 21.055 8.92525 21.055Z" fill="#5ac5c4" fill-rule="nonzero" opacity="1" stroke="none" vectornator:layerName="Shape"/>
<path d="M9.24689 21.055L6.13884 48.5602L5.81721 48.5602L8.92525 21.055L9.24689 21.055Z" fill="#57c4c4" fill-rule="nonzero" opacity="1" stroke="none" vectornator:layerName="Path"/>
<path d="M9.56853 21.055L6.46048 48.5602L6.13884 48.5602L9.24689 21.055L9.56853 21.055Z" fill="#58c4c3" fill-rule="nonzero" opacity="1" stroke="none" vectornator:layerName="Path"/>
<path d="M9.88961 21.055L6.78212 48.5602L6.46048 48.5602L9.56853 21.055L9.88961 21.055Z" fill="#55c4c3" fill-rule="nonzero" opacity="1" stroke="none" vectornator:layerName="Path"/>
<path d="M10.2112 21.055L7.1032 48.5602L6.78212 48.5602L9.88961 21.055L10.2112 21.055Z" fill="#53c3c2" fill-rule="nonzero" opacity="1" stroke="none" vectornator:layerName="Path"/>
<path d="M10.5329 21.055L7.42484 48.5602L7.1032 48.5602L10.2112 21.055L10.5329 21.055Z" fill="#52c3c2" fill-rule="nonzero" opacity="1" stroke="none" vectornator:layerName="Path"/>
<path d="M10.8545 21.055L7.74648 48.5602L7.42484 48.5602L10.5329 21.055L10.8545 21.055Z" fill="#50c3c2" fill-rule="nonzero" opacity="1" stroke="none" vectornator:layerName="Path"/>
<path d="M11.1756 21.055L8.06811 48.5602L7.74648 48.5602L10.8545 21.055C10.8545 21.055 11.1756 21.055 11.1756 21.055Z" fill="#50c1c0" fill-rule="nonzero" opacity="1" stroke="none" vectornator:layerName="Path"/>
<path d="M11.4978 21.055L8.38975 48.5602L8.06811 48.5602L11.1756 21.055L11.4978 21.055Z" fill="#4bc2c0" fill-rule="nonzero" opacity="1" stroke="none" vectornator:layerName="Path"/>
<path d="M11.8194 21.055L8.71139 48.5602L8.38975 48.5602L11.4978 21.055L11.8194 21.055Z" fill="#4cc1c0" fill-rule="nonzero" opacity="1" stroke="none" vectornator:layerName="Path"/>
<path d="M12.1405 21.055L9.03247 48.5602L8.71139 48.5602L11.8194 21.055L12.1405 21.055Z" fill="#47c1be" fill-rule="nonzero" opacity="1" stroke="none" vectornator:layerName="Path"/>
<path d="M12.4622 21.055L9.35467 48.5602L9.03247 48.5602L12.1405 21.055L12.4622 21.055Z" fill="#46c0be" fill-rule="nonzero" opacity="1" stroke="none" vectornator:layerName="Path"/>
<path d="M12.7838 21.055L9.67574 48.5602L9.35467 48.5602L12.4622 21.055L12.7838 21.055Z" fill="#43c0be" fill-rule="nonzero" opacity="1" stroke="none" vectornator:layerName="Path"/>
<path d="M13.1054 21.055L9.99738 48.5602L9.67574 48.5602L12.7838 21.055L13.1054 21.055Z" fill="#40bfbd" fill-rule="nonzero" opacity="1" stroke="none" vectornator:layerName="Path"/>
<path d="M13.4271 21.055L10.319 48.5602L9.99738 48.5602L13.1054 21.055L13.4271 21.055Z" fill="#3bbfbd" fill-rule="nonzero" opacity="1" stroke="none" vectornator:layerName="Path"/>
<path d="M13.7481 21.055L10.6407 48.5602L10.319 48.5602L13.4271 21.055C13.4271 21.055 13.7481 21.055 13.7481 21.055Z" fill="#39bfbc" fill-rule="nonzero" opacity="1" stroke="none" vectornator:layerName="Path"/>
<path d="M14.0698 21.055L10.9617 48.5602L10.6407 48.5602L13.7481 21.055C13.7481 21.055 14.0698 21.055 14.0698 21.055Z" fill="#34bebd" fill-rule="nonzero" opacity="1" stroke="none" vectornator:layerName="Path"/>
<path d="M14.3914 21.055L11.2834 48.5602L10.9617 48.5602L14.0698 21.055L14.3914 21.055Z" fill="#32bebb" fill-rule="nonzero" opacity="1" stroke="none" vectornator:layerName="Path"/>
<path d="M14.7131 21.055L11.6056 48.5602L11.2834 48.5602L14.3914 21.055C14.3914 21.055 14.7131 21.055 14.7131 21.055Z" fill="#2dbdbb" fill-rule="nonzero" opacity="1" stroke="none" vectornator:layerName="Path"/>
<path d="M15.0341 21.055L11.9267 48.5602L11.6056 48.5602L14.7131 21.055L15.0341 21.055Z" fill="#24bcbb" fill-rule="nonzero" opacity="1" stroke="none" vectornator:layerName="Path"/>
<path d="M15.3563 21.055L12.2477 48.5602L11.9267 48.5602L15.0341 21.055L15.3563 21.055Z" fill="#21bcb9" fill-rule="nonzero" opacity="1" stroke="none" vectornator:layerName="Path"/>
<path d="M15.678 21.055L12.5694 48.5602L12.2477 48.5602L15.3563 21.055L15.678 21.055Z" fill="#18bbb9" fill-rule="nonzero" opacity="1" stroke="none" vectornator:layerName="Path"/>
<path d="M15.9991 21.055L12.8916 48.5602L12.5694 48.5602L15.678 21.055L15.9991 21.055Z" fill="#0fbab9" fill-rule="nonzero" opacity="1" stroke="none" vectornator:layerName="Path"/>
<path d="M16.3201 21.055L13.2126 48.5602L12.8916 48.5602L15.9991 21.055C15.9991 21.055 16.3201 21.055 16.3201 21.055Z" fill="#03bbb8" fill-rule="nonzero" opacity="1" stroke="none" vectornator:layerName="Path"/>
<path d="M16.6423 21.055L13.5343 48.5602L13.2126 48.5602L16.3201 21.055L16.6423 21.055Z" fill="#06b8b6" fill-rule="nonzero" opacity="1" stroke="none" vectornator:layerName="Path"/>
<path d="M16.964 21.055L13.8559 48.5602L13.5343 48.5602L16.6423 21.055L16.964 21.055Z" fill="#06b8b6" fill-rule="nonzero" opacity="1" stroke="none" vectornator:layerName="Path"/>
<path d="M17.285 21.055L14.1776 48.5602L13.8559 48.5602L16.964 21.055C16.964 21.055 17.285 21.055 17.285 21.055Z" fill="#03b7b5" fill-rule="nonzero" opacity="1" stroke="none" vectornator:layerName="Path"/>
<path d="M17.6067 21.055L14.4992 48.5602L14.1776 48.5602L17.285 21.055L17.6067 21.055Z" fill="#04b7b4" fill-rule="nonzero" opacity="1" stroke="none" vectornator:layerName="Path"/>
<path d="M17.9283 21.055L14.8203 48.5602L14.4992 48.5602L17.6067 21.055L17.9283 21.055Z" fill="#00b6b5" fill-rule="nonzero" opacity="1" stroke="none" vectornator:layerName="Path"/>
<path d="M18.25 21.055L15.1419 48.5602L14.8203 48.5602L17.9283 21.055L18.25 21.055Z" fill="#03b6b4" fill-rule="nonzero" opacity="1" stroke="none" vectornator:layerName="Path"/>
<path d="M18.5716 21.055L15.4636 48.5602L15.1419 48.5602L18.25 21.055L18.5716 21.055Z" fill="#05b6b2" fill-rule="nonzero" opacity="1" stroke="none" vectornator:layerName="Path"/>
<path d="M18.8927 21.055L15.7852 48.5602L15.4636 48.5602L18.5716 21.055C18.5716 21.055 18.8927 21.055 18.8927 21.055Z" fill="#01b5b1" fill-rule="nonzero" opacity="1" stroke="none" vectornator:layerName="Path"/>
<path d="M19.2149 21.055L16.1063 48.5602L15.7852 48.5602L18.8927 21.055L19.2149 21.055Z" fill="#01b5b1" fill-rule="nonzero" opacity="1" stroke="none" vectornator:layerName="Path"/>
<path d="M19.536 21.055L16.4279 48.5602L16.1063 48.5602L19.2149 21.055L19.536 21.055Z" fill="#00b4b1" fill-rule="nonzero" opacity="1" stroke="none" vectornator:layerName="Path"/>
<path d="M19.8576 21.055L16.7501 48.5602L16.4279 48.5602L19.536 21.055L19.8576 21.055Z" fill="#00b3b0" fill-rule="nonzero" opacity="1" stroke="none" vectornator:layerName="Path"/>
<path d="M20.1792 21.055L17.0712 48.5602L16.7501 48.5602L19.8576 21.055L20.1792 21.055Z" fill="#00b3b0" fill-rule="nonzero" opacity="1" stroke="none" vectornator:layerName="Path"/>
<path d="M20.5009 21.055L17.3928 48.5602L17.0712 48.5602L20.1792 21.055L20.5009 21.055Z" fill="#00b2af" fill-rule="nonzero" opacity="1" stroke="none" vectornator:layerName="Path"/>
<path d="M20.8225 21.055L17.7139 48.5602L17.3928 48.5602L20.5009 21.055L20.8225 21.055Z" fill="#00b2ae" fill-rule="nonzero" opacity="1" stroke="none" vectornator:layerName="Path"/>
<path d="M21.1436 21.055L18.0361 48.5602L17.7139 48.5602L20.8225 21.055L21.1436 21.055Z" fill="#00b1ae" fill-rule="nonzero" opacity="1" stroke="none" vectornator:layerName="Path"/>
<path d="M21.4652 21.055L18.3572 48.5602L18.0361 48.5602L21.1436 21.055C21.1436 21.055 21.4652 21.055 21.4652 21.055Z" fill="#00b1ad" fill-rule="nonzero" opacity="1" stroke="none" vectornator:layerName="Path"/>
<path d="M21.7869 21.055L18.6788 48.5602L18.3572 48.5602L21.4652 21.055L21.7869 21.055Z" fill="#00b0ac" fill-rule="nonzero" opacity="1" stroke="none" vectornator:layerName="Path"/>
<path d="M22.1085 21.055L19.001 48.5602L18.6788 48.5602L21.7869 21.055C21.7869 21.055 22.1085 21.055 22.1085 21.055Z" fill="#00afac" fill-rule="nonzero" opacity="1" stroke="none" vectornator:layerName="Path"/>
<path d="M27.3258 21.055L27.5058 21.0748L27.5058 48.5602L19.001 48.5602L22.1085 21.055L27.3258 21.055Z" fill="#00afac" fill-rule="nonzero" opacity="1" stroke="none" vectornator:layerName="Path"/>
</g>
</g>
</g>
<g opacity="1" vectornator:layerName="Clipped">
<clipPath id="ClipPath_2">
<path d="M43.2693 34.675L51.3063 26.5779L59.4033 34.615L51.3663 42.712L43.2693 34.675Z"/>
</clipPath>
<g clip-path="url(#ClipPath_2)">
<g opacity="1" vectornator:layerName="Group">
<path d="M59.4028 31.2905L59.1833 26.5776L59.4028 26.5776L59.4028 31.2905Z" fill="#75caca" fill-rule="nonzero" opacity="1" stroke="none" vectornator:layerName="Path"/>
<path d="M59.4028 36.242L58.9531 26.5776L59.1833 26.5776L59.4028 31.2905L59.4028 36.242Z" fill="#74cbca" fill-rule="nonzero" opacity="1" stroke="none" vectornator:layerName="Path"/>
<path d="M59.4028 41.1936L58.7217 26.5776L58.9531 26.5776L59.4028 36.242L59.4028 41.1936Z" fill="#74cbca" fill-rule="nonzero" opacity="1" stroke="none" vectornator:layerName="Path"/>
<path d="M59.2431 42.7121L58.4915 26.5776L58.7217 26.5776L59.4028 41.1936L59.4028 42.7121L59.2431 42.7121Z" fill="#73cbca" fill-rule="nonzero" opacity="1" stroke="none" vectornator:layerName="Path"/>
<path d="M59.0118 42.7121L58.2607 26.5776L58.4915 26.5776L59.2431 42.7121L59.0118 42.7121Z" fill="#72c9c9" fill-rule="nonzero" opacity="1" stroke="none" vectornator:layerName="Path"/>
<path d="M58.7815 42.7121L58.0305 26.5776L58.2607 26.5776L59.0118 42.7121L58.7815 42.7121Z" fill="#72c9c9" fill-rule="nonzero" opacity="1" stroke="none" vectornator:layerName="Path"/>
<path d="M58.5508 42.7121L57.7997 26.5776L58.0305 26.5776L58.7815 42.7121L58.5508 42.7121Z" fill="#70caca" fill-rule="nonzero" opacity="1" stroke="none" vectornator:layerName="Path"/>
<path d="M58.3205 42.7121L57.5689 26.5776L57.7997 26.5776L58.5508 42.7121C58.5508 42.7121 58.3205 42.7121 58.3205 42.7121Z" fill="#6fcac8" fill-rule="nonzero" opacity="1" stroke="none" vectornator:layerName="Path"/>
<path d="M58.0897 42.7121L57.3381 26.5776L57.5689 26.5776L58.3205 42.7121L58.0897 42.7121ZM57.859 42.7121L57.1079 26.5776L57.3381 26.5776L58.0897 42.7121C58.0897 42.7121 57.859 42.7121 57.859 42.7121Z" fill="#6ec8c8" fill-rule="nonzero" opacity="1" stroke="none" vectornator:layerName="Shape"/>
<path d="M57.6287 42.7121L56.8765 26.5776L57.1079 26.5776L57.859 42.7121L57.6287 42.7121Z" fill="#6cc9c9" fill-rule="nonzero" opacity="1" stroke="none" vectornator:layerName="Path"/>
<path d="M57.3979 42.7121L56.6463 26.5776L56.8765 26.5776L57.6287 42.7121L57.3979 42.7121Z" fill="#6dc9c8" fill-rule="nonzero" opacity="1" stroke="none" vectornator:layerName="Path"/>
<path d="M57.1677 42.7121L56.4155 26.5776L56.6463 26.5776L57.3979 42.7121L57.1677 42.7121ZM56.9364 42.7121L56.1853 26.5776L56.4155 26.5776L57.1677 42.7121L56.9364 42.7121Z" fill="#69c7c8" fill-rule="nonzero" opacity="1" stroke="none" vectornator:layerName="Shape"/>
<path d="M56.7061 42.7121L55.9545 26.5776L56.1853 26.5776L56.9364 42.7121C56.9364 42.7121 56.7061 42.7121 56.7061 42.7121Z" fill="#69c8c7" fill-rule="nonzero" opacity="1" stroke="none" vectornator:layerName="Path"/>
<path d="M56.4753 42.7121L55.7237 26.5776L55.9545 26.5776L56.7061 42.7121L56.4753 42.7121Z" fill="#68c8c7" fill-rule="nonzero" opacity="1" stroke="none" vectornator:layerName="Path"/>
<path d="M56.2451 42.7121L55.4929 26.5776L55.7237 26.5776L56.4753 42.7121L56.2451 42.7121Z" fill="#67c7c7" fill-rule="nonzero" opacity="1" stroke="none" vectornator:layerName="Path"/>
<path d="M56.0143 42.7121L55.2627 26.5776L55.4929 26.5776L56.2451 42.7121L56.0143 42.7121Z" fill="#65c7c7" fill-rule="nonzero" opacity="1" stroke="none" vectornator:layerName="Path"/>
<path d="M55.7835 42.7121L55.0325 26.5776L55.2627 26.5776L56.0143 42.7121C56.0143 42.7121 55.7835 42.7121 55.7835 42.7121Z" fill="#64c7c7" fill-rule="nonzero" opacity="1" stroke="none" vectornator:layerName="Path"/>
<path d="M55.5527 42.7121L54.8017 26.5776L55.0325 26.5776L55.7835 42.7121L55.5527 42.7121Z" fill="#63c6c6" fill-rule="nonzero" opacity="1" stroke="none" vectornator:layerName="Path"/>
<path d="M55.322 42.7121L54.5709 26.5776L54.8017 26.5776L55.5527 42.7121L55.322 42.7121Z" fill="#60c6c6" fill-rule="nonzero" opacity="1" stroke="none" vectornator:layerName="Path"/>
<path d="M55.0912 42.7121L54.3401 26.5776L54.5709 26.5776L55.322 42.7121L55.0912 42.7121Z" fill="#60c6c5" fill-rule="nonzero" opacity="1" stroke="none" vectornator:layerName="Path"/>
<path d="M54.8609 42.7121L54.1093 26.5776L54.3401 26.5776L55.0912 42.7121C55.0912 42.7121 54.8609 42.7121 54.8609 42.7121Z" fill="#5fc6c5" fill-rule="nonzero" opacity="1" stroke="none" vectornator:layerName="Path"/>
<path d="M54.6301 42.7121L53.8785 26.5776L54.1093 26.5776L54.8609 42.7121L54.6301 42.7121Z" fill="#5fc6c5" fill-rule="nonzero" opacity="1" stroke="none" vectornator:layerName="Path"/>
<path d="M54.3999 42.7121L53.6483 26.5776L53.8785 26.5776L54.6301 42.7121L54.3999 42.7121Z" fill="#5cc5c4" fill-rule="nonzero" opacity="1" stroke="none" vectornator:layerName="Path"/>
<path d="M54.1686 42.7121L53.4175 26.5776L53.6483 26.5776L54.3999 42.7121L54.1686 42.7121Z" fill="#5ac5c4" fill-rule="nonzero" opacity="1" stroke="none" vectornator:layerName="Path"/>
<path d="M53.9383 42.7121L53.1873 26.5776L53.4175 26.5776L54.1686 42.7121L53.9383 42.7121Z" fill="#5ac5c4" fill-rule="nonzero" opacity="1" stroke="none" vectornator:layerName="Path"/>
<path d="M53.7081 42.7121L52.9559 26.5776L53.1873 26.5776L53.9383 42.7121L53.7081 42.7121Z" fill="#57c4c4" fill-rule="nonzero" opacity="1" stroke="none" vectornator:layerName="Path"/>
<path d="M53.4773 42.7121L52.7257 26.5776L52.9559 26.5776L53.7081 42.7121L53.4773 42.7121Z" fill="#58c4c3" fill-rule="nonzero" opacity="1" stroke="none" vectornator:layerName="Path"/>
<path d="M53.2471 42.7121L52.4949 26.5776L52.7257 26.5776L53.4773 42.7121L53.2471 42.7121Z" fill="#55c4c3" fill-rule="nonzero" opacity="1" stroke="none" vectornator:layerName="Path"/>
<path d="M53.0157 42.7121L52.2647 26.5776L52.4949 26.5776L53.2471 42.7121L53.0157 42.7121Z" fill="#53c3c2" fill-rule="nonzero" opacity="1" stroke="none" vectornator:layerName="Path"/>
<path d="M52.7855 42.7121L52.0339 26.5776L52.2647 26.5776L53.0157 42.7121C53.0157 42.7121 52.7855 42.7121 52.7855 42.7121Z" fill="#53c3c2" fill-rule="nonzero" opacity="1" stroke="none" vectornator:layerName="Path"/>
<path d="M52.5542 42.7121L51.8031 26.5776L52.0339 26.5776L52.7855 42.7121L52.5542 42.7121Z" fill="#52c3c2" fill-rule="nonzero" opacity="1" stroke="none" vectornator:layerName="Path"/>
<path d="M52.3239 42.7121L51.5723 26.5776L51.8031 26.5776L52.5542 42.7121C52.5542 42.7121 52.3239 42.7121 52.3239 42.7121Z" fill="#50c3c2" fill-rule="nonzero" opacity="1" stroke="none" vectornator:layerName="Path"/>
<path d="M52.0932 42.7121L51.3421 26.5776L51.5723 26.5776L52.3239 42.7121C52.3239 42.7121 52.0932 42.7121 52.0932 42.7121Z" fill="#50c1c0" fill-rule="nonzero" opacity="1" stroke="none" vectornator:layerName="Path"/>
<path d="M51.8629 42.7121L51.1113 26.5776L51.3421 26.5776L52.0932 42.7121C52.0932 42.7121 51.8629 42.7121 51.8629 42.7121Z" fill="#4dc2c1" fill-rule="nonzero" opacity="1" stroke="none" vectornator:layerName="Path"/>
<path d="M51.6321 42.7121L50.8805 26.5776L51.1113 26.5776L51.8629 42.7121L51.6321 42.7121Z" fill="#4cc2c0" fill-rule="nonzero" opacity="1" stroke="none" vectornator:layerName="Path"/>
<path d="M51.4013 42.7121L50.6503 26.5776L50.8805 26.5776L51.6321 42.7121C51.6321 42.7121 51.4013 42.7121 51.4013 42.7121Z" fill="#4bc0bf" fill-rule="nonzero" opacity="1" stroke="none" vectornator:layerName="Path"/>
<path d="M51.1706 42.7121L50.4195 26.5776L50.6503 26.5776L51.4013 42.7121L51.1706 42.7121Z" fill="#47c1be" fill-rule="nonzero" opacity="1" stroke="none" vectornator:layerName="Path"/>
<path d="M50.9403 42.7121L50.1887 26.5776L50.4195 26.5776L51.1706 42.7121C51.1706 42.7121 50.9403 42.7121 50.9403 42.7121Z" fill="#46c0be" fill-rule="nonzero" opacity="1" stroke="none" vectornator:layerName="Path"/>
<path d="M50.7095 42.7121L49.9579 26.5776L50.1887 26.5776L50.9403 42.7121L50.7095 42.7121Z" fill="#43c0be" fill-rule="nonzero" opacity="1" stroke="none" vectornator:layerName="Path"/>
<path d="M50.4793 42.7121L49.7277 26.5776L49.9579 26.5776L50.7095 42.7121L50.4793 42.7121Z" fill="#41c0be" fill-rule="nonzero" opacity="1" stroke="none" vectornator:layerName="Path"/>
<path d="M50.248 42.7121L49.4969 26.5776L49.7277 26.5776L50.4793 42.7121L50.248 42.7121Z" fill="#40bfbd" fill-rule="nonzero" opacity="1" stroke="none" vectornator:layerName="Path"/>
<path d="M50.0177 42.7121L49.2667 26.5776L49.4969 26.5776L50.248 42.7121L50.0177 42.7121Z" fill="#3bbfbd" fill-rule="nonzero" opacity="1" stroke="none" vectornator:layerName="Path"/>
<path d="M49.7869 42.7121L49.0353 26.5776L49.2667 26.5776L50.0177 42.7121L49.7869 42.7121Z" fill="#3cbfbc" fill-rule="nonzero" opacity="1" stroke="none" vectornator:layerName="Path"/>
<path d="M49.5567 42.7121L48.8051 26.5776L49.0353 26.5776L49.7869 42.7121C49.7869 42.7121 49.5567 42.7121 49.5567 42.7121Z" fill="#39bfbc" fill-rule="nonzero" opacity="1" stroke="none" vectornator:layerName="Path"/>
<path d="M49.3254 42.7121L48.5743 26.5776L48.8051 26.5776L49.5567 42.7121L49.3254 42.7121Z" fill="#34bebd" fill-rule="nonzero" opacity="1" stroke="none" vectornator:layerName="Path"/>
<path d="M49.0951 42.7121L48.3441 26.5776L48.5743 26.5776L49.3254 42.7121L49.0951 42.7121Z" fill="#32bebb" fill-rule="nonzero" opacity="1" stroke="none" vectornator:layerName="Path"/>
<path d="M48.8649 42.7121L48.1133 26.5776L48.3441 26.5776L49.0951 42.7121C49.0951 42.7121 48.8649 42.7121 48.8649 42.7121Z" fill="#2fbebc" fill-rule="nonzero" opacity="1" stroke="none" vectornator:layerName="Path"/>
<path d="M48.6341 42.7121L47.8825 26.5776L48.1133 26.5776L48.8649 42.7121L48.6341 42.7121Z" fill="#2dbdbb" fill-rule="nonzero" opacity="1" stroke="none" vectornator:layerName="Path"/>
<path d="M48.4033 42.7121L47.6517 26.5776L47.8825 26.5776L48.6341 42.7121L48.4033 42.7121Z" fill="#2bbdba" fill-rule="nonzero" opacity="1" stroke="none" vectornator:layerName="Path"/>
<path d="M48.1725 42.7121L47.4215 26.5776L47.6517 26.5776L48.4033 42.7121C48.4033 42.7121 48.1725 42.7121 48.1725 42.7121Z" fill="#24bcbb" fill-rule="nonzero" opacity="1" stroke="none" vectornator:layerName="Path"/>
<path d="M47.9423 42.7121L47.1901 26.5776L47.4215 26.5776L48.1725 42.7121L47.9423 42.7121Z" fill="#21bcb9" fill-rule="nonzero" opacity="1" stroke="none" vectornator:layerName="Path"/>
<path d="M47.7115 42.7121L46.9599 26.5776L47.1901 26.5776L47.9423 42.7121L47.7115 42.7121Z" fill="#18bbb9" fill-rule="nonzero" opacity="1" stroke="none" vectornator:layerName="Path"/>
<path d="M47.4807 42.7121L46.7291 26.5776L46.9599 26.5776L47.7115 42.7121L47.4807 42.7121Z" fill="#16bab9" fill-rule="nonzero" opacity="1" stroke="none" vectornator:layerName="Path"/>
<path d="M47.2499 42.7121L46.4989 26.5776L46.7291 26.5776L47.4807 42.7121C47.4807 42.7121 47.2499 42.7121 47.2499 42.7121Z" fill="#11bab7" fill-rule="nonzero" opacity="1" stroke="none" vectornator:layerName="Path"/>
<path d="M47.0197 42.7121L46.2681 26.5776L46.4989 26.5776L47.2499 42.7121C47.2499 42.7121 47.0197 42.7121 47.0197 42.7121Z" fill="#03bbb8" fill-rule="nonzero" opacity="1" stroke="none" vectornator:layerName="Path"/>
<path d="M46.7889 42.7121L46.0373 26.5776L46.2681 26.5776L47.0197 42.7121L46.7889 42.7121Z" fill="#06b8b6" fill-rule="nonzero" opacity="1" stroke="none" vectornator:layerName="Path"/>
<path d="M46.5587 42.7121L45.8071 26.5776L46.0373 26.5776L46.7889 42.7121L46.5587 42.7121Z" fill="#06b8b6" fill-rule="nonzero" opacity="1" stroke="none" vectornator:layerName="Path"/>
<path d="M46.3273 42.7121L45.5763 26.5776L45.8071 26.5776L46.5587 42.7121L46.3273 42.7121Z" fill="#06b8b6" fill-rule="nonzero" opacity="1" stroke="none" vectornator:layerName="Path"/>
<path d="M46.0971 42.7121L45.3461 26.5776L45.5763 26.5776L46.3273 42.7121L46.0971 42.7121Z" fill="#00b7b6" fill-rule="nonzero" opacity="1" stroke="none" vectornator:layerName="Path"/>
<path d="M45.8663 42.7121L45.1153 26.5776L45.3461 26.5776L46.0971 42.7121L45.8663 42.7121Z" fill="#03b7b5" fill-rule="nonzero" opacity="1" stroke="none" vectornator:layerName="Path"/>
<path d="M45.6355 42.7121L44.8845 26.5776L45.1153 26.5776L45.8663 42.7121L45.6355 42.7121Z" fill="#04b7b4" fill-rule="nonzero" opacity="1" stroke="none" vectornator:layerName="Path"/>
<path d="M45.4048 42.7121L44.6537 26.5776L44.8845 26.5776L45.6355 42.7121L45.4048 42.7121Z" fill="#00b6b5" fill-rule="nonzero" opacity="1" stroke="none" vectornator:layerName="Path"/>
<path d="M45.1745 42.7121L44.4229 26.5776L44.6537 26.5776L45.4048 42.7121C45.4048 42.7121 45.1745 42.7121 45.1745 42.7121Z" fill="#00b6b5" fill-rule="nonzero" opacity="1" stroke="none" vectornator:layerName="Path"/>
<path d="M44.9437 42.7121L44.1921 26.5776L44.4229 26.5776L45.1745 42.7121L44.9437 42.7121Z" fill="#00b6b5" fill-rule="nonzero" opacity="1" stroke="none" vectornator:layerName="Path"/>
<path d="M44.7135 42.7121L43.9619 26.5776L44.1921 26.5776L44.9437 42.7121L44.7135 42.7121Z" fill="#03b6b4" fill-rule="nonzero" opacity="1" stroke="none" vectornator:layerName="Path"/>
<path d="M44.4827 42.7121L43.7311 26.5776L43.9619 26.5776L44.7135 42.7121L44.4827 42.7121Z" fill="#03b6b4" fill-rule="nonzero" opacity="1" stroke="none" vectornator:layerName="Path"/>
<path d="M44.2519 42.7121L43.5009 26.5776L43.7311 26.5776L44.4827 42.7121L44.2519 42.7121Z" fill="#05b6b2" fill-rule="nonzero" opacity="1" stroke="none" vectornator:layerName="Path"/>
<path d="M44.0217 42.7121L43.2695 26.5776L43.5009 26.5776L44.2519 42.7121L44.0217 42.7121Z" fill="#01b5b1" fill-rule="nonzero" opacity="1" stroke="none" vectornator:layerName="Path"/>
<path d="M43.7909 42.7121L43.269 31.51L43.269 26.5776L43.2695 26.5776L44.0217 42.7121L43.7909 42.7121Z" fill="#01b5b1" fill-rule="nonzero" opacity="1" stroke="none" vectornator:layerName="Path"/>
<path d="M43.5607 42.7121L43.269 36.4615L43.269 31.51L43.7909 42.7121L43.5607 42.7121Z" fill="#01b5b1" fill-rule="nonzero" opacity="1" stroke="none" vectornator:layerName="Path"/>
<path d="M43.3293 42.7121L43.269 41.4131L43.269 36.4615L43.5607 42.7121L43.3293 42.7121Z" fill="#00b4b1" fill-rule="nonzero" opacity="1" stroke="none" vectornator:layerName="Path"/>
<path d="M43.269 41.4131L43.3293 42.7121L43.269 42.7121L43.269 41.4131Z" fill="#00b4b1" fill-rule="nonzero" opacity="1" stroke="none" vectornator:layerName="Path"/>
</g>
</g>
</g>
<path d="M14.3068 26.4919L6.00962 34.8517L14.3683 43.1488L21.4404 43.1229L14.0246 35.7664L50.6435 35.6309L47.4339 38.862L50.9702 38.849L55.1194 34.6688L50.9392 30.5208L47.4034 30.5332L50.6367 33.7412L14.0179 33.8771L21.3783 26.4653C21.3783 26.4653 14.3068 26.4919 14.3068 26.4919Z" fill="#244b5a" fill-rule="nonzero" opacity="1" stroke="none" vectornator:layerName="Path"/>
</g>
</g>
</svg>
