<?xml version="1.0" encoding="UTF-8" standalone="no"?>
<!DOCTYPE svg PUBLIC "-//W3C//DTD SVG 1.1//EN" "http://www.w3.org/Graphics/SVG/1.1/DTD/svg11.dtd">
<!-- Created with Vectornator (http://vectornator.io/) -->
<svg height="100%" stroke-miterlimit="10" style="fill-rule:nonzero;clip-rule:evenodd;stroke-linecap:round;stroke-linejoin:round;" version="1.1" viewBox="0 0 283.5 283.5" width="100%" xml:space="preserve" xmlns="http://www.w3.org/2000/svg" xmlns:vectornator="http://vectornator.io" xmlns:xlink="http://www.w3.org/1999/xlink">
<defs/>
<g id="Layer-1" vectornator:layerName="Layer 1">
<g fill="#000000" opacity="1" stroke="none" vectornator:layerName="Text 1">
<path d="M32.1328 170.191C24.7266 170.191 19.0664 168.176 15.1523 164.145C9.90234 159.199 7.27734 152.074 7.27734 142.77C7.27734 133.277 9.90234 126.152 15.1523 121.395C19.0664 117.363 24.7266 115.348 32.1328 115.348C39.5391 115.348 45.1992 117.363 49.1133 121.395C54.3398 126.152 56.9531 133.277 56.9531 142.77C56.9531 152.074 54.3398 159.199 49.1133 164.145C45.1992 168.176 39.5391 170.191 32.1328 170.191ZM42.3633 156.27C44.8711 153.105 46.125 148.605 46.125 142.77C46.125 136.957 44.8652 132.463 42.3457 129.287C39.8262 126.111 36.4219 124.523 32.1328 124.523C27.8437 124.523 24.4219 126.105 21.8672 129.27C19.3125 132.434 18.0352 136.934 18.0352 142.77C18.0352 148.605 19.3125 153.105 21.8672 156.27C24.4219 159.434 27.8437 161.016 32.1328 161.016C36.4219 161.016 39.832 159.434 42.3633 156.27Z"/>
<path d="M83.6719 139.676C79.6406 139.676 76.9336 140.988 75.5508 143.613C74.7773 145.09 74.3906 147.363 74.3906 150.434L74.3906 168.75L64.3008 168.75L64.3008 130.43L73.8633 130.43L73.8633 137.109C75.4102 134.555 76.7578 132.809 77.9062 131.871C79.7813 130.301 82.2187 129.516 85.2188 129.516C85.4063 129.516 85.5645 129.521 85.6934 129.533C85.8223 129.545 86.1094 129.562 86.5547 129.586L86.5547 139.852C85.9219 139.781 85.3594 139.734 84.8672 139.711C84.375 139.687 83.9766 139.676 83.6719 139.676Z"/>
<path d="M113.941 140.977C113.098 139.125 111.445 138.199 108.984 138.199C106.125 138.199 104.203 139.125 103.219 140.977C102.68 142.031 102.41 143.602 102.41 145.688L102.41 168.75L92.25 168.75L92.25 130.5L101.988 130.5L101.988 136.09C103.23 134.098 104.402 132.68 105.504 131.836C107.449 130.336 109.969 129.586 113.062 129.586C115.992 129.586 118.359 130.23 120.164 131.52C121.617 132.715 122.719 134.25 123.469 136.125C124.781 133.875 126.41 132.223 128.355 131.168C130.418 130.113 132.715 129.586 135.246 129.586C136.934 129.586 138.598 129.914 140.238 130.57C141.879 131.227 143.367 132.375 144.703 134.016C145.781 135.352 146.508 136.992 146.883 138.938C147.117 140.227 147.234 142.113 147.234 144.598L147.164 168.75L136.898 168.75L136.898 144.352C136.898 142.898 136.664 141.703 136.195 140.766C135.305 138.984 133.664 138.094 131.273 138.094C128.508 138.094 126.598 139.242 125.543 141.539C125.004 142.758 124.734 144.223 124.734 145.934L124.734 168.75L114.645 168.75L114.645 145.934C114.645 143.66 114.41 142.008 113.941 140.977Z"/>
<path d="M157.254 116.93L168.082 116.93L168.082 159.434L193.746 159.434L193.746 168.75L157.254 168.75L157.254 116.93Z"/>
<path d="M210.727 130.43L210.727 168.75L200.566 168.75L200.566 130.43L210.727 130.43ZM210.727 116.613L210.727 125.859L200.566 125.859L200.566 116.613L210.727 116.613Z"/>
<path d="M237.973 161.613L237.973 169.102L233.227 169.277C228.492 169.441 225.258 168.621 223.523 166.816C222.398 165.668 221.836 163.898 221.836 161.508L221.836 137.918L216.492 137.918L216.492 130.781L221.836 130.781L221.836 120.094L231.75 120.094L231.75 130.781L237.973 130.781L237.973 137.918L231.75 137.918L231.75 158.168C231.75 159.738 231.949 160.717 232.348 161.104C232.746 161.49 233.965 161.684 236.004 161.684C236.309 161.684 236.631 161.678 236.971 161.666C237.311 161.654 237.645 161.637 237.973 161.613Z"/>
<path d="M277.207 157.5C276.949 159.773 275.766 162.082 273.656 164.426C270.375 168.152 265.781 170.016 259.875 170.016C255 170.016 250.699 168.445 246.973 165.305C243.246 162.164 241.383 157.055 241.383 149.977C241.383 143.344 243.064 138.258 246.428 134.719C249.791 131.18 254.156 129.41 259.523 129.41C262.711 129.41 265.582 130.008 268.137 131.203C270.691 132.398 272.801 134.285 274.465 136.863C275.965 139.137 276.937 141.773 277.383 144.773C277.641 146.531 277.746 149.062 277.699 152.367L251.473 152.367C251.613 156.211 252.82 158.906 255.094 160.453C256.477 161.414 258.141 161.895 260.086 161.895C262.148 161.895 263.824 161.309 265.113 160.137C265.816 159.504 266.437 158.625 266.977 157.5L277.207 157.5ZM267.293 145.758C267.129 143.109 266.326 141.1 264.885 139.729C263.443 138.357 261.656 137.672 259.523 137.672C257.203 137.672 255.404 138.398 254.127 139.852C252.85 141.305 252.047 143.273 251.719 145.758L267.293 145.758Z"/>
</g>
</g>
</svg>
