<?xml version="1.0" encoding="UTF-8" standalone="no"?>
<!DOCTYPE svg PUBLIC "-//W3C//DTD SVG 1.1//EN" "http://www.w3.org/Graphics/SVG/1.1/DTD/svg11.dtd">
<!-- Created with Vectornator (http://vectornator.io/) -->
<svg height="100%" stroke-miterlimit="10" style="fill-rule:nonzero;clip-rule:evenodd;stroke-linecap:round;stroke-linejoin:round;" version="1.1" viewBox="0 0 200 200" width="100%" xml:space="preserve" xmlns="http://www.w3.org/2000/svg" xmlns:xlink="http://www.w3.org/1999/xlink">
<defs>
<filter color-interpolation-filters="sRGB" filterUnits="userSpaceOnUse" height="110" id="Filter" width="110" x="88.3561" y="89.5069">
<feDropShadow dx="0" dy="0" flood-color="#000000" flood-opacity="0.5" in="SourceGraphic" result="Shadow" stdDeviation="2"/>
</filter>
</defs>
<g id="com.castsoftware.sqlanalyzer">
<g opacity="1">
<g opacity="1">
<path d="M163.11 121.218L163.11 88.6867C149.103 96.7051 122.404 102.133 91.7251 102.133C60.1105 102.133 32.7309 96.3672 19.1098 87.9444L19.1098 120.509C32.7309 128.932 60.1105 134.697 91.7251 134.697C122.43 134.69 149.122 129.25 163.11 121.218Z" fill="#4a4a4a" fill-rule="evenodd" opacity="1" stroke="none"/>
<path d="M91.7251 81.1254C122.43 81.1254 149.129 75.6848 163.11 67.653L163.11 24.817L19.1098 24.817L19.1098 66.9439C32.7309 75.36 60.1105 81.1254 91.7251 81.1254Z" fill="#9b9b9b" fill-rule="evenodd" opacity="1" stroke="none"/>
<path d="M91.7251 155.697C60.1105 155.697 32.7309 149.932 19.1098 141.503L19.1098 171.715C19.1229 182.39 51.3527 191.038 91.1098 191.038C130.867 191.038 163.097 182.39 163.11 171.715L163.11 142.245C149.103 150.27 122.404 155.697 91.7251 155.697Z" fill="#000000" fill-rule="evenodd" opacity="1" stroke="none"/>
</g>
<path d="M91.1098 5.49312C130.873 5.49312 163.11 14.1478 163.11 24.817C163.11 35.4929 130.873 44.1476 91.1098 44.1476C51.3461 44.1476 19.1098 35.4929 19.1098 24.817C19.1098 14.1412 51.3461 5.49312 91.1098 5.49312Z" fill="#cfcecf" fill-rule="evenodd" opacity="1" stroke="none"/>
</g>
<path d="M143.356 194.507C170.97 194.507 193.356 172.121 193.356 144.507C193.356 116.893 170.97 94.5069 143.356 94.5069C115.742 94.5069 93.3561 116.893 93.3561 144.507C93.3561 172.121 115.742 194.507 143.356 194.507Z" fill="#ffffff" fill-rule="evenodd" filter="url(#Filter)" stroke="none"/>
<g opacity="1">
<path d="M143.279 107.448C142.116 107.463 140.956 107.822 139.781 108.514C136.287 110.575 118.792 120.599 113.578 123.619C111.431 124.862 110.387 126.763 110.386 129.236C110.383 139.416 110.386 149.596 110.382 159.777C110.383 160.996 110.638 162.076 111.153 163.007C111.683 163.965 112.487 164.765 113.575 165.395C118.789 168.414 136.287 178.438 139.78 180.499C142.13 181.886 144.425 181.934 146.791 180.568C155.568 175.5 164.356 170.454 173.137 165.392C174.225 164.762 175.029 163.961 175.559 163.004C176.073 162.073 176.329 160.993 176.33 159.774C176.33 159.774 176.329 139.419 176.326 129.238C176.325 127.992 176.06 126.891 175.521 125.946C174.991 125.017 174.198 124.238 173.134 123.622C164.355 118.559 155.567 113.512 146.791 108.445C145.607 107.762 144.442 107.433 143.279 107.448ZM143.356 122.607C151.458 122.607 158.531 127.007 162.32 133.547L152.788 139.035C150.899 135.787 147.384 133.602 143.356 133.602C137.333 133.602 132.451 138.484 132.451 144.506C132.449 146.404 132.944 148.27 133.889 149.917C135.768 153.198 139.302 155.412 143.356 155.412C147.435 155.412 150.989 153.17 152.859 149.854L162.376 155.368C158.603 161.962 151.498 166.406 143.356 166.406C135.229 166.406 128.135 161.98 124.356 155.405C122.511 152.196 121.456 148.474 121.456 144.506C121.456 132.412 131.261 122.607 143.356 122.607ZM160.391 140.72L162.899 140.72L162.899 143.229L165.408 143.229L165.408 145.737L162.899 145.737L162.899 148.246L160.391 148.246L160.391 145.737L157.882 145.737L157.882 143.229L160.391 143.229L160.391 140.72ZM169.543 140.72L172.053 140.72L172.053 143.229L174.561 143.229L174.561 145.737L172.053 145.737L172.053 148.246L169.543 148.246L169.543 145.737L167.035 145.737L167.035 143.229L169.543 143.229L169.543 140.72Z" fill="#5c8dbc" fill-rule="nonzero" opacity="1" stroke="none"/>
</g>
</g>
</svg>
