<?xml version="1.0" encoding="UTF-8" standalone="no"?>
<!DOCTYPE svg PUBLIC "-//W3C//DTD SVG 1.1//EN" "http://www.w3.org/Graphics/SVG/1.1/DTD/svg11.dtd">
<!-- Created with Vectornator (http://vectornator.io/) -->
<svg height="100%" stroke-miterlimit="10" style="fill-rule:nonzero;clip-rule:evenodd;stroke-linecap:round;stroke-linejoin:round;" version="1.1" viewBox="0 0 180 180" width="100%" xml:space="preserve" xmlns="http://www.w3.org/2000/svg" xmlns:xlink="http://www.w3.org/1999/xlink">
<defs/>
<clipPath id="ArtboardFrame">
<rect height="180" width="180" x="0" y="0"/>
</clipPath>
<g clip-path="url(#ArtboardFrame)" id="com.castsoftware.handlebars">
<g opacity="1">
<path d="M66.1928 68.139C72.4532 68.1119 78.8732 69.9082 83.739 73.9555C86.2324 75.9737 88.2464 78.5058 89.9568 81.2018C93.0344 76.2269 97.5298 71.9999 103.073 69.9624C109.829 67.4264 117.464 67.6016 124.208 70.0872C130.098 72.2377 135.249 75.9853 139.919 80.1068C143.574 83.3325 146.955 86.8621 150.718 89.9671C152.701 91.5759 154.832 93.0834 157.271 93.917C160.512 95.0235 164.345 93.9796 166.663 91.4823C168.81 89.1451 168.677 85.1052 166.313 82.9706C164.809 81.6731 162.238 81.934 161.174 83.6635C160.243 85.0352 160.765 86.7453 161.494 88.0738C159.557 86.6598 157.618 84.6884 157.625 82.1173C157.224 79.1449 159.429 76.5227 162.07 75.4827C167.224 73.4216 173.687 75.1985 176.94 79.7368C180.069 83.9716 180.318 89.5384 179.772 94.5832C179.114 99.3751 176.434 103.848 172.46 106.621C166.882 110.603 159.811 111.837 153.083 111.752C146.616 111.576 140.215 110.116 134.224 107.7C124.204 103.672 114.827 98.105 104.48 94.8874C101.048 93.5551 97.3976 92.8344 93.7276 92.6121C90.8059 92.5927 88.036 92.4563 85.2778 92.6434C81.9118 92.967 78.5655 93.6564 75.414 94.8909C64.8918 98.1637 55.3744 103.871 45.1638 107.907C36.5423 111.261 26.9901 112.819 17.8393 110.957C12.7203 109.921 7.62447 107.658 4.16912 103.625C1.21216 100.197-0.205646 95.6081-0.0660108 91.1123C-0.229563 86.8698 0.701455 82.3625 3.50647 79.0587C6.11627 75.9269 10.3201 74.3375 14.3562 74.6881C16.9544 74.8088 19.5881 75.9424 21.193 78.0345C22.4553 79.69 22.5331 81.9576 21.9798 83.8935C21.3059 85.6349 19.9152 86.9947 18.4038 88.0386C19.1751 86.7372 19.6426 85.0194 18.7309 83.6596C17.6089 81.8482 14.8468 81.6653 13.3861 83.1531C11.5863 85.0039 11.2082 88.027 12.416 90.2942C13.7248 92.6708 16.4327 94.0264 19.0542 94.3028C23.0202 94.6458 26.4601 92.1876 29.3703 89.8036C35.3929 84.6181 40.8154 78.6852 47.4968 74.2984C53.0055 70.6053 59.4956 68.1081 66.1924 68.1394L66.1928 68.139Z" fill="#423426" fill-rule="nonzero" opacity="1" stroke="none"/>
</g>
</g>
</svg>
