<?xml version="1.0" encoding="UTF-8" standalone="no"?>
<!DOCTYPE svg PUBLIC "-//W3C//DTD SVG 1.1//EN" "http://www.w3.org/Graphics/SVG/1.1/DTD/svg11.dtd">
<!-- Created with Vectornator (http://vectornator.io/) -->
<svg height="100%" stroke-miterlimit="10" style="fill-rule:nonzero;clip-rule:evenodd;stroke-linecap:round;stroke-linejoin:round;" version="1.1" viewBox="0 0 260 260" width="100%" xml:space="preserve" xmlns="http://www.w3.org/2000/svg" xmlns:vectornator="http://vectornator.io" xmlns:xlink="http://www.w3.org/1999/xlink">
<defs>
<filter color-interpolation-filters="sRGB" filterUnits="userSpaceOnUse" height="80" id="Filter" width="80" x="92" y="107">
<feDropShadow dx="1.22465e-16" dy="2" flood-color="#000000" flood-opacity="0.5" in="SourceGraphic" result="Shadow" stdDeviation="2"/>
</filter>
</defs>
<g id="com.castsoftware.systemlevelrules" vectornator:layerName="com.castsoftware.systemlevelrules">
<g opacity="1" vectornator:layerName="DB">
<path d="M32.2972 146.781L32.2972 208.522L132.042 235.741L132.042 173.83L32.2972 146.781Z" fill="#365e89" fill-rule="nonzero" opacity="1" stroke="none" vectornator:layerName="Shape"/>
<path d="M132.042 173.83L132.042 235.741L231.745 208.904L231.745 146.781L132.042 173.83Z" fill="#94b2d1" fill-rule="nonzero" opacity="1" stroke="none" vectornator:layerName="Shape"/>
<path d="M132.042 173.83L32.2972 146.781L132.042 119.732L231.745 146.781L132.042 173.83Z" fill="#6490bf" fill-rule="nonzero" opacity="1" stroke="none" vectornator:layerName="Shape"/>
<path d="M151.236 145.507C151.236 147.758 147.202 149.711 141.257 150.73C140.365 150.9 139.473 151.028 138.497 151.113C136.968 151.282 135.312 151.41 133.614 151.452L130.854 151.452C120.79 151.282 112.807 148.65 112.807 145.507C112.807 142.323 120.79 139.732 130.854 139.563L133.614 139.563C135.312 139.605 136.968 139.732 138.497 139.902C139.473 139.987 140.365 140.157 141.257 140.285C147.202 141.304 151.236 143.257 151.236 145.507ZM60.5244 183.563C60.5244 187.385 58.2739 190.018 55.3015 190.018C54.8344 190.018 54.3673 189.975 53.8577 189.805C53.2633 189.635 52.6688 189.381 52.1168 189.041C51.7346 188.829 51.3949 188.574 51.0552 188.277C49.6964 187.13 48.5499 185.516 47.8705 183.733C47.4459 182.544 47.1911 181.27 47.1911 179.996C47.1911 175.58 50.1635 172.778 53.8577 173.754C55.7261 174.264 57.3822 175.623 58.5711 177.406C58.8259 177.746 59.0382 178.128 59.2081 178.51C59.5053 179.062 59.7601 179.657 59.9299 180.294C60.0573 180.676 60.1423 181.058 60.2272 181.482C60.4395 182.162 60.5244 182.884 60.5244 183.563ZM92.5244 196.566C92.5244 200.387 90.2739 203.02 87.3015 203.02C86.8344 203.02 86.3673 202.978 85.8577 202.808C85.2633 202.638 84.6688 202.383 84.1168 202.044C83.7346 201.831 83.3949 201.576 83.0552 201.279C81.6964 200.133 80.5499 198.519 79.8705 196.736C79.4459 195.547 79.1911 194.273 79.1911 192.999C79.1911 188.583 82.1635 185.78 85.8577 186.757C87.7261 187.266 89.3822 188.625 90.5711 190.409C90.8259 190.748 91.0382 191.131 91.2081 191.513C91.5053 192.065 91.7601 192.659 91.9299 193.296C92.0573 193.678 92.1423 194.06 92.2272 194.485C92.4395 195.165 92.5244 195.886 92.5244 196.566ZM203 183.566C203 187.387 205.251 190.02 208.223 190.02C208.69 190.02 209.157 189.978 209.667 189.808C210.261 189.638 210.856 189.383 211.408 189.044C211.79 188.831 212.13 188.576 212.469 188.279C213.828 187.133 214.975 185.519 215.654 183.736C216.079 182.547 216.333 181.273 216.333 179.999C216.333 175.583 213.361 172.78 209.667 173.757C207.798 174.266 206.142 175.625 204.953 177.409C204.699 177.748 204.486 178.131 204.316 178.513C204.019 179.065 203.764 179.659 203.594 180.296C203.467 180.678 203.382 181.06 203.297 181.485C203.085 182.165 203 182.886 203 183.566ZM167 196.566C167 200.387 169.251 203.02 172.223 203.02C172.69 203.02 173.157 202.978 173.667 202.808C174.261 202.638 174.856 202.383 175.408 202.044C175.79 201.831 176.13 201.576 176.469 201.279C177.828 200.133 178.975 198.519 179.654 196.736C180.079 195.547 180.333 194.273 180.333 192.999C180.333 188.583 177.361 185.78 173.667 186.757C171.798 187.266 170.142 188.625 168.953 190.409C168.699 190.748 168.486 191.131 168.316 191.513C168.019 192.065 167.764 192.659 167.594 193.296C167.467 193.678 167.382 194.06 167.297 194.485C167.085 195.165 167 195.886 167 196.566Z" fill="#0c103b" fill-opacity="0.4" fill-rule="nonzero" opacity="1" stroke="none" vectornator:layerName="Shape"/>
</g>
<g opacity="1" vectornator:layerName="AUTH">
<path d="M32.2972 42.1762L32.2972 103.917L132 131.136L132 69.2251L32.2972 42.1762Z" fill="#a0c5ca" fill-rule="nonzero" opacity="1" stroke="none" vectornator:layerName="Shape"/>
<path d="M61.5244 77.0032C61.5244 80.8248 59.2739 83.4575 56.3015 83.4575C55.8344 83.4575 55.3673 83.4151 54.8577 83.2452C54.2633 83.0754 53.6688 82.8206 53.1168 82.4809C52.7346 82.2686 52.3949 82.0138 52.0552 81.7165C50.6964 80.57 49.5499 78.9565 48.8705 77.173C48.4459 75.9841 48.1911 74.7102 48.1911 73.4363C48.1911 69.0201 51.1635 66.2176 54.8577 67.1942C56.7261 67.7038 58.3822 69.0626 59.5711 70.8461C59.8259 71.1858 60.0382 71.5679 60.2081 71.9501C60.5053 72.5021 60.7601 73.0966 60.9299 73.7335C61.0573 74.1157 61.1423 74.4979 61.2272 74.9225C61.4395 75.6019 61.5244 76.3238 61.5244 77.0032Z" fill="#7a7a7a" fill-rule="evenodd" opacity="1" stroke="none" vectornator:layerName="Path"/>
<path d="M90.5244 89.0032C90.5244 92.8248 88.2739 95.4575 85.3015 95.4575C84.8344 95.4575 84.3673 95.4151 83.8577 95.2452C83.2633 95.0754 82.6688 94.8206 82.1168 94.4809C81.7346 94.2686 81.3949 94.0138 81.0552 93.7165C79.6964 92.57 78.5499 90.9565 77.8705 89.173C77.4459 87.9841 77.1911 86.7102 77.1911 85.4363C77.1911 81.0201 80.1635 78.2176 83.8577 79.1942C85.7261 79.7038 87.3822 81.0626 88.5711 82.8461C88.8259 83.1858 89.0382 83.5679 89.2081 83.9501C89.5053 84.5021 89.7601 85.0966 89.9299 85.7335C90.0573 86.1157 90.1423 86.4979 90.2272 86.9225C90.4395 87.6019 90.5244 88.3238 90.5244 89.0032Z" fill="#7a7a7a" fill-rule="evenodd" opacity="1" stroke="none" vectornator:layerName="Path Copy 7"/>
<path d="M132 69.2251L132 131.136L231.745 104.299L231.745 42.1762L132 69.2251Z" fill="#c9f8ff" fill-rule="nonzero" opacity="1" stroke="none" vectornator:layerName="Shape"/>
<path d="M167 89.0032C167 92.8248 169.251 95.4575 172.223 95.4575C172.69 95.4575 173.157 95.4151 173.667 95.2452C174.261 95.0754 174.856 94.8206 175.408 94.4809C175.79 94.2686 176.13 94.0138 176.469 93.7165C177.828 92.57 178.975 90.9565 179.654 89.173C180.079 87.9841 180.333 86.7102 180.333 85.4363C180.333 81.0201 177.361 78.2176 173.667 79.1942C171.798 79.7038 170.142 81.0626 168.953 82.8461C168.699 83.1858 168.486 83.5679 168.316 83.9501C168.019 84.5021 167.764 85.0966 167.594 85.7335C167.467 86.1157 167.382 86.4979 167.297 86.9225C167.085 87.6019 167 88.3238 167 89.0032Z" fill="#7a7a7a" fill-opacity="0.48" fill-rule="evenodd" opacity="1" stroke="none" vectornator:layerName="Path Copy"/>
<path d="M203 77.0032C203 80.8248 205.251 83.4575 208.223 83.4575C208.69 83.4575 209.157 83.4151 209.667 83.2452C210.261 83.0754 210.856 82.8206 211.408 82.4809C211.79 82.2686 212.13 82.0138 212.469 81.7165C213.828 80.57 214.975 78.9565 215.654 77.173C216.079 75.9841 216.333 74.7102 216.333 73.4363C216.333 69.0201 213.361 66.2176 209.667 67.1942C207.798 67.7038 206.142 69.0626 204.953 70.8461C204.699 71.1858 204.486 71.5679 204.316 71.9501C204.019 72.5021 203.764 73.0966 203.594 73.7335C203.467 74.1157 203.382 74.4979 203.297 74.9225C203.085 75.6019 203 76.3238 203 77.0032Z" fill="#7a7a7a" fill-opacity="0.48" fill-rule="evenodd" opacity="1" stroke="none" vectornator:layerName="Path Copy 3"/>
<path d="M132 69.2251L32.2972 42.1762L132 15.1699L231.745 42.1762L132 69.2251Z" fill="#bce9f0" fill-rule="nonzero" opacity="1" stroke="none" vectornator:layerName="Shape"/>
<path d="M132.042 46.8896C142.643 46.8896 151.236 44.19 151.236 40.8599C151.236 37.5297 142.643 34.8301 132.042 34.8301C121.442 34.8301 112.849 37.5297 112.849 40.8599C112.849 44.19 121.442 46.8896 132.042 46.8896Z" fill="#7a7a7a" fill-rule="nonzero" opacity="0" stroke="none" vectornator:layerName="Oval"/>
</g>
<g opacity="1" vectornator:layerName="Group">
<path d="M132 180C151.33 180 167 164.33 167 145C167 125.67 151.33 110 132 110C112.67 110 97 125.67 97 145C97 164.33 112.67 180 132 180Z" fill="#d0021b" fill-rule="evenodd" filter="url(#Filter)" stroke="none" vectornator:layerName="Oval 2" vectornator:shadowAngle="1.5708" vectornator:shadowColor="#000000" vectornator:shadowOffset="2" vectornator:shadowOpacity="0.5" vectornator:shadowRadius="4"/>
<path d="M123.097 122.018L148.228 122.018L131.474 153.693L118.07 153.693L123.097 122.018Z" fill="#efefef" fill-rule="evenodd" opacity="1" stroke="none" vectornator:layerName="Rectangle 2"/>
<path d="M120.049 141.325L149.72 141.325L124.588 173L130.638 153.939L118.07 153.939L120.049 141.325Z" fill="#ffffff" fill-rule="evenodd" opacity="1" stroke="none" vectornator:layerName="Rectangle 2 Copy"/>
</g>
<g opacity="1" vectornator:layerName="Group 2">
<path d="M74.98 88L75.02 88C76.1135 88 77 88.8865 77 89.98L77 196.02C77 197.114 76.1135 198 75.02 198L74.98 198C73.8865 198 73 197.114 73 196.02L73 89.98C73 88.8865 73.8865 88 74.98 88Z" fill="#f4495e" fill-rule="evenodd" opacity="1" stroke="none" vectornator:layerName="Rectangle"/>
<path d="M87.8464 82.7147L87.8664 82.7494C88.4132 83.6964 88.0887 84.9073 87.1417 85.4541L76.7147 91.4741C75.7677 92.0209 74.5568 91.6964 74.01 90.7494L73.99 90.7147C73.4432 89.7677 73.7677 88.5568 74.7147 88.01L85.1417 81.99C86.0887 81.4432 87.2996 81.7677 87.8464 82.7147Z" fill="#f4495e" fill-rule="evenodd" opacity="1" stroke="none" vectornator:layerName="Rectangle Copy"/>
<path d="M87.8464 188.715L87.8664 188.749C88.4132 189.696 88.0887 190.907 87.1417 191.454L76.7147 197.474C75.7677 198.021 74.5568 197.696 74.01 196.749L73.99 196.715C73.4432 195.768 73.7677 194.557 74.7147 194.01L85.1417 187.99C86.0887 187.443 87.2996 187.768 87.8464 188.715Z" fill="#f4495e" fill-rule="evenodd" opacity="1" stroke="none" vectornator:layerName="Rectangle Copy 2"/>
</g>
<g opacity="1" vectornator:layerName="Group 2 Copy 3">
<path d="M44.98 76L45.02 76C46.1135 76 47 76.8865 47 77.98L47 184.02C47 185.114 46.1135 186 45.02 186L44.98 186C43.8865 186 43 185.114 43 184.02L43 77.98C43 76.8865 43.8865 76 44.98 76Z" fill="#9fe551" fill-rule="evenodd" opacity="1" stroke="none" vectornator:layerName="Rectangle"/>
<path d="M57.8464 70.7147L57.8664 70.7494C58.4132 71.6964 58.0887 72.9073 57.1417 73.4541L46.7147 79.4741C45.7677 80.0209 44.5568 79.6964 44.01 78.7494L43.99 78.7147C43.4432 77.7677 43.7677 76.5568 44.7147 76.01L55.1417 69.99C56.0887 69.4432 57.2996 69.7677 57.8464 70.7147Z" fill="#9fe551" fill-rule="evenodd" opacity="1" stroke="none" vectornator:layerName="Rectangle Copy"/>
<path d="M57.8464 176.715L57.8664 176.749C58.4132 177.696 58.0887 178.907 57.1417 179.454L46.7147 185.474C45.7677 186.021 44.5568 185.696 44.01 184.749L43.99 184.715C43.4432 183.768 43.7677 182.557 44.7147 182.01L55.1417 175.99C56.0887 175.443 57.2996 175.768 57.8464 176.715Z" fill="#9fe551" fill-rule="evenodd" opacity="1" stroke="none" vectornator:layerName="Rectangle Copy 2"/>
</g>
<g opacity="1" vectornator:layerName="Group 2 Copy">
<path d="M182.02 89L181.98 89C180.886 89 180 89.8865 180 90.98L180 197.02C180 198.114 180.886 199 181.98 199L182.02 199C183.114 199 184 198.114 184 197.02L184 90.98C184 89.8865 183.114 89 182.02 89Z" fill="#9fe551" fill-rule="evenodd" opacity="1" stroke="none" vectornator:layerName="Rectangle"/>
<path d="M169.154 83.7147L169.134 83.7494C168.587 84.6964 168.911 85.9073 169.858 86.4541L180.285 92.4741C181.232 93.0209 182.443 92.6964 182.99 91.7494L183.01 91.7147C183.557 90.7677 183.232 89.5568 182.285 89.01L171.858 82.99C170.911 82.4432 169.7 82.7677 169.154 83.7147Z" fill="#9fe551" fill-rule="evenodd" opacity="1" stroke="none" vectornator:layerName="Rectangle Copy"/>
<path d="M169.154 189.715L169.134 189.749C168.587 190.696 168.911 191.907 169.858 192.454L180.285 198.474C181.232 199.021 182.443 198.696 182.99 197.749L183.01 197.715C183.557 196.768 183.232 195.557 182.285 195.01L171.858 188.99C170.911 188.443 169.7 188.768 169.154 189.715Z" fill="#9fe551" fill-rule="evenodd" opacity="1" stroke="none" vectornator:layerName="Rectangle Copy 2"/>
</g>
<g opacity="1" vectornator:layerName="Group 2 Copy 2">
<path d="M219.02 76L218.98 76C217.886 76 217 76.8865 217 77.98L217 184.02C217 185.114 217.886 186 218.98 186L219.02 186C220.114 186 221 185.114 221 184.02L221 77.98C221 76.8865 220.114 76 219.02 76Z" fill="#f4495e" fill-rule="evenodd" opacity="1" stroke="none" vectornator:layerName="Rectangle"/>
<path d="M206.154 70.7147L206.134 70.7494C205.587 71.6964 205.911 72.9073 206.858 73.4541L217.285 79.4741C218.232 80.0209 219.443 79.6964 219.99 78.7494L220.01 78.7147C220.557 77.7677 220.232 76.5568 219.285 76.01L208.858 69.99C207.911 69.4432 206.7 69.7677 206.154 70.7147Z" fill="#f4495e" fill-rule="evenodd" opacity="1" stroke="none" vectornator:layerName="Rectangle Copy"/>
<path d="M206.154 176.715L206.134 176.749C205.587 177.696 205.911 178.907 206.858 179.454L217.285 185.474C218.232 186.021 219.443 185.696 219.99 184.749L220.01 184.715C220.557 183.768 220.232 182.557 219.285 182.01L208.858 175.99C207.911 175.443 206.7 175.768 206.154 176.715Z" fill="#f4495e" fill-rule="evenodd" opacity="1" stroke="none" vectornator:layerName="Rectangle Copy 2"/>
</g>
<g opacity="1" vectornator:layerName="Group 2">
<path d="M219 98L232.5 123L205.5 123L219 98Z" fill="#d0021b" fill-rule="evenodd" opacity="1" stroke="none" vectornator:layerName="Triangle"/>
<path d="M211.281 117L205.5 123L232.5 123L226.719 117L211.281 117Z" fill="#881826" fill-rule="evenodd" opacity="1" stroke="none" vectornator:layerName="Combined Shape"/>
<path d="M219 130L226.5 117L211.5 117L219 130Z" fill="#eb8291" fill-rule="evenodd" opacity="1" stroke="none" vectornator:layerName="Triangle 2"/>
</g>
<g opacity="1" vectornator:layerName="Group 2 Copy 4">
<path d="M75 172L88.5 147L61.5 147L75 172Z" fill="#d0021b" fill-rule="evenodd" opacity="1" stroke="none" vectornator:layerName="Triangle"/>
<path d="M67.2812 153L61.5 147L88.5 147L82.7188 153L67.2812 153Z" fill="#881826" fill-rule="evenodd" opacity="1" stroke="none" vectornator:layerName="Combined Shape"/>
<path d="M75 140L82.5 153L67.5 153L75 140Z" fill="#eb8291" fill-rule="evenodd" opacity="1" stroke="none" vectornator:layerName="Triangle 2"/>
</g>
<g opacity="1" vectornator:layerName="Group 2">
<path d="M45 98L58.5 123L31.5 123L45 98Z" fill="#79c224" fill-rule="evenodd" opacity="1" stroke="none" vectornator:layerName="Triangle"/>
<path d="M37.2812 117L31.5 123L58.5 123L52.7188 117L37.2812 117Z" fill="#5b931e" fill-rule="evenodd" opacity="1" stroke="none" vectornator:layerName="Combined Shape"/>
<path d="M45 130L52.5 117L37.5 117L45 130Z" fill="#a4e166" fill-rule="evenodd" opacity="1" stroke="none" vectornator:layerName="Triangle 2"/>
</g>
<g opacity="1" vectornator:layerName="Group 2 Copy 5">
<path d="M182 151L195.5 126L168.5 126L182 151Z" fill="#79c224" fill-rule="evenodd" opacity="1" stroke="none" vectornator:layerName="Triangle"/>
<path d="M174.281 132L168.5 126L195.5 126L189.719 132L174.281 132Z" fill="#5b931e" fill-rule="evenodd" opacity="1" stroke="none" vectornator:layerName="Combined Shape"/>
<path d="M182 119L189.5 132L174.5 132L182 119Z" fill="#a4e166" fill-rule="evenodd" opacity="1" stroke="none" vectornator:layerName="Triangle 2"/>
</g>
</g>
</svg>
