<?xml version="1.0" encoding="UTF-8" standalone="no"?>
<!DOCTYPE svg PUBLIC "-//W3C//DTD SVG 1.1//EN" "http://www.w3.org/Graphics/SVG/1.1/DTD/svg11.dtd">
<!-- Created with Vectornator (http://vectornator.io/) -->
<svg height="100%" stroke-miterlimit="10" style="fill-rule:nonzero;clip-rule:evenodd;stroke-linecap:round;stroke-linejoin:round;" version="1.1" viewBox="0 0 220 220" width="100%" xml:space="preserve" xmlns="http://www.w3.org/2000/svg" xmlns:xlink="http://www.w3.org/1999/xlink">
<defs/>
<g id="com.castsoftware.cassandra">
<g opacity="1">
<g opacity="1">
<path d="M29.3907 157.371C31.1984 157.371 32.8419 157.782 33.7457 158.604C33.9101 159.919 32.6775 162.055 31.938 162.055C31.0341 161.726 30.2124 161.562 29.1442 161.562C24.8713 161.562 22.7349 165.999 22.7349 170.354C22.7349 173.066 23.6388 174.709 25.8574 174.709C28.1581 174.709 30.4589 173.148 31.7736 171.998C32.1023 172.244 32.5132 172.984 32.5132 173.805C32.5132 174.709 32.2667 175.613 31.3628 176.517C29.8837 177.996 27.3364 179.311 23.6388 179.311C19.4481 179.311 16.4899 176.928 16.4899 171.34C16.6543 163.945 21.4202 157.371 29.3907 157.371ZM43.1953 174.463C45.4961 174.463 49.6868 170.436 50.8372 162.712C50.9194 162.219 50.9194 162.137 51.0016 161.644C50.5085 161.48 49.769 161.316 49.1116 161.316C47.386 161.316 45.5783 161.809 44.0171 164.027C42.3736 166.328 41.6341 169.204 41.6341 171.505C41.6341 173.395 42.2093 174.463 43.1953 174.463ZM35.6357 172.326C35.6357 169.533 36.5395 164.767 40.0729 161.233C43.1132 158.111 46.7287 157.371 50.0977 157.371C52.3163 157.371 55.2744 158.111 57.1643 158.44C56.6713 160.494 55.6031 168.3 55.0279 172.819C54.7814 174.709 54.6992 177.421 54.7814 178.407C53.2202 179.064 50.3442 179.229 49.5225 179.229C49.1116 179.229 49.0295 177.339 49.1116 175.449C49.1938 174.874 49.276 173.97 49.276 173.559C47.4682 176.599 43.8527 179.147 40.0729 179.147C37.3612 179.229 35.6357 176.928 35.6357 172.326ZM68.8326 157.371C70.7225 157.371 72.6124 158.111 73.4341 158.933C73.3519 160.247 72.3659 162.466 70.7225 161.809C69.9829 161.562 69.3256 161.398 68.3395 161.398C67.107 161.398 65.9566 161.973 65.9566 163.123C65.9566 164.027 66.614 164.684 69.7364 166.903C71.955 168.547 72.8589 170.026 72.8589 172.08C72.8589 175.531 69.6543 179.229 63.9845 179.229C61.6837 179.229 59.6295 178.325 59.0543 177.421C58.2326 176.024 58.8899 173.23 59.7938 173.723C61.0264 174.298 62.9984 174.956 64.6419 174.956C66.2031 174.956 67.1891 174.216 67.1891 173.312C67.1891 172.491 66.4496 171.833 63.6558 169.779C61.2729 167.971 60.5333 166.328 60.5333 164.52C60.5333 160.576 63.9023 157.371 68.8326 157.371ZM85.0202 157.371C86.9101 157.371 88.8 158.111 89.6217 158.933C89.5395 160.247 88.5535 162.466 86.9101 161.809C86.1705 161.562 85.5132 161.398 84.5271 161.398C83.2946 161.398 82.1442 161.973 82.1442 163.123C82.1442 164.027 82.8016 164.684 85.924 166.903C88.1426 168.547 89.0465 170.026 89.0465 172.08C89.0465 175.531 85.8419 179.229 80.1721 179.229C77.8713 179.229 75.8992 178.325 75.2419 177.421C74.4202 176.024 75.0775 173.23 75.9814 173.723C77.214 174.298 79.186 174.956 80.8295 174.956C82.3907 174.956 83.3767 174.216 83.3767 173.312C83.3767 172.491 82.6372 171.833 79.8434 169.779C77.4605 167.971 76.7209 166.328 76.7209 164.52C76.7209 160.576 80.0899 157.371 85.0202 157.371ZM99.7287 174.463C102.029 174.463 106.22 170.436 107.371 162.712C107.453 162.219 107.453 162.137 107.535 161.644C107.042 161.48 106.302 161.316 105.645 161.316C103.919 161.316 102.112 161.809 100.55 164.027C98.907 166.328 98.1674 169.204 98.1674 171.505C98.2496 173.395 98.7426 174.463 99.7287 174.463ZM92.169 172.326C92.169 169.533 93.0729 164.767 96.6062 161.233C99.6465 158.111 103.262 157.371 106.631 157.371C108.85 157.371 111.808 158.111 113.698 158.44C113.205 160.494 112.136 168.3 111.561 172.819C111.315 174.709 111.233 177.421 111.315 178.407C109.753 179.064 106.878 179.229 106.056 179.229C105.645 179.229 105.563 177.339 105.645 175.449C105.727 174.874 105.809 173.97 105.809 173.559C104.002 176.599 100.386 179.147 96.6062 179.147C93.9767 179.229 92.169 176.928 92.169 172.326ZM124.298 163.452C126.434 160.001 129.228 157.371 133.172 157.371C136.541 157.371 137.609 160.494 136.952 164.849C136.623 166.903 136.048 169.861 135.719 172.573C135.391 174.874 135.144 176.928 135.226 178.325C133.994 178.9 130.46 179.147 129.639 179.147C129.31 179.147 129.228 176.599 129.721 173.888C130.132 171.669 130.871 167.56 131.282 165.178C131.529 163.781 131.447 162.137 130.132 162.137C128.406 162.137 124.298 164.931 122.243 176.271C122.079 177.174 121.75 177.75 121.175 178.078C120.436 178.489 118.957 178.9 115.916 178.9C116.491 176.024 117.395 170.19 118.053 165.835C118.628 161.891 118.874 159.343 118.792 158.357C119.614 158.111 123.805 157.207 124.216 157.207C124.709 157.207 124.791 158.686 124.38 162.137C124.298 162.466 124.298 162.959 124.216 163.288L124.298 163.288C124.298 163.288 124.298 163.452 124.298 163.452ZM148.127 174.381C150.181 174.381 154.372 170.519 155.522 163.698C155.605 163.288 155.687 162.63 155.769 162.219C155.194 161.644 154.372 161.316 153.057 161.316C148.291 161.316 146.237 166.985 146.237 171.094C146.319 173.23 147.059 174.381 148.127 174.381ZM145.087 179.229C142.047 179.229 140.239 176.517 140.239 171.998C140.239 164.438 145.005 157.453 152.975 157.453C154.372 157.453 155.687 157.864 156.426 158.275C156.837 156.139 157.823 149.483 157.905 147.511C159.22 147.264 162.014 146.853 163.329 146.853C163.822 146.853 163.986 147.347 163.822 148.579C162.671 155.646 160.699 169.122 160.288 172.08C160.042 174.627 159.96 177.092 160.042 178.489C158.563 179.147 155.522 179.311 154.701 179.311C154.372 179.311 154.208 177.174 154.29 175.202C154.372 174.627 154.454 173.723 154.454 173.559C151.907 177.339 148.702 179.229 145.087 179.229ZM172.532 164.109C174.997 158.604 177.955 157.371 179.927 157.371C180.502 157.371 181.488 157.782 181.899 158.193C182.064 159.754 180.831 162.795 179.763 164.027C179.188 163.781 178.53 163.452 177.709 163.452C176.147 163.452 172.943 165.917 170.971 176.599C170.806 177.503 170.56 177.832 170.067 178.078C169.245 178.571 166.122 178.9 164.643 178.982C165.383 175.12 166.533 167.314 167.026 162.712C167.191 161.562 167.191 159.343 167.109 158.522C168.012 158.111 171.546 157.289 172.285 157.289C172.696 157.289 173.025 159.836 172.367 164.027L172.532 164.027C172.532 164.027 172.532 164.109 172.532 164.109ZM189.048 174.463C191.349 174.463 195.54 170.436 196.69 162.712C196.772 162.219 196.772 162.137 196.854 161.644C196.361 161.48 195.622 161.316 194.964 161.316C193.239 161.316 191.431 161.809 189.87 164.027C188.226 166.328 187.487 169.204 187.487 171.505C187.569 173.395 188.062 174.463 189.048 174.463ZM181.488 172.326C181.488 169.533 182.392 164.767 185.926 161.233C188.966 158.111 192.581 157.371 195.95 157.371C198.169 157.371 201.127 158.111 203.017 158.44C202.524 160.494 201.456 168.3 200.881 172.819C200.634 174.709 200.552 177.421 200.634 178.407C199.073 179.064 196.197 179.229 195.375 179.229C194.964 179.229 194.882 177.339 194.964 175.449C195.047 174.874 195.129 173.97 195.129 173.559C193.321 176.599 189.705 179.147 185.926 179.147C183.296 179.229 181.488 176.928 181.488 172.326Z" fill="#373535" fill-rule="nonzero" opacity="1" stroke="none"/>
</g>
<path d="M172.86 77.9124C174.422 95.9078 146.073 113.081 109.507 116.204C72.9411 119.326 42.1271 107.247 40.5659 89.2519C39.0047 71.2566 67.3535 54.0829 103.919 50.9605C140.403 47.838 171.299 59.8349 172.86 77.9124" fill="#bbe6fb" fill-rule="nonzero" opacity="1" stroke="none"/>
<path d="M104.905 53.0147C90.9364 52.7682 74.6667 58.3558 62.5054 63.5326C61.2729 67.1481 60.5333 71.0101 60.5333 75.0364C60.5333 96.4008 79.8434 113.739 103.673 113.739C127.502 113.739 146.895 96.4829 146.895 75.0364C146.895 68.2984 144.922 61.8891 141.553 56.3837C131.857 54.9047 118.464 53.2612 104.905 53.0147" fill="#ffffff" fill-rule="nonzero" opacity="1" stroke="none"/>
<path d="M103.755 53.0147C96.031 52.5217 82.7194 56.5481 71.6264 60.5744C69.9008 64.5186 68.9969 68.8736 68.9969 73.4752C68.9969 92.2101 86.0062 107.412 103.919 107.412C121.75 107.412 137.527 92.2101 138.842 73.4752C139.253 67.3946 137.198 61.6426 134.24 56.7124C122.819 54.7403 110.657 53.5078 103.755 53.0147" fill="#ffffff" fill-rule="nonzero" opacity="1" stroke="none"/>
<path d="M83.9519 71.0922C84.938 68.9558 86.3349 67.9698 87.7318 66.2442C87.5674 65.8333 87.2388 64.4364 87.2388 64.0256C87.2388 61.8891 88.9643 60.2457 91.0186 60.2457C91.5116 60.2457 92.0047 60.3279 92.4155 60.4922C98.7426 55.6442 107.042 53.5899 115.423 55.4798C116.163 55.6442 116.902 55.8907 117.642 56.055C109.425 54.9047 100.057 57.8628 93.7302 62.9574C93.8946 63.4504 94.4698 64.6829 94.4698 65.2581C94.4698 67.3946 93.0729 67.8876 91.0186 67.8876C90.5256 67.8876 90.1147 67.8054 89.6217 67.6411C88.2248 69.531 86.4171 73.2287 85.5953 75.5295C89.1287 78.6519 92.2512 79.8023 96.3597 81.3636C96.3597 81.1992 96.524 80.9527 96.524 80.7884C96.524 74.4612 102.112 69.2845 108.439 69.2845C114.109 69.2845 118.874 73.393 119.778 78.8163C122.654 77.0085 125.366 75.6116 127.42 72.9822C126.927 72.407 126.434 70.6814 126.434 69.8597C126.434 67.9698 127.995 66.4085 129.885 66.4085C130.132 66.4085 130.378 66.4085 130.707 66.4907C131.775 64.2721 132.597 61.9713 133.09 59.5884C123.147 52.193 103.919 53.2612 103.919 53.2612C103.919 53.2612 88.6357 52.4395 78.2822 57.5341C79.0217 62.3 80.9938 67.0659 83.9519 71.0922" fill="#373535" fill-rule="nonzero" opacity="1" stroke="none"/>
<path d="M131.447 68.2163C132.186 68.8736 132.515 69.3667 132.843 69.9419C133.747 71.5853 131.94 73.1465 129.967 73.1465C129.803 73.1465 129.557 73.1465 129.392 73.0643C127.256 76.4333 123.476 80.7062 120.107 82.9248C125.284 83.7465 130.132 85.8008 133.912 89.0054C136.705 83.993 138.842 76.6798 138.842 70.5171C138.842 65.8333 136.788 62.3822 133.665 59.8349C133.583 62.3822 132.186 65.9155 131.447 68.2163M89.7039 100.098C91.4295 95.3326 95.6202 91.7171 99.6465 88.5124C99.0713 87.6907 98.1674 85.7186 97.8388 84.8147C92.9907 83.3357 88.7178 80.5419 85.3488 76.9264C85.3488 77.0085 85.2667 77.1729 85.2667 77.255C84.6093 80.0488 84.5271 82.9248 84.8558 85.6364C87.1566 86.0473 88.9643 88.1016 88.9643 90.5667C88.9643 92.0457 87.6496 94.1 86.6636 95.086C87.6496 97.2225 88.3891 98.3729 89.7039 100.098" fill="#373535" fill-rule="nonzero" opacity="1" stroke="none"/>
<path d="M89.3752 104.043C87.3209 101.988 85.924 97.962 84.6093 95.4147C84.3628 95.4147 84.1163 95.4969 83.8698 95.4969C81.076 95.4969 78.2 93.1961 78.8574 90.4845C79.186 89.0054 80.2543 88.0194 81.8977 87.1977C81.4868 84.0752 81.4047 79.7202 82.1442 76.5155C82.3085 75.6116 82.8016 75.2008 83.0481 74.2969C80.0078 69.8597 78.0357 63.9434 78.0357 58.1093L78.0357 57.4519C72.8589 60.0814 68.9969 64.1078 68.9969 70.5171C68.9969 84.7326 77.214 98.7016 89.3752 104.125L89.3752 104.043M119.367 84.4039C117.806 88.8411 113.533 92.1279 108.521 92.1279C105.809 92.1279 103.344 91.224 101.454 89.6628C97.4279 92.7853 93.7302 98.2907 91.9225 103.139C92.7442 104.043 93.3194 104.782 94.3054 105.604C97.0992 106.343 101.043 105.604 104.084 105.604C116.327 105.604 127.256 100.181 133.501 90.5667C129.228 87.6085 124.298 84.8147 119.367 84.4039" fill="#373535" fill-rule="nonzero" opacity="1" stroke="none"/>
<path d="M83.6233 72.7357C84.6093 70.5992 85.7597 68.7093 87.1566 66.9016C86.9922 66.4907 86.9101 65.9977 86.9101 65.5868C86.9101 63.4504 88.6357 61.807 90.6899 61.807C91.1829 61.807 91.676 61.8891 92.0868 62.0535C98.414 57.2054 106.713 55.1512 115.095 57.0411C115.834 57.2054 116.574 57.4519 117.313 57.6163C109.096 56.4659 100.55 59.0132 94.2233 64.1078C94.3876 64.6008 94.5519 65.0938 94.5519 65.5868C94.5519 67.7233 92.8264 69.3667 90.7721 69.3667C90.2791 69.3667 89.8682 69.2845 89.3752 69.1202C87.9783 71.0101 86.7457 73.1465 85.924 75.4473C88.9643 78.6519 92.662 81.2814 96.7705 82.7605L96.7705 82.1853C96.7705 75.8581 101.947 70.6814 108.274 70.6814C113.944 70.6814 118.71 74.7899 119.614 80.2132C122.49 78.4054 124.955 76.1047 127.091 73.393C126.598 72.8178 126.27 72.0783 126.27 71.2566C126.27 69.3667 127.831 67.8054 129.721 67.8054C129.967 67.8054 130.214 67.8054 130.543 67.8876C131.611 65.669 132.433 63.3682 132.926 60.9853C122.983 53.5899 103.755 54.6581 103.755 54.6581C103.755 54.6581 88.4713 53.8364 78.1178 58.931C78.693 63.9434 80.6651 68.7093 83.6233 72.7357" fill="#1287b1" fill-rule="nonzero" opacity="1" stroke="none"/>
<path d="M131.94 68.7915C132.679 69.4488 133.09 70.3527 133.09 71.3388C133.09 73.2287 131.529 74.7899 129.639 74.7899C129.474 74.7899 129.228 74.7899 129.064 74.7078C126.927 78.0767 124.051 80.9527 120.682 83.0891C125.612 83.8287 130.296 85.9651 134.158 89.1698C136.952 84.1574 138.595 78.3233 138.595 72.1605C138.595 67.4767 136.541 64.0256 133.419 61.4783C133.254 64.0256 132.761 66.4907 131.94 68.7915M90.1969 101.167C91.9225 96.4008 94.8806 92.2101 98.907 89.0054C98.3318 88.1837 97.8388 87.362 97.5101 86.376C92.662 84.8969 88.3891 82.1031 85.0202 78.4876C85.0202 78.5698 84.938 78.7341 84.938 78.8163C84.2806 81.6101 84.1984 84.486 84.5271 87.1977C86.8279 87.6085 88.6357 89.6628 88.6357 92.1279C88.6357 93.607 87.9783 94.9217 86.9922 95.8256C87.814 97.7155 88.9643 99.5233 90.1969 101.167" fill="#1287b1" fill-rule="nonzero" opacity="1" stroke="none"/>
<path d="M89.3752 103.96C87.3209 101.906 85.5953 99.6054 84.2806 97.0581C84.0341 97.0581 83.7876 97.1403 83.5411 97.1403C80.7473 97.1403 78.5287 94.9217 78.5287 92.1279C78.5287 90.1558 79.6791 88.4302 81.3225 87.6085C80.9116 84.486 81.076 81.3636 81.8155 78.1589C81.9798 77.255 82.3085 76.3512 82.555 75.4473C79.5147 71.0101 77.707 65.5868 77.707 59.7527L77.707 59.0953C72.5302 61.7248 68.6682 65.7512 68.6682 72.1605C68.6682 86.376 77.1318 98.6194 89.293 104.043C89.3752 104.043 89.3752 104.043 89.3752 103.96M119.039 86.0473C117.478 90.4845 113.205 93.7713 108.192 93.7713C105.481 93.7713 103.016 92.8674 101.126 91.3062C97.0992 94.4287 94.0589 98.7016 92.169 103.55C92.9907 104.453 93.8946 105.275 94.7984 106.097C97.5922 106.836 100.55 107.247 103.591 107.247C115.834 107.247 126.681 100.92 132.926 91.3062C128.817 88.3481 123.969 86.4581 119.039 86.0473" fill="#1287b1" fill-rule="nonzero" opacity="1" stroke="none"/>
<path d="M119.45 83.0891L130.05 80.5419L119.367 79.9667L128.078 73.393L118.217 76.9264L124.873 67.6411L115.588 73.8039L118.792 62.9574L112.465 71.914L112.301 60.5744L108.11 70.6814L104.659 60.4922L104.823 72.4891L98.8248 61.7248L102.112 73.1465L92.3333 66.0798L99.9752 75.6938L87.814 71.2566L97.3457 78.3233L85.1023 78.7341L97.6744 81.9388L85.1023 84.6504L97.5101 85.5543L87.0744 92.2101L97.8388 88.3481L90.3612 97.7977L99.8109 90.1558L96.4419 102.81L103.755 92.4566L102.769 104.618L106.878 93.5248L110.411 105.111L111.233 93.4426L116.491 103.385L113.369 92.0457L122.901 99.4411L116.738 89.9915L127.256 94.1L119.203 86.2116L129.967 87.0333C129.967 87.0333 119.45 83.0891 119.45 83.0891Z" fill="#ffffff" fill-rule="nonzero" opacity="1" stroke="none"/>
<path d="M6.30078 103.385C39.2512 70.4349 65.5457 60.2457 89.4574 55.6442C92.5798 55.069 93.2372 48.0845 93.2372 48.0845C93.2372 48.0845 93.6481 53.1791 95.8667 53.8364C98.0853 54.4938 100.961 45.8659 100.961 45.8659C100.961 45.8659 98.3318 53.5899 100.961 54.0829C103.591 54.4938 108.521 46.5233 108.521 46.5233C108.521 46.5233 106.549 53.3434 107.864 53.8364C109.178 54.2473 115.834 43.8938 115.834 43.8938C115.834 43.8938 111.89 50.714 115.588 51.4535C119.367 52.1109 124.873 46.7698 124.873 46.7698C124.873 46.7698 120.6 51.6178 122.49 52.3574C130.707 55.2333 137.281 44.6333 137.281 44.6333C137.281 44.6333 135.719 49.3171 131.775 54.4116C140.403 56.6302 146.812 43.6473 146.812 43.6473L140.403 56.6302C143.69 58.2736 156.919 42.9899 156.919 42.9899C156.919 42.9899 150.099 54.9047 146.073 57.3698C148.291 59.1775 156.262 52.0287 156.262 52.0287C156.262 52.0287 149.853 59.9992 152.318 60.4101C155.851 63.286 168.916 45.6194 168.916 45.6194C168.916 45.6194 163.822 56.055 156.344 64.1899C162.589 67.3946 178.202 47.2628 178.202 47.2628C178.202 47.2628 177.791 53.6721 166.451 63.8612C174.833 62.793 185.679 46.8519 185.679 46.8519C185.679 46.8519 181.735 58.7667 172.203 67.2302C180.42 66.4085 193.65 46.0302 193.65 46.0302C193.65 46.0302 188.555 60.1636 178.202 68.3806C189.705 70.9279 206.304 53.7543 206.304 53.7543C206.304 53.7543 199.812 65.9155 191.267 70.9279C200.798 74.5434 213.864 59.5062 213.864 59.5062C213.864 59.5062 200.798 79.638 180.009 78.7341C173.189 78.4054 152.564 58.0271 108.357 59.6705C49.8512 61.807 37.5256 86.6225 6.30078 103.385" fill="#373535" fill-opacity="0.35" fill-rule="nonzero" opacity="1" stroke="none"/>
<path d="M7.6155 100.92C40.5659 67.9698 66.8605 57.7806 90.7721 53.1791C93.8946 52.6039 94.5519 45.6194 94.5519 45.6194C94.5519 45.6194 94.9628 50.714 97.1814 51.3713C99.4 52.0287 102.276 43.4008 102.276 43.4008C102.276 43.4008 99.6465 51.1248 102.276 51.6178C104.905 52.0287 109.836 44.0581 109.836 44.0581C109.836 44.0581 107.864 50.8783 109.178 51.3713C110.493 51.7822 117.149 41.4287 117.149 41.4287C117.149 41.4287 113.205 48.2488 116.902 48.9884C120.682 49.6457 126.188 44.3047 126.188 44.3047C126.188 44.3047 121.915 49.1527 123.805 49.8922C132.022 52.7682 138.595 42.1682 138.595 42.1682C138.595 42.1682 137.034 46.8519 133.09 51.9465C141.718 54.1651 148.127 41.1822 148.127 41.1822L141.718 54.1651C145.005 55.9729 158.316 40.6891 158.316 40.6891C158.316 40.6891 151.496 52.6039 147.47 55.069C149.688 56.6302 157.659 49.5636 157.659 49.5636C157.659 49.5636 151.25 57.5341 153.715 57.945C157.248 60.8209 170.313 43.1543 170.313 43.1543C170.313 43.1543 165.136 53.5899 157.659 61.7248C163.904 64.8473 179.598 44.7155 179.598 44.7155C179.598 44.7155 179.188 51.1248 167.848 61.314C176.229 60.2457 187.076 44.3047 187.076 44.3047C187.076 44.3047 183.132 56.2194 173.6 64.6829C181.817 63.8612 195.047 43.4829 195.047 43.4829C195.047 43.4829 189.952 57.6163 179.598 65.8333C191.102 68.3806 207.701 51.207 207.701 51.207C207.701 51.207 201.209 63.3682 192.664 68.3806C202.195 71.9961 215.26 56.9589 215.26 56.9589C215.26 56.9589 202.195 77.0907 181.406 76.1868C174.586 75.8581 153.961 55.4798 109.753 57.1233C51.2481 59.3419 38.8403 84.0752 7.6155 100.92" fill="#373535" fill-rule="nonzero" opacity="1" stroke="none"/>
<path d="M5.47907 107.001C22.8992 115.711 38.8403 105.686 58.8899 111.356C74.1736 115.629 92.7442 120.97 117.971 117.272C143.197 113.657 164.726 102.646 175.079 83.0891C178.284 74.3791 191.349 85.0612 191.349 85.0612C191.349 85.0612 181.817 81.1171 182.064 82.9248C182.31 84.8147 196.361 91.3062 196.361 91.3062C196.361 91.3062 183.625 87.362 184.447 90.3202C185.186 93.2783 200.388 105.275 200.388 105.275C200.388 105.275 183.05 92.2922 181.653 94.1C180.174 95.9078 188.966 103.057 188.966 103.057C188.966 103.057 174.504 94.1 169.409 96.7295C165.712 98.6194 184.447 110.863 184.447 110.863C184.447 110.863 172.285 101.578 169.409 104.043C166.533 106.508 183.132 126.393 183.132 126.393C183.132 126.393 164.233 106.015 162.343 107.001C160.453 107.987 167.519 117.765 167.519 117.765C167.519 117.765 158.316 107.576 155.769 109.302C153.222 111.109 169.081 137.486 169.081 137.486C169.081 137.486 151.907 110.452 144.758 114.971C155.851 139.376 151.743 142.827 151.743 142.827C151.743 142.827 150.346 117.929 136.459 118.587C129.474 118.916 139.746 137.157 139.746 137.157C139.746 137.157 130.296 120.477 123.969 120.805C135.555 142.827 131.447 151.702 131.447 151.702C131.447 151.702 133.336 132.884 117.642 122.449C123.64 127.79 113.862 151.702 113.862 151.702C113.862 151.702 122.408 116.45 107.535 123.188C105.152 124.257 107.371 140.773 107.371 140.773C107.371 140.773 104.412 121.874 99.893 122.86C97.2636 123.435 83.2946 149.072 83.2946 149.072C83.2946 149.072 94.7163 121.381 91.2651 122.531C88.7178 123.353 83.9519 134.774 83.9519 134.774C83.9519 134.774 86.2527 123.517 83.9519 122.86C81.6512 122.202 68.6682 134.774 68.6682 134.774C68.6682 134.774 78.2822 123.517 76.6388 121.134C74.0915 117.601 71.2155 117.436 67.6822 118.833C62.5876 120.805 55.7674 130.091 55.7674 130.091C55.7674 130.091 62.5876 120.641 61.4372 117.19C59.5473 111.52 39.9085 128.119 39.9085 128.119C39.9085 128.119 51.4946 117.19 48.8651 114.807C46.2357 112.506 31.7736 113.164 27.3364 113.164C14.107 113.328 9.50543 110.205 5.47907 107.001" fill="#373535" fill-opacity="0.35" fill-rule="nonzero" opacity="1" stroke="none"/>
<path d="M4.73953 105.029C22.1597 113.739 38.1008 103.714 58.1504 109.384C73.4341 113.657 92.0047 118.998 117.231 115.3C142.457 111.684 163.986 100.674 174.34 81.1171C177.544 72.407 190.609 83.0891 190.609 83.0891C190.609 83.0891 181.078 79.145 181.324 80.9527C181.571 82.8426 195.622 89.3341 195.622 89.3341C195.622 89.3341 182.885 85.3899 183.707 88.3481C184.447 91.3062 199.648 103.303 199.648 103.303C199.648 103.303 182.474 90.238 181.078 92.0457C179.681 93.8535 188.391 101.002 188.391 101.002C188.391 101.002 173.929 92.0457 168.834 94.6752C165.136 96.5651 183.871 108.809 183.871 108.809C183.871 108.809 171.71 99.5233 168.834 101.988C165.958 104.453 182.557 124.339 182.557 124.339C182.557 124.339 163.74 103.96 161.85 104.947C159.96 105.933 167.026 115.711 167.026 115.711C167.026 115.711 157.659 105.604 155.112 107.329C152.564 109.137 168.341 135.514 168.341 135.514C168.341 135.514 151.167 108.398 144.101 112.917C155.276 137.404 151.085 140.855 151.085 140.855C151.085 140.855 149.688 115.957 135.802 116.615C128.817 116.943 139.088 135.185 139.088 135.185C139.088 135.185 129.721 118.587 123.394 118.916C134.98 140.937 130.871 149.812 130.871 149.812C130.871 149.812 132.761 130.995 117.067 120.559C123.065 125.9 113.287 149.812 113.287 149.812C113.287 149.812 121.833 114.56 106.96 121.298C104.577 122.367 106.795 138.883 106.795 138.883C106.795 138.883 103.837 119.984 99.3178 120.97C96.6884 121.545 82.7194 147.182 82.7194 147.182C82.7194 147.182 94.1411 119.491 90.6899 120.641C88.1426 121.463 83.3767 132.884 83.3767 132.884C83.3767 132.884 85.6775 121.627 83.3767 120.97C81.076 120.312 68.093 132.884 68.093 132.884C68.093 132.884 77.707 121.627 76.0636 119.244C73.5163 115.711 70.6403 115.547 67.107 116.943C62.0124 118.916 55.1922 128.201 55.1922 128.201C55.1922 128.201 62.0124 118.751 60.862 115.3C58.9721 109.63 39.3333 126.229 39.3333 126.229C39.3333 126.229 50.9194 115.3 48.2899 112.917C45.6605 110.616 31.1984 111.274 26.7612 111.274C13.3674 111.356 8.76589 108.233 4.73953 105.029" fill="#373535" fill-rule="nonzero" opacity="1" stroke="none"/>
</g>
</g>
</svg>
