<?xml version="1.0" encoding="UTF-8" standalone="no"?>
<!DOCTYPE svg PUBLIC "-//W3C//DTD SVG 1.1//EN" "http://www.w3.org/Graphics/SVG/1.1/DTD/svg11.dtd">
<!-- Created with Vectornator (http://vectornator.io/) -->
<svg height="100%" stroke-miterlimit="10" style="fill-rule:nonzero;clip-rule:evenodd;stroke-linecap:round;stroke-linejoin:round;" version="1.1" viewBox="0 0 1146.16 1146.16" width="100%" xml:space="preserve" xmlns="http://www.w3.org/2000/svg" xmlns:vectornator="http://vectornator.io" xmlns:xlink="http://www.w3.org/1999/xlink">
<defs/>
<g id="layer1" vectornator:layerName="layer1">
<g opacity="1" vectornator:layerName="g4534">
<path d="M195.567 473.602C195.531 473.602 195.503 476.649 195.503 480.374L195.503 487.143L168.426 487.099L141.351 487.054L113.953 487.054L113.953 503.061L141.351 503.061L166.281 503.061C179.993 503.061 192.178 503.087 193.358 503.118L195.503 503.176L195.503 509.885C195.503 515.321 195.522 516.587 195.614 516.553C195.904 516.441 226.178 495.145 226.153 495.07C226.135 495.022 219.263 490.172 210.878 484.293C202.493 478.413 195.603 473.603 195.567 473.603L195.567 473.602Z" fill="#264d80" fill-rule="nonzero" opacity="1" stroke="none" vectornator:layerName="path"/>
<path d="M35.5653 573.089C35.5653 530.195 70.3372 495.424 113.23 495.424C156.124 495.424 190.896 530.195 190.896 573.089C190.896 615.982 156.124 650.754 113.23 650.754C70.3372 650.754 35.5653 615.982 35.5653 573.089Z" fill="none" opacity="1" stroke="#264d80" stroke-linecap="round" stroke-linejoin="bevel" stroke-width="17.01" vectornator:layerName="circle"/>
<path d="M30.5856 629.657C30.6213 629.657 30.6499 632.704 30.6499 636.428L30.6499 643.198L57.7265 643.154L84.8017 643.109L112.199 643.109L112.199 659.116L84.8017 659.116L59.8714 659.116C46.1591 659.116 33.9742 659.141 32.7947 659.173L30.6499 659.23L30.6499 665.94C30.6499 671.376 30.6301 672.642 30.5385 672.608C30.2483 672.496-0.0254989 651.2 1.61191e-05 651.124C0.0170261 651.077 6.88915 646.227 15.2744 640.348C23.6596 634.468 30.5497 629.658 30.5854 629.657L30.5856 629.657Z" fill="#264d80" fill-rule="nonzero" opacity="1" stroke="none" vectornator:layerName="path"/>
<path d="M56.6773 490.777C56.6775 490.813 53.63 490.841 49.906 490.841L43.1361 490.841L43.18 517.918L43.2254 544.993L43.2254 572.391L27.2185 572.391L27.2185 544.993L27.2185 520.063C27.2182 506.35 27.193 494.166 27.1612 492.986L27.1039 490.841L20.3941 490.841C14.9582 490.841 13.6922 490.821 13.7268 490.73C13.8382 490.44 35.1348 460.166 35.21 460.191C35.2573 460.208 40.107 467.081 45.9867 475.466C51.8663 483.851 56.6768 490.741 56.677 490.777L56.6773 490.777Z" fill="#264d80" fill-rule="nonzero" opacity="1" stroke="none" vectornator:layerName="path"/>
<path d="M169.845 655.385C169.844 655.35 172.892 655.321 176.616 655.321L183.386 655.321L183.342 628.244L183.297 601.169L183.297 573.772L199.303 573.772L199.303 601.169L199.303 626.099C199.304 639.812 199.329 651.997 199.361 653.176L199.418 655.321L206.128 655.321C211.564 655.321 212.83 655.341 212.795 655.432C212.684 655.723 191.387 685.996 191.312 685.971C191.265 685.954 186.415 679.082 180.535 670.696C174.656 662.311 169.845 655.421 169.845 655.385L169.845 655.385Z" fill="#264d80" fill-rule="nonzero" opacity="1" stroke="none" vectornator:layerName="path"/>
</g>
<g opacity="1" vectornator:layerName="text4538">
<path d="M273.322 585.178L265.926 601.977L252.614 601.977L285.155 528.126L298.467 528.126L331.007 601.977L317.695 601.977L310.3 585.178L273.322 585.178ZM305.228 573.662L291.811 543.235L278.393 573.662L305.228 573.662Z" fill="#000000" fill-rule="nonzero" opacity="1" stroke="none" vectornator:layerName="path"/>
<path d="M369.696 544.925C377.232 544.925 383.677 547.531 389.03 552.743C394.383 557.955 397.059 564.893 397.059 573.557C397.059 582.22 394.383 589.263 389.03 594.687C383.747 600.11 377.549 602.822 370.435 602.822C363.392 602.822 357.053 599.723 351.418 593.525L351.418 622.473L339.585 622.473L339.585 545.77L351.418 545.77L351.418 555.596C356.067 548.482 362.159 544.925 369.696 544.925ZM351.207 573.979C351.207 579.332 352.827 583.734 356.067 587.186C359.307 590.566 363.251 592.257 367.9 592.257C372.548 592.257 376.598 590.566 380.049 587.186C383.501 583.805 385.226 579.438 385.226 574.085C385.226 568.661 383.536 564.189 380.155 560.667C376.774 557.075 372.724 555.279 368.005 555.279C363.286 555.279 359.307 557.075 356.067 560.667C352.827 564.189 351.207 568.626 351.207 573.979Z" fill="#000000" fill-rule="nonzero" opacity="1" stroke="none" vectornator:layerName="path"/>
<path d="M456.105 601.977L445.329 601.977L445.329 594.475C440.68 600.04 434.447 602.822 426.629 602.822C420.783 602.822 415.923 601.167 412.049 597.856C408.245 594.546 406.343 590.144 406.343 584.65C406.343 579.086 408.386 574.93 412.471 572.183C416.556 569.436 422.086 568.063 429.059 568.063L444.378 568.063L444.378 565.95C444.378 558.484 440.222 554.751 431.911 554.751C426.699 554.751 421.276 556.652 415.641 560.456L410.358 553.06C417.19 547.637 424.938 544.925 433.602 544.925C440.222 544.925 445.611 546.615 449.766 549.996C453.992 553.307 456.105 558.554 456.105 565.738L456.105 601.977ZM444.272 581.058L444.272 576.303L430.96 576.303C422.438 576.303 418.176 578.98 418.176 584.333C418.176 587.08 419.233 589.193 421.346 590.672C423.459 592.081 426.382 592.785 430.115 592.785C433.919 592.785 437.229 591.729 440.046 589.616C442.864 587.502 444.272 584.65 444.272 581.058Z" fill="#000000" fill-rule="nonzero" opacity="1" stroke="none" vectornator:layerName="path"/>
<path d="M497.615 602.822C489.797 602.822 483.07 600.181 477.435 594.898C471.801 589.545 468.983 582.572 468.983 573.979C468.983 565.386 471.906 558.413 477.752 553.06C483.669 547.637 490.853 544.925 499.305 544.925C507.757 544.925 514.906 547.848 520.752 553.694L513.779 562.252C508.919 558.026 504.024 555.913 499.094 555.913C494.163 555.913 489.867 557.568 486.204 560.878C482.612 564.118 480.816 568.344 480.816 573.557C480.816 578.698 482.612 583.065 486.204 586.657C489.797 590.249 494.199 592.045 499.411 592.045C504.693 592.045 509.659 589.651 514.308 584.861L521.281 592.468C514.449 599.371 506.56 602.822 497.615 602.822Z" fill="#000000" fill-rule="nonzero" opacity="1" stroke="none" vectornator:layerName="path"/>
<path d="M545.387 571.549L545.387 601.977L533.554 601.977L533.554 523.689L545.387 523.689L545.387 556.018C547.078 552.567 549.613 549.855 552.994 547.883C556.446 545.911 560.143 544.925 564.088 544.925C570.427 544.925 575.533 546.862 579.407 550.736C583.351 554.61 585.324 560.209 585.324 567.534L585.324 601.977L573.491 601.977L573.491 571.127C573.491 560.773 569.194 555.596 560.601 555.596C556.516 555.596 552.959 556.969 549.93 559.716C546.902 562.393 545.387 566.337 545.387 571.549Z" fill="#000000" fill-rule="nonzero" opacity="1" stroke="none" vectornator:layerName="path"/>
<path d="M654.154 579.05L610.097 579.05C610.379 583.136 612.246 586.446 615.697 588.982C619.148 591.447 623.092 592.679 627.53 592.679C634.573 592.679 639.926 590.461 643.589 586.023L650.35 593.419C644.293 599.688 636.404 602.822 626.685 602.822C618.796 602.822 612.069 600.216 606.505 595.004C601.011 589.721 598.264 582.678 598.264 573.873C598.264 564.999 601.082 557.955 606.716 552.743C612.351 547.531 618.972 544.925 626.579 544.925C634.256 544.925 640.771 547.249 646.124 551.898C651.477 556.476 654.154 562.815 654.154 570.915L654.154 579.05ZM610.097 569.753L642.321 569.753C642.321 565.034 640.842 561.407 637.884 558.871C634.925 556.335 631.263 555.067 626.896 555.067C622.599 555.067 618.725 556.406 615.274 559.082C611.823 561.688 610.097 565.245 610.097 569.753Z" fill="#000000" fill-rule="nonzero" opacity="1" stroke="none" vectornator:layerName="path"/>
<path d="M731.346 601.977L717.4 601.977L687.711 528.126L701.657 528.126L724.373 583.276L747.088 528.126L761.034 528.126L731.346 601.977Z" fill="#000000" fill-rule="nonzero" opacity="1" stroke="none" vectornator:layerName="path"/>
<path d="M822.123 579.05L778.067 579.05C778.348 583.136 780.215 586.446 783.666 588.982C787.117 591.447 791.062 592.679 795.499 592.679C802.542 592.679 807.895 590.461 811.558 586.023L818.32 593.419C812.262 599.688 804.374 602.822 794.654 602.822C786.765 602.822 780.039 600.216 774.474 595.004C768.981 589.721 766.234 582.678 766.234 573.873C766.234 564.999 769.051 557.955 774.686 552.743C780.32 547.531 786.941 544.925 794.548 544.925C802.226 544.925 808.741 547.249 814.094 551.898C819.447 556.476 822.123 562.815 822.123 570.915L822.123 579.05ZM778.067 569.753L810.29 569.753C810.29 565.034 808.811 561.407 805.853 558.871C802.895 556.335 799.232 555.067 794.865 555.067C790.569 555.067 786.695 556.406 783.243 559.082C779.792 561.688 778.067 565.245 778.067 569.753Z" fill="#000000" fill-rule="nonzero" opacity="1" stroke="none" vectornator:layerName="path"/>
<path d="M846.865 601.977L835.033 601.977L835.033 523.583L846.865 523.583L846.865 601.977Z" fill="#000000" fill-rule="nonzero" opacity="1" stroke="none" vectornator:layerName="path"/>
<path d="M877.022 587.186C880.403 590.566 884.664 592.257 889.806 592.257C894.948 592.257 899.174 590.566 902.484 587.186C905.865 583.734 907.556 579.297 907.556 573.873C907.556 568.45 905.865 564.048 902.484 560.667C899.174 557.216 894.948 555.49 889.806 555.49C884.664 555.49 880.403 557.216 877.022 560.667C873.712 564.048 872.057 568.45 872.057 573.873C872.057 579.297 873.712 583.734 877.022 587.186ZM910.936 594.475C905.302 600.04 898.258 602.822 889.806 602.822C881.354 602.822 874.311 600.04 868.676 594.475C863.041 588.841 860.224 581.973 860.224 573.873C860.224 565.774 863.041 558.941 868.676 553.377C874.311 547.742 881.354 544.925 889.806 544.925C898.258 544.925 905.302 547.742 910.936 553.377C916.571 558.941 919.389 565.774 919.389 573.873C919.389 581.973 916.571 588.841 910.936 594.475Z" fill="#000000" fill-rule="nonzero" opacity="1" stroke="none" vectornator:layerName="path"/>
<path d="M957.776 602.822C949.958 602.822 943.232 600.181 937.597 594.898C931.962 589.545 929.145 582.572 929.145 573.979C929.145 565.386 932.068 558.413 937.914 553.06C943.83 547.637 951.015 544.925 959.467 544.925C967.919 544.925 975.068 547.848 980.914 553.694L973.941 562.252C969.081 558.026 964.186 555.913 959.256 555.913C954.325 555.913 950.029 557.568 946.366 560.878C942.774 564.118 940.978 568.344 940.978 573.557C940.978 578.698 942.774 583.065 946.366 586.657C949.958 590.249 954.36 592.045 959.572 592.045C964.855 592.045 969.821 589.651 974.469 584.861L981.442 592.468C974.61 599.371 966.722 602.822 957.776 602.822Z" fill="#000000" fill-rule="nonzero" opacity="1" stroke="none" vectornator:layerName="path"/>
<path d="M1005.55 601.977L993.716 601.977L993.716 545.77L1005.55 545.77L1005.55 601.977ZM994.456 534.571C992.976 533.092 992.237 531.331 992.237 529.289C992.237 527.246 992.976 525.485 994.456 524.006C995.935 522.527 997.696 521.787 999.738 521.787C1001.78 521.787 1003.54 522.527 1005.02 524.006C1006.5 525.485 1007.24 527.246 1007.24 529.289C1007.24 531.331 1006.5 533.092 1005.02 534.571C1003.54 536.05 1001.78 536.79 999.738 536.79C997.696 536.79 995.935 536.05 994.456 534.571Z" fill="#000000" fill-rule="nonzero" opacity="1" stroke="none" vectornator:layerName="path"/>
<path d="M1037.19 555.279L1037.19 583.805C1037.19 586.481 1037.89 588.629 1039.3 590.249C1040.71 591.799 1042.68 592.574 1045.21 592.574C1047.75 592.574 1050.18 591.341 1052.5 588.876L1057.36 597.222C1053.21 600.955 1048.6 602.822 1043.52 602.822C1038.52 602.822 1034.23 601.096 1030.63 597.645C1027.11 594.123 1025.35 589.404 1025.35 583.488L1025.35 555.279L1018.27 555.279L1018.27 545.77L1025.35 545.77L1025.35 528.126L1037.19 528.126L1037.19 545.77L1051.98 545.77L1051.98 555.279L1037.19 555.279Z" fill="#000000" fill-rule="nonzero" opacity="1" stroke="none" vectornator:layerName="path"/>
<path d="M1073.84 624.375C1068.7 624.375 1064.05 622.508 1059.9 618.775L1065.28 609.161C1067.75 611.485 1070.29 612.648 1072.89 612.648C1075.57 612.648 1077.72 611.697 1079.34 609.795C1081.03 607.893 1081.87 605.815 1081.87 603.562C1081.87 602.575 1074.3 583.312 1059.16 545.77L1071.84 545.77L1088.63 587.186L1105.43 545.77L1118.11 545.77L1090.85 612.542C1089.23 616.204 1086.91 619.092 1083.88 621.205C1080.85 623.318 1077.51 624.375 1073.84 624.375Z" fill="#000000" fill-rule="nonzero" opacity="1" stroke="none" vectornator:layerName="path"/>
</g>
<g opacity="1" vectornator:layerName="text4542">
<path d="M1122.88 525.188L1122.88 537.378L1120.45 537.378L1120.45 525.188L1116.08 525.188L1116.08 522.96L1127.26 522.96L1127.26 525.188L1122.88 525.188Z" fill="#000000" fill-rule="nonzero" opacity="1" stroke="none" vectornator:layerName="path"/>
<path d="M1132.32 537.378L1129.89 537.378L1129.89 522.96L1133.68 522.96L1138.03 532.015L1142.39 522.96L1146.16 522.96L1146.16 537.378L1143.73 537.378L1143.73 526.116L1138.69 536.12L1137.33 536.12L1132.32 526.116L1132.32 537.378Z" fill="#000000" fill-rule="nonzero" opacity="1" stroke="none" vectornator:layerName="path"/>
</g>
</g>
</svg>
