<?xml version="1.0" encoding="UTF-8" standalone="no"?>
<!DOCTYPE svg PUBLIC "-//W3C//DTD SVG 1.1//EN" "http://www.w3.org/Graphics/SVG/1.1/DTD/svg11.dtd">
<!-- Created with Linearity Curve (http://linearity.io/curve) -->
<svg height="260.0px" stroke-miterlimit="10" style="fill-rule:nonzero;clip-rule:evenodd;stroke-linecap:round;stroke-linejoin:round;" version="1.1" viewBox="0 0 260 260" width="260.0px" xml:space="preserve" xmlns="http://www.w3.org/2000/svg" xmlns:xlink="http://www.w3.org/1999/xlink">
<defs/>
<g id="com.castsoftware.jee">
<g opacity="1">
<g opacity="1">
<path d="M93.3928 154.914C91.4419 154.914 89.5044 154.786 87.5872 154.948C84.8492 155.156 82.2255 155.861 79.9248 157.465C79.9114 157.479 79.8912 157.492 79.871 157.506C77.8259 159.016 77.6981 160.957 79.6894 162.535C80.7994 163.421 82.0775 164.146 83.3826 164.71C86.6252 166.134 90.0763 166.919 93.5543 167.584C100.557 168.907 107.634 169.551 114.745 169.907C122.266 170.283 129.787 170.283 137.308 169.873C145.966 169.397 154.584 168.504 163.007 166.348C167.13 165.294 171.194 163.998 174.746 161.548C176.206 160.547 177.477 159.352 178.264 157.721C179.011 156.163 179.038 154.565 178.526 152.933C178.459 152.725 178.405 152.517 178.311 152.195C180.289 153.162 182.132 154.135 183.478 155.8C185.012 157.674 185.079 160.299 183.754 162.696C182.368 165.187 180.215 166.845 177.82 168.255C173.4 170.867 168.557 172.385 163.626 173.654C157.066 175.332 150.406 176.339 143.686 177.058C135.142 177.978 126.578 178.34 117.994 178.226C111.106 178.125 104.224 177.749 97.3754 176.944C91.9397 176.299 86.5444 175.433 81.2434 174.07C77.1195 173.009 73.0697 171.74 69.3294 169.638C66.995 168.329 64.849 166.785 63.4497 164.421C61.8217 161.655 62.1917 158.889 64.4723 156.613C66.3963 154.699 68.7374 153.47 71.2735 152.618C76.1508 150.966 81.1424 150.738 86.2148 151.335C87.1634 151.449 87.9841 151.765 88.7779 152.242C90.3117 153.155 91.8724 154.034 93.3928 154.914Z" fill="#5382a1" fill-rule="nonzero" opacity="1" stroke="none"/>
<path d="M128.435 106.934C128.126 106.719 127.816 106.517 127.514 106.296C121.97 102.247 116.784 97.7956 112.216 92.6726C108.913 88.9596 105.966 84.9981 104.13 80.3317C102.872 77.1626 102.286 73.8994 102.959 70.502C103.49 67.8029 104.769 65.4461 106.363 63.2371C109.323 59.1616 113.09 55.8716 116.911 52.6554C121.318 48.9491 125.791 45.3234 130.164 41.5701C133.689 38.542 136.918 35.2184 139.374 31.2369C141.096 28.4571 142.219 25.4827 142.28 22.1726C142.314 20.4067 142.078 18.6744 141.473 17.0093C141.372 16.7407 141.284 16.4721 141.19 16.2036C141.257 16.1767 141.318 16.1431 141.378 16.1096C142.098 17.4121 142.872 18.6879 143.531 20.024C145.321 23.643 146.323 27.4567 146.195 31.5256C146.067 35.3191 144.964 38.8576 143.242 42.208C140.8 46.9751 137.396 51.0507 133.756 54.9249C129.814 59.1213 125.771 63.2304 121.876 67.4671C119.636 69.9044 117.712 72.5969 116.562 75.7593C115.606 78.3913 115.62 80.9629 116.689 83.5747C119.912 91.4707 123.618 99.1183 128.247 106.309C128.354 106.47 128.442 106.652 128.536 106.826C128.502 106.853 128.462 106.893 128.435 106.934Z" fill="#e76f00" fill-rule="nonzero" opacity="1" stroke="none"/>
<path d="M109.491 103.832C107.15 104.53 104.796 105.188 102.475 105.953C100.234 106.692 97.9943 107.484 96.0232 108.814C95.4917 109.17 95.0074 109.64 94.6037 110.136C94.0588 110.794 94.1934 111.405 94.9939 111.687C96.0501 112.057 97.1399 112.386 98.2432 112.52C101.17 112.856 104.103 113.185 107.049 113.299C116.366 113.708 125.69 113.534 135.008 112.97C140.033 112.668 145.072 112.352 150.084 111.822C154.624 111.345 159.125 110.566 163.646 109.922C163.8 109.901 163.955 109.875 164.184 109.969C163.309 110.687 162.455 111.439 161.547 112.11C158.943 114.044 156.326 115.944 153.703 117.844C153.488 117.992 153.239 118.14 152.99 118.18C147.164 119.06 141.352 120.033 135.499 120.758C126.558 121.866 117.557 122.296 108.549 122.236C101.95 122.195 95.3572 121.86 88.8384 120.772C85.3066 120.188 81.8017 119.442 78.6197 117.703C77.7654 117.233 76.9244 116.643 76.2719 115.917C74.5901 114.078 74.8861 111.614 76.8774 109.848C78.7812 108.169 81.0954 107.296 83.4835 106.611C89.1883 104.987 95.0477 104.369 100.941 104.053C103.8 103.906 106.652 103.825 109.505 103.711C109.498 103.758 109.491 103.791 109.491 103.832Z" fill="#5382a1" fill-rule="nonzero" opacity="1" stroke="none"/>
<path d="M133.817 110.553C135.438 109.102 136.831 107.471 137.995 105.638C139.172 103.765 139.972 101.757 140.08 99.5279C140.208 97.0033 139.34 94.7406 138.035 92.6659C136.38 90.0406 134.597 87.5026 132.936 84.8907C131.193 82.1647 130.003 79.2239 129.801 75.954C129.66 73.557 130.03 71.2003 130.722 68.9107C132.35 63.5259 135.768 59.457 140.255 56.2073C145.139 52.6823 150.642 50.5136 156.394 48.9156C160.672 47.7271 165.025 46.9281 169.512 46.6193C169.31 46.7603 169.108 46.9013 168.906 47.0289C164.029 50.1107 159.3 53.394 154.766 56.9459C151.658 59.3764 148.671 61.9413 146.074 64.9224C145.388 65.7214 144.762 66.5741 144.15 67.4336C142.219 70.1193 142.246 73.04 143.39 75.9674C144.17 77.9414 145.22 79.8147 146.162 81.7216C147.258 83.9507 148.523 86.1194 149.458 88.4224C151.463 93.3239 150.635 97.9366 147.561 102.167C144.957 105.739 141.385 108.015 137.329 109.579C136.205 110.009 135.041 110.345 133.891 110.721C133.864 110.66 133.837 110.613 133.817 110.553Z" fill="#e76f00" fill-rule="nonzero" opacity="1" stroke="none"/>
<path d="M158.257 134.12C157.268 134.503 156.36 134.865 155.425 135.194C148.879 137.477 142.152 138.968 135.284 139.814C129.02 140.579 122.73 140.895 116.42 140.613C109.888 140.304 103.41 139.646 97.1063 137.772C94.7114 137.061 92.3501 136.228 90.3252 134.697C89.7466 134.268 89.2017 133.717 88.7779 133.126C87.9639 131.985 88.1455 130.528 89.1748 129.124C90.4597 127.372 92.2357 126.231 94.1395 125.284C96.0837 124.31 98.1288 123.652 100.295 123.397C100.645 123.357 100.995 123.357 101.479 123.33C101.035 123.8 100.652 124.169 100.322 124.586C99.2119 125.928 99.3801 127.265 100.813 128.278C102.502 129.474 104.473 129.977 106.464 130.36C113.548 131.723 120.692 131.683 127.857 131.206C133.911 130.803 139.905 129.997 145.724 128.285C147.44 127.782 148.671 127.963 150.09 128.943C152.526 130.635 155.109 132.126 157.618 133.704C157.813 133.818 157.995 133.939 158.257 134.12Z" fill="#5382a1" fill-rule="nonzero" opacity="1" stroke="none"/>
<path d="M106.464 141.553C106.181 141.989 105.939 142.311 105.758 142.66C105.206 143.708 105.408 144.614 106.356 145.326C107.5 146.192 108.852 146.535 110.224 146.817C114.18 147.616 118.19 147.602 122.192 147.454C126.693 147.293 131.18 146.837 135.58 145.85C138.418 145.219 141.19 144.279 144.002 143.493C144.264 143.419 144.641 143.406 144.85 143.54C148.301 145.749 151.725 147.978 155.163 150.207C155.25 150.261 155.324 150.342 155.533 150.503C154.16 151.188 152.902 151.872 151.604 152.45C147.002 154.471 142.166 155.673 137.228 156.512C130.736 157.613 124.184 158.043 117.598 157.862C112.296 157.721 107.042 157.244 101.936 155.7C99.7568 155.035 97.6377 154.216 95.9357 152.618C94.3548 151.114 94.0454 149.274 95.0544 147.354C95.8012 145.924 96.9179 144.829 98.2499 143.936C100.705 142.305 103.437 141.626 106.464 141.553Z" fill="#5382a1" fill-rule="nonzero" opacity="1" stroke="none"/>
<path d="M85.5555 180.912C87.1566 181.254 88.7577 181.597 90.3588 181.926C96.5748 183.201 102.838 184.168 109.148 184.88C118.048 185.867 126.969 186.283 135.916 186.021C148.22 185.672 160.356 184.195 172.196 180.67C178.863 178.689 185.287 176.124 191.113 172.277C193.131 170.948 194.968 169.343 196.892 167.859C197.08 167.711 197.262 167.544 197.551 167.302C197.531 168.826 197.222 170.155 196.697 171.431C195.816 173.573 194.43 175.359 192.748 176.917C188.934 180.442 184.386 182.718 179.583 184.551C173.488 186.874 167.164 188.318 160.719 189.311C152.956 190.52 145.152 190.983 137.302 190.896C131.2 190.829 125.119 190.386 119.064 189.613C110.48 188.506 102.044 186.706 93.8032 184.054C91.0046 183.148 88.2599 182.107 85.495 181.12C85.5152 181.059 85.5354 180.992 85.5555 180.912Z" fill="#5382a1" fill-rule="nonzero" opacity="1" stroke="none"/>
<path d="M166.787 107.625C168.106 106.887 169.404 106.068 170.777 105.436C173.212 104.329 175.788 103.771 178.486 103.765C184.763 103.744 189.788 107.954 190.669 114.158C191.786 121.954 189.176 128.339 183.101 133.307C178.769 136.839 173.71 138.9 168.362 140.317C166.989 140.686 165.597 140.942 164.211 141.244C163.962 141.291 163.7 141.297 163.397 141.21C163.545 141.089 163.693 140.975 163.841 140.854C167.87 137.873 171.624 134.597 174.82 130.722C177.316 127.701 179.448 124.465 180.498 120.644C181.069 118.563 181.406 116.448 180.659 114.346C179.583 111.318 177.329 109.465 174.403 108.35C171.961 107.424 169.451 107.337 166.895 107.807C166.855 107.746 166.821 107.686 166.787 107.625Z" fill="#5382a1" fill-rule="nonzero" opacity="1" stroke="none"/>
</g>
</g>
<g opacity="1">
<path d="M66.0962 220.771C66.1646 221.992 66.4526 222.983 66.9604 223.745C67.9272 225.171 69.6313 225.883 72.0728 225.883C73.1665 225.883 74.1626 225.727 75.061 225.415C76.7993 224.809 77.6685 223.725 77.6685 222.163C77.6685 220.991 77.3022 220.156 76.5698 219.658C75.8276 219.17 74.6655 218.745 73.0835 218.383L70.1685 217.724C68.2642 217.295 66.9165 216.821 66.1255 216.303C64.7583 215.405 64.0747 214.062 64.0747 212.275C64.0747 210.341 64.7437 208.755 66.0815 207.514C67.4194 206.274 69.314 205.654 71.7651 205.654C74.021 205.654 75.9375 206.198 77.5146 207.287C79.0918 208.376 79.8804 210.117 79.8804 212.509L77.1411 212.509C76.9946 211.357 76.6821 210.473 76.2036 209.858C75.3149 208.735 73.8062 208.173 71.6772 208.173C69.9585 208.173 68.7231 208.535 67.9712 209.257C67.2192 209.98 66.8433 210.82 66.8433 211.777C66.8433 212.832 67.2827 213.603 68.1616 214.091C68.7378 214.404 70.0415 214.795 72.0728 215.263L75.0903 215.952C76.5454 216.284 77.6685 216.738 78.4595 217.314C79.8267 218.32 80.5103 219.78 80.5103 221.694C80.5103 224.077 79.6436 225.781 77.9102 226.806C76.1768 227.832 74.1626 228.344 71.8677 228.344C69.1919 228.344 67.0972 227.661 65.5835 226.294C64.0698 224.936 63.3276 223.095 63.3569 220.771L66.0962 220.771Z" fill="#000000" fill-rule="nonzero" opacity="1" stroke="none"/>
<path d="M84.48 206.196L100.168 206.196L100.168 208.833L87.3218 208.833L87.3218 215.366L99.2017 215.366L99.2017 217.856L87.3218 217.856L87.3218 225.151L100.388 225.151L100.388 227.715L84.48 227.715L84.48 206.196Z" fill="#000000" fill-rule="nonzero" opacity="1" stroke="none"/>
<path d="M114.216 216.054C115.583 216.054 116.665 215.781 117.461 215.234C118.257 214.687 118.655 213.701 118.655 212.275C118.655 210.742 118.098 209.697 116.985 209.14C116.389 208.847 115.593 208.701 114.597 208.701L107.478 208.701L107.478 216.054L114.216 216.054ZM104.563 206.196L114.524 206.196C116.165 206.196 117.517 206.435 118.582 206.914C120.603 207.832 121.614 209.526 121.614 211.997C121.614 213.286 121.348 214.34 120.815 215.161C120.283 215.981 119.539 216.64 118.582 217.138C119.421 217.48 120.054 217.929 120.479 218.486C120.903 219.043 121.14 219.946 121.189 221.196L121.292 224.082C121.321 224.902 121.389 225.512 121.497 225.913C121.672 226.596 121.985 227.036 122.434 227.231L122.434 227.715L118.86 227.715C118.762 227.529 118.684 227.29 118.625 226.997C118.567 226.704 118.518 226.137 118.479 225.298L118.303 221.709C118.235 220.302 117.712 219.36 116.736 218.882C116.179 218.618 115.305 218.486 114.114 218.486L107.478 218.486L107.478 227.715L104.563 227.715L104.563 206.196Z" fill="#000000" fill-rule="nonzero" opacity="1" stroke="none"/>
<path d="M127.048 206.196L133.23 224.521L139.338 206.196L142.605 206.196L134.753 227.715L131.663 227.715L123.826 206.196L127.048 206.196Z" fill="#000000" fill-rule="nonzero" opacity="1" stroke="none"/>
<path d="M145.359 206.196L148.274 206.196L148.274 225.151L159.172 225.151L159.172 227.715L145.359 227.715L145.359 206.196Z" fill="#000000" fill-rule="nonzero" opacity="1" stroke="none"/>
<path d="M162.322 206.196L178.01 206.196L178.01 208.833L165.164 208.833L165.164 215.366L177.043 215.366L177.043 217.856L165.164 217.856L165.164 225.151L178.23 225.151L178.23 227.715L162.322 227.715L162.322 206.196Z" fill="#000000" fill-rule="nonzero" opacity="1" stroke="none"/>
<path d="M197.712 206.196L197.712 208.759L190.461 208.759L190.461 227.715L187.502 227.715L187.502 208.759L180.251 208.759L180.251 206.196L197.712 206.196Z" fill="#000000" fill-rule="nonzero" opacity="1" stroke="none"/>
</g>
</g>
</svg>
