<?xml version="1.0" encoding="UTF-8" standalone="no"?>
<!DOCTYPE svg PUBLIC "-//W3C//DTD SVG 1.1//EN" "http://www.w3.org/Graphics/SVG/1.1/DTD/svg11.dtd">
<!-- Created with Vectornator (http://vectornator.io/) -->
<svg height="100%" stroke-miterlimit="10" style="fill-rule:nonzero;clip-rule:evenodd;stroke-linecap:round;stroke-linejoin:round;" version="1.1" viewBox="0 0 260 260" width="100%" xml:space="preserve" xmlns="http://www.w3.org/2000/svg" xmlns:xlink="http://www.w3.org/1999/xlink">
<defs>
<path d="M165.317 240.366C189.781 240.366 197.599 240.366 208.635 236.687C221.64 232.088 232.088 221.64 236.687 208.635C240.366 197.599 240.366 189.781 240.366 165.317C240.366 165.317 240.366 94.683 240.366 94.683C240.366 70.2187 240.366 62.4011 236.687 51.3646C232.08 38.3598 221.64 27.9119 208.635 23.3133C197.599 19.6345 189.781 19.6345 165.317 19.6345L94.683 19.6345C70.2187 19.6345 62.4011 19.6345 51.3646 23.3133C38.3598 27.9119 27.9119 38.3598 23.3133 51.3646C19.6345 62.4011 19.6345 70.2187 19.6345 94.683L19.6345 165.317C19.6345 189.781 19.6345 197.599 23.3133 208.635C27.9119 221.511 38.507 232.088 51.383 236.687C62.4195 240.366 70.2187 240.366 94.683 240.366C81.8071 240.366 165.317 240.366 165.317 240.366Z" id="Fill"/>
</defs>
<g id="com.castsoftware.ios">
<g opacity="1">
<use fill="#242424" fill-rule="evenodd" opacity="1" stroke="none" xlink:href="#Fill"/>
<clipPath id="ClipPath">
<use xlink:href="#Fill"/>
</clipPath>
<g clip-path="url(#ClipPath)">
<path d="M56.1649 89.7396C56.1649 92.3967 55.2918 94.5451 53.5534 96.1924C51.8149 97.8398 49.5678 98.6673 46.8197 98.6673C44.3449 98.6673 42.2648 97.8246 40.5719 96.1241C38.8714 94.4312 38.0287 92.3056 38.0287 89.7396C38.0287 87.1737 38.9017 85.0708 40.6402 83.4235C42.3787 81.7685 44.5347 80.9487 47.093 80.9487C49.6589 80.9487 51.8073 81.7685 53.5458 83.4235C55.2918 85.0708 56.1649 87.1813 56.1649 89.7396ZM54.5175 176.427L39.6761 176.427L39.6761 109.66L54.5099 109.66L54.5099 176.427L54.5175 176.427ZM153.42 129.17C153.42 143.184 149.852 154.632 142.708 163.514C135.018 173.132 124.344 177.938 110.702 177.938C97.7892 177.938 87.533 173.224 79.9339 163.787C72.8738 155.087 69.3513 144.095 69.3513 130.817C69.3513 117.266 73.0105 105.955 80.3439 96.8833C88.2163 87.1813 98.7457 82.3227 111.932 82.3227C124.936 82.3227 135.238 86.9915 142.845 96.3367C149.897 104.945 153.42 115.892 153.42 129.17ZM137.622 129.717C137.622 120.561 135.565 112.681 131.442 106.084C126.683 98.2118 119.994 94.2718 111.386 94.2718C102.504 94.2718 95.6787 98.3029 90.9188 106.357C86.8878 112.955 84.8684 120.971 84.8684 130.407C84.8684 139.661 86.9257 147.579 91.0479 154.169C95.8989 162.049 102.633 165.981 111.241 165.981C120.123 165.981 126.948 161.95 131.708 153.896C135.656 147.299 137.622 139.244 137.622 129.717ZM221.971 150.457C221.971 158.337 219.223 164.744 213.727 169.686C207.684 175.091 199.257 177.794 188.447 177.794C178.464 177.794 170.455 175.873 164.405 172.024L167.836 159.665C174.342 163.514 181.478 165.435 189.267 165.435C194.854 165.435 199.204 164.174 202.317 161.654C205.429 159.134 206.986 155.771 206.986 151.557C206.986 147.8 205.703 144.642 203.137 142.076C200.571 139.51 196.312 137.126 190.36 134.932C174.152 128.889 166.045 120.053 166.045 108.415C166.045 100.816 168.907 94.5906 174.631 89.732C180.355 84.8811 187.931 82.4518 197.367 82.4518C205.794 82.4518 212.801 83.9169 218.388 86.8473L214.691 98.9406C209.468 96.1013 203.562 94.6817 196.972 94.6817C191.749 94.6817 187.673 95.9647 184.75 98.5306C182.275 100.823 181.038 103.617 181.038 106.912C181.038 110.578 182.457 113.6 185.297 115.976C187.771 118.17 192.258 120.554 198.756 123.12C206.728 126.323 212.581 130.081 216.338 134.385C220.096 138.69 221.971 144.049 221.971 150.457Z" fill="#ffffff" fill-rule="nonzero" opacity="1" stroke="none"/>
</g>
</g>
</g>
</svg>
