<?xml version="1.0" encoding="UTF-8" standalone="no"?>
<!DOCTYPE svg PUBLIC "-//W3C//DTD SVG 1.1//EN" "http://www.w3.org/Graphics/SVG/1.1/DTD/svg11.dtd">
<!-- Created with Vectornator (http://vectornator.io/) -->
<svg height="100%" stroke-miterlimit="10" style="fill-rule:nonzero;clip-rule:evenodd;stroke-linecap:round;stroke-linejoin:round;" version="1.1" viewBox="0 0 220 220" width="100%" xml:space="preserve" xmlns="http://www.w3.org/2000/svg" xmlns:xlink="http://www.w3.org/1999/xlink">
<defs>
<path d="M126.8 187.5C146.75 187.5 153.125 187.5 162.125 184.5C172.73 180.75 181.25 172.23 185 161.625C188 152.625 188 146.25 188 126.3C188 126.3 188 68.7 188 68.7C188 48.75 188 42.375 185 33.375C181.243 22.77 172.73 14.25 162.125 10.5C153.125 7.5 146.75 7.5 126.8 7.5L69.2 7.5C49.25 7.5 42.875 7.5 33.875 10.5C23.27 14.25 14.75 22.77 11 33.375C8 42.375 8 48.75 8 68.7L8 126.3C8 146.25 8 152.625 11 161.625C14.75 172.125 23.39 180.75 33.89 184.5C42.89 187.5 49.25 187.5 69.2 187.5C58.7 187.5 126.8 187.5 126.8 187.5Z" id="Fill"/>
<linearGradient gradientTransform="matrix(-1 0 0 -1 352 353.5)" gradientUnits="userSpaceOnUse" id="LinearGradient" x1="190.24" x2="190.24" y1="245" y2="141">
<stop offset="0" stop-color="#6ec9f6"/>
<stop offset="1" stop-color="#1a73e4"/>
</linearGradient>
</defs>
<g id="com.castsoftware.iosobjc">
<g opacity="1">
<use fill="#242424" fill-rule="evenodd" opacity="1" stroke="none" xlink:href="#Fill"/>
<clipPath id="ClipPath">
<use xlink:href="#Fill"/>
</clipPath>
<g clip-path="url(#ClipPath)">
<path d="M37.7895 64.6688C37.7895 66.8355 37.0776 68.5875 35.6599 69.9309C34.2423 71.2742 32.4098 71.949 30.1688 71.949C28.1506 71.949 26.4544 71.2619 25.0739 69.8752C23.6872 68.4946 23 66.7612 23 64.6688C23 62.5764 23.7119 60.8615 25.1296 59.5182C26.5473 58.1686 28.3054 57.5 30.3917 57.5C32.4841 57.5 34.2361 58.1686 35.6537 59.5182C37.0776 60.8615 37.7895 62.5825 37.7895 64.6688ZM36.4461 135.36L24.3434 135.36L24.3434 80.9131L36.44 80.9131L36.44 135.36L36.4461 135.36ZM117.098 96.8232C117.098 108.251 114.189 117.587 108.363 124.83C102.092 132.673 93.3879 136.592 82.2633 136.592C71.733 136.592 63.3694 132.748 57.1725 125.053C51.4152 117.958 48.5427 108.994 48.5427 98.1665C48.5427 87.1162 51.5266 77.8921 57.5068 70.4942C63.9265 62.5825 72.513 58.6205 83.2662 58.6205C93.8708 58.6205 102.272 62.4278 108.475 70.0485C114.226 77.0687 117.098 85.9957 117.098 96.8232ZM104.215 97.2689C104.215 89.8029 102.538 83.377 99.1762 77.9973C95.2947 71.5776 89.8407 68.3646 82.8205 68.3646C75.5774 68.3646 70.012 71.6519 66.1304 78.2202C62.8432 83.5999 61.1965 90.1372 61.1965 97.8322C61.1965 105.379 62.8741 111.836 66.2357 117.209C70.1915 123.635 75.6826 126.842 82.7028 126.842C89.9459 126.842 95.5113 123.554 99.3929 116.986C102.612 111.606 104.215 105.038 104.215 97.2689ZM173 114.182C173 120.608 170.759 125.833 166.277 129.863C161.349 134.271 154.478 136.474 145.662 136.474C137.521 136.474 130.99 134.908 126.056 131.77L128.854 121.691C134.16 124.83 139.979 126.396 146.331 126.396C150.887 126.396 154.434 125.368 156.972 123.313C159.511 121.258 160.78 118.515 160.78 115.079C160.78 112.015 159.733 109.44 157.641 107.347C155.548 105.255 152.076 103.311 147.222 101.522C134.005 96.5941 127.393 89.3882 127.393 79.8979C127.393 73.701 129.727 68.6246 134.395 64.6626C139.063 60.7068 145.241 58.7258 152.936 58.7258C159.808 58.7258 165.522 59.9206 170.078 62.3102L167.063 72.1719C162.804 69.8566 157.988 68.6989 152.614 68.6989C148.355 68.6989 145.031 69.7452 142.647 71.8376C140.629 73.7072 139.62 75.9853 139.62 78.6721C139.62 81.6622 140.778 84.1261 143.093 86.0638C145.111 87.8529 148.77 89.7967 154.069 91.8892C160.569 94.5017 165.342 97.566 168.407 101.076C171.471 104.586 173 108.957 173 114.182Z" fill="#ffffff" fill-rule="nonzero" opacity="1" stroke="none"/>
</g>
</g>
<g opacity="1">
<g opacity="1">
<path d="M176.64 212.5C188.167 212.5 191.85 212.5 197.05 210.767C203.177 208.6 208.1 203.677 210.267 197.55C212 192.35 212 188.667 212 177.14C212 177.14 212 143.86 212 143.86C212 132.333 212 128.65 210.267 123.45C208.096 117.323 203.177 112.4 197.05 110.233C191.85 108.5 188.167 108.5 176.64 108.5L143.36 108.5C131.833 108.5 128.15 108.5 122.95 110.233C116.823 112.4 111.9 117.323 109.733 123.45C108 128.65 108 132.333 108 143.86L108 177.14C108 188.667 108 192.35 109.733 197.55C111.9 203.617 116.892 208.6 122.959 210.767C128.159 212.5 131.833 212.5 143.36 212.5C137.293 212.5 176.64 212.5 176.64 212.5Z" fill="url(#LinearGradient)" fill-rule="evenodd" opacity="1" stroke="none"/>
</g>
<path d="M122.471 147.332L118.947 147.332L118.947 173.415L122.471 173.415L122.471 175.655L116.312 175.655L116.312 145.092L122.471 145.092L122.471 147.332ZM126.851 157.409C126.851 158.595 127.005 159.764 127.312 160.917C127.619 162.07 128.102 163.107 128.761 164.029C129.42 164.951 130.265 165.692 131.297 166.252C132.329 166.812 133.558 167.092 134.985 167.092C136.413 167.092 137.642 166.812 138.674 166.252C139.706 165.692 140.551 164.951 141.21 164.029C141.868 163.107 142.351 162.07 142.659 160.917C142.966 159.764 143.12 158.595 143.12 157.409C143.12 156.224 142.966 155.055 142.659 153.902C142.351 152.749 141.868 151.712 141.21 150.79C140.551 149.868 139.706 149.127 138.674 148.567C137.642 148.007 136.413 147.727 134.985 147.727C133.558 147.727 132.329 148.007 131.297 148.567C130.265 149.127 129.42 149.868 128.761 150.79C128.102 151.712 127.619 152.749 127.312 153.902C127.005 155.055 126.851 156.224 126.851 157.409ZM123.722 157.409C123.722 155.807 123.958 154.264 124.43 152.782C124.902 151.3 125.61 149.988 126.554 148.847C127.499 147.705 128.673 146.794 130.078 146.113C131.483 145.433 133.119 145.092 134.985 145.092C136.852 145.092 138.487 145.433 139.892 146.113C141.298 146.794 142.472 147.705 143.416 148.847C144.36 149.988 145.068 151.3 145.541 152.782C146.013 154.264 146.249 155.807 146.249 157.409C146.249 159.012 146.013 160.555 145.541 162.037C145.068 163.519 144.36 164.83 143.416 165.972C142.472 167.114 141.298 168.019 139.892 168.689C138.487 169.359 136.852 169.694 134.985 169.694C133.119 169.694 131.483 169.359 130.078 168.689C128.673 168.019 127.499 167.114 126.554 165.972C125.61 164.83 124.902 163.519 124.43 162.037C123.958 160.555 123.722 159.012 123.722 157.409ZM149.707 145.652L152.506 145.652L152.506 154.445L152.572 154.445C153.033 153.501 153.757 152.815 154.745 152.387C155.733 151.959 156.82 151.745 158.006 151.745C159.323 151.745 160.47 151.986 161.447 152.469C162.424 152.952 163.237 153.606 163.884 154.429C164.532 155.252 165.021 156.202 165.35 157.278C165.679 158.354 165.844 159.495 165.844 160.703C165.844 161.91 165.685 163.052 165.366 164.128C165.048 165.204 164.565 166.142 163.917 166.944C163.27 167.745 162.457 168.376 161.48 168.837C160.503 169.298 159.367 169.529 158.072 169.529C157.655 169.529 157.188 169.485 156.672 169.397C156.156 169.309 155.646 169.167 155.141 168.969C154.636 168.771 154.158 168.503 153.708 168.162C153.258 167.822 152.879 167.399 152.572 166.894L152.506 166.894L152.506 169.167L149.707 169.167L149.707 145.652ZM162.88 160.505C162.88 159.715 162.776 158.941 162.567 158.183C162.358 157.426 162.04 156.751 161.612 156.158C161.184 155.565 160.635 155.093 159.965 154.742C159.296 154.391 158.511 154.215 157.611 154.215C156.667 154.215 155.865 154.402 155.206 154.775C154.548 155.148 154.01 155.637 153.593 156.24C153.176 156.844 152.874 157.53 152.687 158.299C152.5 159.067 152.407 159.847 152.407 160.637C152.407 161.471 152.506 162.278 152.704 163.058C152.901 163.837 153.214 164.523 153.642 165.116C154.07 165.709 154.625 166.186 155.305 166.548C155.986 166.911 156.809 167.092 157.775 167.092C158.741 167.092 159.548 166.905 160.196 166.532C160.844 166.159 161.365 165.665 161.76 165.05C162.155 164.435 162.441 163.733 162.616 162.942C162.792 162.152 162.88 161.34 162.88 160.505ZM172.101 149.077L169.302 149.077L169.302 145.652L172.101 145.652L172.101 149.077ZM172.101 171.307C172.101 172.822 171.734 173.926 170.998 174.617C170.262 175.309 169.269 175.655 168.018 175.655C167.513 175.655 167.041 175.611 166.601 175.523L166.601 173.119C166.711 173.141 166.804 173.157 166.881 173.168C166.958 173.179 167.041 173.185 167.128 173.185L167.721 173.185C168.336 173.185 168.753 173.014 168.973 172.674C169.192 172.334 169.302 171.724 169.302 170.846L169.302 152.14L172.101 152.14L172.101 171.307ZM193.442 152.733C193.091 151.064 192.317 149.813 191.12 148.979C189.924 148.144 188.502 147.727 186.855 147.727C185.45 147.727 184.248 147.991 183.249 148.517C182.25 149.044 181.427 149.752 180.779 150.642C180.132 151.531 179.654 152.546 179.347 153.688C179.039 154.83 178.886 156.015 178.886 157.245C178.886 158.584 179.039 159.852 179.347 161.049C179.654 162.245 180.132 163.288 180.779 164.177C181.427 165.066 182.256 165.775 183.266 166.301C184.276 166.828 185.483 167.092 186.888 167.092C187.92 167.092 188.837 166.922 189.638 166.581C190.44 166.241 191.131 165.769 191.713 165.165C192.295 164.561 192.75 163.842 193.08 163.008C193.409 162.174 193.607 161.274 193.673 160.308L196.801 160.308C196.494 163.272 195.473 165.577 193.738 167.224C192.004 168.87 189.633 169.694 186.625 169.694C184.803 169.694 183.211 169.381 181.85 168.755C180.488 168.129 179.358 167.268 178.457 166.17C177.557 165.072 176.882 163.777 176.432 162.284C175.982 160.791 175.757 159.188 175.757 157.475C175.757 155.763 175.998 154.155 176.481 152.651C176.964 151.147 177.672 149.835 178.606 148.715C179.539 147.595 180.702 146.712 182.097 146.064C183.491 145.416 185.088 145.092 186.888 145.092C188.118 145.092 189.281 145.257 190.379 145.586C191.477 145.916 192.454 146.399 193.31 147.035C194.167 147.672 194.88 148.468 195.451 149.423C196.022 150.378 196.395 151.481 196.571 152.733L193.442 152.733ZM198.119 173.415L201.642 173.415L201.642 147.332L198.119 147.332L198.119 145.092L204.277 145.092L204.277 175.655L198.119 175.655L198.119 173.415Z" fill="#ffffff" fill-rule="evenodd" opacity="1" stroke="none"/>
</g>
</g>
</svg>
