<?xml version="1.0" encoding="UTF-8" standalone="no"?>
<!DOCTYPE svg PUBLIC "-//W3C//DTD SVG 1.1//EN" "http://www.w3.org/Graphics/SVG/1.1/DTD/svg11.dtd">
<!-- Created with Vectornator (http://vectornator.io/) -->
<svg height="100%" stroke-miterlimit="10" style="fill-rule:nonzero;clip-rule:evenodd;stroke-linecap:round;stroke-linejoin:round;" version="1.1" viewBox="0 0 260 260" width="100%" xml:space="preserve" xmlns="http://www.w3.org/2000/svg" xmlns:vectornator="http://vectornator.io" xmlns:xlink="http://www.w3.org/1999/xlink">
<defs>
<filter color-interpolation-filters="sRGB" filterUnits="userSpaceOnUse" height="110" id="Filter" width="110" x="127" y="131">
<feDropShadow dx="0" dy="0" flood-color="#000000" flood-opacity="0.5" in="SourceGraphic" result="Shadow" stdDeviation="2"/>
</filter>
</defs>
<g id="com.castsoftware.jeeqr" vectornator:layerName="com.castsoftware.jeeqr">
<g opacity="1" vectornator:layerName="AUTH Copy">
<path d="M32.2972 131.766L32.2972 193.507L132 220.726L132 158.815L32.2972 131.766Z" fill="#a0c5ca" fill-rule="nonzero" opacity="1" stroke="none" vectornator:layerName="Shape"/>
<path d="M75.5244 175.254C75.5244 179.076 73.2739 181.709 70.3015 181.709C69.8344 181.709 69.3673 181.666 68.8577 181.496C68.2633 181.327 67.6688 181.072 67.1168 180.732C66.7346 180.52 66.3949 180.265 66.0552 179.968C64.6964 178.821 63.5499 177.208 62.8705 175.424C62.4459 174.235 62.1911 172.961 62.1911 171.688C62.1911 167.271 65.1635 164.469 68.8577 165.446C70.7261 165.955 72.3822 167.314 73.5711 169.097C73.8259 169.437 74.0382 169.819 74.2081 170.201C74.5053 170.753 74.7601 171.348 74.9299 171.985C75.0573 172.367 75.1423 172.749 75.2272 173.174C75.4395 173.853 75.5244 174.575 75.5244 175.254Z" fill="#7a7a7a" fill-rule="evenodd" opacity="0" stroke="none" vectornator:layerName="Path"/>
<path d="M47.1907 135.639L47.1907 179.989L118.809 199.541L118.809 155.069L47.1907 135.639Z" fill="#1a4f8e" fill-rule="nonzero" opacity="1" stroke="none" vectornator:layerName="Shape 2"/>
<path d="M55.4688 138.121L55.4688 171.746L109.719 186.527L109.719 152.84L106.594 151.996L106.594 181.527L58.9375 168.527L58.9375 139.059L55.4688 138.121Z" fill="#ffffff" fill-rule="nonzero" opacity="1" stroke="none" vectornator:layerName="Curve 1"/>
<path d="M102.151 170.94C102.151 173.049 100.91 174.501 99.2696 174.501C99.0119 174.501 98.7542 174.478 98.4731 174.384C98.1451 174.29 97.8171 174.15 97.5125 173.962C97.3017 173.845 97.1143 173.705 96.9268 173.541C96.1772 172.908 95.1698 171.034 95.1698 171.034C95.1698 171.034 94.7949 169.675 94.7949 168.972C94.7949 166.536 96.4349 164.989 98.4731 165.528C99.5039 165.809 100.418 166.559 101.074 167.543C101.214 167.73 101.331 167.941 101.425 168.152C101.589 168.457 101.73 168.785 101.823 169.136C101.894 169.347 101.94 169.558 101.987 169.792C102.104 170.167 102.151 170.565 102.151 170.94Z" fill="#ffffff" fill-rule="evenodd" opacity="1" stroke="none" vectornator:layerName="Path 2"/>
<path d="M90.1513 166.94C90.1513 169.049 88.9096 170.501 87.2696 170.501C87.0119 170.501 86.7542 170.478 86.4731 170.384C86.1451 170.29 85.8171 170.15 85.5125 169.962C85.3017 169.845 85.1143 169.705 84.9268 169.541C84.1772 168.908 83.5446 168.018 83.1698 167.034C82.9355 166.378 82.7949 165.675 82.7949 164.972C82.7949 162.536 84.4349 160.989 86.4731 161.528C87.5039 161.809 88.4176 162.559 89.0736 163.543C89.2141 163.73 89.3313 163.941 89.425 164.152C89.589 164.457 89.7296 164.785 89.8233 165.136C89.8936 165.347 89.9404 165.558 89.9873 165.792C90.1044 166.167 90.1513 166.565 90.1513 166.94Z" fill="#ffffff" fill-rule="evenodd" opacity="1" stroke="none" vectornator:layerName="Path 3"/>
<path d="M86.0838 161.447L98.7108 165.562L98.9073 174.473L86.0691 170.328L86.0838 161.447Z" fill="#ffffff" fill-rule="nonzero" opacity="1" stroke="none" vectornator:layerName="Rectangle 1"/>
<path d="M132 158.815L132 220.726L231.745 193.889L231.745 131.766L132 158.815Z" fill="#c9f8ff" fill-rule="nonzero" opacity="1" stroke="none" vectornator:layerName="Shape"/>
<path d="M132 158.815L32.2972 131.766L132 104.76L231.745 131.766L132 158.815Z" fill="#bce9f0" fill-rule="nonzero" opacity="1" stroke="none" vectornator:layerName="Shape"/>
<path d="M132.042 136.479C142.643 136.479 151.236 133.78 151.236 130.45C151.236 127.12 142.643 124.42 132.042 124.42C121.442 124.42 112.849 127.12 112.849 130.45C112.849 133.78 121.442 136.479 132.042 136.479Z" fill="#7a7a7a" fill-rule="nonzero" opacity="0" stroke="none" vectornator:layerName="Oval"/>
</g>
<g opacity="1" vectornator:layerName="AUTH">
<path d="M32.2972 62.1762L32.2972 123.917L132 151.136L132 89.2251L32.2972 62.1762Z" fill="#a0c5ca" fill-rule="nonzero" opacity="1" stroke="none" vectornator:layerName="Shape"/>
<path d="M47.1907 83.55L47.1907 127.9L118.809 147.452L118.809 102.98L47.1907 83.55Z" fill="#1a4f8e" fill-rule="nonzero" opacity="1" stroke="none" vectornator:layerName="Shape 1"/>
<path d="M73.176 114.204L73.2047 117.226L103.701 125.005L103.669 122.073L73.176 114.204Z" fill="#ffffff" fill-rule="nonzero" opacity="1" stroke="none" vectornator:layerName="Shape 2"/>
<path d="M72.959 127.726L72.9877 130.747L103.484 138.527L103.452 135.594L72.959 127.726Z" fill="#ffffff" fill-rule="nonzero" opacity="1" stroke="none" vectornator:layerName="Shape 3"/>
<path d="M55.4688 96.5312L55.4688 130.156L109.719 144.938L109.719 111.25L55.4688 96.5312ZM58.9375 101.406L106.594 114.344L106.594 143.938L58.9375 130.938L58.9375 101.406Z" fill="#ffffff" fill-rule="nonzero" opacity="1" stroke="none" vectornator:layerName="Curve 1"/>
<path d="M75.5244 105.665C75.5244 109.486 73.2739 112.119 70.3015 112.119C69.8344 112.119 69.3673 112.076 68.8577 111.907C68.2633 111.737 67.6688 111.482 67.1168 111.142C66.7346 110.93 66.3949 110.675 66.0552 110.378C64.6964 109.231 63.5499 107.618 62.8705 105.834C62.4459 104.645 62.1911 103.372 62.1911 102.098C62.1911 97.6815 65.1635 94.879 68.8577 95.8556C70.7261 96.3652 72.3822 97.724 73.5711 99.5074C73.8259 99.8471 74.0382 100.229 74.2081 100.611C74.5053 101.163 74.7601 101.758 74.9299 102.395C75.0573 102.777 75.1423 103.159 75.2272 103.584C75.4395 104.263 75.5244 104.985 75.5244 105.665Z" fill="#7a7a7a" fill-rule="evenodd" opacity="0" stroke="none" vectornator:layerName="Path"/>
<path d="M132 89.2251L132 151.136L231.745 124.299L231.745 62.1762L132 89.2251Z" fill="#c9f8ff" fill-rule="nonzero" opacity="1" stroke="none" vectornator:layerName="Shape"/>
<path d="M70.1513 114.35C70.1513 116.459 68.9096 117.911 67.2696 117.911C67.0119 117.911 66.7542 117.888 66.4731 117.794C66.1451 117.7 65.8171 117.56 65.5125 117.372C65.3017 117.255 65.1143 117.115 64.9268 116.951C64.1772 116.318 63.5446 115.428 63.1698 114.444C62.9355 113.788 62.7949 113.085 62.7949 112.382C62.7949 109.946 64.4349 108.399 66.4731 108.938C67.5039 109.219 68.4176 109.969 69.0736 110.953C69.2141 111.141 69.3313 111.351 69.425 111.562C69.589 111.867 69.7296 112.195 69.8233 112.546C69.8936 112.757 69.9404 112.968 69.9873 113.202C70.1044 113.577 70.1513 113.975 70.1513 114.35Z" fill="#ffffff" fill-rule="evenodd" opacity="1" stroke="none" vectornator:layerName="Path"/>
<path d="M70.1513 128.35C70.1513 130.459 68.9096 131.911 67.2696 131.911C67.0119 131.911 66.7542 131.888 66.4731 131.794C66.1451 131.7 65.8171 131.56 65.5125 131.372C65.3017 131.255 65.1143 131.115 64.9268 130.951C64.1772 130.318 63.5446 129.428 63.1698 128.444C62.9355 127.788 62.7949 127.085 62.7949 126.382C62.7949 123.946 64.4349 122.399 66.4731 122.938C67.5039 123.219 68.4176 123.969 69.0736 124.953C69.2141 125.141 69.3313 125.351 69.425 125.562C69.589 125.867 69.7296 126.195 69.8233 126.546C69.8936 126.757 69.9404 126.968 69.9873 127.202C70.1044 127.577 70.1513 127.975 70.1513 128.35Z" fill="#ffffff" fill-rule="evenodd" opacity="1" stroke="none" vectornator:layerName="Path 1"/>
<path d="M132 89.2251L32.2972 62.1762L132 35.1699L231.745 62.1762L132 89.2251Z" fill="#bce9f0" fill-rule="nonzero" opacity="1" stroke="none" vectornator:layerName="Shape"/>
<path d="M132.042 66.8896C142.643 66.8896 151.236 64.19 151.236 60.8599C151.236 57.5297 142.643 54.8301 132.042 54.8301C121.442 54.8301 112.849 57.5297 112.849 60.8599C112.849 64.19 121.442 66.8896 132.042 66.8896Z" fill="#7a7a7a" fill-rule="nonzero" opacity="0" stroke="none" vectornator:layerName="Oval"/>
</g>
<path d="M182 236C209.614 236 232 213.614 232 186C232 158.386 209.614 136 182 136C154.386 136 132 158.386 132 186C132 213.614 154.386 236 182 236Z" fill="#ffffff" fill-rule="evenodd" filter="url(#Filter)" stroke="none" vectornator:layerName="Oval" vectornator:shadowAngle="0" vectornator:shadowColor="#000000" vectornator:shadowOffset="0" vectornator:shadowOpacity="0.5" vectornator:shadowRadius="4"/>
<g opacity="1" vectornator:layerName="java">
<g opacity="1" vectornator:layerName="Group">
<path d="M164.31 204.366C163.421 204.366 162.538 204.308 161.664 204.381C160.415 204.476 159.219 204.796 158.17 205.525C158.164 205.532 158.155 205.538 158.146 205.544C157.214 206.23 157.155 207.112 158.063 207.83C158.569 208.233 159.152 208.562 159.747 208.819C161.225 209.466 162.798 209.823 164.384 210.125C167.576 210.726 170.803 211.019 174.044 211.181C177.473 211.352 180.902 211.352 184.331 211.165C188.278 210.949 192.206 210.543 196.046 209.563C197.926 209.084 199.778 208.495 201.398 207.381C202.063 206.926 202.643 206.383 203.002 205.641C203.342 204.933 203.354 204.207 203.121 203.465C203.09 203.371 203.066 203.276 203.023 203.13C203.925 203.569 204.765 204.012 205.378 204.769C206.078 205.62 206.108 206.813 205.504 207.903C204.872 209.035 203.891 209.789 202.799 210.43C200.784 211.617 198.576 212.307 196.328 212.884C193.338 213.647 190.302 214.104 187.238 214.431C183.343 214.849 179.439 215.014 175.526 214.962C172.385 214.916 169.248 214.745 166.126 214.379C163.648 214.086 161.188 213.692 158.772 213.073C156.892 212.591 155.045 212.014 153.34 211.059C152.276 210.464 151.298 209.762 150.66 208.687C149.918 207.43 150.086 206.172 151.126 205.138C152.003 204.268 153.07 203.71 154.226 203.322C156.45 202.571 158.726 202.467 161.038 202.739C161.47 202.791 161.844 202.934 162.206 203.151C162.906 203.566 163.617 203.966 164.31 204.366Z" fill="#5382a1" fill-rule="nonzero" opacity="1" stroke="none" vectornator:layerName="Shape"/>
<path d="M180.285 182.556C180.144 182.459 180.003 182.367 179.865 182.267C177.338 180.426 174.974 178.403 172.891 176.074C171.385 174.386 170.042 172.586 169.205 170.465C168.631 169.024 168.365 167.541 168.671 165.997C168.914 164.77 169.496 163.699 170.223 162.694C171.573 160.842 173.29 159.346 175.032 157.885C177.041 156.2 179.08 154.552 181.074 152.846C182.681 151.469 184.153 149.959 185.272 148.149C186.057 146.885 186.569 145.533 186.597 144.029C186.612 143.226 186.505 142.439 186.229 141.682C186.183 141.56 186.143 141.438 186.1 141.316C186.131 141.303 186.158 141.288 186.186 141.273C186.514 141.865 186.867 142.445 187.167 143.052C187.983 144.697 188.44 146.431 188.382 148.28C188.324 150.004 187.821 151.613 187.036 153.136C185.922 155.303 184.37 157.155 182.711 158.916C180.914 160.824 179.071 162.691 177.295 164.617C176.274 165.725 175.397 166.949 174.872 168.386C174.437 169.583 174.443 170.752 174.931 171.939C176.4 175.528 178.09 179.004 180.2 182.273C180.249 182.346 180.288 182.428 180.331 182.508C180.316 182.52 180.298 182.538 180.285 182.556Z" fill="#e76f00" fill-rule="nonzero" opacity="1" stroke="none" vectornator:layerName="Shape"/>
<path d="M171.649 181.146C170.582 181.464 169.509 181.763 168.45 182.111C167.429 182.447 166.408 182.807 165.509 183.411C165.267 183.573 165.046 183.786 164.862 184.012C164.614 184.311 164.675 184.589 165.04 184.717C165.522 184.885 166.018 185.035 166.521 185.096C167.856 185.248 169.193 185.398 170.536 185.45C174.784 185.636 179.034 185.557 183.282 185.3C185.573 185.163 187.87 185.019 190.155 184.778C192.225 184.562 194.276 184.208 196.337 183.915C196.408 183.905 196.478 183.893 196.583 183.936C196.184 184.263 195.794 184.604 195.38 184.91C194.194 185.789 193.001 186.652 191.804 187.516C191.706 187.583 191.593 187.65 191.479 187.669C188.824 188.068 186.174 188.511 183.506 188.84C179.43 189.344 175.326 189.539 171.22 189.512C168.211 189.494 165.206 189.341 162.234 188.847C160.624 188.581 159.026 188.242 157.575 187.452C157.186 187.238 156.803 186.97 156.505 186.64C155.738 185.804 155.873 184.684 156.781 183.881C157.649 183.118 158.704 182.721 159.793 182.41C162.393 181.671 165.065 181.391 167.751 181.247C169.055 181.18 170.355 181.143 171.655 181.092C171.652 181.113 171.649 181.128 171.649 181.146Z" fill="#5382a1" fill-rule="nonzero" opacity="1" stroke="none" vectornator:layerName="Shape"/>
<path d="M182.739 184.201C183.478 183.542 184.113 182.801 184.643 181.967C185.18 181.116 185.545 180.203 185.594 179.19C185.652 178.043 185.257 177.014 184.662 176.071C183.907 174.878 183.095 173.724 182.337 172.537C181.543 171.298 181 169.961 180.908 168.475C180.844 167.385 181.012 166.314 181.328 165.273C182.07 162.826 183.628 160.976 185.674 159.499C187.9 157.897 190.409 156.911 193.031 156.185C194.982 155.644 196.966 155.281 199.012 155.141C198.92 155.205 198.828 155.269 198.736 155.327C196.512 156.728 194.356 158.22 192.289 159.835C190.872 160.94 189.51 162.105 188.327 163.46C188.014 163.824 187.729 164.211 187.45 164.602C186.569 165.823 186.582 167.15 187.103 168.481C187.459 169.378 187.937 170.23 188.367 171.096C188.866 172.11 189.443 173.095 189.869 174.142C190.783 176.37 190.406 178.467 189.004 180.39C187.818 182.013 186.189 183.048 184.34 183.759C183.828 183.954 183.297 184.107 182.773 184.278C182.76 184.25 182.748 184.229 182.739 184.201Z" fill="#e76f00" fill-rule="nonzero" opacity="1" stroke="none" vectornator:layerName="Shape"/>
<path d="M193.881 194.914C193.43 195.088 193.016 195.253 192.59 195.402C189.606 196.44 186.539 197.117 183.407 197.502C180.552 197.85 177.685 197.993 174.808 197.865C171.83 197.725 168.877 197.426 166.003 196.574C164.911 196.251 163.835 195.872 162.912 195.176C162.648 194.981 162.4 194.731 162.206 194.462C161.835 193.943 161.918 193.281 162.387 192.643C162.973 191.847 163.783 191.328 164.651 190.897C165.537 190.455 166.469 190.156 167.457 190.04C167.616 190.022 167.776 190.022 167.997 190.009C167.794 190.223 167.619 190.391 167.469 190.58C166.963 191.19 167.04 191.798 167.693 192.259C168.463 192.802 169.361 193.031 170.269 193.205C173.498 193.824 176.755 193.806 180.022 193.589C182.782 193.406 185.514 193.04 188.167 192.262C188.949 192.033 189.51 192.115 190.158 192.561C191.268 193.33 192.445 194.007 193.589 194.725C193.678 194.776 193.761 194.831 193.881 194.914Z" fill="#5382a1" fill-rule="nonzero" opacity="1" stroke="none" vectornator:layerName="Shape"/>
<path d="M170.269 198.292C170.14 198.491 170.03 198.637 169.947 198.796C169.696 199.272 169.788 199.684 170.22 200.008C170.741 200.401 171.358 200.557 171.983 200.685C173.787 201.048 175.615 201.042 177.439 200.975C179.491 200.902 181.537 200.694 183.542 200.246C184.837 199.959 186.1 199.531 187.382 199.174C187.502 199.141 187.673 199.135 187.769 199.196C189.342 200.2 190.903 201.213 192.47 202.226C192.51 202.251 192.544 202.287 192.639 202.361C192.013 202.672 191.44 202.983 190.848 203.246C188.75 204.164 186.545 204.711 184.294 205.092C181.334 205.593 178.347 205.788 175.345 205.706C172.928 205.641 170.533 205.425 168.205 204.723C167.211 204.421 166.245 204.048 165.469 203.322C164.749 202.638 164.608 201.802 165.068 200.929C165.408 200.279 165.917 199.782 166.524 199.376C167.644 198.634 168.889 198.326 170.269 198.292Z" fill="#5382a1" fill-rule="nonzero" opacity="1" stroke="none" vectornator:layerName="Shape"/>
<path d="M160.737 216.183C161.467 216.339 162.197 216.494 162.927 216.644C165.761 217.224 168.616 217.663 171.493 217.987C175.55 218.435 179.617 218.624 183.696 218.505C189.305 218.347 194.838 217.675 200.235 216.073C203.274 215.173 206.203 214.007 208.859 212.258C209.779 211.654 210.617 210.924 211.494 210.25C211.58 210.183 211.662 210.106 211.794 209.997C211.785 210.689 211.644 211.294 211.405 211.874C211.003 212.847 210.371 213.659 209.604 214.367C207.866 215.969 205.792 217.004 203.603 217.837C200.824 218.893 197.941 219.549 195.003 220.001C191.464 220.55 187.907 220.761 184.328 220.721C181.546 220.691 178.773 220.489 176.013 220.138C172.1 219.635 168.254 218.817 164.497 217.611C163.222 217.199 161.97 216.726 160.71 216.277C160.719 216.25 160.728 216.219 160.737 216.183Z" fill="#5382a1" fill-rule="nonzero" opacity="1" stroke="none" vectornator:layerName="Shape"/>
<path d="M197.77 182.871C198.371 182.535 198.963 182.163 199.588 181.876C200.698 181.372 201.873 181.119 203.103 181.116C205.964 181.107 208.255 183.02 208.657 185.84C209.166 189.384 207.976 192.286 205.207 194.545C203.232 196.15 200.925 197.087 198.487 197.731C197.862 197.899 197.227 198.015 196.595 198.152C196.481 198.173 196.362 198.176 196.224 198.137C196.291 198.082 196.359 198.03 196.426 197.975C198.263 196.62 199.975 195.131 201.431 193.37C202.569 191.996 203.541 190.525 204.02 188.789C204.28 187.842 204.434 186.881 204.093 185.926C203.603 184.549 202.575 183.707 201.241 183.2C200.128 182.779 198.984 182.74 197.819 182.953C197.8 182.926 197.785 182.898 197.77 182.871Z" fill="#5382a1" fill-rule="nonzero" opacity="1" stroke="none" vectornator:layerName="Shape"/>
</g>
</g>
</g>
</svg>
