<?xml version="1.0" encoding="UTF-8" standalone="no"?>
<!DOCTYPE svg PUBLIC "-//W3C//DTD SVG 1.1//EN" "http://www.w3.org/Graphics/SVG/1.1/DTD/svg11.dtd">
<!-- Created with Vectornator (http://vectornator.io/) -->
<svg height="100%" stroke-miterlimit="10" style="fill-rule:nonzero;clip-rule:evenodd;stroke-linecap:round;stroke-linejoin:round;" version="1.1" viewBox="0 0 200 200" width="100%" xml:space="preserve" xmlns="http://www.w3.org/2000/svg" xmlns:xlink="http://www.w3.org/1999/xlink">
<defs>
<filter color-interpolation-filters="sRGB" filterUnits="userSpaceOnUse" height="110" id="Filter" width="110" x="88.3561" y="89.5069">
<feDropShadow dx="0" dy="0" flood-color="#000000" flood-opacity="0.5" in="SourceGraphic" result="Shadow" stdDeviation="2"/>
</filter>
</defs>
<g id="com.castsoftware.sqlanalyzer">
<g opacity="1">
<g opacity="1">
<path d="M163.11 121.218L163.11 88.6867C149.103 96.7051 122.404 102.133 91.7251 102.133C60.1105 102.133 32.7309 96.3672 19.1098 87.9444L19.1098 120.509C32.7309 128.932 60.1105 134.697 91.7251 134.697C122.43 134.69 149.122 129.25 163.11 121.218Z" fill="#4a4a4a" fill-rule="evenodd" opacity="1" stroke="none"/>
<path d="M91.7251 81.1254C122.43 81.1254 149.129 75.6848 163.11 67.653L163.11 24.817L19.1098 24.817L19.1098 66.9439C32.7309 75.36 60.1105 81.1254 91.7251 81.1254Z" fill="#9b9b9b" fill-rule="evenodd" opacity="1" stroke="none"/>
<path d="M91.7251 155.697C60.1105 155.697 32.7309 149.932 19.1098 141.503L19.1098 171.715C19.1229 182.39 51.3527 191.038 91.1098 191.038C130.867 191.038 163.097 182.39 163.11 171.715L163.11 142.245C149.103 150.27 122.404 155.697 91.7251 155.697Z" fill="#000000" fill-rule="evenodd" opacity="1" stroke="none"/>
</g>
<path d="M91.1098 5.49312C130.873 5.49312 163.11 14.1478 163.11 24.817C163.11 35.4929 130.873 44.1476 91.1098 44.1476C51.3461 44.1476 19.1098 35.4929 19.1098 24.817C19.1098 14.1412 51.3461 5.49312 91.1098 5.49312Z" fill="#cfcecf" fill-rule="evenodd" opacity="1" stroke="none"/>
</g>
<path d="M143.356 194.507C170.97 194.507 193.356 172.121 193.356 144.507C193.356 116.893 170.97 94.5069 143.356 94.5069C115.742 94.5069 93.3561 116.893 93.3561 144.507C93.3561 172.121 115.742 194.507 143.356 194.507Z" fill="#ffffff" fill-rule="evenodd" filter="url(#Filter)" stroke="none"/>
<path d="M112.571 144.507L112.571 175.292L174.141 175.292L174.141 113.722L112.571 113.722L112.571 144.507ZM150.331 143.425L150.331 146.19L142.394 146.19L142.394 171.444L135.9 171.444L135.9 146.19L127.963 146.19L127.963 140.659L150.331 140.659L150.331 143.425ZM165.964 140.995C166.95 141.188 168.057 141.452 168.441 141.597L169.091 141.861L169.091 144.868C169.091 146.527 169.043 147.874 168.995 147.874C168.946 147.874 168.441 147.609 167.864 147.297C165.7 146.07 162.236 145.613 160.12 146.239C159.615 146.383 158.869 146.84 158.484 147.225C157.907 147.778 157.787 148.115 157.787 149.004C157.787 149.966 157.907 150.231 158.701 150.977C159.206 151.458 161.082 152.564 162.91 153.478C166.758 155.378 168.706 156.989 169.596 158.986C170.389 160.765 170.414 164.517 169.644 166.201C168.922 167.788 167.335 169.4 165.772 170.145C162.453 171.709 157.041 171.853 152.808 170.458L151.293 169.953L151.293 163.267L152.495 164.133C154.059 165.263 156.079 165.96 158.196 166.105C160.312 166.249 161.875 165.864 162.837 164.95C163.439 164.397 163.559 164.084 163.559 163.171C163.559 161.415 162.549 160.501 158.412 158.481C154.756 156.677 153.602 155.859 152.52 154.272C150.114 150.784 150.836 145.445 154.059 143.016C156.801 140.923 161.346 140.154 165.964 140.995Z" fill="#007acc" fill-rule="nonzero" opacity="1" stroke="none"/>
</g>
</svg>
