<?xml version="1.0" encoding="UTF-8" standalone="no"?>
<!DOCTYPE svg PUBLIC "-//W3C//DTD SVG 1.1//EN" "http://www.w3.org/Graphics/SVG/1.1/DTD/svg11.dtd">
<!-- Created with Vectornator (http://vectornator.io/) -->
<svg height="100%" stroke-miterlimit="10" style="fill-rule:nonzero;clip-rule:evenodd;stroke-linecap:round;stroke-linejoin:round;" version="1.1" viewBox="0 0 200 200" width="100%" xml:space="preserve" xmlns="http://www.w3.org/2000/svg" xmlns:vectornator="http://vectornator.io" xmlns:xlink="http://www.w3.org/1999/xlink">
<defs>
<filter color-interpolation-filters="sRGB" filterUnits="userSpaceOnUse" height="110" id="Filter" width="110" x="88.3561" y="89.5069">
<feDropShadow dx="0" dy="0" flood-color="#000000" flood-opacity="0.5" in="SourceGraphic" result="Shadow" stdDeviation="2"/>
</filter>
</defs>
<g id="com.castsoftware.sqlanalyzer" vectornator:layerName="com.castsoftware.sqlanalyzer">
<g opacity="1" vectornator:layerName="database">
<g opacity="1" vectornator:layerName="Group">
<path d="M163.11 121.218L163.11 88.6867C149.103 96.7051 122.404 102.133 91.7251 102.133C60.1105 102.133 32.7309 96.3672 19.1098 87.9444L19.1098 120.509C32.7309 128.932 60.1105 134.697 91.7251 134.697C122.43 134.69 149.122 129.25 163.11 121.218Z" fill="#771c96" fill-rule="evenodd" opacity="1" stroke="none" vectornator:layerName="Shape"/>
<path d="M91.7251 81.1254C122.43 81.1254 149.129 75.6848 163.11 67.653L163.11 24.817L19.1098 24.817L19.1098 66.9439C32.7309 75.36 60.1105 81.1254 91.7251 81.1254Z" fill="#b646db" fill-rule="evenodd" opacity="1" stroke="none" vectornator:layerName="Shape"/>
<path d="M91.7251 155.697C60.1105 155.697 32.7309 149.932 19.1098 141.503L19.1098 171.715C19.1229 182.39 51.3527 191.038 91.1098 191.038C130.867 191.038 163.097 182.39 163.11 171.715L163.11 142.245C149.103 150.27 122.404 155.697 91.7251 155.697Z" fill="#350a43" fill-rule="evenodd" opacity="1" stroke="none" vectornator:layerName="Shape"/>
</g>
<path d="M91.1098 5.49312C130.873 5.49312 163.11 14.1478 163.11 24.817C163.11 35.4929 130.873 44.1476 91.1098 44.1476C51.3461 44.1476 19.1098 35.4929 19.1098 24.817C19.1098 14.1412 51.3461 5.49312 91.1098 5.49312Z" fill="#d69de9" fill-rule="evenodd" opacity="1" stroke="none" vectornator:layerName="Shape"/>
</g>
<path d="M143.356 194.507C170.97 194.507 193.356 172.121 193.356 144.507C193.356 116.893 170.97 94.5069 143.356 94.5069C115.742 94.5069 93.3561 116.893 93.3561 144.507C93.3561 172.121 115.742 194.507 143.356 194.507Z" fill="#ffffff" fill-rule="evenodd" filter="url(#Filter)" stroke="none" vectornator:layerName="Oval" vectornator:shadowAngle="0" vectornator:shadowColor="#000000" vectornator:shadowOffset="0" vectornator:shadowOpacity="0.5" vectornator:shadowRadius="4"/>
<g opacity="1" vectornator:layerName="java">
<g opacity="1" vectornator:layerName="Group">
<path d="M126.667 164.676C125.778 164.676 124.895 164.618 124.021 164.692C122.773 164.786 121.577 165.107 120.528 165.836C120.522 165.842 120.512 165.848 120.503 165.854C119.571 166.541 119.513 167.423 120.42 168.14C120.926 168.543 121.509 168.873 122.104 169.129C123.582 169.776 125.156 170.133 126.741 170.435C129.934 171.037 133.16 171.33 136.402 171.491C139.83 171.662 143.259 171.662 146.688 171.476C150.635 171.259 154.564 170.853 158.403 169.874C160.283 169.395 162.136 168.806 163.755 167.692C164.42 167.237 165 166.694 165.359 165.952C165.699 165.244 165.711 164.518 165.478 163.776C165.448 163.681 165.423 163.587 165.38 163.44C166.282 163.88 167.122 164.322 167.736 165.079C168.435 165.931 168.466 167.124 167.861 168.213C167.23 169.346 166.248 170.1 165.156 170.74C163.141 171.928 160.933 172.617 158.685 173.194C155.695 173.957 152.659 174.415 149.595 174.742C145.7 175.16 141.796 175.325 137.883 175.273C134.742 175.227 131.605 175.056 128.483 174.69C126.005 174.397 123.545 174.003 121.129 173.383C119.249 172.901 117.403 172.324 115.697 171.369C114.633 170.774 113.655 170.072 113.017 168.998C112.275 167.74 112.443 166.483 113.483 165.448C114.36 164.579 115.428 164.02 116.584 163.632C118.807 162.882 121.083 162.778 123.395 163.05C123.828 163.101 124.202 163.245 124.564 163.462C125.263 163.877 125.974 164.276 126.667 164.676Z" fill="#5382a1" fill-rule="nonzero" opacity="1" stroke="none" vectornator:layerName="Shape"/>
<path d="M142.643 142.867C142.502 142.769 142.361 142.678 142.223 142.577C139.695 140.737 137.331 138.713 135.249 136.385C133.743 134.697 132.399 132.896 131.562 130.775C130.989 129.335 130.722 127.851 131.029 126.307C131.271 125.08 131.854 124.009 132.58 123.005C133.93 121.152 135.647 119.657 137.389 118.195C139.398 116.51 141.437 114.862 143.431 113.156C145.038 111.78 146.51 110.269 147.629 108.459C148.414 107.196 148.927 105.844 148.954 104.339C148.97 103.537 148.862 102.749 148.586 101.992C148.54 101.87 148.5 101.748 148.457 101.626C148.488 101.614 148.516 101.599 148.543 101.583C148.871 102.175 149.224 102.755 149.525 103.363C150.34 105.008 150.797 106.741 150.739 108.591C150.681 110.315 150.178 111.923 149.393 113.446C148.28 115.613 146.728 117.466 145.069 119.227C143.271 121.134 141.428 123.002 139.653 124.928C138.631 126.036 137.754 127.259 137.23 128.697C136.794 129.893 136.8 131.062 137.288 132.249C138.757 135.838 140.447 139.315 142.557 142.583C142.606 142.656 142.646 142.739 142.689 142.818C142.673 142.83 142.655 142.849 142.643 142.867Z" fill="#e76f00" fill-rule="nonzero" opacity="1" stroke="none" vectornator:layerName="Shape"/>
<path d="M134.006 141.457C132.939 141.774 131.866 142.074 130.808 142.421C129.786 142.757 128.765 143.117 127.867 143.722C127.624 143.883 127.404 144.097 127.22 144.323C126.971 144.622 127.032 144.9 127.397 145.028C127.879 145.196 128.376 145.345 128.879 145.406C130.213 145.559 131.55 145.708 132.893 145.76C137.141 145.946 141.391 145.867 145.639 145.611C147.93 145.473 150.227 145.33 152.512 145.089C154.582 144.872 156.634 144.518 158.695 144.225C158.765 144.216 158.836 144.204 158.94 144.247C158.541 144.573 158.152 144.915 157.738 145.22C156.551 146.099 155.358 146.963 154.162 147.826C154.064 147.894 153.95 147.961 153.837 147.979C151.181 148.379 148.531 148.821 145.863 149.151C141.787 149.655 137.684 149.85 133.577 149.822C130.569 149.804 127.563 149.652 124.591 149.157C122.981 148.892 121.383 148.553 119.933 147.762C119.543 147.549 119.16 147.28 118.862 146.951C118.096 146.114 118.231 144.994 119.138 144.192C120.006 143.429 121.061 143.032 122.15 142.721C124.751 141.982 127.422 141.701 130.108 141.558C131.412 141.491 132.712 141.454 134.013 141.402C134.01 141.423 134.006 141.439 134.006 141.457Z" fill="#5382a1" fill-rule="nonzero" opacity="1" stroke="none" vectornator:layerName="Shape"/>
<path d="M145.096 144.512C145.835 143.853 146.47 143.111 147.001 142.278C147.537 141.427 147.902 140.514 147.951 139.501C148.01 138.353 147.614 137.325 147.019 136.382C146.265 135.188 145.452 134.035 144.694 132.847C143.9 131.608 143.357 130.272 143.265 128.785C143.201 127.696 143.37 126.625 143.685 125.584C144.428 123.136 145.986 121.287 148.031 119.81C150.258 118.207 152.766 117.222 155.388 116.495C157.339 115.955 159.323 115.592 161.369 115.451C161.277 115.515 161.185 115.58 161.093 115.638C158.869 117.038 156.713 118.531 154.646 120.145C153.229 121.25 151.868 122.416 150.684 123.771C150.371 124.134 150.086 124.522 149.807 124.912C148.927 126.133 148.939 127.461 149.46 128.791C149.816 129.689 150.294 130.54 150.724 131.407C151.224 132.42 151.8 133.406 152.227 134.453C153.14 136.681 152.763 138.777 151.362 140.7C150.175 142.324 148.546 143.358 146.697 144.07C146.185 144.265 145.654 144.417 145.13 144.588C145.118 144.561 145.105 144.54 145.096 144.512Z" fill="#e76f00" fill-rule="nonzero" opacity="1" stroke="none" vectornator:layerName="Shape"/>
<path d="M156.238 155.224C155.787 155.398 155.373 155.563 154.947 155.713C151.963 156.75 148.896 157.428 145.765 157.812C142.91 158.16 140.042 158.304 137.165 158.176C134.187 158.035 131.234 157.736 128.36 156.885C127.269 156.561 126.192 156.183 125.269 155.487C125.005 155.292 124.757 155.041 124.564 154.773C124.193 154.254 124.275 153.592 124.745 152.954C125.33 152.157 126.14 151.638 127.008 151.208C127.894 150.765 128.827 150.466 129.814 150.35C129.974 150.332 130.133 150.332 130.354 150.32C130.151 150.534 129.977 150.701 129.826 150.891C129.32 151.501 129.397 152.108 130.05 152.569C130.82 153.112 131.719 153.341 132.626 153.515C135.856 154.135 139.113 154.117 142.379 153.9C145.139 153.717 147.872 153.35 150.524 152.572C151.307 152.343 151.868 152.426 152.515 152.871C153.625 153.64 154.803 154.318 155.947 155.035C156.036 155.087 156.118 155.142 156.238 155.224Z" fill="#5382a1" fill-rule="nonzero" opacity="1" stroke="none" vectornator:layerName="Shape"/>
<path d="M132.626 158.603C132.498 158.801 132.387 158.948 132.304 159.106C132.053 159.583 132.145 159.995 132.577 160.318C133.099 160.712 133.715 160.867 134.341 160.996C136.144 161.359 137.972 161.353 139.797 161.286C141.848 161.212 143.894 161.005 145.9 160.556C147.194 160.269 148.457 159.842 149.739 159.485C149.859 159.451 150.031 159.445 150.126 159.506C151.699 160.51 153.26 161.524 154.827 162.537C154.867 162.561 154.901 162.598 154.996 162.671C154.37 162.982 153.797 163.294 153.205 163.556C151.107 164.475 148.902 165.021 146.651 165.403C143.692 165.903 140.704 166.098 137.702 166.016C135.285 165.952 132.89 165.735 130.562 165.033C129.569 164.731 128.603 164.359 127.827 163.632C127.106 162.949 126.965 162.113 127.425 161.24C127.765 160.59 128.275 160.092 128.882 159.686C130.001 158.945 131.246 158.636 132.626 158.603Z" fill="#5382a1" fill-rule="nonzero" opacity="1" stroke="none" vectornator:layerName="Shape"/>
<path d="M123.095 176.493C123.825 176.649 124.554 176.805 125.284 176.954C128.118 177.534 130.973 177.974 133.85 178.297C137.907 178.746 141.974 178.935 146.053 178.816C151.662 178.657 157.195 177.986 162.593 176.384C165.632 175.483 168.561 174.317 171.216 172.569C172.137 171.964 172.974 171.235 173.851 170.56C173.937 170.493 174.02 170.417 174.151 170.307C174.142 171 174.001 171.604 173.762 172.184C173.36 173.158 172.728 173.969 171.962 174.677C170.223 176.28 168.15 177.314 165.96 178.148C163.181 179.204 160.299 179.86 157.36 180.311C153.821 180.861 150.264 181.071 146.685 181.032C143.903 181.001 141.131 180.8 138.371 180.449C134.457 179.945 130.611 179.127 126.855 177.922C125.579 177.51 124.327 177.037 123.067 176.588C123.076 176.561 123.085 176.53 123.095 176.493Z" fill="#5382a1" fill-rule="nonzero" opacity="1" stroke="none" vectornator:layerName="Shape"/>
<path d="M160.127 143.181C160.728 142.846 161.32 142.473 161.945 142.186C163.056 141.683 164.23 141.43 165.46 141.427C168.321 141.417 170.612 143.331 171.014 146.151C171.523 149.694 170.333 152.597 167.564 154.855C165.589 156.46 163.283 157.397 160.844 158.041C160.219 158.209 159.584 158.325 158.952 158.462C158.839 158.484 158.719 158.487 158.581 158.447C158.649 158.392 158.716 158.34 158.783 158.285C160.621 156.93 162.332 155.441 163.789 153.68C164.926 152.307 165.899 150.836 166.377 149.099C166.638 148.153 166.791 147.192 166.451 146.236C165.96 144.86 164.933 144.018 163.598 143.511C162.485 143.09 161.341 143.05 160.176 143.264C160.157 143.236 160.142 143.209 160.127 143.181Z" fill="#5382a1" fill-rule="nonzero" opacity="1" stroke="none" vectornator:layerName="Shape"/>
</g>
</g>
</g>
</svg>
