<?xml version="1.0" encoding="UTF-8" standalone="no"?>
<!DOCTYPE svg PUBLIC "-//W3C//DTD SVG 1.1//EN" "http://www.w3.org/Graphics/SVG/1.1/DTD/svg11.dtd">
<!-- Created with Vectornator (http://vectornator.io/) -->
<svg height="100%" stroke-miterlimit="10" style="fill-rule:nonzero;clip-rule:evenodd;stroke-linecap:round;stroke-linejoin:round;" version="1.1" viewBox="0 0 32 32" width="100%" xml:space="preserve" xmlns="http://www.w3.org/2000/svg" xmlns:vectornator="http://vectornator.io" xmlns:xlink="http://www.w3.org/1999/xlink">
<defs/>
<clipPath id="ArtboardFrame">
<rect height="32" width="32" x="0" y="0"/>
</clipPath>
<g clip-path="url(#ArtboardFrame)" id="Untitled" vectornator:layerName="Untitled">
<path d="M16.9062 0.03125C15.0287-0.0743526 13.1037 0.158459 11.2188 0.75C4.46952 2.8681 0.0316302 9.11119 0.03125 16L16 16L16 18.9062L18.7812 18.9062C20.2216 18.9062 21.4737 17.8619 21.6875 16.4375C21.8136 15.6035 21.5804 14.7652 21.0312 14.125C20.4821 13.4848 19.6872 13.1273 18.8438 13.125L5.8125 13.125L13.0625 5.875L13.0625 8.71875L18.8125 8.71875C22.2557 8.71875 25.5682 11.4986 26.0625 14.9062C26.3756 16.9416 25.8093 19.0044 24.5 20.5938C23.1907 22.1831 21.2763 23.1364 19.2188 23.2188L25.125 29.125C31.6135 24.6145 33.8533 16.0643 30.375 8.96875C27.7663 3.6471 22.5388 0.348058 16.9062 0.03125ZM16 26.2188L16 32C17.6997 32.0023 19.3912 31.7359 21 31.1875L16 26.2188Z" fill="#cccccc" fill-rule="nonzero" opacity="1" stroke="none"/>
<path d="M12.5 18C13.3284 18 14 18.6716 14 19.5L14 26.5C14 27.3284 13.3284 28 12.5 28C11.6716 28 11 27.3284 11 26.5L10.9993 23.313L4.18198 30.1317C3.59619 30.7175 2.64645 30.7175 2.06066 30.1317C1.47487 29.5459 1.47487 28.5962 2.06066 28.0104L9.07032 21L5.5 21C4.67157 21 4 20.3284 4 19.5C4 18.6716 4.67157 18 5.5 18L12.5 18L12.5 18Z" fill="#5a5b59" fill-rule="evenodd" opacity="1" stroke="none"/>
</g>
</svg>
