<?xml version="1.0" encoding="UTF-8" standalone="no"?>
<!DOCTYPE svg PUBLIC "-//W3C//DTD SVG 1.1//EN" "http://www.w3.org/Graphics/SVG/1.1/DTD/svg11.dtd">
<!-- Created with Vectornator (http://vectornator.io/) -->
<svg height="100%" stroke-miterlimit="10" style="fill-rule:nonzero;clip-rule:evenodd;stroke-linecap:round;stroke-linejoin:round;" version="1.1" viewBox="0 0 92 92" width="100%" xml:space="preserve" xmlns="http://www.w3.org/2000/svg" xmlns:vectornator="http://vectornator.io" xmlns:xlink="http://www.w3.org/1999/xlink">
<defs/>
<clipPath id="ArtboardFrame">
<rect height="92" width="92" x="0" y="0"/>
</clipPath>
<g clip-path="url(#ArtboardFrame)" id="autosar-cpp-2014" vectornator:layerName="autosar-cpp-2014">
<g opacity="1">
<path d="M69.1444 92C56.5214 92 46.2886 81.767 46.2886 69.1444C46.2886 56.5215 56.5214 46.2886 69.1444 46.2886C81.7669 46.2886 92 56.5215 92 69.1444C92 81.767 81.7669 92 69.1444 92M69.1562 48.125C57.5433 48.125 48.125 57.5434 48.125 69.1562C48.125 80.7691 57.5433 90.1563 69.1562 90.1562C80.7689 90.1562 90.1562 80.7691 90.1562 69.1562C90.1562 57.5434 80.769 48.125 69.1562 48.125Z" fill="#000000" fill-rule="evenodd" opacity="1" stroke="none"/>
</g>
<path d="M8 0C3.58172 0 0 3.58172 0 8L0 63C0 67.4183 3.58172 71 8 71L45.1562 71C45.1251 70.4939 45 70.014 45 69.5C45 56.1407 55.7061 45.336 69 45.0625L69 8C69 3.58172 65.4183 0 61 0L8 0ZM34.2812 32.0938C35.9267 32.1297 37.6431 32.4601 38.8125 33L38.4375 33.2188C37.2792 32.7521 35.9068 32.503 34.3438 32.4688C32.599 32.5077 31.1207 32.8052 29.875 33.4062C28.6291 34.0074 28 34.7167 28 35.5312C28 36.1054 28.28 36.6256 28.875 37.0938L28 37.1562C27.4324 36.6633 27.1562 36.1253 27.1562 35.5312C27.1563 34.6173 27.852 33.8307 29.25 33.1562C30.6476 32.4818 32.3239 32.1375 34.2812 32.0938ZM52.2812 32.9062L55.0625 32.9062L59.125 38.1562L48.2812 38.1562L52.2812 32.9062ZM4.9375 32.9375L7.65625 32.9375L11.625 38.0938L1 38.0938L4.9375 32.9375ZM12 32.9375L14.6562 32.9375L14.6562 36.125C14.672 36.4159 14.7398 36.5921 14.8438 36.6562C14.9478 36.721 15.3292 36.75 16 36.75L17.3125 36.75L17.3125 32.9375L20 32.9375L20 38.0938L16 38.0938C14.9461 38.0938 14.2119 38.0497 13.8125 37.9688C13.1898 37.9046 12.7402 37.7436 12.4688 37.4688C12.1493 37.2108 12 36.7546 12 36.125L12 32.9375ZM20.6875 32.9375L27.3438 32.9375L27.3438 34.0312L25.1875 34.0312L25.1875 34.9062L25.1875 38.0938L22.75 38.0938L22.75 34.0312L20.6875 34.0312L20.6875 32.9375ZM42.4375 32.9375L47.7812 32.9375L48.3125 32.9375L48.3125 33.9062L47.7812 33.9062L45.9062 33.9062C45.5199 33.9062 45.0312 33.828 45.0312 34.1875C45.0312 34.5019 45.5118 34.6515 45.875 34.7812C46.5776 35.0323 47.0612 35.2166 47.4688 35.4062C47.8757 35.5958 48.25 35.8447 48.25 36.4375C48.25 36.965 47.9535 37.3747 47.375 37.6875C46.7965 38.0005 45.9795 38.1562 44.9375 38.1562L41.4062 38.1562L41.4062 36.8125L44.125 36.8125C44.2224 36.8125 44.793 36.8125 44.875 36.8125C45.3145 36.8125 45.5313 36.6847 45.5312 36.4375C45.5312 36.1577 45.169 35.8886 44.4688 35.625C43.2629 35.2296 42.6139 35.0038 42.5 34.9375C41.8158 34.6744 41.4385 34.2776 41.4062 33.75C41.3739 33.3383 41.7208 32.9375 42.4375 32.9375ZM59.8125 32.9375L64.7188 32.9375C65.7122 32.9375 66.4908 33.1065 67.0938 33.4688C67.5988 33.7817 67.8437 34.1346 67.8438 34.5625C67.8438 35.1396 67.4694 35.5077 66.6875 35.6562C67.5508 36.0845 67.9687 36.6813 67.9688 37.4062L67.9688 38.1562L65.2812 38.1562L65.2812 37.375C65.2973 36.9798 65.1259 36.6534 64.7188 36.4062C64.3766 36.1922 64.0448 36.0937 63.7188 36.0938L62.0312 36.0938L62.0312 38.1562L59.8125 38.1562L59.8125 35.4688L59.8125 32.9375ZM39.6875 32.9688L40.2188 33.8438L38.875 33.5312L39.6875 32.9688ZM36.8438 33.4688C37.7345 33.6416 38.2436 33.9854 38.375 34.5C38.5095 35.0273 38.2264 35.5634 37.5312 36.1562C36.8362 36.7494 35.9269 37.2091 34.8125 37.5C33.7097 37.7877 32.7355 37.8354 31.8438 37.6562C30.9515 37.4776 30.4159 37.1209 30.2812 36.5938C30.15 36.0793 30.4344 35.523 31.125 34.9375C31.8153 34.3521 32.716 33.906 33.8125 33.5938C34.9451 33.3245 35.9534 33.296 36.8438 33.4688ZM40.7188 34.1562C41.1399 34.4392 41.5 35.0317 41.5 35.5312C41.5 36.4669 40.8152 37.2839 39.4062 37.9688C37.9972 38.6542 36.2911 39 34.3125 39C32.7428 39 31.3418 38.7843 30.125 38.3438L30.5 37.9688C31.6565 38.4423 32.8391 38.625 34.375 38.625C36.1385 38.625 37.6505 38.3296 38.9062 37.7188C40.1621 37.1084 40.7812 36.3652 40.7812 35.5312C40.7812 35.0439 40.5749 34.5984 40.125 34.1875L40.7188 34.1562ZM28.1562 37.5312L29.5938 38.4375L28.4688 38.5938L28.1562 37.5312ZM62.0312 34.1875L62.0312 34.8438L64.7188 34.8438C65.0116 34.8273 65.1846 34.7144 65.25 34.5C65.1846 34.2858 65.0116 34.1875 64.7188 34.1875L62.0312 34.1875ZM6.28125 34.4375L4.625 36.8125L7.9375 36.8125L6.28125 34.4375ZM53.6562 34.4375L51.9688 36.8438L55.375 36.8438L53.6562 34.4375ZM35.5625 34.7188C35.1328 34.7067 34.6509 34.7609 34.0938 34.9062C33.536 35.0517 33.0826 35.2496 32.7188 35.4688C32.3545 35.6881 32.2003 35.898 32.25 36.0938C32.3001 36.2899 32.5414 36.382 33 36.4062C33.4586 36.4303 33.9217 36.4078 34.4062 36.2812C34.9453 36.1668 35.4127 35.977 35.7812 35.75C36.1499 35.523 36.3193 35.2827 36.2812 35.0312C36.2433 34.8323 35.992 34.7308 35.5625 34.7188Z" fill="#000000" fill-rule="nonzero" opacity="1" stroke="none"/>
<path d="M68.9688 51C68.4045 51.0072 67.8198 51.1661 67.25 51.5C65.5544 52.4932 57.0923 57.3259 54.5625 58.7812C53.5207 59.3803 53.0002 60.3084 53 61.5C52.9984 66.4064 53.0016 71.3122 53 76.2188C53.0003 76.8062 53.125 77.3326 53.375 77.7812C53.632 78.2427 54.0345 78.6339 54.5625 78.9375C57.0924 80.3928 65.5547 85.2253 67.25 86.2188C68.3901 86.8869 69.5077 86.9086 70.6562 86.25C74.9151 83.8077 79.1768 81.3772 83.4375 78.9375C83.9655 78.6341 84.368 78.2424 84.625 77.7812C84.8747 77.3326 84.9998 76.8063 85 76.2188C85 76.2188 85.0016 66.4065 85 61.5C84.9997 60.8994 84.8553 60.3618 84.5938 59.9062C84.3368 59.4583 83.9536 59.0781 83.4375 58.7812C79.1774 56.3416 74.915 53.9109 70.6562 51.4688C70.0822 51.1396 69.533 50.9928 68.9688 51ZM68.9688 58.4375C72.9469 58.4375 76.4209 60.545 78.2812 63.6562L73.5938 66.25C72.6662 64.7048 70.9464 63.6875 68.9688 63.6875C66.0115 63.6875 63.5938 66.0098 63.5938 68.875C63.5928 69.778 63.8488 70.6541 64.3125 71.4375C65.2355 72.9987 66.9783 74.0625 68.9688 74.0625C70.9715 74.0625 72.7067 72.9841 73.625 71.4062L78.3125 74.0312C76.4595 77.1682 72.9667 79.2812 68.9688 79.2812C64.9781 79.2812 61.4806 77.159 59.625 74.0312C58.7191 72.5043 58.2188 70.7627 58.2188 68.875C58.2188 63.1211 63.0296 58.4375 68.9688 58.4375ZM77.3125 66.625L78.5312 66.625L78.5312 67.875L79.75 67.875L79.75 69.0938L78.5312 69.0938L78.5312 70.3438L77.3125 70.3438L77.3125 69.0938L76.0625 69.0938L76.0625 67.875L77.3125 67.875L77.3125 66.625ZM81.7812 66.625L83.0312 66.625L83.0312 67.875L84.25 67.875L84.25 69.0938L83.0312 69.0938L83.0312 70.3438L81.7812 70.3438L81.7812 69.0938L80.5625 69.0938L80.5625 67.875L81.7812 67.875L81.7812 66.625Z" fill="#000000" fill-rule="nonzero" opacity="1" stroke="none"/>
</g>
</svg>
