<?xml version="1.0" encoding="UTF-8" standalone="no"?>
<!DOCTYPE svg PUBLIC "-//W3C//DTD SVG 1.1//EN" "http://www.w3.org/Graphics/SVG/1.1/DTD/svg11.dtd">
<!-- Created with Vectornator (http://vectornator.io/) -->
<svg height="100%" stroke-miterlimit="10" style="fill-rule:nonzero;clip-rule:evenodd;stroke-linecap:round;stroke-linejoin:round;" version="1.1" viewBox="0 0 908 908" width="100%" xml:space="preserve" xmlns="http://www.w3.org/2000/svg" xmlns:vectornator="http://vectornator.io" xmlns:xlink="http://www.w3.org/1999/xlink">
<defs/>
<g id="Autosar_Logo" vectornator:layerName="Autosar_Logo">
<path d="M388.093 492.664L372.913 494.784L368.77 480.726L388.093 492.664" fill="#000000" fill-rule="nonzero" opacity="1" stroke="none"/>
<path d="M538.604 435.372L530.588 435.962C536.681 441.465 539.753 447.476 539.753 454.003C539.753 465.172 531.245 474.842 514.235 483.016C497.226 491.197 476.783 495.282 452.896 495.282C432.093 495.282 416.056 492.97 400.391 486.627L395.454 491.463C411.935 497.364 430.796 500.318 452.058 500.318C478.858 500.318 501.796 495.736 520.881 486.556C539.965 477.384 549.509 466.534 549.509 454.003C549.509 447.312 544.309 439.161 538.604 435.372" fill="#000000" fill-rule="nonzero" opacity="1" stroke="none"/>
<path d="M366.598 475.833L378.526 474.938C370.468 468.668 366.439 461.693 366.439 454.003C366.439 443.094 374.876 433.622 391.751 425.571C408.624 417.521 428.88 413.24 452.513 412.718C473.684 413.177 492.114 416.528 507.803 422.777L512.778 420.129C496.939 412.898 473.911 408.163 451.624 407.682C425.111 408.267 402.383 413.069 383.453 422.102C364.516 431.134 355.05 441.763 355.05 454.003C355.05 461.959 358.909 469.232 366.598 475.833" fill="#000000" fill-rule="nonzero" opacity="1" stroke="none"/>
<path d="M640.581 465.917C640.581 472.982 636.665 478.605 628.83 482.794C620.994 486.986 610.016 489.081 595.903 489.081L548.241 489.081L548.241 470.899L584.98 470.899C586.299 470.899 593.799 470.882 594.909 470.882C600.861 470.882 603.848 469.227 603.848 465.917C603.848 462.169 599.099 458.526 589.614 454.996C573.281 449.7 564.343 446.611 562.8 445.723C553.533 442.2 548.679 436.905 548.241 429.838C547.803 424.325 552.434 418.918 562.141 418.918L634.296 418.918L641.576 418.918L641.576 432.157L634.296 432.157L609.05 432.157C603.818 432.157 597.253 431.05 597.253 435.865C597.253 440.076 603.464 442.076 608.384 443.814C617.9 447.176 624.839 449.607 630.359 452.148C635.871 454.686 640.581 457.977 640.581 465.917" fill="#000000" fill-rule="nonzero" opacity="1" stroke="none"/>
<path d="M733.241 418.594L787.854 489.093L641.23 489.093L695.513 418.594L733.241 418.594ZM714.045 439.117L691.206 471.554L737.214 471.554L714.045 439.117" fill="#000000" fill-rule="nonzero" opacity="1" stroke="none"/>
<path d="M797.454 489.081L797.454 453.011L797.454 418.918L863.65 418.918C877.106 418.918 887.92 421.346 896.086 426.197C902.928 430.389 906.348 435.358 906.348 441.089C906.348 448.819 901.048 453.669 890.456 455.658C902.15 461.393 908 469.117 908 478.827L908 489.081L871.594 489.081L871.594 478.492C871.811 473.199 869.165 468.895 863.65 465.585C859.016 462.718 854.491 461.283 850.075 461.283L827.57 461.283L827.57 489.081L797.454 489.081ZM827.57 435.796L827.57 444.732L863.65 444.732C867.616 444.511 870.044 442.969 870.93 440.098C870.044 437.229 867.616 435.796 863.65 435.796L827.57 435.796" fill="#000000" fill-rule="nonzero" opacity="1" stroke="none"/>
<path d="M466.954 424.807C460.102 425.131 452.843 426.191 445.173 427.994C430.321 432.176 418.21 438.185 408.86 446.025C399.506 453.867 395.739 461.229 397.516 468.119C399.34 475.18 406.275 479.914 418.36 482.307C430.439 484.707 443.954 483.972 458.891 480.119C473.986 476.223 486.228 470.313 495.641 462.369C505.058 454.43 508.869 446.931 507.048 439.869C505.267 432.977 498.363 428.372 486.298 426.057C480.268 424.9 473.805 424.482 466.954 424.807ZM469.048 442.994C474.865 443.155 478.034 444.579 478.548 447.244C479.062 450.612 476.823 453.798 471.829 456.838C466.836 459.878 460.693 462.18 453.391 463.713C446.829 465.407 440.446 466.098 434.235 465.775C428.024 465.451 424.57 463.965 423.891 461.338C423.217 458.716 425.332 455.932 430.266 452.994C435.195 450.06 441.461 447.63 449.016 445.682C456.562 443.735 463.228 442.833 469.048 442.994Z" fill="#000000" fill-rule="nonzero" opacity="1" stroke="none"/>
<path d="M513.72 427L524.883 419.48L531.804 431.289L513.72 427" fill="#000000" fill-rule="nonzero" opacity="1" stroke="none"/>
<path d="M90.9573 418.941L144.49 488.04L0.76625 488.04L53.9736 418.941L90.9573 418.941ZM72.1395 439.055L49.75 470.846L94.8483 470.846L72.1395 439.055" fill="#000000" fill-rule="nonzero" opacity="1" stroke="none"/>
<path d="M185.789 461.766C186.003 465.663 186.811 468.043 188.219 468.902C189.628 469.769 194.875 470.199 203.961 470.199L221.801 470.199L221.801 418.941L258.139 418.941L258.139 488.04L203.961 488.04C189.686 488.04 179.844 487.506 174.434 486.422C166 485.562 159.944 483.287 156.268 479.605C151.94 476.151 149.776 470.199 149.776 461.766L149.776 418.941L185.789 418.941L185.789 461.766" fill="#000000" fill-rule="nonzero" opacity="1" stroke="none"/>
<path d="M357.776 433.86L328.256 433.86L328.256 445.541L328.256 488.04L295.164 488.04L295.164 433.86L267.268 433.86L267.268 418.941L357.776 418.941L357.776 433.86" fill="#000000" fill-rule="nonzero" opacity="1" stroke="none"/>
</g>
</svg>
