<?xml version="1.0" encoding="UTF-8" standalone="no"?>
<!DOCTYPE svg PUBLIC "-//W3C//DTD SVG 1.1//EN" "http://www.w3.org/Graphics/SVG/1.1/DTD/svg11.dtd">
<!-- Created with Vectornator (http://vectornator.io/) -->
<svg height="100%" stroke-miterlimit="10" style="fill-rule:nonzero;clip-rule:evenodd;stroke-linecap:round;stroke-linejoin:round;" version="1.1" viewBox="0 0 144 144" width="100%" xml:space="preserve" xmlns="http://www.w3.org/2000/svg" xmlns:vectornator="http://vectornator.io" xmlns:xlink="http://www.w3.org/1999/xlink">
<defs/>
<g id="Artboard1" vectornator:layerName="Artboard1">
<path d="M0 0L0 144L144 144L144 0L0 0ZM12.5 64.5625L13.375 64.5625L13.375 79.4375L12.5 79.4375L12.5 64.5625ZM24.375 64.5625L28.9375 64.5625L28.9375 79.4375L24.375 79.4375L24.375 64.5625ZM32.8125 64.5625L42.375 64.5625L42.375 79.4375L32.8125 79.4375L32.8125 64.5625ZM47.4688 64.5625L62.8438 64.5625L62.8438 79.375L47.4688 79.375L47.4688 64.5625ZM17.7188 64.5938L19.8125 64.5938L19.8125 79.4375L17.7188 79.4375L17.7188 64.5938ZM68.3438 64.5938L131.5 64.5938L131.5 79.375L68.3438 79.375L68.3438 64.5938ZM81.6875 68.875C80.7644 68.875 79.752 69.2764 79 69.9375C78.2728 70.5796 77.7959 71.4175 77.6562 72.3125C77.4968 73.2843 77.6935 74.1605 78.3125 74.8125C78.8935 75.4282 79.7135 75.75 80.625 75.75C81.1589 75.75 81.5933 75.6439 82.1875 75.4688L82.5312 73.4062C82.1048 73.8318 81.4928 74.125 80.9375 74.125C79.8739 74.125 79.2747 73.348 79.4375 72.3125C79.5995 71.2985 80.4225 70.5 81.4688 70.5C82.0505 70.5 82.6006 70.7806 82.875 71.25L83.1875 69.1875C82.7148 68.9793 82.237 68.875 81.6875 68.875ZM108 68.875C106.686 68.875 105.616 69.7337 105.406 71.0625C105.205 72.3294 105.851 72.6054 106.875 72.9062C107.222 73.0145 107.889 73.1786 107.812 73.6562C107.74 74.1182 107.276 74.3125 106.875 74.3125C106.292 74.3125 105.839 74.0314 105.469 73.6562L104.5 75C105.097 75.471 105.858 75.75 106.688 75.75C107.348 75.75 108.074 75.5893 108.656 75.1562C109.249 74.71 109.52 74.0262 109.625 73.375C109.793 72.3172 109.15 71.8632 108.281 71.5938L107.875 71.4688C107.597 71.3787 107.158 71.2264 107.219 70.8438C107.277 70.4793 107.719 70.2812 108.031 70.2812C108.451 70.2812 108.821 70.4576 109.094 70.7188L109.969 69.4062C109.437 69.0765 108.66 68.875 108 68.875ZM93.5312 69.0312L89.9688 75.5938L91.7812 75.5938L92.4375 74.4375L94.7812 74.4375L95.0312 75.5938L96.8438 75.5938L95.4062 69.0312L93.5312 69.0312ZM94.125 71.0625L94.1562 71.0625L94.5312 73.1562L93.0938 73.1562L94.125 71.0625ZM117.969 69.0312L117.719 70.4688L119.125 70.4688L118.312 75.5938L120.031 75.5938L120.844 70.4688L122.25 70.4688L122.469 69.0312L117.969 69.0312Z" fill="#000000" fill-rule="nonzero" opacity="1" stroke="none"/>
</g>
</svg>
