<?xml version="1.0" encoding="UTF-8" standalone="no"?>
<!DOCTYPE svg PUBLIC "-//W3C//DTD SVG 1.1//EN" "http://www.w3.org/Graphics/SVG/1.1/DTD/svg11.dtd">
<!-- Created with Vectornator (http://vectornator.io/) -->
<svg height="100%" stroke-miterlimit="10" style="fill-rule:nonzero;clip-rule:evenodd;stroke-linecap:round;stroke-linejoin:round;" version="1.1" viewBox="0 0 140 140" width="100%" xml:space="preserve" xmlns="http://www.w3.org/2000/svg" xmlns:vectornator="http://vectornator.io" xmlns:xlink="http://www.w3.org/1999/xlink">
<defs/>
<g id="c-cpp" vectornator:layerName="c-cpp">
<path d="M0 0L0 140L140 140L140 0L0 0ZM38.9375 29C39.925 28.9873 40.9016 29.2632 41.9062 29.8438C49.359 34.151 56.8261 38.4472 64.2812 42.75C65.1844 43.2735 65.8629 43.9288 66.3125 44.7188C66.7702 45.5221 66.9996 46.4719 67 47.5312C67.0029 56.1847 67 73.4688 67 73.4688C66.9996 74.505 66.7807 75.4274 66.3438 76.2188C65.8939 77.032 65.2052 77.7149 64.2812 78.25C56.825 82.5528 49.3592 86.8488 41.9062 91.1562C39.8964 92.3177 37.9639 92.2722 35.9688 91.0938C33.002 89.3416 18.146 80.8167 13.7188 78.25C12.7948 77.7146 12.1061 77.0326 11.6562 76.2188C11.2187 75.4274 11.0004 74.5048 11 73.4688C11.0028 64.8153 10.9972 56.1845 11 47.5312C11.0004 45.4297 11.8956 43.8065 13.7188 42.75C18.1458 40.1833 33.0014 31.658 35.9688 29.9062C36.9659 29.3174 37.95 29.0127 38.9375 29ZM102.156 29C103.151 28.9873 104.144 29.2632 105.156 29.8438C112.667 34.151 120.174 38.4472 127.688 42.75C128.598 43.2735 129.297 43.9288 129.75 44.7188C130.211 45.5221 130.437 46.4719 130.438 47.5312C130.44 56.1847 130.438 73.4688 130.438 73.4688C130.437 74.505 130.222 75.4274 129.781 76.2188C129.328 77.032 128.65 77.7149 127.719 78.25C120.204 82.5528 112.667 86.8488 105.156 91.1562C103.131 92.3177 101.167 92.2722 99.1562 91.0938C96.1663 89.3416 81.1806 80.8167 76.7188 78.25C75.7876 77.7146 75.1096 77.0326 74.6562 76.2188C74.2153 75.4274 74.0004 74.5048 74 73.4688C74.0029 64.8153 73.9971 56.1845 74 47.5312C74.0004 45.4297 74.9126 43.8065 76.75 42.75C81.2117 40.1833 96.1657 31.658 99.1562 29.9062C100.161 29.3174 101.161 29.0127 102.156 29ZM55.5 104.188C56.2214 104.188 56.7747 104.333 57.1875 104.625C57.6003 104.917 57.9245 105.365 58.125 105.969L56.5625 106.312C56.5078 106.138 56.4349 106.018 56.375 105.938C56.276 105.802 56.1745 105.698 56.0312 105.625C55.888 105.552 55.7083 105.5 55.5312 105.5C55.1302 105.5 54.8385 105.677 54.625 106C54.4635 106.24 54.375 106.612 54.375 107.125C54.375 107.76 54.4635 108.171 54.6562 108.406C54.849 108.642 55.1198 108.781 55.4688 108.781C55.8073 108.781 56.0768 108.69 56.25 108.5C56.4232 108.31 56.5469 108.018 56.625 107.656L58.1875 108.125C58.0833 108.56 57.9115 108.927 57.6875 109.219C57.4635 109.51 57.1758 109.727 56.8438 109.875C56.5117 110.023 56.1068 110.094 55.5938 110.094C54.9714 110.094 54.457 110.025 54.0625 109.844C53.668 109.663 53.3177 109.331 53.0312 108.875C52.7448 108.419 52.5938 107.836 52.5938 107.125C52.5938 106.177 52.8711 105.447 53.375 104.938C53.8789 104.428 54.5781 104.188 55.5 104.188ZM61.7812 104.188C62.7344 104.188 63.4531 104.426 63.9688 104.938C64.4844 105.449 64.75 106.172 64.75 107.094C64.75 107.763 64.6315 108.322 64.4062 108.75C64.181 109.178 63.8633 109.512 63.4375 109.75C63.0117 109.988 62.4792 110.094 61.8438 110.094C61.1979 110.094 60.6732 109.987 60.25 109.781C59.8268 109.576 59.4818 109.258 59.2188 108.812C58.9557 108.367 58.8125 107.826 58.8125 107.156C58.8125 106.221 59.0729 105.49 59.5938 104.969C60.1146 104.448 60.8516 104.188 61.7812 104.188ZM84.5625 104.188C85.1953 104.188 85.6862 104.229 86 104.344C86.3138 104.458 86.5742 104.634 86.7812 104.875C86.9883 105.116 87.1146 105.443 87.2188 105.812L85.5312 106.094C85.4609 105.878 85.3242 105.708 85.1562 105.594C84.9883 105.479 84.7917 105.438 84.5312 105.438C84.1432 105.438 83.8242 105.574 83.5938 105.844C83.3633 106.113 83.25 106.542 83.25 107.125C83.25 107.745 83.3607 108.172 83.5938 108.438C83.8268 108.703 84.1458 108.844 84.5625 108.844C84.7604 108.844 84.9766 108.807 85.1562 108.75C85.3359 108.693 85.5182 108.607 85.75 108.469L85.75 107.938L84.5625 107.938L84.5625 106.75L87.3125 106.75L87.3125 109.188C86.7891 109.544 86.3398 109.777 85.9375 109.906C85.5352 110.035 85.0521 110.094 84.5 110.094C83.8203 110.094 83.2721 109.982 82.8438 109.75C82.4154 109.518 82.0794 109.177 81.8438 108.719C81.6081 108.26 81.4688 107.719 81.4688 107.125C81.4688 106.5 81.6172 105.962 81.875 105.5C82.1328 105.038 82.5026 104.708 83 104.469C83.388 104.284 83.9062 104.188 84.5625 104.188ZM65.7188 104.281L68.3438 104.281C68.862 104.281 69.2747 104.359 69.5938 104.5C69.9128 104.641 70.1979 104.831 70.4062 105.094C70.6146 105.357 70.75 105.651 70.8438 106C70.9375 106.349 71 106.734 71 107.125C71 107.737 70.9206 108.194 70.7812 108.531C70.6419 108.868 70.4349 109.147 70.1875 109.375C69.9401 109.603 69.6901 109.768 69.4062 109.844C69.0182 109.948 68.6589 110 68.3438 110L65.7188 110L65.7188 104.281ZM72 104.281L73.75 104.281L73.75 110L72 110L72 104.281ZM75.0312 104.281L76.6875 104.281L78.8438 107.438L78.8438 104.281L80.5312 104.281L80.5312 110L78.8438 110L76.7188 106.844L76.7188 110L75.0312 110L75.0312 104.281ZM48.2188 114.188C48.6432 114.188 49.0195 114.238 49.3438 114.375C49.668 114.512 49.9193 114.734 50.0938 115C50.2682 115.266 50.362 115.539 50.375 115.875L49.6562 115.938C49.6172 115.576 49.4753 115.31 49.25 115.125C49.0247 114.94 48.6901 114.844 48.25 114.844C47.7917 114.844 47.4596 114.926 47.25 115.094C47.0404 115.262 46.9375 115.482 46.9375 115.719C46.9375 115.924 47.0078 116.086 47.1562 116.219C47.3021 116.352 47.6966 116.486 48.3125 116.625C48.9284 116.764 49.3333 116.896 49.5625 117C49.8958 117.154 50.1536 117.327 50.3125 117.562C50.4714 117.798 50.5312 118.068 50.5312 118.375C50.5312 118.68 50.4557 118.98 50.2812 119.25C50.1068 119.52 49.8581 119.725 49.5312 119.875C49.2044 120.025 48.8464 120.094 48.4375 120.094C47.9193 120.094 47.4753 120.026 47.125 119.875C46.7747 119.724 46.5117 119.491 46.3125 119.188C46.1133 118.884 46.0104 118.539 46 118.156L46.6875 118.094C46.7214 118.38 46.8138 118.629 46.9375 118.812C47.0612 118.996 47.2396 119.137 47.5 119.25C47.7604 119.363 48.0807 119.406 48.4062 119.406C48.6953 119.406 48.9349 119.367 49.1562 119.281C49.3776 119.195 49.5482 119.087 49.6562 118.938C49.7643 118.788 49.8125 118.615 49.8125 118.438C49.8125 118.258 49.7604 118.103 49.6562 117.969C49.5521 117.835 49.3958 117.716 49.1562 117.625C49.0026 117.565 48.651 117.47 48.125 117.344C47.599 117.217 47.2422 117.112 47.0312 117C46.7578 116.857 46.5404 116.681 46.4062 116.469C46.2721 116.257 46.2188 116.013 46.2188 115.75C46.2188 115.461 46.2734 115.189 46.4375 114.938C46.6016 114.686 46.8411 114.505 47.1562 114.375C47.4714 114.245 47.8333 114.188 48.2188 114.188ZM91.625 114.188C92.0495 114.188 92.4258 114.238 92.75 114.375C93.0742 114.512 93.3255 114.734 93.5 115C93.6745 115.266 93.7682 115.539 93.7812 115.875L93.0625 115.938C93.0234 115.576 92.8815 115.31 92.6562 115.125C92.431 114.94 92.0964 114.844 91.6562 114.844C91.1979 114.844 90.8659 114.926 90.6562 115.094C90.4466 115.262 90.3438 115.482 90.3438 115.719C90.3438 115.924 90.4141 116.086 90.5625 116.219C90.7083 116.352 91.1029 116.486 91.7188 116.625C92.3346 116.764 92.7396 116.896 92.9688 117C93.3021 117.154 93.5599 117.327 93.7188 117.562C93.8776 117.798 93.9688 118.068 93.9688 118.375C93.9688 118.68 93.862 118.98 93.6875 119.25C93.513 119.52 93.2643 119.725 92.9375 119.875C92.6107 120.025 92.2526 120.094 91.8438 120.094C91.3255 120.094 90.8815 120.026 90.5312 119.875C90.181 119.724 89.918 119.491 89.7188 119.188C89.5195 118.884 89.4167 118.539 89.4062 118.156L90.125 118.094C90.1589 118.38 90.2201 118.629 90.3438 118.812C90.4674 118.996 90.6771 119.137 90.9375 119.25C91.1979 119.363 91.487 119.406 91.8125 119.406C92.1016 119.406 92.3411 119.367 92.5625 119.281C92.7839 119.195 92.9544 119.087 93.0625 118.938C93.1706 118.788 93.2188 118.615 93.2188 118.438C93.2188 118.258 93.1667 118.103 93.0625 117.969C92.9583 117.835 92.8021 117.716 92.5625 117.625C92.4089 117.565 92.0573 117.47 91.5312 117.344C91.0052 117.217 90.6484 117.112 90.4375 117C90.1641 116.857 89.9466 116.681 89.8125 116.469C89.6784 116.257 89.625 116.013 89.625 115.75C89.625 115.461 89.7109 115.189 89.875 114.938C90.0391 114.686 90.2786 114.505 90.5938 114.375C90.9089 114.245 91.2396 114.188 91.625 114.188ZM51.1562 114.281L55.6875 114.281L55.6875 114.938L53.7812 114.938L53.7812 120L53.0312 120L53.0312 114.938L51.1562 114.938L51.1562 114.281ZM57.4375 114.281L58.25 114.281L60.5938 120L59.75 120L59.0625 118.281L56.6875 118.281L56.0625 120L55.25 120L57.4375 114.281ZM61.1875 114.281L61.9688 114.281L65 118.781L65 114.281L65.7188 114.281L65.7188 120L64.9375 120L61.9375 115.5L61.9375 120L61.1875 120L61.1875 114.281ZM67 114.281L68.9688 114.281C69.4141 114.281 69.7344 114.289 69.9688 114.344C70.2969 114.419 70.5807 114.583 70.8125 114.781C71.1146 115.036 71.3503 115.353 71.5 115.75C71.6497 116.147 71.7187 116.583 71.7188 117.094C71.7188 117.529 71.6641 117.914 71.5625 118.25C71.4609 118.586 71.3464 118.874 71.1875 119.094C71.0286 119.314 70.8451 119.499 70.6562 119.625C70.4674 119.751 70.2357 119.841 69.9688 119.906C69.7018 119.971 69.4089 120 69.0625 120L67 120L67 114.281ZM74.3438 114.281L75.1562 114.281L77.5 120L76.625 120L75.9688 118.281L73.5625 118.281L72.9375 120L72.125 120L74.3438 114.281ZM78.125 114.281L80.6562 114.281C81.1667 114.281 81.5469 114.335 81.8125 114.438C82.0781 114.54 82.2786 114.708 82.4375 114.969C82.5964 115.229 82.6875 115.529 82.6875 115.844C82.6875 116.25 82.5443 116.596 82.2812 116.875C82.0182 117.154 81.612 117.331 81.0625 117.406C81.263 117.503 81.4271 117.594 81.5312 117.688C81.7526 117.891 81.9583 118.133 82.1562 118.438L83.1562 120L82.2188 120L81.4375 118.812C81.2161 118.469 81.0495 118.214 80.9062 118.031C80.763 117.849 80.6445 117.698 80.5312 117.625C80.418 117.552 80.2734 117.529 80.1562 117.5C80.0703 117.482 79.9453 117.469 79.75 117.469L78.875 117.469L78.875 120L78.125 120L78.125 114.281ZM83.875 114.281L85.8438 114.281C86.2891 114.281 86.6406 114.289 86.875 114.344C87.2031 114.419 87.487 114.583 87.7188 114.781C88.0208 115.036 88.2253 115.353 88.375 115.75C88.5247 116.147 88.625 116.583 88.625 117.094C88.625 117.529 88.5703 117.914 88.4688 118.25C88.3672 118.586 88.2214 118.874 88.0625 119.094C87.9036 119.314 87.7513 119.499 87.5625 119.625C87.3737 119.751 87.1419 119.841 86.875 119.906C86.6081 119.971 86.2839 120 85.9375 120L83.875 120L83.875 114.281ZM38.7188 42C28.3734 42 20 50.2829 20 60.5C20 63.8519 20.8908 67.0074 22.4688 69.7188C25.7011 75.2726 31.7675 79 38.7188 79C45.6828 79 51.7723 75.2577 55 69.6875L46.875 65.0312C45.2754 67.833 42.2073 69.7188 38.7188 69.7188C35.2516 69.7188 32.2328 67.8346 30.625 65.0625C29.8173 63.6715 29.4046 62.1035 29.4062 60.5C29.4062 55.4124 33.5675 51.2813 38.7188 51.2812C42.1636 51.2812 45.1968 53.1312 46.8125 55.875L54.9375 51.25C51.697 45.7254 45.6482 42 38.7188 42ZM102.156 42.125C91.6816 42.125 83.1875 50.352 83.1875 60.5C83.1875 63.8293 84.0898 66.9633 85.6875 69.6562C88.9602 75.1726 95.1181 78.875 102.156 78.875C109.207 78.875 115.357 75.1576 118.625 69.625L110.375 65C108.755 67.7828 105.688 69.6563 102.156 69.6562C98.6458 69.6562 95.5966 67.7846 93.9688 65.0312C93.151 63.6496 92.7171 62.0927 92.7188 60.5C92.7188 55.4468 96.9406 51.3438 102.156 51.3438C105.644 51.3438 108.677 53.181 110.312 55.9062L118.562 51.3125C115.281 45.8252 109.172 42.125 102.156 42.125ZM116.844 56.5625L116.844 58.75L114.688 58.75L114.688 60.9375L116.844 60.9375L116.844 63.125L119.031 63.125L119.031 60.9375L121.188 60.9375L121.188 58.75L119.031 58.75L119.031 56.5625L116.844 56.5625ZM124.781 56.5625L124.781 58.75L122.625 58.75L122.625 60.9375L124.781 60.9375L124.781 63.125L126.969 63.125L126.969 60.9375L129.125 60.9375L129.125 58.75L126.969 58.75L126.969 56.5625L124.781 56.5625ZM61.75 105.531C61.3932 105.531 61.1224 105.654 60.9062 105.906C60.6901 106.159 60.5938 106.573 60.5938 107.156C60.5938 107.734 60.6914 108.154 60.9062 108.406C61.1211 108.659 61.4115 108.781 61.7812 108.781C62.1615 108.781 62.4479 108.654 62.6562 108.406C62.8646 108.159 62.9688 107.703 62.9688 107.062C62.9688 106.523 62.8737 106.124 62.6562 105.875C62.4388 105.626 62.1224 105.531 61.75 105.531ZM67.5 105.562L67.5 108.688L67.9375 108.688C68.3073 108.688 68.5625 108.645 68.7188 108.562C68.875 108.48 69.0052 108.361 69.0938 108.156C69.1823 107.952 69.2188 107.615 69.2188 107.156C69.2187 106.549 69.1042 106.13 68.9062 105.906C68.7083 105.682 68.3958 105.562 67.9375 105.562L67.5 105.562ZM57.8438 114.875C57.7708 115.242 57.6641 115.607 57.5312 115.969L56.9062 117.656L58.8438 117.656L58.25 116.062C58.0677 115.581 57.9323 115.185 57.8438 114.875ZM74.7188 114.875C74.6458 115.242 74.5391 115.607 74.4062 115.969L73.7812 117.656L75.7188 117.656L75.125 116.062C74.9427 115.581 74.8073 115.185 74.7188 114.875ZM78.875 114.906L78.875 116.812L80.5 116.812C80.8464 116.812 81.1172 116.759 81.3125 116.688C81.5078 116.616 81.6484 116.501 81.75 116.344C81.8516 116.186 81.9062 116.029 81.9062 115.844C81.9062 115.573 81.8216 115.331 81.625 115.156C81.4284 114.982 81.112 114.906 80.6875 114.906L78.875 114.906ZM67.75 114.938L67.75 119.312L68.9688 119.312C69.3464 119.312 69.6289 119.289 69.8438 119.219C70.0586 119.148 70.2474 119.065 70.375 118.938C70.5547 118.758 70.681 118.491 70.7812 118.188C70.8815 117.884 70.9375 117.526 70.9375 117.094C70.9375 116.495 70.8529 116.04 70.6562 115.719C70.4596 115.397 70.2188 115.172 69.9375 115.062C69.7344 114.984 69.388 114.938 68.9375 114.938L67.75 114.938ZM84.625 114.938L84.625 119.312L85.8438 119.312C86.2214 119.312 86.5352 119.289 86.75 119.219C86.9648 119.148 87.1224 119.065 87.25 118.938C87.4297 118.758 87.5872 118.491 87.6875 118.188C87.7878 117.884 87.8438 117.526 87.8438 117.094C87.8438 116.495 87.7279 116.04 87.5312 115.719C87.3346 115.397 87.0938 115.172 86.8125 115.062C86.6094 114.984 86.2943 114.938 85.8438 114.938L84.625 114.938Z" fill="#000000" fill-rule="nonzero" opacity="1" stroke="none"/>
</g>
</svg>
