<?xml version="1.0" encoding="UTF-8" standalone="no"?>
<!DOCTYPE svg PUBLIC "-//W3C//DTD SVG 1.1//EN" "http://www.w3.org/Graphics/SVG/1.1/DTD/svg11.dtd">
<!-- Created with Vectornator (http://vectornator.io/) -->
<svg height="100%" stroke-miterlimit="10" style="fill-rule:nonzero;clip-rule:evenodd;stroke-linecap:round;stroke-linejoin:round;" version="1.1" viewBox="0 0 1085 1085" width="100%" xml:space="preserve" xmlns="http://www.w3.org/2000/svg" xmlns:vectornator="http://vectornator.io" xmlns:xlink="http://www.w3.org/1999/xlink">
<defs/>
<g id="cisq" vectornator:layerName="cisq">
<g opacity="1">
<path d="M87 348.5C38.9512 348.5 0 387.451 0 435.5L0 603.5C0 651.549 38.9512 690.5 87 690.5L207 690.5C255.049 690.5 294 651.549 294 603.5L294 583.5L240 583.5L240 609.5C240 624.964 227.464 637.5 212 637.5L88 637.5C72.536 637.5 60 624.964 60 609.5L60 429.5C60 414.036 72.536 401.5 88 401.5L212 401.5C227.464 401.5 240 414.036 240 429.5L240 451.5L294 451.5L294 435.5C294 387.451 255.049 348.5 207 348.5L87 348.5Z" fill="#000000" fill-rule="evenodd" opacity="1" stroke="none"/>
<path d="M339 348.5L399 348.5L399 690.5L339 690.5L339 348.5Z" fill="#000000" fill-rule="evenodd" opacity="1" stroke="none"/>
<path d="M535 491.5C516.293 491.5 499 497.453 484.812 507.5L535 507.5L535 543.5L655 543.5C668.255 543.5 679 554.245 679 567.5L679 609.5C679 622.755 668.255 633.5 655 633.5L533 633.5C519.745 633.5 509 622.755 509 609.5L509 582.5L448 582.5L448 603.5C448 651.549 486.951 690.5 535 690.5L655 690.5C703.049 690.5 742 651.549 742 603.5L742 578.5C742 530.451 703.049 491.5 655 491.5L535 491.5Z" fill="#000000" fill-rule="evenodd" opacity="1" stroke="none"/>
<path d="M535 348.5C486.951 348.5 448 387.451 448 435.5L448 456.5C448 504.549 486.951 543.5 535 543.5L655 543.5C668.78 543.5 681.764 540.203 693.344 534.5L654 534.5L654 491.5L533 491.5C519.745 491.5 509 480.755 509 467.5L509 425.5C509 412.245 519.745 401.5 533 401.5L655 401.5C668.255 401.5 679 412.245 679 425.5L679 459.5L741.844 459.5C741.878 458.497 742 457.512 742 456.5L742 435.5C742 387.451 703.049 348.5 655 348.5L535 348.5Z" fill="#000000" fill-rule="evenodd" opacity="1" stroke="none"/>
<path d="M878 348.5C829.951 348.5 791 387.451 791 435.5L791 603.5C791 651.549 829.951 690.5 878 690.5L907 690.5L907 736.5L967 736.5L967 690.5L998 690.5C1046.05 690.5 1085 651.549 1085 603.5L1085 435.5C1085 387.451 1046.05 348.5 998 348.5L878 348.5ZM876 401.5L1000 401.5C1015.46 401.5 1028 414.036 1028 429.5L1028 609.5C1028 624.964 1015.46 637.5 1000 637.5L967 637.5L967 590.5L907 590.5L907 637.5L876 637.5C860.536 637.5 848 624.964 848 609.5L848 429.5C848 414.036 860.536 401.5 876 401.5Z" fill="#000000" fill-rule="evenodd" opacity="1" stroke="none"/>
</g>
</g>
</svg>
