<?xml version="1.0" encoding="UTF-8" standalone="no"?>
<!DOCTYPE svg PUBLIC "-//W3C//DTD SVG 1.1//EN" "http://www.w3.org/Graphics/SVG/1.1/DTD/svg11.dtd">
<!-- Created with Vectornator (http://vectornator.io/) -->
<svg height="100%" stroke-miterlimit="10" style="fill-rule:nonzero;clip-rule:evenodd;stroke-linecap:round;stroke-linejoin:round;" version="1.1" viewBox="0 0 92 92" width="100%" xml:space="preserve" xmlns="http://www.w3.org/2000/svg" xmlns:vectornator="http://vectornator.io" xmlns:xlink="http://www.w3.org/1999/xlink">
<defs/>
<clipPath id="ArtboardFrame">
<rect height="92" width="92" x="0" y="0"/>
</clipPath>
<g clip-path="url(#ArtboardFrame)" id="cwe-latest-version" vectornator:layerName="cwe-latest-version">
<g opacity="1">
<path d="M69.1444 92C56.5214 92 46.2886 81.767 46.2886 69.1444C46.2886 56.5215 56.5214 46.2886 69.1444 46.2886C81.7669 46.2886 92 56.5215 92 69.1444C92 81.767 81.7669 92 69.1444 92M69.1562 48.125C57.5433 48.125 48.125 57.5434 48.125 69.1562C48.125 80.7691 57.5433 90.1563 69.1562 90.1562C80.7689 90.1562 90.1562 80.7691 90.1562 69.1562C90.1562 57.5434 80.769 48.125 69.1562 48.125Z" fill="#000000" fill-rule="evenodd" opacity="1" stroke="none"/>
</g>
<path d="M8 0C3.58172 0 0 3.58172 0 8L0 63C0 67.4183 3.58172 71 8 71L45.1562 71C45.1251 70.4939 45 70.014 45 69.5C45 56.1407 55.7061 45.336 69 45.0625L69 8C69 3.58172 65.4183 0 61 0L8 0ZM22.7188 14.2188L25.2812 14.2188L25.2812 30.9375L28.7812 30.9375L28.7812 33.8438L25.2812 33.8438L25.2812 40L22.125 40L22.125 33.8438L10.9375 33.8438L10.9375 30.9375L22.7188 14.2188ZM41.2812 21.3438L45.25 21.3438L48.0938 25.7188C48.6328 26.5508 49.0781 27.25 49.4062 27.8125C49.9219 27.0391 50.4102 26.3477 50.8438 25.75L53.9688 21.3438L57.75 21.3438L51.3125 30.125L58.25 40L54.375 40L50.5312 34.1875L49.5 32.625L44.5938 40L40.7812 40L47.5938 30.3125L41.2812 21.3438ZM33.7812 36.4062L37.375 36.4062L37.375 40L33.7812 40L33.7812 36.4062ZM22.125 19.3125L14.0625 30.9375L22.125 30.9375L22.125 19.3125Z" fill="#000000" fill-rule="nonzero" opacity="1" stroke="none"/>
<g opacity="1">
<path d="M56.1793 62.2882C52.7164 62.2882 49.9091 65.0955 49.9091 68.5585C49.9091 72.0214 52.7164 74.8287 56.1793 74.8287L56.1793 72.5296C53.8707 72.5296 51.9992 70.7517 51.9992 68.5585C51.9992 66.3653 53.8707 64.5873 56.1793 64.5873L56.1793 62.2882Z" fill="#000000" fill-rule="evenodd" opacity="1" stroke="none"/>
<path d="M56.1793 62.2882L56.1793 64.5873L58.191 64.5873L57.4333 62.2882L56.1793 62.2882ZM56.1793 72.5296L56.1793 74.8287L61.5482 74.8287L60.7905 72.5296L56.1793 72.5296Z" fill="#000000" fill-rule="evenodd" opacity="1" stroke="none"/>
</g>
<g opacity="1">
<path d="M79.7057 62.2882L73.9319 74.8287L81.2471 74.8287L82.1485 72.8692L77.289 72.8692L78.9611 69.3945L82.7232 69.3945L83.3633 69.3945L84.2908 67.435L79.7971 67.435L81.2602 64.3783L85.2313 64.3783L86.0543 64.3783L87.0209 62.2882L79.7057 62.2882Z" fill="#000000" fill-rule="evenodd" opacity="1" stroke="none"/>
</g>
<g opacity="1">
<path d="M58.3478 62.2882L62.9067 74.8287L66.4207 74.8287L67.8837 71.2756L68.9157 74.8287L72.6778 74.8287L78.3341 62.5364L78.3341 62.2882L75.5255 62.2882L70.8098 72.7386C70.8098 72.7386 67.7428 63.1988 67.531 62.2882L64.4873 62.2882L66.6297 68.3495L64.7486 72.7386C64.7486 72.7386 61.4797 63.1969 61.2608 62.2882L58.3478 62.2882Z" fill="#000000" fill-rule="evenodd" opacity="1" stroke="none"/>
</g>
</g>
</svg>
