<?xml version="1.0" encoding="UTF-8" standalone="no"?>
<!DOCTYPE svg PUBLIC "-//W3C//DTD SVG 1.1//EN" "http://www.w3.org/Graphics/SVG/1.1/DTD/svg11.dtd">
<!-- Created with Vectornator (http://vectornator.io/) -->
<svg height="100%" stroke-miterlimit="10" style="fill-rule:nonzero;clip-rule:evenodd;stroke-linecap:round;stroke-linejoin:round;" version="1.1" viewBox="0 0 92 92" width="100%" xml:space="preserve" xmlns="http://www.w3.org/2000/svg" xmlns:vectornator="http://vectornator.io" xmlns:xlink="http://www.w3.org/1999/xlink">
<defs/>
<clipPath id="ArtboardFrame">
<rect height="92" width="92" x="0" y="0"/>
</clipPath>
<g clip-path="url(#ArtboardFrame)" id="cwetop25-2019" vectornator:layerName="cwetop25-2019">
<g opacity="1">
<path d="M8 0C3.58172 0 0 3.58172 0 8L0 63C0 67.4183 3.58172 71 8 71L45.1562 71C45.1251 70.4939 45 70.014 45 69.5C45 56.1407 55.7061 45.336 69 45.0625L69 8C69 3.58172 65.4183 0 61 0L8 0ZM17.4707 33.5532L9.26318 33.5532L9.26318 36.6191L8.16504 36.6191L8.16504 29.2432L9.26318 29.2432L9.26318 32.3218L17.4707 32.3218L17.4707 33.5532ZM12.9385 28.5894C11.3939 28.5894 10.1847 28.1746 9.31079 27.3452C8.43693 26.5158 8 25.4452 8 24.1333C8 23.2742 8.20524 22.4998 8.61572 21.8101C9.02621 21.1203 9.59855 20.5945 10.3328 20.2327C11.067 19.8708 11.8996 19.6899 12.8306 19.6899C13.7743 19.6899 14.6185 19.8804 15.3633 20.2612C16.1081 20.6421 16.672 21.1816 17.0549 21.8799C17.4379 22.5781 17.6294 23.3314 17.6294 24.1396C17.6294 25.0156 17.4178 25.7985 16.9946 26.4883C16.5714 27.1781 15.9938 27.7007 15.2617 28.0562C14.5296 28.4116 13.7552 28.5894 12.9385 28.5894ZM12.9575 27.3198C14.0789 27.3198 14.9623 27.0183 15.6077 26.4153C16.253 25.8123 16.5757 25.0558 16.5757 24.146C16.5757 23.2192 16.2498 22.4565 15.5981 21.8577C14.9464 21.2589 14.0218 20.9595 12.8242 20.9595C12.0667 20.9595 11.4055 21.0875 10.8406 21.3435C10.2756 21.5995 9.83765 21.974 9.52661 22.467C9.21557 22.96 9.06006 23.5133 9.06006 24.127C9.06006 24.9987 9.35945 25.7488 9.95825 26.3772C10.5571 27.0056 11.5568 27.3198 12.9575 27.3198ZM17.4707 18.103L8.16504 18.103L8.16504 14.5928C8.16504 13.9749 8.19466 13.5031 8.25391 13.1772C8.33008 12.7202 8.47502 12.3372 8.68872 12.0283C8.90243 11.7194 9.20182 11.4708 9.58691 11.2825C9.97201 11.0942 10.3952 11 10.8564 11C11.6478 11 12.3175 11.2518 12.8655 11.7554C13.4135 12.259 13.6875 13.1688 13.6875 14.4849L13.6875 16.8716L17.4707 16.8716L17.4707 18.103ZM12.5894 16.8716L12.5894 14.4658C12.5894 13.6702 12.4412 13.1053 12.145 12.771C11.8488 12.4367 11.432 12.2695 10.8945 12.2695C10.5052 12.2695 10.172 12.3679 9.89478 12.5647C9.61759 12.7615 9.43457 13.0207 9.3457 13.3423C9.29069 13.5496 9.26318 13.9326 9.26318 14.4912L9.26318 16.8716L12.5894 16.8716ZM40 33.5034L40 39L20 39C20.2166 36.9221 20.8663 34.953 21.9492 33.0927C23.0322 31.2324 25.1709 28.765 28.3655 25.6902C30.9374 23.2052 32.5144 21.5204 33.0964 20.6359C33.8816 19.4144 34.2741 18.207 34.2741 17.0136C34.2741 15.6938 33.9323 14.6795 33.2487 13.9704C32.5651 13.2614 31.621 12.9069 30.4162 12.9069C29.225 12.9069 28.2775 13.279 27.5736 14.0231C26.8697 14.7672 26.4636 16.0027 26.3553 17.7296L20.6701 17.1399C21.0085 13.8827 22.0711 11.5451 23.8579 10.127C25.6447 8.70901 27.8782 8 30.5584 8C33.4958 8 35.8037 8.82132 37.4822 10.464C39.1608 12.1067 40 14.1494 40 16.5924C40 17.9823 39.7597 19.3056 39.2792 20.5622C38.7986 21.8187 38.0372 23.135 36.9949 24.5109C36.3046 25.4235 35.0592 26.7362 33.2589 28.449C31.4585 30.1619 30.3181 31.2991 29.8376 31.8607C29.357 32.4223 28.9679 32.9699 28.6701 33.5034L40 33.5034ZM45 30.5282L50.6795 29.9171C50.8418 31.2518 51.3218 32.309 52.1197 33.0887C52.9175 33.8685 53.837 34.2583 54.8783 34.2583C56.0683 34.2583 57.0757 33.7561 57.9006 32.7515C58.7255 31.747 59.1379 30.2332 59.1379 28.2101C59.1379 26.3134 58.7289 24.8909 57.9108 23.9426C57.0926 22.9942 56.0277 22.5201 54.716 22.5201C53.0798 22.5201 51.6126 23.2717 50.3144 24.775L45.6897 24.0795L48.6105 8L63.6815 8L63.6815 13.5425L52.931 13.5425L52.0385 18.7899C53.3097 18.1296 54.6078 17.7995 55.9331 17.7995C58.4618 17.7995 60.6051 18.7548 62.3631 20.6655C64.121 22.5763 65 25.056 65 28.1047C65 30.6476 64.2901 32.9166 62.8702 34.9116C60.9364 37.6372 58.2522 39 54.8174 39C52.0723 39 49.8344 38.2343 48.1034 36.7029C46.3725 35.1715 45.3381 33.1133 45 30.5282ZM15.2578 56.6484L15.2578 58L7.6875 58C7.67708 57.6615 7.73177 57.3359 7.85156 57.0234C8.04427 56.5078 8.35286 56 8.77734 55.5C9.20183 55 9.8151 54.4219 10.6172 53.7656C11.862 52.7448 12.7031 51.9362 13.1406 51.3398C13.5781 50.7435 13.7969 50.1797 13.7969 49.6484C13.7969 49.0911 13.5977 48.6211 13.1992 48.2383C12.8008 47.8555 12.2813 47.6641 11.6406 47.6641C10.9635 47.6641 10.4219 47.8672 10.0156 48.2734C9.60937 48.6797 9.40365 49.2422 9.39844 49.9609L7.95312 49.8125C8.05208 48.7344 8.42448 47.9128 9.07031 47.3477C9.71615 46.7825 10.5833 46.5 11.6719 46.5C12.7708 46.5 13.6406 46.8047 14.2812 47.4141C14.9219 48.0234 15.2422 48.7786 15.2422 49.6797C15.2422 50.138 15.1484 50.5885 14.9609 51.0312C14.7734 51.474 14.4622 51.9401 14.0273 52.4297C13.5924 52.9193 12.8698 53.5911 11.8594 54.4453C11.0156 55.1536 10.474 55.6341 10.2344 55.8867C9.99479 56.1393 9.79688 56.3932 9.64062 56.6484L15.2578 56.6484ZM16.7656 52.3516C16.7656 50.9974 16.9049 49.9076 17.1836 49.082C17.4622 48.2565 17.8763 47.6198 18.4258 47.1719C18.9753 46.724 19.6667 46.5 20.5 46.5C21.1146 46.5 21.6536 46.6237 22.1172 46.8711C22.5807 47.1185 22.9635 47.4753 23.2656 47.9414C23.5677 48.4076 23.8047 48.9753 23.9766 49.6445C24.1484 50.3138 24.2344 51.2161 24.2344 52.3516C24.2344 53.6953 24.0964 54.7799 23.8203 55.6055C23.5443 56.431 23.1315 57.069 22.582 57.5195C22.0325 57.9701 21.3385 58.1953 20.5 58.1953C19.3958 58.1953 18.5286 57.7995 17.8984 57.0078C17.1432 56.0547 16.7656 54.5026 16.7656 52.3516ZM18.2109 52.3516C18.2109 54.2318 18.431 55.4831 18.8711 56.1055C19.3112 56.7279 19.8542 57.0391 20.5 57.0391C21.1458 57.0391 21.6888 56.7266 22.1289 56.1016C22.569 55.4766 22.7891 54.2266 22.7891 52.3516C22.7891 50.4661 22.569 49.2135 22.1289 48.5938C21.6888 47.974 21.1406 47.6641 20.4844 47.6641C19.8385 47.6641 19.3229 47.9375 18.9375 48.4844C18.4531 49.1823 18.2109 50.4713 18.2109 52.3516ZM30.9609 58L29.5547 58L29.5547 49.0391C29.2161 49.362 28.7721 49.6849 28.2227 50.0078C27.6732 50.3307 27.1797 50.5729 26.7422 50.7344L26.7422 49.375C27.5286 49.0052 28.2161 48.5573 28.8047 48.0312C29.3932 47.5052 29.8099 46.9948 30.0547 46.5L30.9609 46.5L30.9609 58ZM34.7734 55.3516L36.125 55.2266C36.2396 55.862 36.4583 56.3229 36.7812 56.6094C37.1042 56.8958 37.5182 57.0391 38.0234 57.0391C38.4557 57.0391 38.8346 56.9401 39.1602 56.7422C39.4857 56.5443 39.7526 56.2799 39.9609 55.9492C40.1693 55.6185 40.3437 55.1719 40.4844 54.6094C40.625 54.0469 40.6953 53.474 40.6953 52.8906C40.6953 52.8281 40.6927 52.7344 40.6875 52.6094C40.4062 53.0573 40.0221 53.4206 39.5352 53.6992C39.0482 53.9779 38.5208 54.1172 37.9531 54.1172C37.0052 54.1172 36.2031 53.7734 35.5469 53.0859C34.8906 52.3984 34.5625 51.4922 34.5625 50.3672C34.5625 49.2057 34.9049 48.2708 35.5898 47.5625C36.2747 46.8542 37.1328 46.5 38.1641 46.5C38.9089 46.5 39.5898 46.7005 40.207 47.1016C40.8242 47.5026 41.293 48.0742 41.6133 48.8164C41.9336 49.5586 42.0938 50.6328 42.0938 52.0391C42.0938 53.5026 41.9349 54.668 41.6172 55.5352C41.2995 56.4023 40.8268 57.0625 40.1992 57.5156C39.5716 57.9688 38.8359 58.1953 37.9922 58.1953C37.0963 58.1953 36.3646 57.9466 35.7969 57.4492C35.2292 56.9518 34.888 56.2526 34.7734 55.3516ZM40.5312 50.2969C40.5312 49.4896 40.3164 48.849 39.8867 48.375C39.457 47.901 38.9401 47.6641 38.3359 47.6641C37.7109 47.6641 37.1667 47.9193 36.7031 48.4297C36.2396 48.9401 36.0078 49.6016 36.0078 50.4141C36.0078 51.1432 36.2279 51.7357 36.668 52.1914C37.1081 52.6471 37.651 52.875 38.2969 52.875C38.9479 52.875 39.4831 52.6471 39.9023 52.1914C40.3216 51.7357 40.5312 51.1042 40.5312 50.2969Z" fill="#000000" fill-rule="evenodd" opacity="1" stroke="none"/>
<path d="M69.1444 92C56.5214 92 46.2886 81.767 46.2886 69.1444C46.2886 56.5215 56.5214 46.2886 69.1444 46.2886C81.7669 46.2886 92 56.5215 92 69.1444C92 81.767 81.7669 92 69.1444 92M69.1562 48.125C57.5433 48.125 48.125 57.5434 48.125 69.1562C48.125 80.7691 57.5433 90.1563 69.1562 90.1562C80.7689 90.1562 90.1562 80.7691 90.1562 69.1562C90.1562 57.5434 80.769 48.125 69.1562 48.125Z" fill="#000000" fill-rule="evenodd" opacity="1" stroke="none"/>
</g>
<g opacity="1">
<path d="M56.1793 62.2882C52.7164 62.2882 49.9091 65.0955 49.9091 68.5585C49.9091 72.0214 52.7164 74.8287 56.1793 74.8287L56.1793 72.5296C53.8707 72.5296 51.9992 70.7517 51.9992 68.5585C51.9992 66.3653 53.8707 64.5873 56.1793 64.5873L56.1793 62.2882Z" fill="#000000" fill-rule="evenodd" opacity="1" stroke="none"/>
<path d="M56.1793 62.2882L56.1793 64.5873L58.191 64.5873L57.4333 62.2882L56.1793 62.2882ZM56.1793 72.5296L56.1793 74.8287L61.5482 74.8287L60.7905 72.5296L56.1793 72.5296Z" fill="#000000" fill-rule="evenodd" opacity="1" stroke="none"/>
</g>
<g opacity="1">
<path d="M79.7057 62.2882L73.9319 74.8287L81.2471 74.8287L82.1485 72.8692L77.289 72.8692L78.9611 69.3945L82.7232 69.3945L83.3633 69.3945L84.2908 67.435L79.7971 67.435L81.2602 64.3783L85.2313 64.3783L86.0543 64.3783L87.0209 62.2882L79.7057 62.2882Z" fill="#000000" fill-rule="evenodd" opacity="1" stroke="none"/>
</g>
<g opacity="1">
<path d="M58.3478 62.2882L62.9067 74.8287L66.4207 74.8287L67.8837 71.2756L68.9157 74.8287L72.6778 74.8287L78.3341 62.5364L78.3341 62.2882L75.5255 62.2882L70.8098 72.7386C70.8098 72.7386 67.7428 63.1988 67.531 62.2882L64.4873 62.2882L66.6297 68.3495L64.7486 72.7386C64.7486 72.7386 61.4797 63.1969 61.2608 62.2882L58.3478 62.2882Z" fill="#000000" fill-rule="evenodd" opacity="1" stroke="none"/>
</g>
</g>
</svg>
