<?xml version="1.0" encoding="UTF-8" standalone="no"?>
<!DOCTYPE svg PUBLIC "-//W3C//DTD SVG 1.1//EN" "http://www.w3.org/Graphics/SVG/1.1/DTD/svg11.dtd">
<!-- Created with Vectornator (http://vectornator.io/) -->
<svg height="100%" stroke-miterlimit="10" style="fill-rule:nonzero;clip-rule:evenodd;stroke-linecap:round;stroke-linejoin:round;" version="1.1" viewBox="0 0 98 98" width="100%" xml:space="preserve" xmlns="http://www.w3.org/2000/svg" xmlns:vectornator="http://vectornator.io" xmlns:xlink="http://www.w3.org/1999/xlink">
<defs/>
<g id="Layer-1" vectornator:layerName="Layer 1">
<g opacity="1">
<path d="M20.6077 34C12.3234 34 5.60768 40.7157 5.60768 49C5.60768 57.2843 12.3234 64 20.6077 64L20.6077 58.5C15.0848 58.5 10.6077 54.2467 10.6077 49C10.6077 43.7533 15.0848 39.5 20.6077 39.5L20.6077 34Z" fill="#000000" fill-rule="evenodd" opacity="1" stroke="none"/>
<path d="M20.6077 34L20.6077 39.5L25.4202 39.5L23.6077 34L20.6077 34ZM20.6077 58.5L20.6077 64L33.4514 64L31.6389 58.5L20.6077 58.5Z" fill="#000000" fill-rule="evenodd" opacity="1" stroke="none"/>
</g>
<g opacity="1">
<path d="M76.8889 34L63.0764 64L80.5764 64L82.7327 59.3125L71.1077 59.3125L75.1077 51L84.1077 51L85.6389 51L87.8577 46.3125L77.1077 46.3125L80.6077 39L90.1077 39L92.0764 39L94.3889 34L76.8889 34Z" fill="#000000" fill-rule="evenodd" opacity="1" stroke="none"/>
</g>
<g opacity="1">
<path d="M25.7952 34L36.7014 64L45.1077 64L48.6077 55.5L51.0764 64L60.0764 64L73.6077 34.5938L73.6077 34L66.8889 34L55.6077 59C55.6077 59 48.2706 36.1784 47.7639 34L40.4827 34L45.6077 48.5L41.1077 59C41.1077 59 33.2877 36.1737 32.7639 34L25.7952 34Z" fill="#000000" fill-rule="evenodd" opacity="1" stroke="none"/>
</g>
</g>
</svg>
