<?xml version="1.0" encoding="UTF-8" standalone="no"?>
<!DOCTYPE svg PUBLIC "-//W3C//DTD SVG 1.1//EN" "http://www.w3.org/Graphics/SVG/1.1/DTD/svg11.dtd">
<!-- Created with Vectornator (http://vectornator.io/) -->
<svg height="100%" stroke-miterlimit="10" style="fill-rule:nonzero;clip-rule:evenodd;stroke-linecap:round;stroke-linejoin:round;" version="1.1" viewBox="0 0 92 92" width="100%" xml:space="preserve" xmlns="http://www.w3.org/2000/svg" xmlns:vectornator="http://vectornator.io" xmlns:xlink="http://www.w3.org/1999/xlink">
<defs/>
<clipPath id="ArtboardFrame">
<rect height="92" width="92" x="0" y="0"/>
</clipPath>
<g clip-path="url(#ArtboardFrame)" id="cwetop25-2020" vectornator:layerName="cwetop25-2020">
<path d="M69.1444 92C56.5214 92 46.2886 81.767 46.2886 69.1444C46.2886 56.5215 56.5214 46.2886 69.1444 46.2886C81.7669 46.2886 92 56.5215 92 69.1444C92 81.767 81.7669 92 69.1444 92M69.1562 48.125C57.5433 48.125 48.125 57.5434 48.125 69.1562C48.125 80.7691 57.5433 90.1563 69.1562 90.1562C80.7689 90.1562 90.1562 80.7691 90.1562 69.1562C90.1562 57.5434 80.769 48.125 69.1562 48.125Z" fill="#000000" fill-rule="evenodd" opacity="1" stroke="none"/>
<path d="M8 0C3.58172 0 0 3.58172 0 8L0 63C0 67.4183 3.58172 71 8 71L45.1562 71C45.1251 70.4939 45 70.014 45 69.5C45 56.1407 55.7061 45.336 69 45.0625L69 8C69 3.58172 65.4183 0 61 0L8 0ZM30.5625 8C33.4999 8 35.7902 8.82608 37.4688 10.4688C39.1473 12.1114 40 14.1508 40 16.5938C40 17.9837 39.7618 19.3059 39.2812 20.5625C38.8007 21.8191 38.0423 23.1241 37 24.5C36.3096 25.4126 35.0503 26.7246 33.25 28.4375C31.4497 30.1504 30.3243 31.3134 29.8438 31.875C29.3632 32.4366 28.954 32.9665 28.6562 33.5L40 33.5L40 39L20 39C20.2166 36.9221 20.8546 34.954 21.9375 33.0938C23.0204 31.2335 25.1804 28.7622 28.375 25.6875C30.9469 23.2024 32.5117 21.5095 33.0938 20.625C33.8789 19.4035 34.2813 18.1934 34.2812 17C34.2812 15.6802 33.9336 14.6778 33.25 13.9688C32.5664 13.2597 31.611 12.9063 30.4062 12.9062C29.215 12.9062 28.2664 13.2871 27.5625 14.0312C26.8586 14.7754 26.452 15.9918 26.3438 17.7188L20.6562 17.125C20.9947 13.8677 22.0569 11.543 23.8438 10.125C25.6306 8.70697 27.8823 8 30.5625 8ZM48.625 8L63.6875 8L63.6875 13.5312L52.9375 13.5312L52.0312 18.7812C53.3024 18.1209 54.6123 17.8125 55.9375 17.8125C58.4662 17.8125 60.6171 18.7455 62.375 20.6562C64.133 22.567 65 25.045 65 28.0938C65 30.6367 64.2949 32.9112 62.875 34.9062C60.9413 37.6318 58.2473 39 54.8125 39C52.0674 39 49.8247 38.2189 48.0938 36.6875C46.3628 35.1561 45.3381 33.1163 45 30.5312L50.6875 29.9062C50.8498 31.2409 51.3271 32.314 52.125 33.0938C52.9228 33.8735 53.8338 34.25 54.875 34.25C56.065 34.25 57.0814 33.7545 57.9062 32.75C58.7311 31.7455 59.125 30.2419 59.125 28.2188C59.125 26.3221 58.7244 24.8858 57.9062 23.9375C57.0881 22.9892 56.0304 22.5312 54.7188 22.5312C53.0825 22.5312 51.6107 23.278 50.3125 24.7812L45.6875 24.0938L48.625 8ZM10.8438 11C11.6351 11 12.327 11.2464 12.875 11.75C13.423 12.2536 13.6875 13.1839 13.6875 14.5L13.6875 16.875L17.4688 16.875L17.4688 18.0938L8.15625 18.0938L8.15625 14.5938C8.15625 13.9759 8.19076 13.5133 8.25 13.1875C8.32617 12.7305 8.47379 12.3402 8.6875 12.0312C8.90121 11.7223 9.20865 11.4696 9.59375 11.2812C9.97884 11.0929 10.3825 11 10.8438 11ZM12.8438 19.6875C13.7874 19.6875 14.6302 19.8691 15.375 20.25C16.1198 20.6309 16.6795 21.1768 17.0625 21.875C17.4455 22.5732 17.625 23.3167 17.625 24.125C17.625 25.001 17.4232 25.8102 17 26.5C16.5768 27.1898 15.9821 27.707 15.25 28.0625C14.5179 28.418 13.7542 28.5937 12.9375 28.5938C11.3929 28.5938 10.1864 28.1732 9.3125 27.3438C8.43863 26.5143 8 25.4369 8 24.125C8 23.2659 8.21452 22.5023 8.625 21.8125C9.03548 21.1227 9.60953 20.5806 10.3438 20.2188C11.078 19.8569 11.9128 19.6875 12.8438 19.6875ZM8.15625 29.25L9.25 29.25L9.25 32.3125L17.4688 32.3125L17.4688 33.5625L9.25 33.5625L9.25 36.625L8.15625 36.625L8.15625 29.25ZM11.5938 46.1875C12.6927 46.1875 13.5469 46.5156 14.1875 47.125C14.8281 47.7344 15.1562 48.474 15.1562 49.375C15.1562 49.8333 15.0625 50.276 14.875 50.7188C14.6875 51.1615 14.3724 51.6354 13.9375 52.125C13.5026 52.6146 12.7917 53.3021 11.7812 54.1562C10.9375 54.8646 10.3958 55.3411 10.1562 55.5938C9.91667 55.8464 9.71875 56.0885 9.5625 56.3438L15.1875 56.3438L15.1875 57.6875L7.59375 57.6875C7.58333 57.349 7.66146 57.0313 7.78125 56.7188C7.97396 56.2031 8.26302 55.6875 8.6875 55.1875C9.11198 54.6875 9.72917 54.125 10.5312 53.4688C11.776 52.4479 12.625 51.6276 13.0625 51.0312C13.5 50.4349 13.7188 49.875 13.7188 49.3438C13.7188 48.7865 13.5234 48.3203 13.125 47.9375C12.7266 47.5547 12.2031 47.375 11.5625 47.375C10.8854 47.375 10.3438 47.5625 9.9375 47.9688C9.53125 48.375 9.31771 48.9375 9.3125 49.6562L7.875 49.5C7.97396 48.4219 8.35417 47.5964 9 47.0312C9.64583 46.4661 10.5052 46.1875 11.5938 46.1875ZM20.4062 46.1875C21.0208 46.1875 21.5677 46.3151 22.0312 46.5625C22.4948 46.8099 22.8854 47.1589 23.1875 47.625C23.4896 48.0911 23.7344 48.6745 23.9062 49.3438C24.0781 50.013 24.1562 50.9271 24.1562 52.0625C24.1562 53.4062 24.026 54.487 23.75 55.3125C23.474 56.138 23.0495 56.7682 22.5 57.2188C21.9505 57.6693 21.2448 57.9062 20.4062 57.9062C19.3021 57.9062 18.4427 57.5104 17.8125 56.7188C17.0573 55.7656 16.6875 54.2135 16.6875 52.0625C16.6875 50.7083 16.8151 49.6068 17.0938 48.7812C17.3724 47.9557 17.7943 47.3229 18.3438 46.875C18.8932 46.4271 19.5729 46.1875 20.4062 46.1875ZM29.375 46.1875C30.474 46.1875 31.3594 46.5156 32 47.125C32.6406 47.7344 32.9688 48.474 32.9688 49.375C32.9688 49.8333 32.875 50.276 32.6875 50.7188C32.5 51.1615 32.1849 51.6354 31.75 52.125C31.3151 52.6146 30.5729 53.3021 29.5625 54.1562C28.7187 54.8646 28.1771 55.3411 27.9375 55.5938C27.6979 55.8464 27.5 56.0885 27.3438 56.3438L32.9688 56.3438L32.9688 57.6875L25.4062 57.6875C25.3958 57.349 25.4427 57.0313 25.5625 56.7188C25.7552 56.2031 26.0755 55.6875 26.5 55.1875C26.9245 54.6875 27.5417 54.125 28.3438 53.4688C29.5885 52.4479 30.4062 51.6276 30.8438 51.0312C31.2813 50.4349 31.5 49.875 31.5 49.3438C31.5 48.7865 31.3047 48.3203 30.9062 47.9375C30.5078 47.5547 29.9844 47.375 29.3438 47.375C28.6667 47.375 28.125 47.5625 27.7188 47.9688C27.3125 48.375 27.1302 48.9375 27.125 49.6562L25.6562 49.5C25.7552 48.4219 26.1354 47.5964 26.7812 47.0312C27.4271 46.4661 28.2865 46.1875 29.375 46.1875ZM38.0625 46.1875C38.6875 46.1875 39.2865 46.3255 39.8125 46.5938C40.3385 46.862 40.7214 47.224 41 47.6875C41.2786 48.151 41.4375 48.6667 41.4375 49.1875C41.4375 49.6823 41.2969 50.125 41.0312 50.5312C40.7656 50.9375 40.3646 51.2604 39.8438 51.5C40.5208 51.6563 41.0625 51.9766 41.4375 52.4688C41.8125 52.9609 42 53.5729 42 54.3125C42 55.3125 41.6354 56.1484 40.9062 56.8438C40.1771 57.5391 39.2396 57.9062 38.125 57.9062C37.1198 57.9062 36.2891 57.599 35.625 57C34.9609 56.401 34.5938 55.6406 34.5 54.6875L35.9062 54.5C36.0677 55.2969 36.3307 55.8672 36.7188 56.2188C37.1068 56.5703 37.5677 56.75 38.125 56.75C38.7865 56.75 39.3568 56.5208 39.8125 56.0625C40.2682 55.6042 40.5 55.0208 40.5 54.3438C40.5 53.6979 40.2969 53.1693 39.875 52.75C39.4531 52.3307 38.901 52.125 38.25 52.125C37.9844 52.125 37.6458 52.1771 37.25 52.2812L37.4062 51.0312C37.5 51.0417 37.599 51.0625 37.6562 51.0625C38.2552 51.0625 38.7708 50.9062 39.25 50.5938C39.7292 50.2812 39.9688 49.8073 39.9688 49.1562C39.9688 48.6406 39.8177 48.2135 39.4688 47.875C39.1198 47.5365 38.6458 47.3438 38.0938 47.3438C37.5469 47.3438 37.1146 47.5312 36.75 47.875C36.3854 48.2188 36.1354 48.7187 36.0312 49.4062L34.625 49.1562C34.7969 48.2135 35.2031 47.487 35.8125 46.9688C36.4219 46.4505 37.1562 46.1875 38.0625 46.1875ZM10.9062 12.2812C10.5169 12.2812 10.1834 12.3657 9.90625 12.5625C9.62907 12.7593 9.43262 13.0221 9.34375 13.3438C9.28874 13.5511 9.25 13.9414 9.25 14.5L9.25 16.875L12.5938 16.875L12.5938 14.4688C12.5938 13.6732 12.4525 13.1156 12.1562 12.7812C11.86 12.4469 11.4437 12.2812 10.9062 12.2812ZM12.8125 20.9688C12.055 20.9688 11.4087 21.0877 10.8438 21.3438C10.2788 21.5998 9.84229 21.9757 9.53125 22.4688C9.22021 22.9618 9.0625 23.5114 9.0625 24.125C9.0625 24.9967 9.36995 25.7466 9.96875 26.375C10.5675 27.0034 11.568 27.3125 12.9688 27.3125C14.0902 27.3125 14.9484 27.0093 15.5938 26.4062C16.2391 25.8032 16.5625 25.0661 16.5625 24.1562C16.5625 23.2295 16.2454 22.4425 15.5938 21.8438C14.9421 21.245 14.0101 20.9688 12.8125 20.9688ZM20.4062 47.375C19.7604 47.375 19.2292 47.6406 18.8438 48.1875C18.3594 48.8854 18.125 50.1823 18.125 52.0625C18.125 53.9427 18.3411 55.1901 18.7812 55.8125C19.2214 56.4349 19.7604 56.75 20.4062 56.75C21.0521 56.75 21.5911 56.4375 22.0312 55.8125C22.4714 55.1875 22.7188 53.9375 22.7188 52.0625C22.7188 50.1771 22.4714 48.901 22.0312 48.2812C21.5911 47.6615 21.0625 47.375 20.4062 47.375Z" fill="#000000" fill-rule="nonzero" opacity="1" stroke="none"/>
<g opacity="1">
<path d="M56.1793 62.2882C52.7164 62.2882 49.9091 65.0955 49.9091 68.5585C49.9091 72.0214 52.7164 74.8287 56.1793 74.8287L56.1793 72.5296C53.8707 72.5296 51.9992 70.7517 51.9992 68.5585C51.9992 66.3653 53.8707 64.5873 56.1793 64.5873L56.1793 62.2882Z" fill="#000000" fill-rule="evenodd" opacity="1" stroke="none"/>
<path d="M56.1793 62.2882L56.1793 64.5873L58.191 64.5873L57.4333 62.2882L56.1793 62.2882ZM56.1793 72.5296L56.1793 74.8287L61.5482 74.8287L60.7905 72.5296L56.1793 72.5296Z" fill="#000000" fill-rule="evenodd" opacity="1" stroke="none"/>
</g>
<g opacity="1">
<path d="M79.7057 62.2882L73.9319 74.8287L81.2471 74.8287L82.1485 72.8692L77.289 72.8692L78.9611 69.3945L82.7232 69.3945L83.3633 69.3945L84.2908 67.435L79.7971 67.435L81.2602 64.3783L85.2313 64.3783L86.0543 64.3783L87.0209 62.2882L79.7057 62.2882Z" fill="#000000" fill-rule="evenodd" opacity="1" stroke="none"/>
</g>
<g opacity="1">
<path d="M58.3478 62.2882L62.9067 74.8287L66.4207 74.8287L67.8837 71.2756L68.9157 74.8287L72.6778 74.8287L78.3341 62.5364L78.3341 62.2882L75.5255 62.2882L70.8098 72.7386C70.8098 72.7386 67.7428 63.1988 67.531 62.2882L64.4873 62.2882L66.6297 68.3495L64.7486 72.7386C64.7486 72.7386 61.4797 63.1969 61.2608 62.2882L58.3478 62.2882Z" fill="#000000" fill-rule="evenodd" opacity="1" stroke="none"/>
</g>
</g>
</svg>
