<?xml version="1.0" encoding="UTF-8" standalone="no"?>
<!DOCTYPE svg PUBLIC "-//W3C//DTD SVG 1.1//EN" "http://www.w3.org/Graphics/SVG/1.1/DTD/svg11.dtd">
<!-- Created with Vectornator (http://vectornator.io/) -->
<svg height="100%" stroke-miterlimit="10" style="fill-rule:nonzero;clip-rule:evenodd;stroke-linecap:round;stroke-linejoin:round;" version="1.1" viewBox="0 0 98 98" width="100%" xml:space="preserve" xmlns="http://www.w3.org/2000/svg" xmlns:vectornator="http://vectornator.io" xmlns:xlink="http://www.w3.org/1999/xlink">
<defs/>
<g id="cwe-inverted" vectornator:layerName="cwe inverted">
<path d="M0 0L0 98L98 98L98 0L0 0ZM19.625 34L22.625 34L24.4375 39.5L19.625 39.5C14.1022 39.5 9.625 43.7533 9.625 49C9.625 54.2467 14.1022 58.5 19.625 58.5L30.6562 58.5L32.4688 64L19.625 64C11.3407 64 4.625 57.2843 4.625 49C4.625 40.7157 11.3407 34 19.625 34ZM24.8125 34L31.7812 34C32.305 36.1737 40.125 59 40.125 59L44.625 48.5L39.5 34L46.7812 34C47.2879 36.1784 54.625 59 54.625 59L65.9062 34L72.625 34L72.625 34.5938L59.0938 64L50.0938 64L47.625 55.5L44.125 64L35.7188 64L24.8125 34ZM75.9062 34L93.4062 34L91.0938 39L89.125 39L79.625 39L76.125 46.3125L86.875 46.3125L84.6562 51L83.125 51L74.125 51L70.125 59.3125L81.75 59.3125L79.5938 64L62.0938 64L75.9062 34Z" fill="#000000" fill-rule="nonzero" opacity="1" stroke="none"/>
</g>
</svg>
