<?xml version="1.0" encoding="UTF-8" standalone="no"?>
<!DOCTYPE svg PUBLIC "-//W3C//DTD SVG 1.1//EN" "http://www.w3.org/Graphics/SVG/1.1/DTD/svg11.dtd">
<!-- Created with Vectornator (http://vectornator.io/) -->
<svg height="100%" stroke-miterlimit="10" style="fill-rule:nonzero;clip-rule:evenodd;stroke-linecap:round;stroke-linejoin:round;" version="1.1" viewBox="0 0 512 512" width="100%" xml:space="preserve" xmlns="http://www.w3.org/2000/svg" xmlns:vectornator="http://vectornator.io" xmlns:xlink="http://www.w3.org/1999/xlink">
<defs/>
<g id="Layer-1" vectornator:layerName="Layer 1">
<path d="M325.233 420.588L325.233 396.538C379.35 370.594 416.721 315.302 416.721 251.28C416.721 162.362 344.639 90.2792 255.721 90.2792C166.803 90.2792 94.7211 162.362 94.7211 251.28C94.7211 337.181 161.996 407.361 246.733 412.026L246.733 316.28L194.733 316.28L194.733 218.28L214.733 218.28L214.733 198.28L214.756 198.28C215.015 192.711 219.61 188.275 225.243 188.275C230.876 188.275 235.472 192.711 235.73 198.28L235.733 198.28L235.733 198.372C235.738 198.506 235.743 198.64 235.743 198.775C235.743 198.91 235.738 199.045 235.733 199.179L235.733 218.28L277.733 218.28L277.733 198.28L277.756 198.28C278.015 192.711 282.61 188.275 288.243 188.275C293.876 188.275 298.472 192.711 298.73 198.28L298.733 198.28L298.733 198.372C298.738 198.506 298.743 198.64 298.743 198.775C298.743 198.91 298.738 199.045 298.733 199.179L298.733 218.28L318.733 218.28L318.733 316.28L267.733 316.28L267.733 412.28L267.733 434.28C263.914 434.518 259.567 434.28 255.689 434.28C154.621 434.28 72.6891 352.348 72.6891 251.28C72.6891 150.211 154.621 68.2792 255.689 68.2792C356.757 68.2792 438.689 150.211 438.689 251.28C438.689 327.726 391.808 393.211 325.233 420.588L325.233 420.588Z" fill="#000000" fill-rule="nonzero" opacity="1" stroke="none"/>
</g>
</svg>
