<?xml version="1.0" encoding="UTF-8" standalone="no"?>
<!DOCTYPE svg PUBLIC "-//W3C//DTD SVG 1.1//EN" "http://www.w3.org/Graphics/SVG/1.1/DTD/svg11.dtd">
<!-- Created with Vectornator (http://vectornator.io/) -->
<svg height="100%" stroke-miterlimit="10" style="fill-rule:nonzero;clip-rule:evenodd;stroke-linecap:round;stroke-linejoin:round;" version="1.1" viewBox="0 0 500 500" width="100%" xml:space="preserve" xmlns="http://www.w3.org/2000/svg" xmlns:vectornator="http://vectornator.io" xmlns:xlink="http://www.w3.org/1999/xlink">
<defs/>
<g id="Maintainabiliy-in-App" vectornator:layerName="Maintainabiliy-in-App">
<path d="M249.434 68.968C349.669 68.968 430.926 150.255 430.926 250.527C430.926 350.799 349.669 432.086 249.434 432.086C149.198 432.086 67.94 350.799 67.94 250.527C67.94 150.255 149.198 68.968 249.434 68.968L249.434 68.968ZM248.516 408.636C335.258 408.636 405.577 338.122 405.577 251.138C405.577 164.154 335.258 93.64 248.516 93.64C161.773 93.64 91.455 164.154 91.455 251.138C91.456 338.122 161.773 408.636 248.516 408.636L248.516 408.636ZM166.213 244.113L166.611 240.917L166.677 240.185L166.677 206.877C166.677 193.424 171.828 186.7 182.132 186.7L202.828 186.7L202.828 194.224L195.2 194.224L192.945 194.224L191.154 194.358C188.589 194.713 187.306 197.133 187.306 201.617L187.306 203.149L187.306 236.19C187.306 243.827 184.542 249.642 179.015 253.638C184.542 257.324 187.306 263.138 187.306 271.085L187.306 304.06L187.306 305.525C187.306 308.943 187.792 311.052 188.765 311.851C189.737 312.651 192.347 313.051 196.592 313.051L202.695 313.051L202.695 320.376L179.678 320.31C171.011 320.31 166.677 313.784 166.677 300.732L166.677 267.157C166.677 260.409 164.489 256.569 160.111 255.636L160.111 250.175C163.825 249.331 165.858 247.31 166.213 244.113L166.213 244.113ZM219.187 250.955L235.958 267.727L274.958 228.999L291.961 228.999L235.929 284.667L227.444 276.182L202.129 250.866L219.187 250.955L219.187 250.955ZM302.792 312.783L304.583 312.649C307.147 312.294 308.431 309.874 308.431 305.39L308.431 303.858L308.431 270.816C308.431 263.182 311.194 257.365 316.722 253.37C311.194 249.729 308.431 243.913 308.431 235.922L308.431 203.014L308.431 201.548C308.431 198.131 307.944 196.022 306.972 195.222C305.999 194.423 303.39 194.023 299.145 194.023L293.042 194.023L293.042 186.698L316.059 186.698C324.726 186.698 329.06 193.224 329.06 206.276L329.06 239.849C329.06 246.598 331.27 250.438 335.693 251.37L335.693 256.83C331.934 257.674 329.878 259.694 329.524 262.89L329.126 266.087L329.06 266.819L329.06 300.127C329.06 313.579 323.908 320.305 313.605 320.305L292.976 320.305L292.976 312.78L300.604 312.78L302.792 312.78L302.792 312.783Z" fill="#000000" fill-rule="evenodd" opacity="1" stroke="none"/>
</g>
</svg>
