<?xml version="1.0" encoding="UTF-8" standalone="no"?>
<!DOCTYPE svg PUBLIC "-//W3C//DTD SVG 1.1//EN" "http://www.w3.org/Graphics/SVG/1.1/DTD/svg11.dtd">
<!-- Created with Vectornator (http://vectornator.io/) -->
<svg height="100%" stroke-miterlimit="10" style="fill-rule:nonzero;clip-rule:evenodd;stroke-linecap:round;stroke-linejoin:round;" version="1.1" viewBox="0 0 512 512" width="100%" xml:space="preserve" xmlns="http://www.w3.org/2000/svg" xmlns:vectornator="http://vectornator.io" xmlns:xlink="http://www.w3.org/1999/xlink">
<defs/>
<g id="com.castsoftware.mips-redux-index" vectornator:layerName="com.castsoftware.mips-redux-index">
<g opacity="1">
<g opacity="1">
<path d="M34 239L82 239L82 273L34 273L34 239Z" fill="#000000" fill-rule="evenodd" opacity="1" stroke="none"/>
<path d="M34 297L82 297L82 331L34 331L34 297Z" fill="#000000" fill-rule="evenodd" opacity="1" stroke="none"/>
<path d="M34 355L82 355L82 389L34 389L34 355Z" fill="#000000" fill-rule="evenodd" opacity="1" stroke="none"/>
<path d="M34 181L82 181L82 215L34 215L34 181Z" fill="#000000" fill-rule="evenodd" opacity="1" stroke="none"/>
<path d="M34 123L82 123L82 157L34 157L34 123Z" fill="#000000" fill-rule="evenodd" opacity="1" stroke="none"/>
<path d="M478 239L430 239L430 273L478 273L478 239Z" fill="#000000" fill-rule="evenodd" opacity="1" stroke="none"/>
<path d="M478 297L430 297L430 331L478 331L478 297Z" fill="#000000" fill-rule="evenodd" opacity="1" stroke="none"/>
<path d="M478 355L430 355L430 389L478 389L478 355Z" fill="#000000" fill-rule="evenodd" opacity="1" stroke="none"/>
<path d="M478 181L430 181L430 215L478 215L478 181Z" fill="#000000" fill-rule="evenodd" opacity="1" stroke="none"/>
<path d="M478 123L430 123L430 157L478 157L478 123Z" fill="#000000" fill-rule="evenodd" opacity="1" stroke="none"/>
<path d="M239 478L239 430L273 430L273 478L239 478Z" fill="#000000" fill-rule="evenodd" opacity="1" stroke="none"/>
<path d="M297 478L297 430L331 430L331 478L297 478Z" fill="#000000" fill-rule="evenodd" opacity="1" stroke="none"/>
<path d="M355 478L355 430L389 430L389 478L355 478Z" fill="#000000" fill-rule="evenodd" opacity="1" stroke="none"/>
<path d="M181 478L181 430L215 430L215 478L181 478Z" fill="#000000" fill-rule="evenodd" opacity="1" stroke="none"/>
<path d="M123 478L123 430L157 430L157 478L123 478Z" fill="#000000" fill-rule="evenodd" opacity="1" stroke="none"/>
<path d="M239 34L239 82L273 82L273 34L239 34Z" fill="#000000" fill-rule="evenodd" opacity="1" stroke="none"/>
<path d="M297 34L297 82L331 82L331 34L297 34Z" fill="#000000" fill-rule="evenodd" opacity="1" stroke="none"/>
<path d="M355 34L355 82L389 82L389 34L355 34Z" fill="#000000" fill-rule="evenodd" opacity="1" stroke="none"/>
<path d="M181 34L181 82L215 82L215 34L181 34Z" fill="#000000" fill-rule="evenodd" opacity="1" stroke="none"/>
<path d="M123 34L123 82L157 82L157 34L123 34Z" fill="#000000" fill-rule="evenodd" opacity="1" stroke="none"/>
</g>
<path d="M82 82L82 430L430 430L430 82L82 82ZM97 98L415 98L415 416L97 416L97 98Z" fill="#000000" fill-rule="evenodd" opacity="1" stroke="none"/>
<path d="M106 106L106 406L406 406L406 106L106 106ZM336.594 197.375C339.282 197.375 341.872 197.681 344.344 198.281C346.816 198.881 349.017 199.843 350.938 201.188C352.858 202.532 354.372 204.256 355.5 206.344C356.628 208.432 357.188 210.961 357.188 213.938L346.25 213.938C346.154 212.401 345.833 211.133 345.281 210.125C344.729 209.117 344.006 208.326 343.094 207.75C342.182 207.174 341.114 206.74 339.938 206.5C338.761 206.26 337.486 206.156 336.094 206.156C335.182 206.156 334.287 206.246 333.375 206.438C332.463 206.629 331.619 206.957 330.875 207.438C330.131 207.918 329.511 208.53 329.031 209.25C328.551 209.97 328.313 210.865 328.312 211.969C328.312 212.977 328.522 213.813 328.906 214.438C329.29 215.061 330.028 215.628 331.156 216.156C332.284 216.684 333.852 217.222 335.844 217.75C337.836 218.278 340.44 218.934 343.656 219.75C344.616 219.942 345.952 220.308 347.656 220.812C349.36 221.316 351.039 222.115 352.719 223.219C354.399 224.323 355.87 225.808 357.094 227.656C358.318 229.504 358.906 231.87 358.906 234.75C358.906 237.102 358.475 239.265 357.562 241.281C356.65 243.297 355.269 245.036 353.469 246.5C351.669 247.964 349.445 249.121 346.781 249.938C344.117 250.753 341.035 251.156 337.531 251.156C334.699 251.156 331.945 250.79 329.281 250.094C326.617 249.398 324.29 248.332 322.25 246.844C320.21 245.356 318.575 243.46 317.375 241.156C316.175 238.852 315.608 236.105 315.656 232.938L326.594 232.938C326.594 234.665 326.907 236.112 327.531 237.312C328.155 238.513 328.968 239.506 330 240.25C331.032 240.994 332.264 241.546 333.656 241.906C335.048 242.266 336.481 242.438 337.969 242.438C338.977 242.438 340.067 242.356 341.219 242.188C342.371 242.02 343.429 241.699 344.438 241.219C345.445 240.739 346.297 240.09 346.969 239.25C347.641 238.41 347.969 237.327 347.969 236.031C347.969 234.639 347.544 233.52 346.656 232.656C345.768 231.792 344.596 231.076 343.156 230.5C341.716 229.924 340.074 229.401 338.25 228.969C336.426 228.537 334.591 228.059 332.719 227.531C330.799 227.051 328.918 226.477 327.094 225.781C325.27 225.085 323.628 224.167 322.188 223.062C320.747 221.958 319.607 220.594 318.719 218.938C317.831 217.282 317.375 215.258 317.375 212.906C317.375 210.266 317.934 207.975 319.062 206.031C320.19 204.087 321.676 202.484 323.5 201.188C325.324 199.892 327.383 198.937 329.688 198.312C331.992 197.689 334.29 197.375 336.594 197.375ZM142.312 198.594L158.219 198.594L170.25 233.938L170.406 233.938L181.781 198.594L197.688 198.594L197.688 250L187.094 250L187.094 213.562L186.969 213.562L174.375 250L165.656 250L153.062 213.938L152.906 213.938L152.906 250L142.312 250L142.312 198.594ZM221.625 198.594L232.938 198.594L232.938 250L221.625 250L221.625 198.594ZM256.875 198.594L280.062 198.594C283.278 198.594 285.994 199.064 288.25 200C290.506 200.936 292.334 202.183 293.75 203.719C295.166 205.255 296.227 207.001 296.875 208.969C297.523 210.937 297.844 212.982 297.844 215.094C297.844 217.158 297.523 219.164 296.875 221.156C296.227 223.148 295.166 224.933 293.75 226.469C292.334 228.005 290.506 229.22 288.25 230.156C285.994 231.092 283.279 231.562 280.062 231.562L268.156 231.562L268.156 250L256.875 250L256.875 198.594ZM185.094 291.281L197.188 291.281C199.635 291.281 201.558 291.894 202.938 293.094C204.318 294.294 205 295.943 205 298.031C205 299.591 204.646 300.949 203.938 302.125C203.23 303.301 202.091 304.099 200.531 304.531L200.531 304.625C201.275 304.769 201.907 305.008 202.375 305.344C202.843 305.68 203.193 306.063 203.469 306.531C203.745 306.999 203.962 307.518 204.094 308.094C204.226 308.67 204.334 309.282 204.406 309.906C204.454 310.53 204.476 311.164 204.5 311.812C204.524 312.46 204.592 313.095 204.688 313.719C204.783 314.343 204.914 314.936 205.094 315.5C205.274 316.064 205.546 316.568 205.906 317L202.094 317C201.854 316.736 201.678 316.362 201.594 315.906C201.51 315.45 201.461 314.939 201.438 314.375C201.414 313.811 201.399 313.211 201.375 312.562C201.351 311.915 201.276 311.28 201.156 310.656C201.06 310.032 200.925 309.439 200.781 308.875C200.637 308.311 200.437 307.826 200.125 307.406C199.813 306.986 199.379 306.658 198.875 306.406C198.371 306.154 197.715 306.031 196.875 306.031L188.531 306.031L188.531 317L185.094 317L185.094 291.281ZM215.25 291.281L233 291.281L233 294.188L218.656 294.188L218.656 302.344L232.031 302.344L232.031 305.219L218.656 305.219L218.656 314.125L233.094 314.125L233.094 317L215.25 317L215.25 291.281ZM242.719 291.281L251.562 291.281C255.522 291.281 258.551 292.296 260.688 294.312C262.824 296.328 263.906 299.403 263.906 303.531C263.906 305.691 263.668 307.613 263.188 309.281C262.708 310.949 261.946 312.36 260.938 313.5C259.929 314.64 258.654 315.494 257.094 316.094C255.534 316.694 253.699 317 251.562 317L242.719 317L242.719 291.281ZM273.406 291.281L276.844 291.281L276.844 307.719C276.844 310.023 277.432 311.75 278.656 312.938C279.88 314.126 281.665 314.719 283.969 314.719C286.153 314.719 287.797 314.125 288.938 312.938C290.078 311.749 290.656 310.023 290.656 307.719L290.656 291.281L294.062 291.281L294.062 307.719C294.063 311.007 293.19 313.481 291.438 315.125C289.686 316.769 287.209 317.562 283.969 317.562C280.657 317.562 278.048 316.791 276.188 315.219C274.328 313.647 273.406 311.151 273.406 307.719L273.406 291.281ZM302.688 291.281L306.812 291.281L313.219 301.344L319.906 291.281L323.719 291.281L315.219 303.781L324.25 317L320.094 317L313.156 306.375L306.031 317L302.219 317L311.156 303.781L302.688 291.281ZM268.156 207.375L268.156 222.781L276.938 222.781C278.233 222.781 279.487 222.692 280.688 222.5C281.888 222.308 282.963 221.927 283.875 221.375C284.787 220.823 285.51 220.039 286.062 219.031C286.615 218.023 286.875 216.726 286.875 215.094C286.875 213.462 286.615 212.133 286.062 211.125C285.51 210.117 284.787 209.333 283.875 208.781C282.963 208.229 281.888 207.848 280.688 207.656C279.488 207.464 278.234 207.375 276.938 207.375L268.156 207.375ZM188.531 294.188L188.531 303.125L195.656 303.125C196.448 303.125 197.186 303.089 197.906 302.969C198.626 302.849 199.272 302.598 199.812 302.25C200.353 301.902 200.77 301.432 201.094 300.844C201.418 300.256 201.594 299.499 201.594 298.562C201.594 297.266 201.22 296.222 200.5 295.406C199.78 294.59 198.639 294.188 197.031 294.188L188.531 294.188ZM246.156 294.188L246.156 314.125L251.844 314.125C252.228 314.125 252.705 314.091 253.281 314.031C253.857 313.971 254.477 313.822 255.125 313.594C255.773 313.366 256.395 313.026 257.031 312.594C257.667 312.162 258.246 311.588 258.75 310.844C259.254 310.1 259.676 309.179 260 308.062C260.324 306.946 260.469 305.584 260.469 304C260.469 302.464 260.331 301.087 260.031 299.875C259.731 298.663 259.247 297.633 258.562 296.781C257.878 295.929 256.986 295.288 255.906 294.844C254.826 294.4 253.49 294.188 251.906 294.188L246.156 294.188Z" fill="#000000" fill-rule="evenodd" opacity="1" stroke="none"/>
</g>
<g fill="#ffffff" opacity="0" stroke="none">
<path d="M170.32 207.592L170.32 259L180.904 259L180.904 222.928L181.048 222.928L193.648 259L202.36 259L214.96 222.568L215.104 222.568L215.104 259L225.688 259L225.688 207.592L209.776 207.592L198.4 242.944L198.256 242.944L186.232 207.592L170.32 207.592Z"/>
<path d="M235.624 207.592L235.624 259L246.928 259L246.928 207.592L235.624 207.592Z"/>
<path d="M268.168 231.784L268.168 216.376L276.952 216.376C278.248 216.376 279.496 216.472 280.696 216.664C281.896 216.856 282.952 217.228 283.864 217.78C284.776 218.332 285.508 219.112 286.06 220.12C286.612 221.128 286.888 222.448 286.888 224.08C286.888 225.712 286.612 227.032 286.06 228.04C285.508 229.048 284.776 229.828 283.864 230.38C282.952 230.932 281.896 231.304 280.696 231.496C279.496 231.688 278.248 231.784 276.952 231.784L268.168 231.784ZM256.864 207.592L256.864 259L268.168 259L268.168 240.568L280.048 240.568C283.264 240.568 286 240.1 288.256 239.164C290.512 238.228 292.348 236.992 293.764 235.456C295.18 233.92 296.212 232.156 296.86 230.164C297.508 228.172 297.832 226.144 297.832 224.08C297.832 221.968 297.508 219.928 296.86 217.96C296.212 215.992 295.18 214.24 293.764 212.704C292.348 211.168 290.512 209.932 288.256 208.996C286 208.06 283.264 207.592 280.048 207.592L256.864 207.592Z"/>
<path d="M312.592 241.936L301.648 241.936C301.6 245.104 302.176 247.84 303.376 250.144C304.576 252.448 306.196 254.344 308.236 255.832C310.276 257.32 312.628 258.412 315.292 259.108C317.956 259.804 320.704 260.152 323.536 260.152C327.04 260.152 330.124 259.744 332.788 258.928C335.452 258.112 337.684 256.972 339.484 255.508C341.284 254.044 342.64 252.304 343.552 250.288C344.464 248.272 344.92 246.088 344.92 243.736C344.92 240.856 344.308 238.492 343.084 236.644C341.86 234.796 340.408 233.32 338.728 232.216C337.048 231.112 335.356 230.308 333.652 229.804C331.948 229.3 330.616 228.952 329.656 228.76C326.44 227.944 323.836 227.272 321.844 226.744C319.852 226.216 318.292 225.688 317.164 225.16C316.036 224.632 315.28 224.056 314.896 223.432C314.512 222.808 314.32 221.992 314.32 220.984C314.32 219.88 314.56 218.968 315.04 218.248C315.52 217.528 316.132 216.928 316.876 216.448C317.62 215.968 318.448 215.632 319.36 215.44C320.272 215.248 321.184 215.152 322.096 215.152C323.488 215.152 324.772 215.272 325.948 215.512C327.124 215.752 328.168 216.16 329.08 216.736C329.992 217.312 330.724 218.104 331.276 219.112C331.828 220.12 332.152 221.392 332.248 222.928L343.192 222.928C343.192 219.952 342.628 217.42 341.5 215.332C340.372 213.244 338.848 211.528 336.928 210.184C335.008 208.84 332.812 207.868 330.34 207.268C327.868 206.668 325.288 206.368 322.6 206.368C320.296 206.368 317.992 206.68 315.688 207.304C313.384 207.928 311.32 208.888 309.496 210.184C307.672 211.48 306.196 213.1 305.068 215.044C303.94 216.988 303.376 219.28 303.376 221.92C303.376 224.272 303.82 226.276 304.708 227.932C305.596 229.588 306.76 230.968 308.2 232.072C309.64 233.176 311.272 234.076 313.096 234.772C314.92 235.468 316.792 236.056 318.712 236.536C320.584 237.064 322.432 237.544 324.256 237.976C326.08 238.408 327.712 238.912 329.152 239.488C330.592 240.064 331.756 240.784 332.644 241.648C333.532 242.512 333.976 243.64 333.976 245.032C333.976 246.328 333.64 247.396 332.968 248.236C332.296 249.076 331.456 249.736 330.448 250.216C329.44 250.696 328.36 251.02 327.208 251.188C326.056 251.356 324.976 251.44 323.968 251.44C322.48 251.44 321.04 251.26 319.648 250.9C318.256 250.54 317.044 249.988 316.012 249.244C314.98 248.5 314.152 247.528 313.528 246.328C312.904 245.128 312.592 243.664 312.592 241.936Z"/>
</g>
<g fill="#ffffff" opacity="0" stroke="none">
<path d="M198.814 300.296L198.814 326L202.234 326L202.234 315.02L210.586 315.02C211.426 315.02 212.098 315.146 212.602 315.398C213.106 315.65 213.514 315.986 213.826 316.406C214.138 316.826 214.366 317.318 214.51 317.882C214.654 318.446 214.774 319.04 214.87 319.664C214.99 320.288 215.062 320.924 215.086 321.572C215.11 322.22 215.134 322.826 215.158 323.39C215.182 323.954 215.236 324.464 215.32 324.92C215.404 325.376 215.566 325.736 215.806 326L219.622 326C219.262 325.568 218.992 325.07 218.812 324.506C218.632 323.942 218.494 323.348 218.398 322.724C218.302 322.1 218.242 321.464 218.218 320.816C218.194 320.168 218.158 319.532 218.11 318.908C218.038 318.284 217.936 317.684 217.804 317.108C217.672 316.532 217.468 316.01 217.192 315.542C216.916 315.074 216.544 314.672 216.076 314.336C215.608 314 215.002 313.76 214.258 313.616L214.258 313.544C215.818 313.112 216.952 312.308 217.66 311.132C218.368 309.956 218.722 308.588 218.722 307.028C218.722 304.94 218.032 303.296 216.652 302.096C215.272 300.896 213.358 300.296 210.91 300.296L198.814 300.296ZM209.362 312.14L202.234 312.14L202.234 303.176L210.73 303.176C212.338 303.176 213.502 303.584 214.222 304.4C214.942 305.216 215.302 306.272 215.302 307.568C215.302 308.504 215.14 309.266 214.816 309.854C214.492 310.442 214.06 310.91 213.52 311.258C212.98 311.606 212.35 311.84 211.63 311.96C210.91 312.08 210.154 312.14 209.362 312.14Z"/>
<path d="M223.474 300.296L223.474 326L241.33 326L241.33 323.12L226.894 323.12L226.894 314.228L240.25 314.228L240.25 311.348L226.894 311.348L226.894 303.176L241.222 303.176L241.222 300.296L223.474 300.296Z"/>
<path d="M248.89 323.12L248.89 303.176L254.65 303.176C256.234 303.176 257.566 303.398 258.646 303.842C259.726 304.286 260.608 304.934 261.292 305.786C261.976 306.638 262.468 307.67 262.768 308.882C263.068 310.094 263.218 311.468 263.218 313.004C263.218 314.588 263.056 315.938 262.732 317.054C262.408 318.17 261.994 319.1 261.49 319.844C260.986 320.588 260.416 321.176 259.78 321.608C259.144 322.04 258.502 322.37 257.854 322.598C257.206 322.826 256.594 322.97 256.018 323.03C255.442 323.09 254.962 323.12 254.578 323.12L248.89 323.12ZM245.47 300.296L245.47 326L254.29 326C256.426 326 258.274 325.7 259.834 325.1C261.394 324.5 262.678 323.63 263.686 322.49C264.694 321.35 265.438 319.946 265.918 318.278C266.398 316.61 266.638 314.696 266.638 312.536C266.638 308.408 265.57 305.336 263.434 303.32C261.298 301.304 258.25 300.296 254.29 300.296L245.47 300.296Z"/>
<path d="M291.334 316.712L291.334 300.296L287.914 300.296L287.914 316.712C287.914 319.016 287.344 320.762 286.204 321.95C285.064 323.138 283.402 323.732 281.218 323.732C278.914 323.732 277.15 323.138 275.926 321.95C274.702 320.762 274.09 319.016 274.09 316.712L274.09 300.296L270.67 300.296L270.67 316.712C270.67 320.144 271.6 322.646 273.46 324.218C275.32 325.79 277.906 326.576 281.218 326.576C284.458 326.576 286.954 325.754 288.706 324.11C290.458 322.466 291.334 320 291.334 316.712Z"/>
<path d="M302.926 312.788L293.998 326L297.814 326L304.942 315.38L311.854 326L316.03 326L306.994 312.788L315.49 300.296L311.674 300.296L304.978 310.34L298.57 300.296L294.466 300.296L302.926 312.788Z"/>
</g>
</g>
</svg>
