<?xml version="1.0" encoding="UTF-8" standalone="no"?>
<!DOCTYPE svg PUBLIC "-//W3C//DTD SVG 1.1//EN" "http://www.w3.org/Graphics/SVG/1.1/DTD/svg11.dtd">
<!-- Created with Vectornator (http://vectornator.io/) -->
<svg height="100%" stroke-miterlimit="10" style="fill-rule:nonzero;clip-rule:evenodd;stroke-linecap:round;stroke-linejoin:round;" version="1.1" viewBox="0 0 62 58" width="100%" xml:space="preserve" xmlns="http://www.w3.org/2000/svg" xmlns:vectornator="http://vectornator.io" xmlns:xlink="http://www.w3.org/1999/xlink">
<defs/>
<g id="misra-c-2012" vectornator:layerName="misra-c-2012">
<path d="M31 2.96875C29.4568 2.9687 27.9275 3.8631 26.75 5.6875L1.40625 44.9688C-0.948701 48.6176 0.657238 51.5624 5 51.5625L57 51.5625C61.3428 51.5626 62.9484 48.6177 60.5938 44.9688L35.25 5.6875C34.0727 3.86302 32.5432 2.9688 31 2.96875ZM29.4688 36.6875C30.332 36.6875 31.1689 36.8809 31.9688 37.3125L31.9688 38.8438C31.0505 38.2894 30.2109 38.0312 29.5 38.0312C29.0684 38.0312 28.7433 38.1141 28.5 38.2812C28.2567 38.4484 28.125 38.6582 28.125 38.9375C28.125 39.2718 28.3597 39.5915 28.8125 39.875C28.9395 39.9596 29.4307 40.1732 30.2812 40.5625C31.0091 40.9053 31.5221 41.2998 31.8438 41.7188C32.1654 42.1377 32.3438 42.6305 32.3438 43.2188C32.3438 43.9805 32.0793 44.5949 31.5312 45.0625C30.9832 45.5301 30.2467 45.7812 29.375 45.7812C28.8079 45.7812 28.3459 45.7186 27.9375 45.5938C27.5291 45.4689 27.0703 45.2422 26.5625 44.9375L26.5625 43.25C27.5104 44.0371 28.3809 44.4375 29.2188 44.4375C29.6377 44.4375 29.9919 44.3382 30.25 44.1562C30.5081 43.9743 30.625 43.738 30.625 43.4375C30.625 43.027 30.4173 42.6956 29.9688 42.4375C29.5964 42.2344 29.1195 42.0023 28.5312 41.7188C27.833 41.4014 27.3136 41.0169 26.9688 40.5938C26.6239 40.1706 26.4375 39.6836 26.4375 39.125C26.4375 38.3802 26.7269 37.786 27.2812 37.3438C27.8356 36.9015 28.5589 36.6875 29.4688 36.6875ZM12.2812 36.7812L13.8438 36.7812L16.75 40.2812L19.6562 36.7812L21.1875 36.7812L21.1875 45.6562L19.4688 45.6562L19.4688 39.4375L19.4375 39.4375L16.875 42.5625L16.625 42.5625L14.0625 39.4375L14 39.4375L14 45.6562L12.2812 45.6562L12.2812 36.7812ZM23.1875 36.7812L24.9062 36.7812L24.9062 45.6562L23.1875 45.6562L23.1875 36.7812ZM33.8438 36.7812L37.0312 36.7812C37.8649 36.7812 38.5378 37.0387 39.0625 37.5C39.5872 37.9613 39.8438 38.5407 39.8438 39.2812C39.8437 39.7848 39.729 40.2192 39.4688 40.5938C39.2085 40.9683 38.8245 41.2842 38.3125 41.5C38.596 41.6523 38.8424 41.8626 39.0625 42.125C39.2826 42.3874 39.5492 42.8154 39.875 43.4375C40.4167 44.5124 40.8314 45.25 41.0938 45.6562L39.1875 45.6562C39.0563 45.4616 38.8805 45.1462 38.6562 44.7188C38.1654 43.7751 37.791 43.1405 37.5625 42.8125C37.334 42.4845 37.1178 42.2625 36.9062 42.125C36.6947 41.9875 36.4626 41.9062 36.1875 41.9062L35.5625 41.9062L35.5625 45.6562L33.8438 45.6562L33.8438 36.7812ZM44.9375 36.7812L46.7188 36.7812L50.625 45.6562L48.8125 45.6562L47.9062 43.5L43.9375 43.5L43.0938 45.6562L41.2812 45.6562L44.9375 36.7812ZM35.5625 38.0938L35.5625 40.5625L36.6562 40.5625C37.1048 40.5625 37.4315 40.4743 37.6875 40.25C37.9435 40.0257 38.0938 39.7018 38.0938 39.3125C38.0938 38.9062 37.9727 38.6073 37.7188 38.4062C37.4648 38.2052 37.0947 38.0938 36.625 38.0938L35.5625 38.0938ZM45.8438 38.6875L44.4688 42.1875L47.3438 42.1875L45.8438 38.6875Z" fill="#000000" fill-rule="nonzero" opacity="1" stroke="none"/>
</g>
</svg>
