<?xml version="1.0" encoding="UTF-8" standalone="no"?>
<!DOCTYPE svg PUBLIC "-//W3C//DTD SVG 1.1//EN" "http://www.w3.org/Graphics/SVG/1.1/DTD/svg11.dtd">
<!-- Created with Vectornator (http://vectornator.io/) -->
<svg height="100%" stroke-miterlimit="10" style="fill-rule:nonzero;clip-rule:evenodd;stroke-linecap:round;stroke-linejoin:round;" version="1.1" viewBox="0 0 62 58" width="100%" xml:space="preserve" xmlns="http://www.w3.org/2000/svg" xmlns:vectornator="http://vectornator.io" xmlns:xlink="http://www.w3.org/1999/xlink">
<defs/>
<g id="misra-c-2012" vectornator:layerName="misra-c-2012">
<path d="M31 2.96875C29.4568 2.9687 27.9275 3.8631 26.75 5.6875L1.40625 44.9688C-0.948701 48.6176 0.657238 51.5624 5 51.5625L57 51.5625C61.3428 51.5626 62.9484 48.6177 60.5938 44.9688L35.25 5.6875C34.0727 3.86302 32.5432 2.9688 31 2.96875ZM31 4.15625C32.404 4.1563 33.8038 4.99632 34.875 6.65625L59.2188 44.3438C61.3611 47.6636 59.8886 50.3438 55.9375 50.3438L6.0625 50.3438C2.11141 50.3437 0.638693 47.6635 2.78125 44.3438L27.125 6.65625C28.1963 4.99639 29.596 4.1562 31 4.15625Z" fill="#000000" fill-rule="nonzero" opacity="1" stroke="none"/>
<g fill="#000000" opacity="1" stroke="none">
<path d="M13.8359 36.7931L16.7495 40.2907L19.6631 36.7931L21.1929 36.7931L21.1929 45.6608L19.479 45.6608L19.479 39.4337L19.4282 39.4337L16.8638 42.5568L16.6226 42.5568L14.0581 39.4337L14.0073 39.4337L14.0073 45.6608L12.2935 45.6608L12.2935 36.7931L13.8359 36.7931Z"/>
<path d="M24.8999 36.7931L24.8999 45.6608L23.186 45.6608L23.186 36.7931L24.8999 36.7931Z"/>
<path d="M29.4639 36.6788C30.3271 36.6788 31.1587 36.8947 31.9585 37.3263L31.9585 38.8497C31.0402 38.2954 30.2256 38.0182 29.5146 38.0182C29.083 38.0182 28.7455 38.1018 28.5022 38.2689C28.2589 38.4361 28.1372 38.6593 28.1372 38.9386C28.1372 39.2729 28.3636 39.5818 28.8164 39.8654C28.9434 39.95 29.4321 40.187 30.2827 40.5763C31.0106 40.9191 31.5353 41.2999 31.8569 41.7189C32.1785 42.1378 32.3394 42.6414 32.3394 43.2296C32.3394 43.9913 32.0653 44.606 31.5173 45.0736C30.9693 45.5412 30.2594 45.775 29.3877 45.775C28.8206 45.775 28.3329 45.7126 27.9246 45.5878C27.5162 45.4629 27.0581 45.2482 26.5503 44.9435L26.5503 43.255C27.4982 44.0421 28.3911 44.4357 29.229 44.4357C29.6479 44.4357 29.9865 44.3447 30.2446 44.1627C30.5028 43.9808 30.6318 43.7395 30.6318 43.4391C30.6318 43.0286 30.4076 42.6943 29.959 42.4362C29.5866 42.233 29.1063 41.9897 28.5181 41.7062C27.8198 41.3888 27.2983 41.0185 26.9534 40.5953C26.6085 40.1722 26.436 39.6813 26.436 39.1227C26.436 38.3779 26.7132 37.7844 27.2676 37.3422C27.8219 36.8999 28.554 36.6788 29.4639 36.6788Z"/>
<path d="M37.0303 36.7931C37.8639 36.7931 38.5431 37.0237 39.0679 37.485C39.5926 37.9463 39.855 38.5472 39.855 39.2877C39.855 39.7913 39.7249 40.2304 39.4646 40.6049C39.2043 40.9794 38.8182 41.2745 38.3062 41.4904C38.5897 41.6427 38.8415 41.8501 39.0615 42.1124C39.2816 42.3748 39.5545 42.817 39.8804 43.4391C40.422 44.514 40.8241 45.2545 41.0864 45.6608L39.1758 45.6608C39.0446 45.4661 38.8669 45.1551 38.6426 44.7277C38.1517 43.784 37.792 43.1482 37.5635 42.8202C37.335 42.4922 37.1149 42.2595 36.9033 42.122C36.6917 41.9844 36.4484 41.9157 36.1733 41.9157L35.5513 41.9157L35.5513 45.6608L33.8374 45.6608L33.8374 36.7931L37.0303 36.7931ZM36.6431 40.5763C37.0916 40.5763 37.4439 40.4642 37.7 40.2399C37.956 40.0156 38.084 39.7088 38.084 39.3195C38.084 38.9132 37.957 38.6096 37.7031 38.4086C37.4492 38.2076 37.0874 38.1071 36.6177 38.1071L35.5513 38.1071L35.5513 40.5763L36.6431 40.5763Z"/>
<path d="M46.7041 36.7931L50.6206 45.6608L48.8115 45.6608L47.8911 43.5026L43.9492 43.5026L43.0923 45.6608L41.2959 45.6608L44.9521 36.7931L46.7041 36.7931ZM44.4697 42.2013L47.3325 42.2013L45.8345 38.691L44.4697 42.2013Z"/>
</g>
</g>
</svg>
