<?xml version="1.0" encoding="UTF-8" standalone="no"?>
<!DOCTYPE svg PUBLIC "-//W3C//DTD SVG 1.1//EN" "http://www.w3.org/Graphics/SVG/1.1/DTD/svg11.dtd">
<!-- Created with Vectornator (http://vectornator.io/) -->
<svg height="100%" stroke-miterlimit="10" style="fill-rule:nonzero;clip-rule:evenodd;stroke-linecap:round;stroke-linejoin:round;" version="1.1" viewBox="0 0 92 92" width="100%" xml:space="preserve" xmlns="http://www.w3.org/2000/svg" xmlns:vectornator="http://vectornator.io" xmlns:xlink="http://www.w3.org/1999/xlink">
<defs/>
<clipPath id="ArtboardFrame">
<rect height="92" width="92" x="0" y="0"/>
</clipPath>
<g clip-path="url(#ArtboardFrame)" id="misra-c-2012" vectornator:layerName="misra-c-2012">
<path d="M69.1444 92C56.5214 92 46.2886 81.767 46.2886 69.1444C46.2886 56.5215 56.5214 46.2886 69.1444 46.2886C81.7669 46.2886 92 56.5215 92 69.1444C92 81.767 81.7669 92 69.1444 92M69.1562 48.125C57.5433 48.125 48.125 57.5434 48.125 69.1562C48.125 80.7691 57.5433 90.1563 69.1562 90.1562C80.7689 90.1562 90.1562 80.7691 90.1562 69.1562C90.1562 57.5434 80.769 48.125 69.1562 48.125Z" fill="#000000" fill-rule="evenodd" opacity="1" stroke="none"/>
<path d="M68.9688 51C68.4045 51.0072 67.8198 51.1661 67.25 51.5C65.5544 52.4932 57.0923 57.3259 54.5625 58.7812C53.5207 59.3803 53.0002 60.3084 53 61.5C52.9984 66.4064 53.0016 71.3122 53 76.2188C53.0003 76.8062 53.125 77.3326 53.375 77.7812C53.632 78.2427 54.0345 78.6339 54.5625 78.9375C57.0924 80.3928 65.5547 85.2253 67.25 86.2188C68.3901 86.8869 69.5077 86.9086 70.6562 86.25C74.9151 83.8077 79.1768 81.3772 83.4375 78.9375C83.9655 78.6341 84.368 78.2424 84.625 77.7812C84.8747 77.3326 84.9998 76.8063 85 76.2188C85 76.2188 85.0016 66.4065 85 61.5C84.9997 60.8994 84.8553 60.3618 84.5938 59.9062C84.3368 59.4583 83.9536 59.0781 83.4375 58.7812C79.1774 56.3416 74.915 53.9109 70.6562 51.4688C70.0822 51.1396 69.533 50.9928 68.9688 51ZM68.9688 58.4375C72.9469 58.4375 76.4209 60.545 78.2812 63.6562L73.5938 66.25C72.6662 64.7048 70.9464 63.6875 68.9688 63.6875C66.0115 63.6875 63.5938 66.0098 63.5938 68.875C63.5928 69.778 63.8488 70.6541 64.3125 71.4375C65.2355 72.9987 66.9783 74.0625 68.9688 74.0625C70.9715 74.0625 72.7067 72.9841 73.625 71.4062L78.3125 74.0312C76.4595 77.1682 72.9667 79.2812 68.9688 79.2812C64.9781 79.2812 61.4806 77.159 59.625 74.0312C58.7191 72.5043 58.2188 70.7627 58.2188 68.875C58.2188 63.1211 63.0296 58.4375 68.9688 58.4375Z" fill="#000000" fill-rule="nonzero" opacity="1" stroke="none"/>
<path d="M8 0C3.58172 0 0 3.58172 0 8L0 63C0 67.4183 3.58172 71 8 71L45.1562 71C45.1251 70.4939 45 70.014 45 69.5C45 64.8691 46.359 60.591 48.5938 56.9062L10.9688 56.9062C6.34548 56.9062 4.59672 53.7027 7.0625 49.7188L31.0625 10.9375C33.5283 6.95355 37.503 6.95355 39.9688 10.9375L61.9062 46.375C64.162 45.6368 66.5091 45.1137 69 45.0625L69 8C69 3.58172 65.4183 0 61 0L8 0Z" fill="#000000" fill-rule="nonzero" opacity="1" stroke="none"/>
<g fill="#000000" opacity="1" stroke="none">
<path d="M17.4081 42.1323L20.3217 45.6299L23.2352 42.1323L24.765 42.1323L24.765 51L23.0512 51L23.0512 44.7729L23.0004 44.7729L20.4359 47.896L20.1947 47.896L17.6303 44.7729L17.5795 44.7729L17.5795 51L15.8656 51L15.8656 42.1323L17.4081 42.1323Z"/>
<path d="M28.472 42.1323L28.472 51L26.7582 51L26.7582 42.1323L28.472 42.1323Z"/>
<path d="M33.036 42.0181C33.8993 42.0181 34.7308 42.2339 35.5306 42.6655L35.5306 44.189C34.6123 43.6346 33.7977 43.3574 33.0868 43.3574C32.6552 43.3574 32.3177 43.441 32.0743 43.6082C31.831 43.7753 31.7094 43.9985 31.7094 44.2778C31.7094 44.6121 31.9358 44.9211 32.3886 45.2046C32.5155 45.2892 33.0043 45.5262 33.8549 45.9155C34.5827 46.2583 35.1075 46.6392 35.4291 47.0581C35.7507 47.4771 35.9115 47.9806 35.9115 48.5688C35.9115 49.3306 35.6375 49.9452 35.0895 50.4128C34.5415 50.8805 33.8316 51.1143 32.9598 51.1143C32.3928 51.1143 31.9051 51.0518 31.4967 50.927C31.0883 50.8022 30.6303 50.5874 30.1224 50.2827L30.1224 48.5942C31.0704 49.3813 31.9633 49.7749 32.8012 49.7749C33.2201 49.7749 33.5586 49.6839 33.8168 49.502C34.0749 49.32 34.204 49.0788 34.204 48.7783C34.204 48.3678 33.9797 48.0335 33.5311 47.7754C33.1587 47.5723 32.6784 47.3289 32.0902 47.0454C31.392 46.728 30.8704 46.3577 30.5255 45.9346C30.1806 45.5114 30.0082 45.0205 30.0082 44.4619C30.0082 43.7171 30.2854 43.1236 30.8397 42.6814C31.3941 42.2392 32.1262 42.0181 33.036 42.0181Z"/>
<path d="M40.6024 42.1323C41.4361 42.1323 42.1153 42.363 42.64 42.8242C43.1648 43.2855 43.4271 43.8864 43.4271 44.627C43.4271 45.1305 43.297 45.5696 43.0367 45.9441C42.7765 46.3186 42.3903 46.6138 41.8783 46.8296C42.1618 46.9819 42.4136 47.1893 42.6337 47.4517C42.8537 47.714 43.1267 48.1562 43.4525 48.7783C43.9942 49.8532 44.3962 50.5937 44.6586 51L42.7479 51C42.6167 50.8053 42.439 50.4943 42.2147 50.0669C41.7238 49.1232 41.3641 48.4874 41.1356 48.1594C40.9071 47.8315 40.6871 47.5987 40.4755 47.4612C40.2639 47.3236 40.0206 47.2549 39.7455 47.2549L39.1234 47.2549L39.1234 51L37.4095 51L37.4095 42.1323L40.6024 42.1323ZM40.2152 45.9155C40.6638 45.9155 41.0161 45.8034 41.2721 45.5791C41.5281 45.3548 41.6561 45.048 41.6561 44.6587C41.6561 44.2524 41.5292 43.9488 41.2753 43.7478C41.0214 43.5468 40.6595 43.4463 40.1898 43.4463L39.1234 43.4463L39.1234 45.9155L40.2152 45.9155Z"/>
<path d="M50.2762 42.1323L54.1928 51L52.3837 51L51.4633 48.8418L47.5214 48.8418L46.6644 51L44.868 51L48.5243 42.1323L50.2762 42.1323ZM48.0419 47.5405L50.9047 47.5405L49.4066 44.0303L48.0419 47.5405Z"/>
</g>
</g>
</svg>
