<?xml version="1.0" encoding="UTF-8" standalone="no"?>
<!DOCTYPE svg PUBLIC "-//W3C//DTD SVG 1.1//EN" "http://www.w3.org/Graphics/SVG/1.1/DTD/svg11.dtd">
<!-- Created with Vectornator (http://vectornator.io/) -->
<svg height="100%" stroke-miterlimit="10" style="fill-rule:nonzero;clip-rule:evenodd;stroke-linecap:round;stroke-linejoin:round;" version="1.1" viewBox="0 0 100 100" width="100%" xml:space="preserve" xmlns="http://www.w3.org/2000/svg" xmlns:vectornator="http://vectornator.io" xmlns:xlink="http://www.w3.org/1999/xlink">
<defs/>
<g id="nist" vectornator:layerName="nist">
<g opacity="1">
<path d="M30.7047 62.4544C33.6632 62.4544 35.8254 59.8373 35.8254 56.8782L35.8254 37.4187L30.7047 37.4187L30.7047 55.9684C30.7047 56.4228 30.2492 56.8782 29.7943 56.8782C29.7943 56.8782 29.4528 56.8782 29.4528 56.4228L13.6347 39.5813C12.2689 38.3295 10.5622 37.4192 8.85492 37.4192L8.51347 37.4192C5.44093 37.4192 2.93731 40.0368 2.93731 42.9953L2.93731 62.4549L8.51347 62.4549L8.51347 43.4503C8.51347 43.4503 8.51347 42.9953 8.85492 42.9953L9.76528 42.9953L25.5834 60.2933C26.3803 61.5451 28.087 62.0005 29.7938 62.4549L30.7047 62.4549C30.7047 62.4549 30.7047 62.4544 30.7047 62.4544ZM54.2617 52.5544L70.4212 52.5544C71.3321 52.5544 72.1285 53.3508 72.1285 54.7171C72.1285 55.9689 71.3321 56.8788 70.4212 56.8788L45.613 56.8788C44.8166 56.8788 44.3611 56.4233 44.3611 55.5135L44.3611 37.4187L39.2404 37.4187L39.2404 55.0575C39.2404 59.0409 42.199 62.4539 46.0684 62.4539L70.8767 62.4539C74.7456 62.4539 77.7047 59.0404 77.7047 55.0575L77.7047 54.2611C77.7047 50.3912 74.2902 47.3192 70.8767 47.3192L55.0585 47.3192C53.3513 47.2052 53.0104 46.1813 52.8959 45.157L52.8959 44.7016C52.8959 43.9052 53.8067 42.9948 55.0585 42.9948L81.1181 42.9948L81.1181 62.4544L86.2399 62.4544L86.2399 42.9948L96.9368 42.9948L96.9368 37.4187L54.2627 37.4187C50.3927 37.4187 47.4342 40.8326 47.4342 44.3606L47.4342 45.6124C47.4332 49.4819 50.3917 52.5544 54.2617 52.5544Z" fill="#000000" fill-rule="nonzero" opacity="1" stroke="#000000" stroke-linecap="butt" stroke-linejoin="miter" stroke-width="0.001"/>
</g>
</g>
</svg>
