<?xml version="1.0" encoding="UTF-8" standalone="no"?>
<!DOCTYPE svg PUBLIC "-//W3C//DTD SVG 1.1//EN" "http://www.w3.org/Graphics/SVG/1.1/DTD/svg11.dtd">
<!-- Created with Vectornator (http://vectornator.io/) -->
<svg height="100%" stroke-miterlimit="10" style="fill-rule:nonzero;clip-rule:evenodd;stroke-linecap:round;stroke-linejoin:round;" version="1.1" viewBox="0 0 100 100" width="100%" xml:space="preserve" xmlns="http://www.w3.org/2000/svg" xmlns:vectornator="http://vectornator.io" xmlns:xlink="http://www.w3.org/1999/xlink">
<defs/>
<g id="nistblack" vectornator:layerName="nistblack">
<path d="M0 0L0 99.875L99.875 99.875L99.875 0L0 0ZM8.5 37.4062L8.84375 37.4062C10.551 37.4063 12.2592 38.3419 13.625 39.5938L29.4375 56.4375C29.4375 56.8929 29.7812 56.875 29.7812 56.875C30.2362 56.875 30.7188 56.4232 30.7188 55.9688L30.7188 37.4062L35.8125 37.4062L35.8125 56.875C35.8125 59.8341 33.6773 62.4688 30.7188 62.4688L29.7812 62.4688C28.0745 62.0143 26.3906 61.5331 25.5938 60.2812L9.75 43L8.84375 43C8.5023 43 8.5 43.4375 8.5 43.4375L8.5 62.4688L2.9375 62.4688L2.9375 43C2.9375 40.0414 5.42746 37.4062 8.5 37.4062ZM39.25 37.4062L44.375 37.4062L44.375 55.5C44.375 56.4098 44.8286 56.875 45.625 56.875L70.4062 56.875C71.3171 56.875 72.125 55.9706 72.125 54.7188C72.125 53.3524 71.3171 52.5625 70.4062 52.5625L54.25 52.5625C50.3801 52.5625 47.4365 49.4944 47.4375 45.625L47.4375 44.375C47.4375 40.847 50.3801 37.4062 54.25 37.4062L96.9375 37.4062L96.9375 43L86.25 43L86.25 62.4688L81.125 62.4688L81.125 43L55.0625 43C53.8107 43 52.9062 43.8911 52.9062 44.6875L52.9062 45.1562C53.0208 46.1806 53.3552 47.1985 55.0625 47.3125L70.875 47.3125C74.2885 47.3125 77.7188 50.3801 77.7188 54.25L77.7188 55.0625C77.7188 59.0454 74.7439 62.4688 70.875 62.4688L46.0625 62.4688C42.1931 62.4688 39.25 59.0459 39.25 55.0625L39.25 37.4062Z" fill="#000000" fill-rule="nonzero" opacity="1" stroke="none"/>
</g>
</svg>
