<?xml version="1.0" encoding="UTF-8" standalone="no"?>
<!DOCTYPE svg PUBLIC "-//W3C//DTD SVG 1.1//EN" "http://www.w3.org/Graphics/SVG/1.1/DTD/svg11.dtd">
<!-- Created with Vectornator (http://vectornator.io/) -->
<svg height="100%" stroke-miterlimit="10" style="fill-rule:nonzero;clip-rule:evenodd;stroke-linecap:round;stroke-linejoin:round;" version="1.1" viewBox="0 0 100 100" width="100%" xml:space="preserve" xmlns="http://www.w3.org/2000/svg" xmlns:vectornator="http://vectornator.io" xmlns:xlink="http://www.w3.org/1999/xlink">
<defs/>
<g id="omg-ascqm-index" vectornator:layerName="omg-ascqm-index">
<path d="M0 0L0 100L100 100L100 0L0 0ZM84.1562 13.4062C87.7711 13.4052 91.2639 14.7001 94 17.0625L89.7188 21.9062C86.8035 18.9827 82.1093 18.815 79 21.5312L70.9688 21.5312C73.4029 16.4753 78.5458 13.3041 84.1562 13.4062ZM18.9062 13.5312C26.0866 14.3778 31.5001 20.1797 31.4688 27.1562C31.3938 34.2608 25.9745 40.1533 18.9062 40.875L18.9062 34.625C22.3101 33.7825 24.7188 30.7253 24.7188 27.2188C24.7187 23.7122 22.3101 20.655 18.9062 19.8125L18.9062 13.5312ZM15.2188 13.5625L15.2188 19.8438C11.8112 20.6798 9.40625 23.7413 9.40625 27.25C9.40625 30.7587 11.8112 33.7889 15.2188 34.625L15.2188 40.9688C8.14707 40.2539 2.75534 34.3261 2.6875 27.2188C2.6875 20.1952 7.99924 14.4169 15.2188 13.5625ZM36.2812 14.25L43.2188 14.25L50.8438 24.625L58.0312 14.25L64.9062 14.25L64.9062 16.1875L58.25 25.1562L58.25 25.1875L57.2188 26.5625L50.875 35.125L50.5 35.125L42.9375 25.0312L42.9375 25.0938L36.2812 16.0938L36.2812 14.25ZM36.2812 22.2812L42.9688 31.3125L42.9688 40.2188L36.2812 40.2188L36.2812 22.2812ZM64.9062 22.375L64.9062 40.2188L58.2188 40.2188L58.2188 31.4375L64.9062 22.375ZM69.875 25.25L76.7812 25.25C76.6109 25.8893 76.5014 26.5258 76.5 27.1875C76.4591 29.2309 77.2735 31.211 78.7188 32.6562C80.164 34.1015 82.1128 34.8847 84.1562 34.8438C86.8153 34.8466 89.2063 33.1941 90.0938 30.6875L84.5312 30.6875L86.7188 25.4062L97.3125 25.4062L97.3125 27.125C97.3125 34.9873 91.5325 41.0312 84.1562 41.0312C75.9882 41.0312 69.7188 34.846 69.7188 27.1875C69.7181 26.5317 69.7804 25.8989 69.875 25.25ZM4.90625 47.0312L29.2812 47.0312L29.2812 52.75L4.90625 52.75L4.90625 47.0312ZM25.2188 62.1875C26.1693 62.1875 26.9206 62.4271 27.4375 62.9375C27.9544 63.4479 28.2188 64.1745 28.2188 65.125C28.2188 65.9714 28.0104 66.6484 27.5938 67.1562C27.8151 67.3099 27.9635 67.4297 28.0312 67.4688C28.1328 67.526 28.2656 67.5807 28.4375 67.6562L27.9375 68.6562C27.6901 68.5365 27.4297 68.3841 27.1875 68.2188C26.9453 68.0534 26.7839 67.9271 26.6875 67.8438C26.2969 68.013 25.8073 68.0938 25.2188 68.0938C24.349 68.0938 23.6589 67.8594 23.1562 67.4062C22.5625 66.8698 22.2812 66.1276 22.2812 65.1562C22.2812 64.2135 22.543 63.4909 23.0625 62.9688C23.582 62.4466 24.2865 62.1875 25.2188 62.1875ZM31.5312 62.2812L33.2812 62.2812L33.2812 65.7812C33.2812 66.0938 33.3581 66.3242 33.5312 66.5C33.7044 66.6758 33.9427 66.7812 34.25 66.7812C34.5547 66.7812 34.7956 66.6732 34.9688 66.5C35.1419 66.3268 35.25 66.099 35.25 65.7812L35.25 62.2812L37 62.2812L37 65.6875C37 66.026 36.9492 66.3555 36.8438 66.6562C36.7383 66.957 36.569 67.2122 36.3438 67.4375C36.1185 67.6628 35.9036 67.8151 35.6562 67.9062C35.3125 68.0339 34.888 68.0938 34.4062 68.0938C34.1276 68.0938 33.8294 68.0703 33.5 68.0312C33.1706 67.9922 32.8776 67.9284 32.6562 67.8125C32.4349 67.6966 32.2461 67.526 32.0625 67.3125C31.8789 67.099 31.7552 66.8828 31.6875 66.6562C31.5781 66.2917 31.5312 65.9688 31.5312 65.6875L31.5312 62.2812ZM41.8125 62.2812L43.75 62.2812L45.9062 68L44.0625 68L43.7812 67.0625L41.75 67.0625L41.4688 68L39.6875 68L41.8125 62.2812ZM48.8125 62.2812L50.5938 62.2812L50.5938 66.5938L53.3438 66.5938L53.3438 68L48.8125 68L48.8125 62.2812ZM56.5938 62.2812L58.3438 62.2812L58.3438 68L56.5938 68L56.5938 62.2812ZM61.5625 62.2812L66.9375 62.2812L66.9375 63.6875L65.1562 63.6875L65.1562 68L63.375 68L63.375 63.6875L61.5625 63.6875L61.5625 62.2812ZM69.5312 62.2812L71.5 62.2812L72.6562 64.2188L73.8125 62.2812L75.75 62.2812L73.5312 65.5938L73.5312 68L71.75 68L71.75 65.5938L69.5312 62.2812ZM48.9688 72.1875C49.3932 72.1875 49.7695 72.2383 50.0938 72.375C50.418 72.5117 50.6693 72.7344 50.8438 73C51.0182 73.2656 51.112 73.5391 51.125 73.875L50.4062 73.9375C50.3672 73.5755 50.2253 73.3099 50 73.125C49.7747 72.9401 49.4401 72.8438 49 72.8438C48.5417 72.8438 48.2096 72.9258 48 73.0938C47.7904 73.2617 47.6875 73.4818 47.6875 73.7188C47.6875 73.9245 47.7578 74.0859 47.9062 74.2188C48.0521 74.3516 48.4466 74.4857 49.0625 74.625C49.6784 74.7643 50.0833 74.8958 50.3125 75C50.6458 75.1536 50.9036 75.3268 51.0625 75.5625C51.2214 75.7982 51.3125 76.0677 51.3125 76.375C51.3125 76.6797 51.2057 76.9805 51.0312 77.25C50.8568 77.5195 50.6081 77.7253 50.2812 77.875C49.9544 78.0247 49.5964 78.0938 49.1875 78.0938C48.6693 78.0937 48.2253 78.026 47.875 77.875C47.5247 77.724 47.2617 77.4909 47.0625 77.1875C46.8633 76.8841 46.7604 76.5391 46.75 76.1562L47.4688 76.0938C47.5026 76.3802 47.5638 76.6289 47.6875 76.8125C47.8112 76.9961 48.0208 77.1367 48.2812 77.25C48.5417 77.3633 48.8307 77.4062 49.1562 77.4062C49.4453 77.4062 49.6849 77.3672 49.9062 77.2812C50.1276 77.1953 50.2982 77.0872 50.4062 76.9375C50.5143 76.7878 50.5625 76.6146 50.5625 76.4375C50.5625 76.2578 50.5104 76.1029 50.4062 75.9688C50.3021 75.8346 50.1458 75.7161 49.9062 75.625C49.7526 75.5651 49.401 75.4701 48.875 75.3438C48.349 75.2174 47.9922 75.112 47.7812 75C47.5078 74.8568 47.2904 74.681 47.1562 74.4688C47.0221 74.2565 46.9688 74.013 46.9688 73.75C46.9688 73.4609 47.0547 73.1888 47.2188 72.9375C47.3828 72.6862 47.6224 72.5052 47.9375 72.375C48.2526 72.2448 48.5833 72.1875 48.9688 72.1875ZM22.5938 72.2812L23.7188 72.2812L25.0938 76.3438C25.2188 76.7214 25.2865 77 25.3438 77.1875C25.4089 76.9792 25.5182 76.6536 25.6562 76.25L27.0312 72.2812L28.0625 72.2812L28.0625 78L27.3125 78L27.3125 73.2188L25.6562 78L24.9688 78L23.3125 73.125L23.3125 78L22.5938 78L22.5938 72.2812ZM31.6562 72.2812L35.7812 72.2812L35.7812 72.9375L32.4062 72.9375L32.4062 74.7188L35.5625 74.7188L35.5625 75.375L32.4062 75.375L32.4062 77.3125L35.9062 77.3125L35.9062 78L31.6562 78L31.6562 72.2812ZM40.875 72.2812L41.6875 72.2812L44.0312 78L43.1875 78L42.5 76.2812L40.125 76.2812L39.5 78L38.6875 78L40.875 72.2812ZM54.6875 72.2812L55.4375 72.2812L55.4375 75.5938C55.4375 76.0911 55.5013 76.4518 55.5938 76.6875C55.6862 76.9232 55.8372 77.0911 56.0625 77.2188C56.2878 77.3464 56.5807 77.4062 56.9062 77.4062C57.4635 77.4062 57.8568 77.2839 58.0938 77.0312C58.3307 76.7786 58.4375 76.3125 58.4375 75.5938L58.4375 72.2812L59.1875 72.2812L59.1875 75.5938C59.1875 76.1693 59.1302 76.6302 59 76.9688C58.8698 77.3073 58.6523 77.569 58.3125 77.7812C57.9727 77.9935 57.5208 78.0938 56.9688 78.0938C56.4323 78.0938 55.9974 77.9974 55.6562 77.8125C55.3151 77.6276 55.0521 77.3815 54.9062 77.0312C54.7604 76.681 54.6875 76.2005 54.6875 75.5938L54.6875 72.2812ZM62.8125 72.2812L65.375 72.2812C65.8854 72.2812 66.2656 72.3346 66.5312 72.4375C66.7969 72.5404 66.9974 72.7083 67.1562 72.9688C67.3151 73.2292 67.4062 73.5286 67.4062 73.8438C67.4062 74.25 67.263 74.5964 67 74.875C66.737 75.1536 66.3307 75.3307 65.7812 75.4062C65.9818 75.5026 66.1458 75.5937 66.25 75.6875C66.4714 75.8906 66.6771 76.1328 66.875 76.4375L67.875 78L66.9062 78L66.1562 76.8125C65.9349 76.4687 65.7682 76.2135 65.625 76.0312C65.4818 75.849 65.332 75.6979 65.2188 75.625C65.1055 75.5521 64.9922 75.5286 64.875 75.5C64.7891 75.4818 64.6641 75.4688 64.4688 75.4688L63.5938 75.4688L63.5938 78L62.8125 78L62.8125 72.2812ZM70.9688 72.2812L75.0938 72.2812L75.0938 72.9375L71.7188 72.9375L71.7188 74.7188L74.875 74.7188L74.875 75.375L71.7188 75.375L71.7188 77.3125L75.2188 77.3125L75.2188 78L70.9688 78L70.9688 72.2812ZM25.2188 63.5312C24.8672 63.5312 24.5938 63.6536 24.375 63.9062C24.1562 64.1589 24.0312 64.5573 24.0312 65.0938C24.0312 65.7188 24.1615 66.1536 24.375 66.4062C24.5885 66.6589 24.8776 66.7812 25.25 66.7812C25.3698 66.7812 25.487 66.7734 25.5938 66.75C25.4453 66.6068 25.1953 66.4714 24.875 66.3438L25.1562 65.6875C25.3125 65.7161 25.444 65.7708 25.5312 65.8125C25.6185 65.8542 25.7786 65.9479 26.0312 66.125C26.0911 66.1667 26.1484 66.2057 26.2188 66.25C26.3594 65.9974 26.4375 65.6276 26.4375 65.125C26.4375 64.5469 26.3398 64.1224 26.125 63.875C25.9102 63.6276 25.5964 63.5312 25.2188 63.5312ZM42.7812 63.75L42.1562 65.8125L43.4062 65.8125L42.7812 63.75ZM41.2812 72.875C41.2083 73.2422 41.1016 73.6068 40.9688 73.9688L40.3438 75.6562L42.2812 75.6562L41.6875 74.0625C41.5052 73.5807 41.3698 73.1849 41.2812 72.875ZM63.5938 72.9062L63.5938 74.8125L65.2188 74.8125C65.5651 74.8125 65.8359 74.7591 66.0312 74.6875C66.2266 74.6159 66.3672 74.5013 66.4688 74.3438C66.5703 74.1862 66.625 74.0286 66.625 73.8438C66.625 73.5729 66.5091 73.3307 66.3125 73.1562C66.1159 72.9818 65.8307 72.9063 65.4062 72.9062L63.5938 72.9062Z" fill="#000000" fill-rule="nonzero" opacity="1" stroke="none"/>
</g>
</svg>
