<?xml version="1.0" encoding="UTF-8" standalone="no"?>
<!DOCTYPE svg PUBLIC "-//W3C//DTD SVG 1.1//EN" "http://www.w3.org/Graphics/SVG/1.1/DTD/svg11.dtd">
<!-- Created with Vectornator (http://vectornator.io/) -->
<svg height="100%" stroke-miterlimit="10" style="fill-rule:nonzero;clip-rule:evenodd;stroke-linecap:round;stroke-linejoin:round;" version="1.1" viewBox="0 0 100 100" width="100%" xml:space="preserve" xmlns="http://www.w3.org/2000/svg" xmlns:vectornator="http://vectornator.io" xmlns:xlink="http://www.w3.org/1999/xlink">
<defs/>
<g id="omg-atdm" vectornator:layerName="omg-atdm">
<path d="M0 0L0 100L100 100L100 0L0 0ZM84.1562 13.4062C87.7711 13.4052 91.2639 14.7001 94 17.0625L89.7188 21.9062C86.8035 18.9827 82.1093 18.815 79 21.5312L70.9688 21.5312C73.4029 16.4753 78.5458 13.3041 84.1562 13.4062ZM18.9062 13.5312C26.0866 14.3778 31.5001 20.1797 31.4688 27.1562C31.3938 34.2608 25.9745 40.1533 18.9062 40.875L18.9062 34.625C22.3101 33.7825 24.7188 30.7253 24.7188 27.2188C24.7187 23.7122 22.3101 20.655 18.9062 19.8125L18.9062 13.5312ZM15.2188 13.5625L15.2188 19.8438C11.8112 20.6798 9.40625 23.7413 9.40625 27.25C9.40625 30.7587 11.8112 33.7889 15.2188 34.625L15.2188 40.9688C8.14707 40.2539 2.75534 34.3261 2.6875 27.2188C2.6875 20.1952 7.99924 14.4169 15.2188 13.5625ZM36.2812 14.25L43.2188 14.25L50.8438 24.625L58.0312 14.25L64.9062 14.25L64.9062 16.1875L58.25 25.1562L58.25 25.1875L57.2188 26.5625L50.875 35.125L50.5 35.125L42.9375 25.0312L42.9375 25.0938L36.2812 16.0938L36.2812 14.25ZM36.2812 22.2812L42.9688 31.3125L42.9688 40.2188L36.2812 40.2188L36.2812 22.2812ZM64.9062 22.375L64.9062 40.2188L58.2188 40.2188L58.2188 31.4375L64.9062 22.375ZM69.875 25.25L76.7812 25.25C76.6109 25.8893 76.5014 26.5258 76.5 27.1875C76.4591 29.2309 77.2735 31.211 78.7188 32.6562C80.164 34.1015 82.1128 34.8847 84.1562 34.8438C86.8153 34.8466 89.2063 33.1941 90.0938 30.6875L84.5312 30.6875L86.7188 25.4062L97.3125 25.4062L97.3125 27.125C97.3125 34.9873 91.5325 41.0312 84.1562 41.0312C75.9882 41.0312 69.7188 34.846 69.7188 27.1875C69.7181 26.5317 69.7804 25.8989 69.875 25.25ZM4.90625 47.0312L29.2812 47.0312L29.2812 52.75L4.90625 52.75L4.90625 47.0312ZM40.0312 62.1875C40.9844 62.1875 41.7031 62.4258 42.2188 62.9375C42.7344 63.4492 43 64.1719 43 65.0938C43 65.763 42.8815 66.3216 42.6562 66.75C42.431 67.1784 42.1133 67.5117 41.6875 67.75C41.2617 67.9883 40.7292 68.0938 40.0938 68.0938C39.4479 68.0938 38.9232 67.987 38.5 67.7812C38.0768 67.5755 37.7318 67.2578 37.4688 66.8125C37.2057 66.3672 37.0625 65.8255 37.0625 65.1562C37.0625 64.2214 37.3229 63.4896 37.8438 62.9688C38.3646 62.4479 39.1016 62.1875 40.0312 62.1875ZM13.6875 62.2812L15.625 62.2812L17.7812 68L15.9375 68L15.6562 67.0625L13.625 67.0625L13.3438 68L11.5312 68L13.6875 62.2812ZM20.4375 62.2812L22.1875 62.2812L22.1875 65.7812C22.1875 66.0938 22.2643 66.3242 22.4375 66.5C22.6107 66.6758 22.849 66.7812 23.1562 66.7812C23.4609 66.7812 23.7018 66.6732 23.875 66.5C24.0482 66.3268 24.1562 66.099 24.1562 65.7812L24.1562 62.2812L25.9062 62.2812L25.9062 65.6875C25.9062 66.026 25.8555 66.3555 25.75 66.6562C25.6445 66.957 25.4753 67.2122 25.25 67.4375C25.0247 67.6628 24.8099 67.8151 24.5625 67.9062C24.2187 68.0339 23.7943 68.0938 23.3125 68.0938C23.0339 68.0938 22.7357 68.0703 22.4062 68.0312C22.0768 67.9922 21.7839 67.9284 21.5625 67.8125C21.3411 67.6966 21.1523 67.526 20.9688 67.3125C20.7852 67.099 20.6615 66.8828 20.5938 66.6562C20.4844 66.2917 20.4375 65.9688 20.4375 65.6875L20.4375 62.2812ZM29.0312 62.2812L34.4062 62.2812L34.4062 63.6875L32.5938 63.6875L32.5938 68L30.8438 68L30.8438 63.6875L29.0312 63.6875L29.0312 62.2812ZM46.2812 62.2812L48.625 62.2812L49.5 65.75L50.4062 62.2812L52.7188 62.2812L52.7188 68L51.2812 68L51.2812 63.625L50.1562 68L48.8438 68L47.7188 63.625L47.7188 68L46.2812 68L46.2812 62.2812ZM57.7812 62.2812L59.7188 62.2812L61.8438 68L60 68L59.7188 67.0625L57.7188 67.0625L57.4375 68L55.625 68L57.7812 62.2812ZM63.8125 62.2812L69.1875 62.2812L69.1875 63.6875L67.4062 63.6875L67.4062 68L65.625 68L65.625 63.6875L63.8125 63.6875L63.8125 62.2812ZM72.3438 62.2812L77.0938 62.2812L77.0938 63.5L74.125 63.5L74.125 64.4062L76.875 64.4062L76.875 65.5625L74.125 65.5625L74.125 66.7188L77.1875 66.7188L77.1875 68L72.3438 68L72.3438 62.2812ZM80.5 62.2812L83.125 62.2812C83.6432 62.2812 84.056 62.3594 84.375 62.5C84.694 62.6406 84.9792 62.8307 85.1875 63.0938C85.3958 63.3568 85.5312 63.651 85.625 64C85.7188 64.349 85.7812 64.7344 85.7812 65.125C85.7812 65.737 85.7018 66.194 85.5625 66.5312C85.4232 66.8685 85.2161 67.1471 84.9688 67.375C84.7214 67.6029 84.4714 67.7682 84.1875 67.8438C83.7995 67.9479 83.4401 68 83.125 68L80.5 68L80.5 62.2812ZM34.9375 72.1875C35.5104 72.1875 35.9844 72.3333 36.375 72.625C36.7656 72.9167 37.0339 73.3151 37.1875 73.8438L36.4375 74.0312C36.3047 73.6146 36.1276 73.3151 35.875 73.125C35.6224 72.9349 35.2891 72.8125 34.9062 72.8125C34.4661 72.8125 34.1081 72.9453 33.8125 73.1562C33.5169 73.3672 33.3073 73.6445 33.1875 74C33.0677 74.3555 33 74.7161 33 75.0938C33 75.5807 33.0768 76.0117 33.2188 76.375C33.3607 76.7383 33.5755 77.0078 33.875 77.1875C34.1745 77.3672 34.4948 77.4375 34.8438 77.4375C35.2682 77.4375 35.6432 77.3385 35.9375 77.0938C36.2318 76.849 36.4271 76.4818 36.5312 76L37.2812 76.1875C37.1224 76.8099 36.8503 77.2669 36.4375 77.5938C36.0247 77.9206 35.5026 78.0938 34.9062 78.0938C34.2891 78.0938 33.793 77.9701 33.4062 77.7188C33.0195 77.4674 32.7331 77.1016 32.5312 76.625C32.3294 76.1484 32.2188 75.6406 32.2188 75.0938C32.2188 74.4974 32.3346 73.9753 32.5625 73.5312C32.7904 73.0872 33.1107 72.7617 33.5312 72.5312C33.9518 72.3008 34.4323 72.1875 34.9375 72.1875ZM63.875 72.1875C64.4479 72.1875 64.9219 72.3333 65.3125 72.625C65.7031 72.9167 66.0026 73.3151 66.1562 73.8438L65.4062 74.0312C65.2734 73.6146 65.0651 73.3151 64.8125 73.125C64.5599 72.9349 64.2578 72.8125 63.875 72.8125C63.4349 72.8125 63.0456 72.9453 62.75 73.1562C62.4544 73.3672 62.2448 73.6445 62.125 74C62.0052 74.3555 61.9688 74.7161 61.9688 75.0938C61.9688 75.5807 62.0456 76.0117 62.1875 76.375C62.3294 76.7383 62.5443 77.0078 62.8438 77.1875C63.1432 77.3672 63.4635 77.4375 63.8125 77.4375C64.237 77.4375 64.5807 77.3385 64.875 77.0938C65.1693 76.849 65.3646 76.4818 65.4688 76L66.25 76.1875C66.0911 76.8099 65.7878 77.2669 65.375 77.5938C64.9622 77.9206 64.4714 78.0938 63.875 78.0938C63.2578 78.0938 62.7617 77.9701 62.375 77.7188C61.9883 77.4674 61.6706 77.1016 61.4688 76.625C61.2669 76.1484 61.1875 75.6406 61.1875 75.0938C61.1875 74.4974 61.3034 73.9753 61.5312 73.5312C61.7591 73.0872 62.0794 72.7617 62.5 72.5312C62.9206 72.3008 63.3698 72.1875 63.875 72.1875ZM17.0938 72.2812L21.625 72.2812L21.625 72.9375L19.75 72.9375L19.75 78L18.9688 78L18.9688 72.9375L17.0938 72.9375L17.0938 72.2812ZM24.7812 72.2812L28.9062 72.2812L28.9062 72.9375L25.5312 72.9375L25.5312 74.7188L28.6875 74.7188L28.6875 75.375L25.5312 75.375L25.5312 77.3125L29.0312 77.3125L29.0312 78L24.7812 78L24.7812 72.2812ZM40.5938 72.2812L41.3438 72.2812L41.3438 74.625L44.3438 74.625L44.3438 72.2812L45.0938 72.2812L45.0938 78L44.3438 78L44.3438 75.3125L41.3438 75.3125L41.3438 78L40.5938 78L40.5938 72.2812ZM48.6875 72.2812L49.4688 72.2812L52.4688 76.7812L52.4688 72.2812L53.1875 72.2812L53.1875 78L52.4375 78L49.4062 73.5L49.4062 78L48.6875 78L48.6875 72.2812ZM56.9688 72.2812L57.7188 72.2812L57.7188 78L56.9688 78L56.9688 72.2812ZM71.0938 72.2812L71.9062 72.2812L74.25 78L73.4062 78L72.7188 76.2812L70.3438 76.2812L69.6875 78L68.9062 78L71.0938 72.2812ZM77.1875 72.2812L77.9375 72.2812L77.9375 77.3125L80.75 77.3125L80.75 78L77.1875 78L77.1875 72.2812ZM35.25 81.2812L37.2188 81.2812C37.6641 81.2812 38.0156 81.2891 38.25 81.3438C38.5781 81.4193 38.862 81.5833 39.0938 81.7812C39.3958 82.0365 39.6003 82.3529 39.75 82.75C39.8997 83.1471 39.9688 83.5833 39.9688 84.0938C39.9688 84.5286 39.9453 84.9141 39.8438 85.25C39.7422 85.5859 39.5964 85.8737 39.4375 86.0938C39.2786 86.3138 39.0951 86.4987 38.9062 86.625C38.7174 86.7513 38.5169 86.8411 38.25 86.9062C37.9831 86.9714 37.6589 87 37.3125 87L35.25 87L35.25 81.2812ZM43.4062 81.2812L47.5312 81.2812L47.5312 81.9375L44.1562 81.9375L44.1562 83.7188L47.3125 83.7188L47.3125 84.375L44.1562 84.375L44.1562 86.3125L47.6562 86.3125L47.6562 87L43.4062 87L43.4062 81.2812ZM51.0312 81.2812L53.1875 81.2812C53.625 81.2812 53.9544 81.3216 54.2188 81.4375C54.4831 81.5534 54.694 81.7279 54.8438 81.9688C54.9935 82.2096 55.0938 82.487 55.0938 82.75C55.0938 82.9948 55.0078 83.2214 54.875 83.4375C54.7422 83.6536 54.5495 83.8359 54.2812 83.9688C54.6276 84.0703 54.8763 84.224 55.0625 84.4688C55.2487 84.7135 55.3438 85.0104 55.3438 85.3438C55.3438 85.612 55.3008 85.8633 55.1875 86.0938C55.0742 86.3242 54.9479 86.5 54.7812 86.625C54.6146 86.75 54.3763 86.8424 54.125 86.9062C53.8737 86.9701 53.5833 87 53.2188 87L51.0312 87L51.0312 81.2812ZM58.3125 81.2812L62.8438 81.2812L62.8438 81.9375L60.9688 81.9375L60.9688 87L60.2188 87L60.2188 81.9375L58.3125 81.9375L58.3125 81.2812ZM40.0312 63.5312C39.6745 63.5312 39.3724 63.6536 39.1562 63.9062C38.9401 64.1589 38.8437 64.5729 38.8438 65.1562C38.8438 65.7344 38.9414 66.1536 39.1562 66.4062C39.3711 66.6589 39.6615 66.7812 40.0312 66.7812C40.4115 66.7812 40.6979 66.6536 40.9062 66.4062C41.1146 66.1589 41.2188 65.7031 41.2188 65.0625C41.2188 64.5234 41.1237 64.1237 40.9062 63.875C40.6888 63.6263 40.4036 63.5312 40.0312 63.5312ZM82.2812 63.5625L82.2812 66.6875L82.7188 66.6875C83.0885 66.6875 83.3437 66.6445 83.5 66.5625C83.6563 66.4805 83.7865 66.3607 83.875 66.1562C83.9635 65.9518 84 65.6146 84 65.1562C84 64.5495 83.8854 64.1302 83.6875 63.9062C83.4896 63.6823 83.1771 63.5625 82.7188 63.5625L82.2812 63.5625ZM14.625 63.75L14 65.8125L15.2812 65.8125L14.625 63.75ZM58.7188 63.75L58.0938 65.8125L59.3438 65.8125L58.7188 63.75ZM71.5 72.875C71.4271 73.2422 71.3203 73.6068 71.1875 73.9688L70.5625 75.6562L72.5 75.6562L71.9062 74.0625C71.724 73.5807 71.5885 73.1849 71.5 72.875ZM36 81.9375L36 86.3125L37.2188 86.3125C37.5964 86.3125 37.9102 86.2891 38.125 86.2188C38.3398 86.1484 38.4974 86.0651 38.625 85.9375C38.8047 85.7578 38.9622 85.4909 39.0625 85.1875C39.1628 84.8841 39.1875 84.526 39.1875 84.0938C39.1875 83.4948 39.1029 83.0404 38.9062 82.7188C38.7096 82.3971 38.4688 82.1719 38.1875 82.0625C37.9844 81.9844 37.6693 81.9375 37.2188 81.9375L36 81.9375ZM51.7812 81.9375L51.7812 83.6875L53.0312 83.6875C53.3672 83.6875 53.6042 83.6693 53.75 83.625C53.9427 83.5677 54.0898 83.4766 54.1875 83.3438C54.2852 83.2109 54.3438 83.0443 54.3438 82.8438C54.3438 82.6536 54.2786 82.457 54.1875 82.3125C54.0964 82.168 53.9818 82.0846 53.8125 82.0312C53.6432 81.9779 53.349 81.9375 52.9375 81.9375L51.7812 81.9375ZM51.7812 84.3438L51.7812 86.3125L53.2188 86.3125C53.4635 86.3125 53.6198 86.3307 53.7188 86.3125C53.8932 86.2812 54.0391 86.2292 54.1562 86.1562C54.2734 86.0833 54.3932 85.9518 54.4688 85.8125C54.5443 85.6732 54.5625 85.526 54.5625 85.3438C54.5625 85.1302 54.5156 84.9388 54.4062 84.7812C54.2969 84.6237 54.1315 84.5013 53.9375 84.4375C53.7435 84.3737 53.4896 84.3437 53.125 84.3438L51.7812 84.3438Z" fill="#000000" fill-rule="nonzero" opacity="1" stroke="none"/>
</g>
</svg>
