<?xml version="1.0" encoding="UTF-8" standalone="no"?>
<!DOCTYPE svg PUBLIC "-//W3C//DTD SVG 1.1//EN" "http://www.w3.org/Graphics/SVG/1.1/DTD/svg11.dtd">
<!-- Created with Vectornator (http://vectornator.io/) -->
<svg height="100%" stroke-miterlimit="10" style="fill-rule:nonzero;clip-rule:evenodd;stroke-linecap:round;stroke-linejoin:round;" version="1.1" viewBox="0 0 121 121" width="100%" xml:space="preserve" xmlns="http://www.w3.org/2000/svg" xmlns:vectornator="http://vectornator.io" xmlns:xlink="http://www.w3.org/1999/xlink">
<defs/>
<g id="Layer-1" vectornator:layerName="Layer 1">
<path d="M16.1365 66.9493C11.7894 65.8827 8.73272 61.9853 8.73272 57.5093C8.73272 53.0332 11.7894 49.1359 16.1365 48.0693L16.1365 40.0693C6.92652 41.1593 0.136516 48.5393 0.136516 57.4993C0.223061 66.5663 7.1151 74.1173 16.1365 75.0293L16.1365 66.9493Z" fill="#000000" fill-rule="nonzero" opacity="1" stroke="none"/>
<path d="M20.8465 40.0293L20.8465 48.0293C25.1888 49.104 28.2388 53.001 28.2388 57.4743C28.2388 61.9476 25.1888 65.8445 20.8465 66.9193L20.8465 74.9193C29.8635 73.9986 36.7509 66.4527 36.8465 57.3893C36.8865 48.4893 30.0065 41.1093 20.8465 40.0293Z" fill="#000000" fill-rule="nonzero" opacity="1" stroke="none"/>
<path d="M51.4965 54.7593L51.4865 54.7093L61.1265 67.5793L61.6265 67.5793L69.7065 56.6593L71.0265 54.8393L71.0265 54.8793L79.5065 43.4093L79.5065 40.9393L70.7565 40.9393L61.5665 54.1693L51.8465 40.9393L43.0065 40.9393L43.0065 43.2793L51.4965 54.7593Z" fill="#000000" fill-rule="nonzero" opacity="1" stroke="none"/>
<path d="M43.0065 51.1993L43.0065 74.0593L51.5365 74.0593L51.5365 62.7293L43.0065 51.1993Z" fill="#000000" fill-rule="nonzero" opacity="1" stroke="none"/>
<path d="M70.9765 62.8593L70.9765 74.0593L79.5065 74.0593L79.5065 51.3293L70.9765 62.8593Z" fill="#000000" fill-rule="nonzero" opacity="1" stroke="none"/>
<path d="M97.4965 50.2493C101.463 46.7842 107.437 46.9897 111.157 50.7193L116.657 44.5493C113.166 41.5355 108.708 39.8779 104.097 39.8793C96.9393 39.749 90.3617 43.7994 87.2565 50.2493L97.4965 50.2493Z" fill="#000000" fill-rule="nonzero" opacity="1" stroke="none"/>
<path d="M107.367 55.1793L104.577 61.8993L111.647 61.8993C110.514 65.0969 107.489 67.233 104.097 67.2293C101.49 67.2815 98.9742 66.269 97.1305 64.4253C95.2868 62.5816 94.2743 60.0661 94.3265 57.4593C94.3283 56.6152 94.4392 55.7749 94.6565 54.9593L85.8565 54.9593C85.7358 55.7871 85.6757 56.6227 85.6765 57.4593C85.6765 67.2293 93.6765 75.1293 104.097 75.1293C113.507 75.1293 120.877 67.4093 120.877 57.3793L120.877 55.1793L107.367 55.1793Z" fill="#000000" fill-rule="nonzero" opacity="1" stroke="none"/>
<path d="M2.99652 82.7693L34.0765 82.7693L34.0765 82.7693L34.0765 90.0493L34.0765 90.0493L2.99652 90.0493L2.99652 90.0493L2.99652 82.7693L2.99652 82.7693Z" fill="#000000" fill-rule="nonzero" opacity="1" stroke="none"/>
<path d="M117.337 72.1693L116.717 72.1693L116.717 71.9393L118.247 71.9393L118.247 72.1693L117.577 72.1693L117.577 74.0093L117.297 74.0093L117.337 72.1693Z" fill="#000000" fill-rule="nonzero" opacity="1" stroke="none"/>
<path d="M120.217 73.1093C120.217 72.8193 120.217 72.4693 120.217 72.2093L120.217 72.2093C120.147 72.4493 120.067 72.7093 119.957 72.9993L119.597 73.9993L119.387 73.9993L119.057 72.9993C118.957 72.6993 118.877 72.4393 118.817 72.1893L118.817 72.1893C118.817 72.4493 118.817 72.7993 118.817 73.1093L118.767 73.9893L118.507 73.9893L118.657 71.9193L118.997 71.9193L119.347 72.9193C119.429 73.1452 119.499 73.3756 119.557 73.6093L119.557 73.6093C119.557 73.3993 119.687 73.1793 119.777 72.9193L120.147 71.9193L120.487 71.9193L120.577 74.0093L120.307 74.0093L120.217 73.1093Z" fill="#000000" fill-rule="nonzero" opacity="1" stroke="none"/>
</g>
</svg>
