<?xml version="1.0" encoding="UTF-8" standalone="no"?>
<!DOCTYPE svg PUBLIC "-//W3C//DTD SVG 1.1//EN" "http://www.w3.org/Graphics/SVG/1.1/DTD/svg11.dtd">
<!-- Created with Vectornator (http://vectornator.io/) -->
<svg height="100%" stroke-miterlimit="10" style="fill-rule:nonzero;clip-rule:evenodd;stroke-linecap:round;stroke-linejoin:round;" version="1.1" viewBox="0 0 260 260" width="100%" xml:space="preserve" xmlns="http://www.w3.org/2000/svg" xmlns:vectornator="http://vectornator.io" xmlns:xlink="http://www.w3.org/1999/xlink">
<defs/>
<g id="com.castsoftware.owasp-index" vectornator:layerName="com.castsoftware.owasp-index">
<path d="M0 0L0 260L260 260L260 0L0 0ZM129.281 21.6562C130.261 21.6515 130.271 21.6515 131.25 21.6562C165.952 22.317 198.288 49.0111 204.844 83.2188C211.38 117.327 191.199 154.738 158.969 167.906C132.034 178.911 98.9577 172.635 77.875 152.531C54.1635 129.927 47.6748 91.3514 63.0625 62.1875C75.7216 38.1956 101.8 22.1792 129.281 21.6562ZM41.4688 191C56.29 191 58 195.597 58 202.344L58 222.656C58 229.465 56.29 234 41.4688 234C26.7101 234 25 229.465 25 222.656L25 202.344C25 195.597 26.7101 191 41.4688 191ZM139.5 191C154.402 191 156 195.529 156 202.188L156 233L150.875 233L150.875 217.625L128.125 217.625L128.125 233L123 233L123 202.188C123 195.529 124.599 191 139.5 191ZM180.5 191C195.401 191 197 195.534 197 202.344L197 203.812L191.875 203.812L191.875 202.906C191.875 197.736 191.18 194.969 180.5 194.969C169.82 194.969 169.125 197.736 169.125 202.906L169.125 203.938C169.125 206.712 170.134 208.401 173.906 209.031L188.125 211.312C193.944 212.258 197 215.141 197 220.375L197 222.656C197 229.402 195.401 234 180.5 234C165.599 234 164 229.402 164 222.656L164 219.312L169.125 219.312L169.125 222.094C169.125 227.264 169.82 230.031 180.5 230.031C191.18 230.031 191.875 227.264 191.875 222.094L191.875 221.438C191.875 217.592 189.963 216.099 186.062 215.469L172.75 213.375C166.675 212.429 164 209.103 164 204.438L164 202.344C164 195.534 165.599 191 180.5 191ZM204 191L223.312 191C233.801 191 237 195.543 237 202.344L237 209.562C237 216.3 233.801 220.906 223.312 220.906L209.125 220.906L209.125 233L204 233L204 191ZM66 192L71 192L71 222.156C71 227.266 71.8755 230 79.5 230C87 230 88 227.266 88 222.156L88 192L93 192L93 222.156C93 227.266 94 230 101.5 230C109.125 230 110 227.266 110 222.156L110 192L115 192L115 222.781C115 229.511 113.25 234 101.5 234C94.8123 234 91.8128 231.243 90.5 229.125C89.1877 231.243 86.1878 234 79.5 234C67.7502 234 66 229.511 66 222.781L66 192ZM129.344 26.4062C96.7429 27.029 66.5168 52.0395 60.375 84.0938C54.2475 116.081 73.1652 151.159 103.375 163.5C128.627 173.816 159.609 167.937 179.375 149.094C201.561 127.94 207.673 91.74 193.25 64.4062C181.413 41.9735 157.157 26.9006 131.188 26.4062C130.265 26.4015 130.266 26.4015 129.344 26.4062ZM158.031 52C158.189 52 158.342 52.1068 158.438 52.25C158.533 52.398 160.857 55.9336 161.062 58.125C161.177 59.3807 159.72 62.5113 158.938 64.125C160.036 64.7266 161.115 65.5213 162.094 66.5C163.077 67.4787 163.862 68.5534 164.469 69.6562C166.02 68.9019 169.002 67.5625 170.344 67.5625C170.401 67.5625 170.452 67.5625 170.5 67.5625C172.691 67.7726 176.227 70.0872 176.375 70.1875C176.599 70.3307 176.679 70.6194 176.531 70.8438C176.441 70.987 176.283 71.0625 176.125 71.0625C176.034 71.0625 175.925 71.0525 175.844 71C175.81 70.9761 172.354 68.7127 170.406 68.5312C170.373 68.5265 170.346 68.5313 170.312 68.5312C169.362 68.5312 166.842 69.6098 164.938 70.5312C165.701 70.5599 166.47 70.8767 167.062 71.4688C168.28 72.6862 168.299 74.6115 167.125 75.7812C166.686 76.2205 166.14 76.4935 165.562 76.5938C165.3 77.4436 164.844 78.2183 164.219 78.8438C163.125 79.9371 161.657 80.4375 160 80.4375C158.649 80.4375 157.178 80.1059 155.75 79.4375C156.586 81.6146 156.651 83.9297 155.906 85.9062C158.203 87.4054 160.507 88.8815 160.875 89.125C161.481 89.0056 165.089 88.5625 167.156 88.5625C167.982 88.5625 168.556 88.6528 168.594 88.8438C168.727 89.5074 160.344 90.4062 160.344 90.4062L155.344 88.4375C156.413 90.2947 156.993 91.7795 157.375 92.2188C157.957 92.4145 166.059 94.704 165.844 95.3438C165.82 95.4154 165.671 95.4375 165.438 95.4375C163.647 95.4375 156.531 93.5313 156.531 93.5312L154.938 91.7188C155.544 93.5282 156.118 95.2617 156.219 95.5625C156.768 95.9683 161.776 100.331 161.375 100.875C161.351 100.904 161.329 100.937 161.281 100.938C160.403 100.938 155.156 96.3438 155.156 96.3438L152.094 90C151.779 90.1432 151.464 90.2747 151.125 90.375C152.347 96.596 153.983 105.702 155.281 115.656C157.401 131.937 156.928 148.991 155.625 152.219C155.52 152.477 155.371 152.625 155.156 152.625C152.726 152.625 143.845 136.841 142.656 132.344C140.164 122.929 140.696 118.957 140.844 117.688C141.297 113.801 145.083 111.846 145.312 106.594C145.384 104.97 146.19 96.862 146.844 90.5312C145.235 90.2161 143.615 89.5017 142.188 88.375C146.475 94.1281 140.172 101.016 131 110.188C121.265 119.922 99.6563 128.969 99.6562 128.969C99.6562 128.969 108.703 107.355 118.438 97.625C125.594 90.4682 131.364 85.0312 136.281 85.0312C137.671 85.0312 138.985 85.4657 140.25 86.4062C139.118 84.9787 138.409 83.395 138.094 81.7812C131.758 82.4353 123.655 83.2457 122.031 83.3125C116.779 83.5417 114.819 87.2917 110.938 87.75C110.489 87.8025 109.732 87.9063 108.5 87.9062C106.223 87.9062 102.392 87.5872 96.2812 85.9688C91.3923 84.6749 73.1475 74.3034 76.375 73C78.0174 72.3316 83.2573 71.875 90.1562 71.875C96.7926 71.875 104.991 72.3029 112.969 73.3438C122.923 74.6424 132.029 76.2778 138.25 77.5C138.35 77.1658 138.477 76.8464 138.625 76.5312L132.25 73.4688C132.25 73.4688 127.174 67.651 127.719 67.25C127.738 67.2309 127.779 67.2187 127.812 67.2188C128.61 67.2188 132.671 71.8498 133.062 72.375C133.363 72.4753 135.092 73.0547 136.906 73.6562L135.094 72.0938C135.094 72.0938 132.637 62.9648 133.281 62.75C133.286 62.75 133.303 62.75 133.312 62.75C133.986 62.75 136.215 70.6818 136.406 71.25C136.845 71.6367 138.335 72.2166 140.188 73.2812L138.219 68.2812C138.219 68.2812 139.122 60 139.781 60C140.445 60.1337 139.667 66.9097 139.5 67.75C139.739 68.1224 141.22 70.4223 142.719 72.7188C143.64 72.3702 144.639 72.1875 145.656 72.1875C146.826 72.1875 148.023 72.431 149.188 72.875C147.693 69.6953 147.8 66.3564 149.781 64.375C150.407 63.7496 151.181 63.3203 152.031 63.0625C152.136 62.48 152.405 61.944 152.844 61.5C153.417 60.9271 154.174 60.625 154.938 60.625C155.735 60.625 156.536 60.9418 157.156 61.5625C157.753 62.1593 158.065 62.9236 158.094 63.6875C159.049 61.7157 160.175 59.0469 160.094 58.1875C159.908 56.2396 157.649 52.8147 157.625 52.7812C157.482 52.5569 157.526 52.2418 157.75 52.0938C157.831 52.0412 157.941 52 158.031 52ZM139.5 194.906C128.82 194.906 128.125 197.647 128.125 202.75L128.125 213.281L150.875 213.281L150.875 202.75C150.875 197.647 150.181 194.906 139.5 194.906ZM41.4688 194.969C30.9543 194.969 30.0625 197.736 30.0625 202.906L30.0625 222.094C30.0625 227.264 30.9543 230.031 41.4688 230.031C52.0463 230.031 52.9375 227.264 52.9375 222.094L52.9375 202.906C52.9375 197.736 52.0463 194.969 41.4688 194.969ZM209.125 194.969L209.125 216.938L223.312 216.938C229.58 216.938 231.875 214.164 231.875 209L231.875 202.844C231.875 197.68 229.516 194.969 223.312 194.969L209.125 194.969Z" fill="#000000" fill-rule="nonzero" opacity="1" stroke="none"/>
</g>
</svg>
