<?xml version="1.0" encoding="UTF-8" standalone="no"?>
<!DOCTYPE svg PUBLIC "-//W3C//DTD SVG 1.1//EN" "http://www.w3.org/Graphics/SVG/1.1/DTD/svg11.dtd">
<!-- Created with Vectornator (http://vectornator.io/) -->
<svg height="100%" stroke-miterlimit="10" style="fill-rule:nonzero;clip-rule:evenodd;stroke-linecap:round;stroke-linejoin:round;" version="1.1" viewBox="0 0 92 92" width="100%" xml:space="preserve" xmlns="http://www.w3.org/2000/svg" xmlns:vectornator="http://vectornator.io" xmlns:xlink="http://www.w3.org/1999/xlink">
<defs/>
<clipPath id="ArtboardFrame">
<rect height="92" width="92" x="0" y="0"/>
</clipPath>
<g clip-path="url(#ArtboardFrame)" id="owasp_logo_Mx_2016" vectornator:layerName="owasp_logo_Mx_2016">
<g opacity="1">
<path d="M8 0C3.58172 0 0 3.58172 0 8L0 63C0 67.4183 3.58172 71 8 71L45.1562 71C45.1251 70.4939 45 70.014 45 69.5C45 56.1407 55.7061 45.336 69 45.0625L69 8C69 3.58172 65.4183 0 61 0L8 0ZM7.90625 8.21875L14.0312 8.21875L21.3125 30C21.9844 32.0296 22.4733 33.5547 22.7812 34.5625C23.1312 33.4427 23.6644 31.7946 24.4062 29.625L31.7812 8.21875L37.25 8.21875L37.25 39L33.3438 39L33.3438 13.25L24.4062 39L20.7188 39L11.8125 12.8125L11.8125 39L7.90625 39L7.90625 8.21875ZM40.5938 16.6875L45.3125 16.6875L48.7188 21.9375C49.3626 22.9313 49.8893 23.7656 50.2812 24.4375C50.8971 23.5137 51.4821 22.6826 52 21.9688L55.75 16.6875L60.25 16.6875L52.5625 27.1875L60.8438 39L56.2188 39L51.625 32.0625L50.4062 30.1875L44.5625 39L39.9688 39L48.125 27.4062L40.5938 16.6875ZM11.4688 46.0625C12.7051 46.0625 13.6855 46.4082 14.4062 47.0938C15.127 47.7793 15.4688 48.6113 15.4688 49.625C15.4688 50.1406 15.3672 50.6582 15.1562 51.1562C14.9453 51.6543 14.6143 52.168 14.125 52.7188C13.6357 53.2695 12.8242 54.0391 11.6875 55C10.7383 55.7969 10.1133 56.3408 9.84375 56.625C9.57422 56.9092 9.36328 57.1816 9.1875 57.4688L15.5 57.4688L15.5 59L6.96875 59C6.95703 58.6191 7.02148 58.2578 7.15625 57.9062C7.37305 57.3262 7.74121 56.75 8.21875 56.1875C8.69629 55.625 9.3789 54.9883 10.2812 54.25C11.6816 53.1016 12.6328 52.1709 13.125 51.5C13.6172 50.8291 13.8438 50.1914 13.8438 49.5938C13.8438 48.9668 13.6357 48.4619 13.1875 48.0312C12.7393 47.6006 12.1582 47.375 11.4375 47.375C10.6758 47.375 10.0508 47.6055 9.59375 48.0625C9.13672 48.5195 8.91211 49.1602 8.90625 49.9688L7.28125 49.7812C7.39258 48.5684 7.80468 47.667 8.53125 47.0312C9.25782 46.3955 10.2441 46.0625 11.4688 46.0625ZM20.9062 46.0625C21.5977 46.0625 22.2285 46.1904 22.75 46.4688C23.2715 46.7471 23.6914 47.1631 24.0312 47.6875C24.3711 48.2119 24.6504 48.8408 24.8438 49.5938C25.0371 50.3467 25.125 51.3789 25.125 52.6562C25.125 54.168 24.9668 55.3838 24.6562 56.3125C24.3457 57.2412 23.8682 57.9619 23.25 58.4688C22.6318 58.9756 21.8496 59.2188 20.9062 59.2188C19.6641 59.2188 18.709 58.7656 18 57.875C17.1504 56.8027 16.7187 55.0762 16.7188 52.6562C16.7188 51.1328 16.874 49.8975 17.1875 48.9688C17.501 48.04 17.9756 47.3164 18.5938 46.8125C19.2119 46.3086 19.9687 46.0625 20.9062 46.0625ZM31.1875 46.0625L32.2188 46.0625L32.2188 59L30.625 59L30.625 48.9062C30.2441 49.2695 29.7432 49.6367 29.125 50C28.5068 50.3633 27.9609 50.6309 27.4688 50.8125L27.4688 49.3125C28.3535 48.8965 29.1191 48.373 29.7812 47.7812C30.4434 47.1895 30.9121 46.6191 31.1875 46.0625ZM40.3438 46.0625C41.3574 46.0625 42.165 46.3379 42.8125 46.9062C43.46 47.4746 43.8711 48.2793 44 49.2812L42.4062 49.4062C42.2656 48.7852 42.0703 48.3125 41.8125 48.0312C41.3848 47.5801 40.8457 47.375 40.2188 47.375C39.7148 47.375 39.2871 47.5 38.9062 47.7812C38.4082 48.1445 38.0059 48.6777 37.7188 49.375C37.4316 50.0723 37.293 51.0547 37.2812 52.3438C37.6621 51.7637 38.1367 51.3438 38.6875 51.0625C39.2383 50.7812 39.8027 50.6562 40.4062 50.6562C41.4609 50.6562 42.3525 51.0361 43.0938 51.8125C43.835 52.5889 44.2187 53.582 44.2188 54.8125C44.2188 55.6211 44.0361 56.3682 43.6875 57.0625C43.3389 57.7568 42.8594 58.2871 42.25 58.6562C41.6406 59.0254 40.9609 59.2188 40.1875 59.2188C38.8691 59.2188 37.8008 58.7197 36.9688 57.75C36.1367 56.7803 35.7188 55.1953 35.7188 52.9688C35.7188 50.4785 36.1738 48.6621 37.0938 47.5312C37.8965 46.5469 38.9844 46.0625 40.3438 46.0625ZM40.0938 52.0312C39.3789 52.0312 38.7793 52.2998 38.2812 52.8125C37.7832 53.3252 37.5312 53.9805 37.5312 54.8125C37.5312 55.3574 37.6436 55.8769 37.875 56.375C38.1064 56.873 38.4277 57.2705 38.8438 57.5312C39.2598 57.792 39.6992 57.9063 40.1562 57.9062C40.8242 57.9062 41.3945 57.6641 41.875 57.125C42.3555 56.5859 42.5938 55.832 42.5938 54.9062C42.5938 54.0156 42.3496 53.3252 41.875 52.8125C41.4004 52.2998 40.8145 52.0313 40.0938 52.0312ZM18.3423 52.6455C18.3423 54.7608 18.5899 56.1685 19.085 56.8687C19.5801 57.5689 20.1909 57.9189 20.9175 57.9189C21.6441 57.9189 22.2549 57.5674 22.75 56.8643C23.2451 56.1611 23.4927 54.7549 23.4927 52.6455C23.4927 50.5244 23.2451 49.1152 22.75 48.418C22.2549 47.7207 21.6382 47.3721 20.8999 47.3721C20.1734 47.3721 19.5933 47.6797 19.1597 48.2949C18.6148 49.0801 18.3423 50.5303 18.3423 52.6455Z" fill="#000000" fill-rule="evenodd" opacity="1" stroke="none"/>
<path d="M69.1444 92C56.5214 92 46.2886 81.767 46.2886 69.1444C46.2886 56.5215 56.5214 46.2886 69.1444 46.2886C81.7669 46.2886 92 56.5215 92 69.1444C92 81.767 81.7669 92 69.1444 92M69.1562 48.125C57.5433 48.125 48.125 57.5434 48.125 69.1562C48.125 80.7691 57.5433 90.1563 69.1562 90.1562C80.7689 90.1562 90.1562 80.7691 90.1562 69.1562C90.1562 57.5434 80.769 48.125 69.1562 48.125Z" fill="#000000" fill-rule="evenodd" opacity="1" stroke="none"/>
<path d="M76.2399 85.2557C75.5152 85.2552 72.8743 80.5552 72.5194 79.2151C71.7773 76.4095 71.937 75.2243 71.9814 74.8453C72.1173 73.6883 73.2399 73.1101 73.3078 71.5454C73.3288 71.0622 73.5729 68.6465 73.7677 66.7594C73.287 66.6656 72.8082 66.4484 72.3825 66.1124C73.6605 67.8264 71.7796 69.8805 69.0468 72.6135C66.146 75.5141 59.7079 78.2062 59.7079 78.2062C59.7079 78.2062 62.4003 71.768 65.3007 68.8674C67.4329 66.7354 69.1515 65.122 70.618 65.122C71.0314 65.122 71.4249 65.2502 71.8018 65.531C71.4654 65.1056 71.2488 64.627 71.1546 64.1463C69.2675 64.3416 66.8515 64.5854 66.3685 64.6064C64.8036 64.6744 64.2254 65.797 63.0691 65.9326C62.9359 65.9483 62.7032 65.9784 62.336 65.9784C61.6573 65.9784 60.519 65.8762 58.699 65.3947C57.2415 65.0092 51.8107 61.9196 52.7714 61.5314C53.2613 61.3331 54.8223 61.1991 56.8782 61.1991C58.8554 61.1991 61.2901 61.3229 63.6685 61.6328C66.634 62.0192 69.3532 62.5079 71.2063 62.8714C71.2364 62.7718 71.2724 62.675 71.3156 62.581L69.4212 61.673C69.4212 61.673 67.908 59.9367 68.0695 59.817C68.0758 59.8123 68.0839 59.81 68.0933 59.81C68.3307 59.81 69.5411 61.194 69.6576 61.3516C69.7472 61.3814 70.2605 61.5526 70.8003 61.7322L70.2644 61.2636C70.2644 61.2636 69.5309 58.5471 69.722 58.4831C69.7244 58.4824 69.7269 58.482 69.7297 58.482C69.9309 58.482 70.5965 60.8439 70.6536 61.014C70.7844 61.1286 71.2262 61.3005 71.7783 61.619L71.1978 60.1257C71.1978 60.1257 71.4605 57.6621 71.6572 57.6621C71.6588 57.6621 71.6602 57.6623 71.6618 57.6626C71.8598 57.7021 71.623 59.7174 71.5728 59.9686C71.6447 60.0785 72.09 60.7616 72.5365 61.4466C72.8112 61.343 73.1068 61.292 73.4102 61.292C73.7584 61.292 74.1166 61.3595 74.4642 61.4923C74.0191 60.5446 74.0528 59.557 74.643 58.9673C74.8298 58.7801 75.0567 58.6495 75.3095 58.5721C75.34 58.3997 75.42 58.2363 75.551 58.1051C75.7218 57.9343 75.9466 57.8495 76.1742 57.8495C76.4125 57.8495 76.654 57.9426 76.8388 58.1277C77.0161 58.3045 77.108 58.5331 77.1159 58.7609C77.4008 58.1735 77.7371 57.3811 77.7135 57.1244C77.6587 56.5434 76.9849 55.5151 76.9786 55.5049C76.9347 55.4384 76.953 55.3487 77.0198 55.3046C77.044 55.2886 77.0715 55.281 77.0988 55.281C77.1457 55.281 77.1917 55.3039 77.2192 55.3462C77.249 55.3905 77.9395 56.445 78.001 57.0976C78.0352 57.471 77.6065 58.412 77.3729 58.8926C77.701 59.0722 78.0208 59.3093 78.3129 59.6014C78.6048 59.8932 78.8419 60.2133 79.0217 60.5414C79.4841 60.3166 80.3712 59.9115 80.7712 59.9115C80.7872 59.9115 80.8024 59.9122 80.8168 59.9133C81.4693 59.9748 82.5238 60.6653 82.5679 60.6949C82.6345 60.7383 82.653 60.828 82.6091 60.8945C82.5813 60.9366 82.5354 60.9594 82.4884 60.9594C82.4614 60.9594 82.4339 60.9518 82.4096 60.9359C82.3992 60.9289 81.3711 60.2553 80.79 60.201C80.7812 60.2001 80.7717 60.1996 80.7618 60.1996C80.4791 60.1996 79.7203 60.5227 79.1532 60.7981C79.3812 60.806 79.6098 60.8982 79.7863 61.0754C80.1485 61.4371 80.1584 62.0134 79.8092 62.3626C79.6782 62.4938 79.5148 62.5745 79.3424 62.6045C79.2645 62.8576 79.1338 63.0845 78.947 63.2712C78.6217 63.5968 78.1757 63.7528 77.6816 63.7528C77.28 63.7528 76.8467 63.6495 76.4217 63.4501C76.6706 64.0999 76.6895 64.7878 76.4677 65.3776C77.1522 65.824 77.8362 66.2695 77.9457 66.3414C78.1255 66.3056 79.2052 66.1746 79.8215 66.1746C80.0678 66.1746 80.2404 66.1954 80.2515 66.2517C80.2915 66.4496 77.7888 66.7167 77.7888 66.7167L76.2953 66.1355C76.614 66.688 76.7854 67.1296 76.9003 67.2607C77.0729 67.3184 79.4945 68.0011 79.4307 68.1922C79.4235 68.2143 79.381 68.2241 79.3115 68.2241C78.7776 68.2241 76.6507 67.6496 76.6507 67.6496L76.1816 67.1137C76.3616 67.6537 76.5324 68.1665 76.5627 68.2566C76.7268 68.3777 78.2166 69.6822 78.0971 69.8442C78.0909 69.8525 78.0807 69.8562 78.0666 69.8562C77.8052 69.8562 76.2412 68.493 76.2412 68.493L75.3331 66.5984C75.2392 66.6418 75.1422 66.6774 75.0424 66.7077C75.4059 68.5607 75.8948 71.2799 76.2817 74.2452C76.9135 79.0968 76.7714 84.1811 76.3831 85.1425C76.3519 85.2199 76.3032 85.2557 76.2399 85.2557" fill="#000000" fill-rule="evenodd" opacity="1" stroke="none"/>
</g>
</g>
</svg>
