<?xml version="1.0" encoding="UTF-8" standalone="no"?>
<!DOCTYPE svg PUBLIC "-//W3C//DTD SVG 1.1//EN" "http://www.w3.org/Graphics/SVG/1.1/DTD/svg11.dtd">
<!-- Created with Vectornator (http://vectornator.io/) -->
<svg height="92.0px" stroke-miterlimit="10" style="fill-rule:nonzero;clip-rule:evenodd;stroke-linecap:round;stroke-linejoin:round;" version="1.1" viewBox="0 0 92 92" width="92.0px" xml:space="preserve" xmlns="http://www.w3.org/2000/svg" xmlns:xlink="http://www.w3.org/1999/xlink">
<defs/>
<clipPath id="ArtboardFrame">
<rect height="92" width="92" x="0" y="0"/>
</clipPath>
<g clip-path="url(#ArtboardFrame)" id="owasp_logo_APIx_2019">
<g opacity="1">
<path d="M8 0C3.58172 0 0 3.58172 0 8L0 63C0 67.4183 3.58172 71 8 71L45.1562 71C45.1251 70.4939 45 70.014 45 69.5C45 56.1407 55.7061 45.336 69 45.0625L69 8C69 3.58172 65.4183 0 61 0L8 0ZM11.0312 15.5312L14.0938 15.5312L22.875 37L19.625 37L17.125 30.5L8.15625 30.5L5.78125 37L2.78125 37L11.0312 15.5312ZM25.1562 15.5312L33.25 15.5312C34.6758 15.5312 35.748 15.582 36.5 15.7188C37.5547 15.8945 38.4434 16.2256 39.1562 16.7188C39.8691 17.2119 40.4404 17.9238 40.875 18.8125C41.3096 19.7012 41.5312 20.6855 41.5312 21.75C41.5312 23.5762 40.9434 25.1104 39.7812 26.375C38.6191 27.6396 36.5371 28.2812 33.5 28.2812L28 28.2812L28 37L25.1562 37L25.1562 15.5312ZM45.625 15.5312L48.4688 15.5312L48.4688 37L45.625 37L45.625 15.5312ZM12.5 17.7812C12.2266 19.1582 11.8418 20.5176 11.3438 21.875L8.96875 28.1875L16.25 28.1875L14 22.25C13.3164 20.4434 12.832 18.9434 12.5 17.7812ZM28 18.0625L28 25.75L33.5312 25.75C35.3672 25.75 36.666 25.4023 37.4375 24.7188C38.209 24.0352 38.5938 23.0527 38.5938 21.8125C38.5938 20.9141 38.3916 20.1709 37.9375 19.5312C37.4834 18.8916 36.8672 18.4551 36.125 18.25C35.6465 18.123 34.7578 18.0625 33.4688 18.0625L28 18.0625ZM51.8125 21.4375L55.125 21.4375L57.5 25.0938C57.9492 25.7871 58.3203 26.375 58.5938 26.8438C59.0234 26.1992 59.4199 25.623 59.7812 25.125L62.4062 21.4375L65.5625 21.4375L60.1562 28.7812L65.9688 37L62.7188 37L59.5312 32.1562L58.6875 30.875L54.5938 37L51.4062 37L57.0938 28.9062L51.8125 21.4375ZM7.25 45.6875C8.77148 45.6875 9.89176 46.1149 10.5938 46.9375C11.2957 47.7601 11.6562 48.6794 11.6562 49.6875C11.6562 50.7513 11.2796 51.6517 10.5312 52.4062C10.0983 52.8454 9.30697 53.3753 8.1875 54L6.9375 54.7188C6.33138 55.0527 5.84635 55.3532 5.5 55.6562C4.88151 56.1943 4.47331 56.8131 4.3125 57.4688L11.5938 57.4688L11.5938 59.0312L2.46875 59.0312C2.5306 57.887 2.74495 56.8786 3.15625 56.0312C3.56755 55.1839 4.36882 54.4115 5.5625 53.7188L7.34375 52.7188C8.1416 52.2549 8.70964 51.859 9.03125 51.5312C9.53841 51.0179 9.8125 50.4118 9.8125 49.75C9.8125 48.9769 9.55762 48.3608 9.09375 47.9062C8.62988 47.4517 8.02311 47.2187 7.25 47.2188C6.10579 47.2188 5.31413 47.6654 4.875 48.5312C4.63997 48.9951 4.49349 49.6462 4.46875 50.4688L2.78125 50.4688C2.7998 49.3122 3.0293 48.3548 3.4375 47.625C4.16113 46.3385 5.41927 45.6875 7.25 45.6875ZM28.375 45.6875C29.8965 45.6875 31.0168 46.1149 31.7188 46.9375C32.4207 47.7601 32.7812 48.6794 32.7812 49.6875C32.7812 50.7513 32.4046 51.6517 31.6562 52.4062C31.2233 52.8454 30.432 53.3753 29.3125 54L28.0625 54.7188C27.4564 55.0527 26.9714 55.3532 26.625 55.6562C26.0065 56.1943 25.6296 56.8131 25.4688 57.4688L32.7188 57.4688L32.7188 59.0312L23.5938 59.0312C23.6556 57.887 23.9012 56.8786 24.3125 56.0312C24.7238 55.1839 25.5251 54.4115 26.7188 53.7188L28.5 52.7188C29.2979 52.2549 29.8346 51.859 30.1562 51.5312C30.6634 51.0179 30.9375 50.4118 30.9375 49.75C30.9375 48.9769 30.7139 48.3608 30.25 47.9062C29.7861 47.4517 29.1481 47.2187 28.375 47.2188C27.2308 47.2188 26.4391 47.6654 26 48.5312C25.765 48.9951 25.6497 49.6462 25.625 50.4688L23.9062 50.4688C23.9248 49.3122 24.1543 48.3548 24.5625 47.625C25.2861 46.3385 26.5443 45.6875 28.375 45.6875ZM38.5312 45.7188C39.8857 45.7188 40.9453 46.022 41.6875 46.625C42.4297 47.228 42.8125 48.1058 42.8125 49.25C42.8125 50.0664 42.5641 50.7428 42.125 51.25C41.8529 51.5654 41.5267 51.7894 41.0938 51.9688C41.7926 52.1605 42.326 52.5464 42.7188 53.0938C43.1115 53.6411 43.3125 54.3021 43.3125 55.0938C43.3125 56.3617 42.8975 57.3896 42.0625 58.1875C41.2275 58.9854 40.0339 59.4062 38.5 59.4062C36.929 59.4062 35.8019 58.9565 35.0938 58.0938C34.3856 57.231 34.0312 56.1745 34.0312 54.9375L35.7812 54.9375C35.8555 55.7972 36.0026 56.4228 36.25 56.8125C36.6829 57.5114 37.4619 57.875 38.5938 57.875C39.472 57.875 40.1868 57.6263 40.7188 57.1562C41.2507 56.6862 41.5 56.0859 41.5 55.3438C41.5 54.4284 41.216 53.8024 40.6562 53.4375C40.0965 53.0726 39.3395 52.875 38.3438 52.875C38.2324 52.875 38.1144 52.8719 38 52.875C37.8856 52.8781 37.7738 52.9001 37.6562 52.9062L37.6562 51.4375C37.8294 51.4561 37.9762 51.4626 38.0938 51.4688C38.2113 51.4749 38.3327 51.4687 38.4688 51.4688C39.0934 51.4688 39.598 51.3854 40 51.1875C40.7051 50.8411 41.0625 50.2031 41.0625 49.3125C41.0625 48.6507 40.8138 48.14 40.3438 47.7812C39.8737 47.4225 39.3434 47.25 38.7188 47.25C37.6055 47.25 36.833 47.6328 36.4062 48.375C36.1712 48.7832 36.0309 49.3392 36 50.0938L34.3438 50.0938C34.3438 49.1042 34.5417 48.2865 34.9375 47.5938C35.6178 46.3568 36.818 45.7187 38.5312 45.7188ZM17.5625 45.75C19.2819 45.75 20.5456 46.4587 21.3125 47.875C21.9063 48.9697 22.1875 50.47 22.1875 52.375C22.1875 54.181 21.9131 55.6624 21.375 56.8438C20.5957 58.5384 19.3314 59.4062 17.5625 59.4062C15.9668 59.4062 14.7793 58.6979 14 57.3125C13.3506 56.1559 13.0312 54.6045 13.0312 52.6562C13.0313 51.1471 13.2354 49.8636 13.625 48.7812C14.3548 46.765 15.6514 45.75 17.5625 45.75ZM17.6875 47.25C16.7041 47.25 15.9858 47.7004 15.5312 48.625C15.0767 49.5496 14.8438 50.9189 14.8438 52.7188C14.8438 54.0732 14.9906 55.1774 15.2812 56C15.7266 57.2555 16.4863 57.875 17.5625 57.875C18.4284 57.875 19.1117 57.4857 19.625 56.7188C20.1383 55.9518 20.4062 54.528 20.4062 52.4375C20.4062 50.9284 20.2148 49.6929 19.8438 48.7188C19.4727 47.7446 18.7575 47.25 17.6875 47.25Z" fill="#000000" fill-rule="nonzero" opacity="1" stroke="none"/>
<path d="M69.1444 92C56.5214 92 46.2886 81.767 46.2886 69.1444C46.2886 56.5215 56.5214 46.2886 69.1444 46.2886C81.7669 46.2886 92 56.5215 92 69.1444C92 81.767 81.7669 92 69.1444 92M69.1562 48.125C57.5433 48.125 48.125 57.5434 48.125 69.1562C48.125 80.7691 57.5433 90.1563 69.1562 90.1562C80.7689 90.1562 90.1562 80.7691 90.1562 69.1562C90.1562 57.5434 80.769 48.125 69.1562 48.125Z" fill="#000000" fill-rule="evenodd" opacity="1" stroke="none"/>
<path d="M76.2399 85.2557C75.5152 85.2552 72.8743 80.5552 72.5194 79.2151C71.7773 76.4095 71.937 75.2243 71.9814 74.8453C72.1173 73.6883 73.2399 73.1101 73.3078 71.5454C73.3288 71.0622 73.5729 68.6465 73.7677 66.7594C73.287 66.6656 72.8082 66.4484 72.3825 66.1124C73.6605 67.8264 71.7796 69.8805 69.0468 72.6135C66.146 75.5141 59.7079 78.2062 59.7079 78.2062C59.7079 78.2062 62.4003 71.768 65.3007 68.8674C67.4329 66.7354 69.1515 65.122 70.618 65.122C71.0314 65.122 71.4249 65.2502 71.8018 65.531C71.4654 65.1056 71.2488 64.627 71.1546 64.1463C69.2675 64.3416 66.8515 64.5854 66.3685 64.6064C64.8036 64.6744 64.2254 65.797 63.0691 65.9326C62.9359 65.9483 62.7032 65.9784 62.336 65.9784C61.6573 65.9784 60.519 65.8762 58.699 65.3947C57.2415 65.0092 51.8107 61.9196 52.7714 61.5314C53.2613 61.3331 54.8223 61.1991 56.8782 61.1991C58.8554 61.1991 61.2901 61.3229 63.6685 61.6328C66.634 62.0192 69.3532 62.5079 71.2063 62.8714C71.2364 62.7718 71.2724 62.675 71.3156 62.581L69.4212 61.673C69.4212 61.673 67.908 59.9367 68.0695 59.817C68.0758 59.8123 68.0839 59.81 68.0933 59.81C68.3307 59.81 69.5411 61.194 69.6576 61.3516C69.7472 61.3814 70.2605 61.5526 70.8003 61.7322L70.2644 61.2636C70.2644 61.2636 69.5309 58.5471 69.722 58.4831C69.7244 58.4824 69.7269 58.482 69.7297 58.482C69.9309 58.482 70.5965 60.8439 70.6536 61.014C70.7844 61.1286 71.2262 61.3005 71.7783 61.619L71.1978 60.1257C71.1978 60.1257 71.4605 57.6621 71.6572 57.6621C71.6588 57.6621 71.6602 57.6623 71.6618 57.6626C71.8598 57.7021 71.623 59.7174 71.5728 59.9686C71.6447 60.0785 72.09 60.7616 72.5365 61.4466C72.8112 61.343 73.1068 61.292 73.4102 61.292C73.7584 61.292 74.1166 61.3595 74.4642 61.4923C74.0191 60.5446 74.0528 59.557 74.643 58.9673C74.8298 58.7801 75.0567 58.6495 75.3095 58.5721C75.34 58.3997 75.42 58.2363 75.551 58.1051C75.7218 57.9343 75.9466 57.8495 76.1742 57.8495C76.4125 57.8495 76.654 57.9426 76.8388 58.1277C77.0161 58.3045 77.108 58.5331 77.1159 58.7609C77.4008 58.1735 77.7371 57.3811 77.7135 57.1244C77.6587 56.5434 76.9849 55.5151 76.9786 55.5049C76.9347 55.4384 76.953 55.3487 77.0198 55.3046C77.044 55.2886 77.0715 55.281 77.0988 55.281C77.1457 55.281 77.1917 55.3039 77.2192 55.3462C77.249 55.3905 77.9395 56.445 78.001 57.0976C78.0352 57.471 77.6065 58.412 77.3729 58.8926C77.701 59.0722 78.0208 59.3093 78.3129 59.6014C78.6048 59.8932 78.8419 60.2133 79.0217 60.5414C79.4841 60.3166 80.3712 59.9115 80.7712 59.9115C80.7872 59.9115 80.8024 59.9122 80.8168 59.9133C81.4693 59.9748 82.5238 60.6653 82.5679 60.6949C82.6345 60.7383 82.653 60.828 82.6091 60.8945C82.5813 60.9366 82.5354 60.9594 82.4884 60.9594C82.4614 60.9594 82.4339 60.9518 82.4096 60.9359C82.3992 60.9289 81.3711 60.2553 80.79 60.201C80.7812 60.2001 80.7717 60.1996 80.7618 60.1996C80.4791 60.1996 79.7203 60.5227 79.1532 60.7981C79.3812 60.806 79.6098 60.8982 79.7863 61.0754C80.1485 61.4371 80.1584 62.0134 79.8092 62.3626C79.6782 62.4938 79.5148 62.5745 79.3424 62.6045C79.2645 62.8576 79.1338 63.0845 78.947 63.2712C78.6217 63.5968 78.1757 63.7528 77.6816 63.7528C77.28 63.7528 76.8467 63.6495 76.4217 63.4501C76.6706 64.0999 76.6895 64.7878 76.4677 65.3776C77.1522 65.824 77.8362 66.2695 77.9457 66.3414C78.1255 66.3056 79.2052 66.1746 79.8215 66.1746C80.0678 66.1746 80.2404 66.1954 80.2515 66.2517C80.2915 66.4496 77.7888 66.7167 77.7888 66.7167L76.2953 66.1355C76.614 66.688 76.7854 67.1296 76.9003 67.2607C77.0729 67.3184 79.4945 68.0011 79.4307 68.1922C79.4235 68.2143 79.381 68.2241 79.3115 68.2241C78.7776 68.2241 76.6507 67.6496 76.6507 67.6496L76.1816 67.1137C76.3616 67.6537 76.5324 68.1665 76.5627 68.2566C76.7268 68.3777 78.2166 69.6822 78.0971 69.8442C78.0909 69.8525 78.0807 69.8562 78.0666 69.8562C77.8052 69.8562 76.2412 68.493 76.2412 68.493L75.3331 66.5984C75.2392 66.6418 75.1422 66.6774 75.0424 66.7077C75.4059 68.5607 75.8948 71.2799 76.2817 74.2452C76.9135 79.0968 76.7714 84.1811 76.3831 85.1425C76.3519 85.2199 76.3032 85.2557 76.2399 85.2557" fill="#000000" fill-rule="evenodd" opacity="1" stroke="none"/>
</g>
<g fill="#3395ff" opacity="0" stroke="none">
<path d="M2.45996 59.0304C2.52181 57.8862 2.75838 56.8904 3.16968 56.0431C3.58097 55.1957 4.38346 54.4257 5.57715 53.733L7.3584 52.7032C8.15625 52.2394 8.71598 51.8435 9.0376 51.5157C9.54476 51.0024 9.79834 50.4148 9.79834 49.753C9.79834 48.9799 9.56641 48.3661 9.10254 47.9115C8.63867 47.4569 8.02018 47.2296 7.24707 47.2296C6.10286 47.2296 5.3112 47.6625 4.87207 48.5284C4.63704 48.9923 4.50716 49.6355 4.48242 50.4581L2.78467 50.4581C2.80322 49.3015 3.0166 48.3583 3.4248 47.6285C4.14844 46.3421 5.42562 45.6988 7.25635 45.6988C8.77783 45.6988 9.88957 46.1101 10.5916 46.9327C11.2935 47.7553 11.6445 48.6707 11.6445 49.6788C11.6445 50.7426 11.2703 51.6518 10.522 52.4063C10.089 52.8455 9.31283 53.3774 8.19336 54.0021L6.92236 54.7071C6.31624 55.0411 5.84001 55.3596 5.49365 55.6627C4.87516 56.2008 4.48551 56.7976 4.32471 57.4532L11.5796 57.4532L11.5796 59.0304L2.45996 59.0304Z"/>
<path d="M17.5728 45.7452C19.2922 45.7452 20.5353 46.4534 21.3022 47.8697C21.896 48.9645 22.1929 50.4643 22.1929 52.3692C22.1929 54.1752 21.9238 55.6689 21.3857 56.8502C20.6064 58.5449 19.3324 59.3922 17.5635 59.3922C15.9678 59.3922 14.7803 58.6995 14.001 57.3141C13.3516 56.1575 13.0269 54.6051 13.0269 52.6568C13.0269 51.1477 13.2217 49.852 13.6113 48.7696C14.3411 46.7534 15.6616 45.7452 17.5728 45.7452ZM17.5542 57.8707C18.4201 57.8707 19.1097 57.4872 19.623 56.7203C20.1364 55.9534 20.3931 54.5247 20.3931 52.4342C20.3931 50.9251 20.2075 49.6834 19.8364 48.7093C19.4653 47.7352 18.7448 47.2481 17.6748 47.2481C16.6914 47.2481 15.9724 47.7105 15.5178 48.6351C15.0632 49.5597 14.8359 50.922 14.8359 52.7218C14.8359 54.0763 14.9813 55.1648 15.272 55.9874C15.7173 57.2429 16.478 57.8707 17.5542 57.8707Z"/>
<path d="M23.5937 59.0304C23.6556 57.8862 23.8922 56.8904 24.3035 56.0431C24.7148 55.1957 25.5173 54.4257 26.7109 53.733L28.4922 52.7032C29.29 52.2394 29.8498 51.8435 30.1714 51.5157C30.6785 51.0024 30.9321 50.4148 30.9321 49.753C30.9321 48.9799 30.7002 48.3661 30.2363 47.9115C29.7725 47.4569 29.154 47.2296 28.3809 47.2296C27.2367 47.2296 26.445 47.6625 26.0059 48.5284C25.7708 48.9923 25.641 49.6355 25.6162 50.4581L23.9185 50.4581C23.937 49.3015 24.1504 48.3583 24.5586 47.6285C25.2822 46.3421 26.5594 45.6988 28.3901 45.6988C29.9116 45.6988 31.0234 46.1101 31.7253 46.9327C32.4273 47.7553 32.7783 48.6707 32.7783 49.6788C32.7783 50.7426 32.4041 51.6518 31.6558 52.4063C31.2228 52.8455 30.4466 53.3774 29.3271 54.0021L28.0562 54.7071C27.45 55.0411 26.9738 55.3596 26.6274 55.6627C26.009 56.2008 25.6193 56.7976 25.4585 57.4532L32.7134 57.4532L32.7134 59.0304L23.5937 59.0304Z"/>
<path d="M38.5024 59.3922C36.9315 59.3922 35.7919 58.9608 35.0837 58.098C34.3756 57.2352 34.0215 56.1853 34.0215 54.9483L35.7656 54.9483C35.8398 55.808 36.0007 56.4327 36.248 56.8224C36.681 57.5213 37.4634 57.8707 38.5952 57.8707C39.4735 57.8707 40.1785 57.6357 40.7104 57.1656C41.2424 56.6956 41.5083 56.0895 41.5083 55.3473C41.5083 54.4319 41.2284 53.7918 40.6687 53.4269C40.109 53.0619 39.3312 52.8795 38.3354 52.8795C38.2241 52.8795 38.1112 52.881 37.9968 52.8841C37.8824 52.8872 37.7664 52.8919 37.6489 52.898L37.6489 51.4229C37.8221 51.4415 37.9674 51.4539 38.085 51.4601C38.2025 51.4662 38.3293 51.4693 38.4653 51.4693C39.09 51.4693 39.6034 51.3704 40.0054 51.1725C40.7104 50.8261 41.063 50.2076 41.063 49.317C41.063 48.6552 40.828 48.145 40.3579 47.7862C39.8879 47.4275 39.3405 47.2481 38.7158 47.2481C37.6025 47.2481 36.8325 47.6192 36.4058 48.3614C36.1707 48.7696 36.0378 49.351 36.0068 50.1056L34.3555 50.1056C34.3555 49.116 34.5534 48.2748 34.9492 47.5821C35.6296 46.3451 36.8263 45.7267 38.5396 45.7267C39.894 45.7267 40.9424 46.0282 41.6846 46.6312C42.4268 47.2342 42.7979 48.1078 42.7979 49.2521C42.7979 50.0685 42.5783 50.7302 42.1392 51.2374C41.867 51.5528 41.5145 51.8002 41.0815 51.9796C41.7804 52.1713 42.3263 52.5409 42.719 53.0882C43.1117 53.6356 43.3081 54.3051 43.3081 55.0968C43.3081 56.3647 42.8906 57.3976 42.0557 58.1954C41.2207 58.9933 40.0363 59.3922 38.5024 59.3922Z"/>
</g>
</g>
</svg>
