<?xml version="1.0" encoding="UTF-8" standalone="no"?>
<!DOCTYPE svg PUBLIC "-//W3C//DTD SVG 1.1//EN" "http://www.w3.org/Graphics/SVG/1.1/DTD/svg11.dtd">
<!-- Created with Vectornator (http://vectornator.io/) -->
<svg height="92.0px" stroke-miterlimit="10" style="fill-rule:nonzero;clip-rule:evenodd;stroke-linecap:round;stroke-linejoin:round;" version="1.1" viewBox="0 0 92 92" width="92.0px" xml:space="preserve" xmlns="http://www.w3.org/2000/svg" xmlns:xlink="http://www.w3.org/1999/xlink">
<defs/>
<clipPath id="ArtboardFrame">
<rect height="92" width="92" x="0" y="0"/>
</clipPath>
<g clip-path="url(#ArtboardFrame)" id="owasp_logo_Ax_2013">
<g opacity="1">
<path d="M8 0C3.58172 0 0 3.58172 0 8L0 63C0 67.4183 3.58172 71 8 71L45.1562 71C45.1251 70.4939 45 70.014 45 69.5C45 56.1407 55.7061 45.336 69 45.0625L69 8C69 3.58172 65.4183 0 61 0L8 0ZM22.0312 8.21875L26.4062 8.21875L38.7812 38.4688L46.5625 27.4062L39 16.6875L43.75 16.6875L47.1562 21.9375C47.8001 22.9313 48.3268 23.7656 48.7188 24.4375C49.3346 23.5137 49.8883 22.6826 50.4062 21.9688L54.1875 16.6875L58.6875 16.6875L50.9688 27.1875L59.2812 39L54.625 39L50.0625 32.0625L48.8438 30.1875L42.9688 39L39 39L38.4062 39L34.375 39L30.7812 29.6875L17.9062 29.6875L14.5312 39L10.2188 39L22.0312 8.21875ZM24.125 11.4688C23.7331 13.4424 23.1826 15.3981 22.4688 17.3438L19.0938 26.375L29.5312 26.375L26.3125 17.8438C25.3327 15.2542 24.6009 13.1345 24.125 11.4688ZM7.25 45.6875C8.77148 45.6875 9.89176 46.1149 10.5938 46.9375C11.2957 47.7601 11.6562 48.6794 11.6562 49.6875C11.6562 50.7513 11.2796 51.6517 10.5312 52.4062C10.0983 52.8454 9.30697 53.3753 8.1875 54L6.9375 54.7188C6.33138 55.0527 5.84635 55.3532 5.5 55.6562C4.88151 56.1943 4.47331 56.8131 4.3125 57.4688L11.5938 57.4688L11.5938 59.0312L2.46875 59.0312C2.5306 57.887 2.74495 56.8786 3.15625 56.0312C3.56755 55.1839 4.36882 54.4115 5.5625 53.7188L7.34375 52.7188C8.1416 52.2549 8.70964 51.859 9.03125 51.5312C9.53841 51.0179 9.8125 50.4118 9.8125 49.75C9.8125 48.9769 9.55762 48.3608 9.09375 47.9062C8.62988 47.4517 8.02311 47.2187 7.25 47.2188C6.10579 47.2188 5.31413 47.6654 4.875 48.5312C4.63997 48.9951 4.49349 49.6462 4.46875 50.4688L2.78125 50.4688C2.7998 49.3122 3.0293 48.3548 3.4375 47.625C4.16113 46.3385 5.41927 45.6875 7.25 45.6875ZM28.375 45.6875C29.8965 45.6875 31.0168 46.1149 31.7188 46.9375C32.4207 47.7601 32.7812 48.6794 32.7812 49.6875C32.7812 50.7513 32.4046 51.6517 31.6562 52.4062C31.2233 52.8454 30.432 53.3753 29.3125 54L28.0625 54.7188C27.4564 55.0527 26.9714 55.3532 26.625 55.6562C26.0065 56.1943 25.6296 56.8131 25.4688 57.4688L32.7188 57.4688L32.7188 59.0312L23.5938 59.0312C23.6556 57.887 23.9012 56.8786 24.3125 56.0312C24.7238 55.1839 25.5251 54.4115 26.7188 53.7188L28.5 52.7188C29.2979 52.2549 29.8346 51.859 30.1562 51.5312C30.6634 51.0179 30.9375 50.4118 30.9375 49.75C30.9375 48.9769 30.7139 48.3608 30.25 47.9062C29.7861 47.4517 29.1481 47.2187 28.375 47.2188C27.2308 47.2188 26.4391 47.6654 26 48.5312C25.765 48.9951 25.6497 49.6462 25.625 50.4688L23.9062 50.4688C23.9248 49.3122 24.1543 48.3548 24.5625 47.625C25.2861 46.3385 26.5443 45.6875 28.375 45.6875ZM17.5625 45.75C19.2819 45.75 20.5456 46.4587 21.3125 47.875C21.9063 48.9697 22.1875 50.47 22.1875 52.375C22.1875 54.181 21.9131 55.6624 21.375 56.8438C20.5957 58.5384 19.3314 59.4062 17.5625 59.4062C15.9668 59.4062 14.7793 58.6979 14 57.3125C13.3506 56.1559 13.0312 54.6045 13.0312 52.6562C13.0313 51.1471 13.2354 49.8636 13.625 48.7812C14.3548 46.765 15.6514 45.75 17.5625 45.75ZM35.6875 45.9688L42.5625 45.9688L42.5625 47.5938L36.9375 47.5938L36.375 51.2812C36.6842 51.0462 36.9717 50.8675 37.25 50.75C37.7448 50.5459 38.3193 50.4375 38.9688 50.4375C40.1872 50.4375 41.2152 50.8395 42.0625 51.625C42.9098 52.4105 43.3125 53.3877 43.3125 54.5938C43.3125 55.8493 42.9325 56.9788 42.1562 57.9375C41.38 58.8962 40.1383 59.375 38.4375 59.375C37.3551 59.375 36.3944 59.0467 35.5625 58.4375C34.7306 57.8283 34.2865 56.918 34.1875 55.6562L35.9062 55.6562C36.0176 56.6087 36.4769 57.2601 37.25 57.625C37.6458 57.8105 38.1055 57.9062 38.625 57.9062C39.6146 57.9062 40.3363 57.5684 40.8125 56.9375C41.2887 56.3066 41.5312 55.6107 41.5312 54.8438C41.5312 53.916 41.2534 53.2259 40.6875 52.7188C40.1216 52.2116 39.4479 51.9375 38.6562 51.9375C38.0811 51.9375 37.5675 52.0586 37.1562 52.2812C36.745 52.5039 36.3844 52.8229 36.0938 53.2188L34.6562 53.125L35.6875 45.9688ZM17.6875 47.25C16.7041 47.25 15.9858 47.7004 15.5312 48.625C15.0767 49.5496 14.8438 50.9189 14.8438 52.7188C14.8438 54.0732 14.9906 55.1774 15.2812 56C15.7266 57.2555 16.4863 57.875 17.5625 57.875C18.4284 57.875 19.1117 57.4857 19.625 56.7188C20.1383 55.9518 20.4062 54.528 20.4062 52.4375C20.4062 50.9284 20.2148 49.6929 19.8438 48.7188C19.4727 47.7446 18.7575 47.25 17.6875 47.25Z" fill="#000000" fill-rule="nonzero" opacity="1" stroke="none"/>
<path d="M69.1444 92C56.5214 92 46.2886 81.767 46.2886 69.1444C46.2886 56.5215 56.5214 46.2886 69.1444 46.2886C81.7669 46.2886 92 56.5215 92 69.1444C92 81.767 81.7669 92 69.1444 92M69.1562 48.125C57.5433 48.125 48.125 57.5434 48.125 69.1562C48.125 80.7691 57.5433 90.1563 69.1562 90.1562C80.7689 90.1562 90.1562 80.7691 90.1562 69.1562C90.1562 57.5434 80.769 48.125 69.1562 48.125Z" fill="#000000" fill-rule="evenodd" opacity="1" stroke="none"/>
<path d="M76.2399 85.2557C75.5152 85.2552 72.8743 80.5552 72.5194 79.2151C71.7773 76.4095 71.937 75.2243 71.9814 74.8453C72.1173 73.6883 73.2399 73.1101 73.3078 71.5454C73.3288 71.0622 73.5729 68.6465 73.7677 66.7594C73.287 66.6656 72.8082 66.4484 72.3825 66.1124C73.6605 67.8264 71.7796 69.8805 69.0468 72.6135C66.146 75.5141 59.7079 78.2062 59.7079 78.2062C59.7079 78.2062 62.4003 71.768 65.3007 68.8674C67.4329 66.7354 69.1515 65.122 70.618 65.122C71.0314 65.122 71.4249 65.2502 71.8018 65.531C71.4654 65.1056 71.2488 64.627 71.1546 64.1463C69.2675 64.3416 66.8515 64.5854 66.3685 64.6064C64.8036 64.6744 64.2254 65.797 63.0691 65.9326C62.9359 65.9483 62.7032 65.9784 62.336 65.9784C61.6573 65.9784 60.519 65.8762 58.699 65.3947C57.2415 65.0092 51.8107 61.9196 52.7714 61.5314C53.2613 61.3331 54.8223 61.1991 56.8782 61.1991C58.8554 61.1991 61.2901 61.3229 63.6685 61.6328C66.634 62.0192 69.3532 62.5079 71.2063 62.8714C71.2364 62.7718 71.2724 62.675 71.3156 62.581L69.4212 61.673C69.4212 61.673 67.908 59.9367 68.0695 59.817C68.0758 59.8123 68.0839 59.81 68.0933 59.81C68.3307 59.81 69.5411 61.194 69.6576 61.3516C69.7472 61.3814 70.2605 61.5526 70.8003 61.7322L70.2644 61.2636C70.2644 61.2636 69.5309 58.5471 69.722 58.4831C69.7244 58.4824 69.7269 58.482 69.7297 58.482C69.9309 58.482 70.5965 60.8439 70.6536 61.014C70.7844 61.1286 71.2262 61.3005 71.7783 61.619L71.1978 60.1257C71.1978 60.1257 71.4605 57.6621 71.6572 57.6621C71.6588 57.6621 71.6602 57.6623 71.6618 57.6626C71.8598 57.7021 71.623 59.7174 71.5728 59.9686C71.6447 60.0785 72.09 60.7616 72.5365 61.4466C72.8112 61.343 73.1068 61.292 73.4102 61.292C73.7584 61.292 74.1166 61.3595 74.4642 61.4923C74.0191 60.5446 74.0528 59.557 74.643 58.9673C74.8298 58.7801 75.0567 58.6495 75.3095 58.5721C75.34 58.3997 75.42 58.2363 75.551 58.1051C75.7218 57.9343 75.9466 57.8495 76.1742 57.8495C76.4125 57.8495 76.654 57.9426 76.8388 58.1277C77.0161 58.3045 77.108 58.5331 77.1159 58.7609C77.4008 58.1735 77.7371 57.3811 77.7135 57.1244C77.6587 56.5434 76.9849 55.5151 76.9786 55.5049C76.9347 55.4384 76.953 55.3487 77.0198 55.3046C77.044 55.2886 77.0715 55.281 77.0988 55.281C77.1457 55.281 77.1917 55.3039 77.2192 55.3462C77.249 55.3905 77.9395 56.445 78.001 57.0976C78.0352 57.471 77.6065 58.412 77.3729 58.8926C77.701 59.0722 78.0208 59.3093 78.3129 59.6014C78.6048 59.8932 78.8419 60.2133 79.0217 60.5414C79.4841 60.3166 80.3712 59.9115 80.7712 59.9115C80.7872 59.9115 80.8024 59.9122 80.8168 59.9133C81.4693 59.9748 82.5238 60.6653 82.5679 60.6949C82.6345 60.7383 82.653 60.828 82.6091 60.8945C82.5813 60.9366 82.5354 60.9594 82.4884 60.9594C82.4614 60.9594 82.4339 60.9518 82.4096 60.9359C82.3992 60.9289 81.3711 60.2553 80.79 60.201C80.7812 60.2001 80.7717 60.1996 80.7618 60.1996C80.4791 60.1996 79.7203 60.5227 79.1532 60.7981C79.3812 60.806 79.6098 60.8982 79.7863 61.0754C80.1485 61.4371 80.1584 62.0134 79.8092 62.3626C79.6782 62.4938 79.5148 62.5745 79.3424 62.6045C79.2645 62.8576 79.1338 63.0845 78.947 63.2712C78.6217 63.5968 78.1757 63.7528 77.6816 63.7528C77.28 63.7528 76.8467 63.6495 76.4217 63.4501C76.6706 64.0999 76.6895 64.7878 76.4677 65.3776C77.1522 65.824 77.8362 66.2695 77.9457 66.3414C78.1255 66.3056 79.2052 66.1746 79.8215 66.1746C80.0678 66.1746 80.2404 66.1954 80.2515 66.2517C80.2915 66.4496 77.7888 66.7167 77.7888 66.7167L76.2953 66.1355C76.614 66.688 76.7854 67.1296 76.9003 67.2607C77.0729 67.3184 79.4945 68.0011 79.4307 68.1922C79.4235 68.2143 79.381 68.2241 79.3115 68.2241C78.7776 68.2241 76.6507 67.6496 76.6507 67.6496L76.1816 67.1137C76.3616 67.6537 76.5324 68.1665 76.5627 68.2566C76.7268 68.3777 78.2166 69.6822 78.0971 69.8442C78.0909 69.8525 78.0807 69.8562 78.0666 69.8562C77.8052 69.8562 76.2412 68.493 76.2412 68.493L75.3331 66.5984C75.2392 66.6418 75.1422 66.6774 75.0424 66.7077C75.4059 68.5607 75.8948 71.2799 76.2817 74.2452C76.9135 79.0968 76.7714 84.1811 76.3831 85.1425C76.3519 85.2199 76.3032 85.2557 76.2399 85.2557" fill="#000000" fill-rule="evenodd" opacity="1" stroke="none"/>
</g>
<g fill="#3395ff" opacity="0" stroke="none">
<path d="M2.57785 59.0304C2.6397 57.8862 2.87627 56.8904 3.28757 56.0431C3.69886 55.1957 4.50135 54.4257 5.69504 53.733L7.47629 52.7032C8.27414 52.2394 8.83387 51.8435 9.15549 51.5157C9.66265 51.0024 9.91623 50.4148 9.91623 49.753C9.91623 48.9799 9.68429 48.3661 9.22043 47.9115C8.75656 47.4569 8.13807 47.2296 7.36496 47.2296C6.22075 47.2296 5.42909 47.6625 4.98996 48.5284C4.75493 48.9923 4.62505 49.6355 4.60031 50.4581L2.90256 50.4581C2.92111 49.3015 3.13449 48.3583 3.54269 47.6285C4.26633 46.3421 5.54351 45.6988 7.37424 45.6988C8.89572 45.6988 10.0075 46.1101 10.7094 46.9327C11.4114 47.7553 11.7624 48.6707 11.7624 49.6788C11.7624 50.7426 11.3882 51.6518 10.6399 52.4063C10.2069 52.8455 9.43071 53.3774 8.31125 54.0021L7.04025 54.7071C6.43413 55.0411 5.95789 55.3596 5.61154 55.6627C4.99305 56.2008 4.6034 56.7976 4.4426 57.4532L11.6975 57.4532L11.6975 59.0304L2.57785 59.0304Z"/>
<path d="M17.6906 45.7452C19.41 45.7452 20.6532 46.4534 21.4201 47.8697C22.0139 48.9645 22.3108 50.4643 22.3108 52.3692C22.3108 54.1752 22.0417 55.6689 21.5036 56.8502C20.7243 58.5449 19.4502 59.3922 17.6814 59.3922C16.0857 59.3922 14.8982 58.6995 14.1189 57.3141C13.4695 56.1575 13.1447 54.6051 13.1447 52.6568C13.1447 51.1477 13.3396 49.852 13.7292 48.7696C14.459 46.7534 15.7795 45.7452 17.6906 45.7452ZM17.6721 57.8707C18.538 57.8707 19.2276 57.4872 19.7409 56.7203C20.2543 55.9534 20.511 54.5247 20.511 52.4342C20.511 50.9251 20.3254 49.6834 19.9543 48.7093C19.5832 47.7352 18.8627 47.2481 17.7927 47.2481C16.8093 47.2481 16.0903 47.7105 15.6357 48.6351C15.1811 49.5597 14.9538 50.922 14.9538 52.7218C14.9538 54.0763 15.0992 55.1648 15.3899 55.9874C15.8352 57.2429 16.5959 57.8707 17.6721 57.8707Z"/>
<path d="M23.7116 59.0304C23.7735 57.8862 24.0101 56.8904 24.4214 56.0431C24.8327 55.1957 25.6351 54.4257 26.8288 53.733L28.6101 52.7032C29.4079 52.2394 29.9677 51.8435 30.2893 51.5157C30.7964 51.0024 31.05 50.4148 31.05 49.753C31.05 48.9799 30.8181 48.3661 30.3542 47.9115C29.8903 47.4569 29.2719 47.2296 28.4987 47.2296C27.3545 47.2296 26.5629 47.6625 26.1237 48.5284C25.8887 48.9923 25.7588 49.6355 25.7341 50.4581L24.0363 50.4581C24.0549 49.3015 24.2683 48.3583 24.6765 47.6285C25.4001 46.3421 26.6773 45.6988 28.508 45.6988C30.0295 45.6988 31.1412 46.1101 31.8432 46.9327C32.5452 47.7553 32.8962 48.6707 32.8962 49.6788C32.8962 50.7426 32.522 51.6518 31.7736 52.4063C31.3407 52.8455 30.5645 53.3774 29.445 54.0021L28.174 54.7071C27.5679 55.0411 27.0917 55.3596 26.7453 55.6627C26.1268 56.2008 25.7372 56.7976 25.5764 57.4532L32.8313 57.4532L32.8313 59.0304L23.7116 59.0304Z"/>
<path d="M38.6203 59.3922C37.0494 59.3922 35.9098 58.9608 35.2016 58.098C34.4935 57.2352 34.1394 56.1853 34.1394 54.9483L35.8835 54.9483C35.9577 55.808 36.1185 56.4327 36.3659 56.8224C36.7989 57.5213 37.5813 57.8707 38.7131 57.8707C39.5914 57.8707 40.2964 57.6357 40.8283 57.1656C41.3602 56.6956 41.6262 56.0895 41.6262 55.3473C41.6262 54.4319 41.3463 53.7918 40.7866 53.4269C40.2269 53.0619 39.4491 52.8795 38.4533 52.8795C38.342 52.8795 38.2291 52.881 38.1147 52.8841C38.0003 52.8872 37.8843 52.8919 37.7668 52.898L37.7668 51.4229C37.94 51.4415 38.0853 51.4539 38.2028 51.4601C38.3204 51.4662 38.4472 51.4693 38.5832 51.4693C39.2079 51.4693 39.7212 51.3704 40.1233 51.1725C40.8283 50.8261 41.1809 50.2076 41.1809 49.317C41.1809 48.6552 40.9459 48.145 40.4758 47.7862C40.0057 47.4275 39.4584 47.2481 38.8337 47.2481C37.7204 47.2481 36.9504 47.6192 36.5236 48.3614C36.2886 48.7696 36.1556 49.351 36.1247 50.1056L34.4734 50.1056C34.4734 49.116 34.6713 48.2748 35.0671 47.5821C35.7474 46.3451 36.9442 45.7267 38.6574 45.7267C40.0119 45.7267 41.0603 46.0282 41.8025 46.6312C42.5446 47.2342 42.9157 48.1078 42.9157 49.2521C42.9157 50.0685 42.6962 50.7302 42.257 51.2374C41.9849 51.5528 41.6324 51.8002 41.1994 51.9796C41.8983 52.1713 42.4441 52.5409 42.8369 53.0882C43.2296 53.6356 43.426 54.3051 43.426 55.0968C43.426 56.3647 43.0085 57.3976 42.1736 58.1954C41.3386 58.9933 40.1542 59.3922 38.6203 59.3922Z"/>
</g>
</g>
</svg>
