<?xml version="1.0" encoding="UTF-8" standalone="no"?>
<!DOCTYPE svg PUBLIC "-//W3C//DTD SVG 1.1//EN" "http://www.w3.org/Graphics/SVG/1.1/DTD/svg11.dtd">
<!-- Created with Vectornator (http://vectornator.io/) -->
<svg height="100%" stroke-miterlimit="10" style="fill-rule:nonzero;clip-rule:evenodd;stroke-linecap:round;stroke-linejoin:round;" version="1.1" viewBox="0 0 92 92" width="100%" xml:space="preserve" xmlns="http://www.w3.org/2000/svg" xmlns:vectornator="http://vectornator.io" xmlns:xlink="http://www.w3.org/1999/xlink">
<defs/>
<clipPath id="ArtboardFrame">
<rect height="92" width="92" x="0" y="0"/>
</clipPath>
<g clip-path="url(#ArtboardFrame)" id="owasp_logo_APIx_2019" vectornator:layerName="owasp_logo_APIx_2019">
<g opacity="1">
<path d="M8 0C3.58172 0 0 3.58172 0 8L0 63C0 67.4183 3.58172 71 8 71L45.1562 71C45.1251 70.4939 45 70.014 45 69.5C45 56.1407 55.7061 45.336 69 45.0625L69 8C69 3.58172 65.4183 0 61 0L8 0ZM11.0312 15.5312L14.0938 15.5312L22.875 37L19.625 37L17.125 30.5L8.15625 30.5L5.78125 37L2.78125 37L11.0312 15.5312ZM25.1562 15.5312L33.25 15.5312C34.6758 15.5312 35.748 15.582 36.5 15.7188C37.5547 15.8945 38.4434 16.2256 39.1562 16.7188C39.8691 17.2119 40.4404 17.9238 40.875 18.8125C41.3096 19.7012 41.5312 20.6855 41.5312 21.75C41.5312 23.5762 40.9434 25.1104 39.7812 26.375C38.6191 27.6396 36.5371 28.2812 33.5 28.2812L28 28.2812L28 37L25.1562 37L25.1562 15.5312ZM45.625 15.5312L48.4688 15.5312L48.4688 37L45.625 37L45.625 15.5312ZM51.8125 21.4375L55.125 21.4375L57.5 25.0938C57.9492 25.7871 58.3203 26.375 58.5938 26.8438C59.0234 26.1992 59.4199 25.623 59.7812 25.125L62.4062 21.4375L65.5625 21.4375L60.1562 28.7812L65.9688 37L62.7188 37L59.5312 32.1562L58.6875 30.875L54.5938 37L51.4062 37L57.0938 28.9062L51.8125 21.4375ZM11.5 46.0625C12.7363 46.0625 13.7168 46.4082 14.4375 47.0938C15.1582 47.7793 15.5312 48.6113 15.5312 49.625C15.5312 50.1406 15.4297 50.6582 15.2188 51.1562C15.0078 51.6543 14.6455 52.168 14.1562 52.7188C13.667 53.2695 12.8555 54.0391 11.7188 55C10.7695 55.7969 10.1445 56.3408 9.875 56.625C9.60547 56.9092 9.39453 57.1816 9.21875 57.4688L15.5312 57.4688L15.5312 59L7.03125 59C7.01953 58.6191 7.08398 58.2578 7.21875 57.9062C7.43555 57.3262 7.77246 56.75 8.25 56.1875C8.72754 55.625 9.41016 54.9883 10.3125 54.25C11.7129 53.1016 12.6641 52.1709 13.1562 51.5C13.6484 50.8291 13.9062 50.1914 13.9062 49.5938C13.9062 48.9668 13.667 48.4619 13.2188 48.0312C12.7705 47.6006 12.1895 47.375 11.4688 47.375C10.707 47.375 10.1133 47.6055 9.65625 48.0625C9.19922 48.5195 8.94336 49.1602 8.9375 49.9688L7.3125 49.7812C7.42383 48.5684 7.86719 47.667 8.59375 47.0312C9.32031 46.3955 10.2754 46.0625 11.5 46.0625ZM21.4375 46.0625C22.1289 46.0625 22.7285 46.1904 23.25 46.4688C23.7715 46.7471 24.2227 47.1631 24.5625 47.6875C24.9023 48.2119 25.1504 48.8408 25.3438 49.5938C25.5371 50.3467 25.625 51.3789 25.625 52.6562C25.625 54.168 25.498 55.3838 25.1875 56.3125C24.877 57.2412 24.3994 57.9619 23.7812 58.4688C23.1631 58.9756 22.3809 59.2188 21.4375 59.2188C20.1953 59.2188 19.209 58.7656 18.5 57.875C17.6504 56.8027 17.25 55.0762 17.25 52.6562C17.25 51.1328 17.4053 49.8975 17.7188 48.9688C18.0322 48.04 18.4756 47.3164 19.0938 46.8125C19.7119 46.3086 20.5 46.0625 21.4375 46.0625ZM32.1875 46.0625L33.2188 46.0625L33.2188 59L31.625 59L31.625 48.9062C31.2441 49.2695 30.7432 49.6367 30.125 50C29.5068 50.3633 28.9609 50.6309 28.4688 50.8125L28.4688 49.3125C29.3535 48.8965 30.1191 48.373 30.7812 47.7812C31.4434 47.1895 31.9121 46.6191 32.1875 46.0625ZM41.3125 46.0625C42.1504 46.0625 42.8994 46.2988 43.5938 46.75C44.2881 47.2012 44.8271 47.8213 45.1875 48.6562C45.5479 49.4912 45.7187 50.6992 45.7188 52.2812C45.7188 53.9277 45.5449 55.2432 45.1875 56.2188C44.8301 57.1943 44.2998 57.959 43.5938 58.4688C42.8877 58.9785 42.0742 59.2188 41.125 59.2188C40.1172 59.2187 39.2949 58.9346 38.6562 58.375C38.0176 57.8154 37.6289 57.0449 37.5 56.0312L39.0312 55.875C39.1602 56.5898 39.3867 57.1152 39.75 57.4375C40.1133 57.7598 40.5879 57.9062 41.1562 57.9062C41.6426 57.9062 42.0713 57.8164 42.4375 57.5938C42.8037 57.3711 43.1094 57.0596 43.3438 56.6875C43.5781 56.3154 43.748 55.8203 43.9062 55.1875C44.0645 54.5547 44.1562 53.9063 44.1562 53.25C44.1562 53.1797 44.1621 53.0781 44.1562 52.9375C43.8398 53.4414 43.3916 53.8428 42.8438 54.1562C42.2959 54.4697 41.7012 54.625 41.0625 54.625C39.9961 54.625 39.1133 54.2422 38.375 53.4688C37.6367 52.6953 37.25 51.6719 37.25 50.4062C37.25 49.0996 37.6357 48.0469 38.4062 47.25C39.1768 46.4531 40.1523 46.0625 41.3125 46.0625ZM12.5 17.7812C12.2266 19.1582 11.8418 20.5176 11.3438 21.875L8.96875 28.1875L16.25 28.1875L14 22.25C13.3164 20.4434 12.832 18.9434 12.5 17.7812ZM28 18.0625L28 25.75L33.5312 25.75C35.3672 25.75 36.666 25.4023 37.4375 24.7188C38.209 24.0352 38.5938 23.0527 38.5938 21.8125C38.5938 20.9141 38.3916 20.1709 37.9375 19.5312C37.4834 18.8916 36.8672 18.4551 36.125 18.25C35.6465 18.123 34.7578 18.0625 33.4688 18.0625L28 18.0625ZM21.4062 47.375C20.6797 47.375 20.1211 47.666 19.6875 48.2812C19.1426 49.0664 18.875 50.541 18.875 52.6562C18.875 54.7715 19.0986 56.1748 19.5938 56.875C20.0889 57.5752 20.7109 57.9062 21.4375 57.9062C22.1641 57.9062 22.7861 57.5781 23.2812 56.875C23.7764 56.1719 24 54.7656 24 52.6562C24 50.5352 23.7764 49.1035 23.2812 48.4062C22.7861 47.709 22.1445 47.375 21.4062 47.375ZM41.5 47.375C40.7969 47.375 40.1777 47.6445 39.6562 48.2188C39.1348 48.793 38.875 49.5547 38.875 50.4688C38.875 51.2891 39.1299 51.9561 39.625 52.4688C40.1201 52.9814 40.7422 53.25 41.4688 53.25C42.2012 53.25 42.7783 52.9814 43.25 52.4688C43.7217 51.9561 43.9688 51.252 43.9688 50.3438C43.9688 49.4355 43.7334 48.7207 43.25 48.1875C42.7666 47.6543 42.1797 47.375 41.5 47.375Z" fill="#000000" fill-rule="evenodd" opacity="1" stroke="none"/>
<path d="M69.1444 92C56.5214 92 46.2886 81.767 46.2886 69.1444C46.2886 56.5215 56.5214 46.2886 69.1444 46.2886C81.7669 46.2886 92 56.5215 92 69.1444C92 81.767 81.7669 92 69.1444 92M69.1562 48.125C57.5433 48.125 48.125 57.5434 48.125 69.1562C48.125 80.7691 57.5433 90.1563 69.1562 90.1562C80.7689 90.1562 90.1562 80.7691 90.1562 69.1562C90.1562 57.5434 80.769 48.125 69.1562 48.125Z" fill="#000000" fill-rule="evenodd" opacity="1" stroke="none"/>
<path d="M76.2399 85.2557C75.5152 85.2552 72.8743 80.5552 72.5194 79.2151C71.7773 76.4095 71.937 75.2243 71.9814 74.8453C72.1173 73.6883 73.2399 73.1101 73.3078 71.5454C73.3288 71.0622 73.5729 68.6465 73.7677 66.7594C73.287 66.6656 72.8082 66.4484 72.3825 66.1124C73.6605 67.8264 71.7796 69.8805 69.0468 72.6135C66.146 75.5141 59.7079 78.2062 59.7079 78.2062C59.7079 78.2062 62.4003 71.768 65.3007 68.8674C67.4329 66.7354 69.1515 65.122 70.618 65.122C71.0314 65.122 71.4249 65.2502 71.8018 65.531C71.4654 65.1056 71.2488 64.627 71.1546 64.1463C69.2675 64.3416 66.8515 64.5854 66.3685 64.6064C64.8036 64.6744 64.2254 65.797 63.0691 65.9326C62.9359 65.9483 62.7032 65.9784 62.336 65.9784C61.6573 65.9784 60.519 65.8762 58.699 65.3947C57.2415 65.0092 51.8107 61.9196 52.7714 61.5314C53.2613 61.3331 54.8223 61.1991 56.8782 61.1991C58.8554 61.1991 61.2901 61.3229 63.6685 61.6328C66.634 62.0192 69.3532 62.5079 71.2063 62.8714C71.2364 62.7718 71.2724 62.675 71.3156 62.581L69.4212 61.673C69.4212 61.673 67.908 59.9367 68.0695 59.817C68.0758 59.8123 68.0839 59.81 68.0933 59.81C68.3307 59.81 69.5411 61.194 69.6576 61.3516C69.7472 61.3814 70.2605 61.5526 70.8003 61.7322L70.2644 61.2636C70.2644 61.2636 69.5309 58.5471 69.722 58.4831C69.7244 58.4824 69.7269 58.482 69.7297 58.482C69.9309 58.482 70.5965 60.8439 70.6536 61.014C70.7844 61.1286 71.2262 61.3005 71.7783 61.619L71.1978 60.1257C71.1978 60.1257 71.4605 57.6621 71.6572 57.6621C71.6588 57.6621 71.6602 57.6623 71.6618 57.6626C71.8598 57.7021 71.623 59.7174 71.5728 59.9686C71.6447 60.0785 72.09 60.7616 72.5365 61.4466C72.8112 61.343 73.1068 61.292 73.4102 61.292C73.7584 61.292 74.1166 61.3595 74.4642 61.4923C74.0191 60.5446 74.0528 59.557 74.643 58.9673C74.8298 58.7801 75.0567 58.6495 75.3095 58.5721C75.34 58.3997 75.42 58.2363 75.551 58.1051C75.7218 57.9343 75.9466 57.8495 76.1742 57.8495C76.4125 57.8495 76.654 57.9426 76.8388 58.1277C77.0161 58.3045 77.108 58.5331 77.1159 58.7609C77.4008 58.1735 77.7371 57.3811 77.7135 57.1244C77.6587 56.5434 76.9849 55.5151 76.9786 55.5049C76.9347 55.4384 76.953 55.3487 77.0198 55.3046C77.044 55.2886 77.0715 55.281 77.0988 55.281C77.1457 55.281 77.1917 55.3039 77.2192 55.3462C77.249 55.3905 77.9395 56.445 78.001 57.0976C78.0352 57.471 77.6065 58.412 77.3729 58.8926C77.701 59.0722 78.0208 59.3093 78.3129 59.6014C78.6048 59.8932 78.8419 60.2133 79.0217 60.5414C79.4841 60.3166 80.3712 59.9115 80.7712 59.9115C80.7872 59.9115 80.8024 59.9122 80.8168 59.9133C81.4693 59.9748 82.5238 60.6653 82.5679 60.6949C82.6345 60.7383 82.653 60.828 82.6091 60.8945C82.5813 60.9366 82.5354 60.9594 82.4884 60.9594C82.4614 60.9594 82.4339 60.9518 82.4096 60.9359C82.3992 60.9289 81.3711 60.2553 80.79 60.201C80.7812 60.2001 80.7717 60.1996 80.7618 60.1996C80.4791 60.1996 79.7203 60.5227 79.1532 60.7981C79.3812 60.806 79.6098 60.8982 79.7863 61.0754C80.1485 61.4371 80.1584 62.0134 79.8092 62.3626C79.6782 62.4938 79.5148 62.5745 79.3424 62.6045C79.2645 62.8576 79.1338 63.0845 78.947 63.2712C78.6217 63.5968 78.1757 63.7528 77.6816 63.7528C77.28 63.7528 76.8467 63.6495 76.4217 63.4501C76.6706 64.0999 76.6895 64.7878 76.4677 65.3776C77.1522 65.824 77.8362 66.2695 77.9457 66.3414C78.1255 66.3056 79.2052 66.1746 79.8215 66.1746C80.0678 66.1746 80.2404 66.1954 80.2515 66.2517C80.2915 66.4496 77.7888 66.7167 77.7888 66.7167L76.2953 66.1355C76.614 66.688 76.7854 67.1296 76.9003 67.2607C77.0729 67.3184 79.4945 68.0011 79.4307 68.1922C79.4235 68.2143 79.381 68.2241 79.3115 68.2241C78.7776 68.2241 76.6507 67.6496 76.6507 67.6496L76.1816 67.1137C76.3616 67.6537 76.5324 68.1665 76.5627 68.2566C76.7268 68.3777 78.2166 69.6822 78.0971 69.8442C78.0909 69.8525 78.0807 69.8562 78.0666 69.8562C77.8052 69.8562 76.2412 68.493 76.2412 68.493L75.3331 66.5984C75.2392 66.6418 75.1422 66.6774 75.0424 66.7077C75.4059 68.5607 75.8948 71.2799 76.2817 74.2452C76.9135 79.0968 76.7714 84.1811 76.3831 85.1425C76.3519 85.2199 76.3032 85.2557 76.2399 85.2557" fill="#000000" fill-rule="evenodd" opacity="1" stroke="none"/>
</g>
</g>
</svg>
