<?xml version="1.0" encoding="UTF-8" standalone="no"?>
<!DOCTYPE svg PUBLIC "-//W3C//DTD SVG 1.1//EN" "http://www.w3.org/Graphics/SVG/1.1/DTD/svg11.dtd">
<!-- Created with Vectornator (http://vectornator.io/) -->
<svg height="100%" stroke-miterlimit="10" style="fill-rule:nonzero;clip-rule:evenodd;stroke-linecap:round;stroke-linejoin:round;" version="1.1" viewBox="0 0 100 100" width="100%" xml:space="preserve" xmlns="http://www.w3.org/2000/svg" xmlns:vectornator="http://vectornator.io" xmlns:xlink="http://www.w3.org/1999/xlink">
<defs/>
<g id="pcidssblack" vectornator:layerName="pcidssblack">
<path d="M0 0L0 100L100 100L100 0L0 0ZM72.6875 22.0938L81.9688 42.75C81.8111 42.9543 81.6513 43.1449 81.5 43.3438C81.1398 43.8161 80.818 44.2862 80.4688 44.7188C78.4568 47.2124 76.5705 49.6204 74.8125 52.0312L74.8125 39L66.4062 39L66.4062 59.5938C65.8672 58.8467 65.1054 58.2493 64 58.0312C63.7333 57.9788 63.4484 57.9375 63.1562 57.9375C63.0914 57.9375 63.0347 57.9347 62.9688 57.9375L62.9688 54.75C61.8794 55.1548 60.8324 55.4753 59.875 55.6875C58.9172 55.8987 57.9378 56 56.9375 56C55.9631 56 55.0644 55.8502 54.2188 55.5938C53.3731 55.3438 52.6316 54.9691 52 54.4688C51.373 53.971 50.8752 53.3483 50.5 52.5938C50.1314 51.8418 49.9375 50.9688 49.9375 49.9688C49.9375 48.04 50.532 46.5739 51.7188 45.5312C52.9097 44.4951 54.4514 43.9688 56.3438 43.9688C57.5156 43.9688 58.6285 44.1323 59.6562 44.4375C60.684 44.7469 61.6112 45.1274 62.4375 45.5938L62.4688 39.6875C61.4114 39.3056 61.3617 39.2905 60.0312 39C58.7069 38.7139 57.1942 38.6563 55.5625 38.6562C53.4475 38.6562 51.5069 38.9304 49.75 39.4688C47.9871 40.0113 46.4899 40.7857 45.2188 41.7812C43.945 42.7794 42.9513 43.9742 42.25 45.375C41.5505 46.7754 41.1875 48.3028 41.1875 50C41.1875 51.7158 41.5307 53.2827 42.1875 54.6875C42.8443 56.0839 43.802 57.271 45.0625 58.25C46.3234 59.2269 47.842 59.9726 49.6562 60.5C51.4782 61.0318 53.5588 61.3125 55.875 61.3125C56.2091 61.3125 56.5243 61.2915 56.8438 61.2812C56.5451 61.7128 56.3519 62.1615 56.25 62.625C55.9292 64.0885 56.3755 65.4673 56.7188 66.4688C56.7407 66.5319 56.7603 66.5947 56.7812 66.6562L23.8125 77.0312L5.03125 25.9062L72.6875 22.0938ZM91.5 38.8438L93.8125 38.8438C94.1683 38.9032 94.5903 39.0348 94.7188 39.375C94.7188 39.375 94.8537 39.6754 94.7188 39.8125C94.7188 39.8125 78.4955 59.9668 71.3438 70.5938C70.395 72.0037 69.0455 74.5097 67.9062 75C66.8521 75.4535 63.7691 75.5834 62.7188 75.0938C61.3128 74.4383 60.5185 71.3019 59.9375 69.625C59.5677 68.5562 59.2495 67.5987 58.9375 66.5312C58.633 65.4869 58.0301 64.2395 58.2812 63.0938C58.6002 61.6412 61.8756 59.7559 63.5938 60.0938C65.8643 60.541 65.3446 64.9205 67.375 66.1875C69.3002 64.2607 70.6943 61.7936 72.25 59.4375C75.3422 54.751 78.563 50.4077 82.0938 46.0312C84.5781 42.9531 86.65 39.186 91.5 38.8438ZM67.125 60.9375C67.125 60.9375 68.75 60.9375 68.75 60.9375C68.3923 61.4875 68.0552 62.0509 67.6875 62.5625C67.68 62.5382 67.663 62.4916 67.6562 62.4688C67.5159 62.0059 67.3442 61.4705 67.125 60.9375ZM70.625 27.3438C69.1841 27.3438 67.979 27.7504 67 28.5938C66.0191 29.4331 65.5312 30.6165 65.5312 32.125C65.5313 33.6021 66.0191 34.784 67 35.625C67.979 36.466 69.1841 36.875 70.625 36.875C72.0659 36.875 73.271 36.466 74.25 35.625C75.2269 34.7838 75.7188 33.6021 75.7188 32.125C75.7188 30.6165 75.2269 29.4329 74.25 28.5938C73.271 27.7504 72.0659 27.3438 70.625 27.3438ZM17.9375 39L17.9375 60.9375L26.3438 60.9375L26.3438 54.375L27.625 54.375C29.407 54.375 31.0358 54.2033 32.5 53.875C33.9663 53.5465 35.2096 53.067 36.25 52.4062C37.2906 51.7513 38.1177 50.9247 38.6875 49.9375C39.2681 48.9477 39.5312 47.7945 39.5312 46.5C39.5312 43.9784 38.5017 42.114 36.4062 40.875C34.3169 39.6353 31.4178 39 27.75 39L17.9375 39ZM26.25 43.75L27.2812 43.75C30.1016 43.75 31.5 44.6888 31.5 46.5938C31.5 47.6341 31.1461 48.415 30.4062 48.9062C29.6648 49.3938 28.5818 49.625 27.1875 49.625L26.25 49.625L26.25 43.75Z" fill="#000000" fill-rule="nonzero" opacity="1" stroke="none"/>
</g>
</svg>
