<?xml version="1.0" encoding="UTF-8" standalone="no"?>
<!DOCTYPE svg PUBLIC "-//W3C//DTD SVG 1.1//EN" "http://www.w3.org/Graphics/SVG/1.1/DTD/svg11.dtd">
<!-- Created with Vectornator (http://vectornator.io/) -->
<svg height="100%" stroke-miterlimit="10" style="fill-rule:nonzero;clip-rule:evenodd;stroke-linecap:round;stroke-linejoin:round;" version="1.1" viewBox="0 0 26 26" width="100%" xml:space="preserve" xmlns="http://www.w3.org/2000/svg" xmlns:vectornator="http://vectornator.io" xmlns:xlink="http://www.w3.org/1999/xlink">
<defs/>
<g id="Layer-1" vectornator:layerName="Layer 1">
<g opacity="1">
<path d="M13.3556 20.4078C12.3849 20.4078 11.4324 20.2597 10.4981 19.9637C9.5638 19.6676 8.71443 19.2128 7.94999 18.5991L9.60626 16.8389C10.1887 17.2588 10.7863 17.5925 11.399 17.8401C12.0118 18.0877 12.6822 18.2116 13.4102 18.2116C13.9927 18.2116 14.4446 18.1174 14.7662 17.929C15.0877 17.7405 15.2485 17.4795 15.2485 17.1457L15.2485 17.1134C15.2485 16.952 15.2151 16.8093 15.1484 16.6855C15.0817 16.5617 14.9543 16.446 14.7662 16.3383C14.5781 16.2306 14.3172 16.123 13.9836 16.0153C13.6499 15.9077 13.2161 15.7946 12.6822 15.6762C12.0391 15.5362 11.4567 15.3801 10.9349 15.2079C10.4132 15.0356 9.97028 14.823 9.60626 14.57C9.24225 14.317 8.96014 14.0021 8.75993 13.6253C8.55972 13.2485 8.45961 12.7802 8.45961 12.2204L8.45961 12.1881C8.45961 11.6713 8.56882 11.2057 8.78723 10.7912C9.00564 10.3767 9.31202 10.0188 9.70637 9.71733C10.1007 9.41589 10.5709 9.18442 11.1169 9.02294C11.663 8.86145 12.2636 8.7807 12.9188 8.7807C13.8531 8.7807 14.7116 8.90451 15.4942 9.15212C16.2769 9.39974 16.9958 9.75501 17.651 10.2179L16.1949 12.0912C15.6247 11.7467 15.0665 11.4748 14.5205 11.2757C13.9745 11.0765 13.4284 10.9769 12.8824 10.9769C12.3364 10.9769 11.9269 11.0711 11.6539 11.2595C11.3808 11.4479 11.2443 11.6821 11.2443 11.962L11.2443 11.9943C11.2443 12.1773 11.2838 12.3361 11.3626 12.4707C11.4415 12.6053 11.5841 12.7264 11.7904 12.834C11.9966 12.9417 12.2787 13.044 12.6367 13.1409C12.9946 13.2377 13.4466 13.3508 13.9927 13.48C14.6357 13.6307 15.2091 13.8003 15.7126 13.9887C16.2162 14.1771 16.6409 14.4031 16.9867 14.6669C17.3325 14.9307 17.5934 15.2402 17.7693 15.5955C17.9453 15.9507 18.0332 16.376 18.0332 16.8712L18.0332 16.9035C18.0332 17.4633 17.918 17.9612 17.6874 18.3973C17.4569 18.8333 17.1353 19.1993 16.7228 19.4954C16.3102 19.7914 15.8188 20.0175 15.2485 20.1736C14.6782 20.3297 14.0473 20.4078 13.3556 20.4078Z" fill="#000000" fill-rule="nonzero" opacity="1" stroke="none"/>
</g>
<path d="M2.22932 4.66574L12.8384 2.9741C12.9009 2.96412 13.0023 2.96395 13.0649 2.9737L23.7688 4.64234C23.8314 4.65209 23.8821 4.71134 23.8821 4.77468L23.8821 6.35436L2.10108 6.35436L2.11504 4.79847C2.11561 4.73514 2.16677 4.67571 2.22932 4.66574Z" fill="#000000" fill-rule="nonzero" opacity="1" stroke="none"/>
<path d="M3.74161 7.5625L3.74161 23.7188L22.2416 23.7188L22.2416 7.5625L20.7416 7.5625L20.7416 22.2188L5.27286 22.2188L5.27286 7.5625L3.74161 7.5625Z" fill="#000000" fill-rule="nonzero" opacity="1" stroke="none"/>
</g>
</svg>
