<?xml version="1.0" encoding="UTF-8" standalone="no"?>
<!DOCTYPE svg PUBLIC "-//W3C//DTD SVG 1.1//EN" "http://www.w3.org/Graphics/SVG/1.1/DTD/svg11.dtd">
<!-- Created with Vectornator (http://vectornator.io/) -->
<svg height="100%" stroke-miterlimit="10" style="fill-rule:nonzero;clip-rule:evenodd;stroke-linecap:round;stroke-linejoin:round;" version="1.1" viewBox="0 0 100 100" width="100%" xml:space="preserve" xmlns="http://www.w3.org/2000/svg" xmlns:vectornator="http://vectornator.io" xmlns:xlink="http://www.w3.org/1999/xlink">
<defs/>
<g id="stig" vectornator:layerName="stig">
<path d="M21.545 59.63C22.525 59.63 23.4992 59.4667 24.4675 59.14C25.4358 58.8133 26.3108 58.3467 27.0925 57.74C27.8742 57.1333 28.5042 56.3808 28.9825 55.4825C29.4608 54.5842 29.7 53.575 29.7 52.455C29.7 50.9617 29.385 49.7833 28.755 48.92C28.125 48.0567 27.3433 47.3625 26.41 46.8375C25.4767 46.3125 24.4558 45.8925 23.3475 45.5775C22.2392 45.2625 21.2183 44.9067 20.285 44.51C19.3517 44.1133 18.57 43.6058 17.94 42.9875C17.31 42.3692 16.995 41.5 16.995 40.38C16.995 39.61 17.1467 38.9392 17.45 38.3675C17.7533 37.7958 18.1558 37.3292 18.6575 36.9675C19.1592 36.6058 19.725 36.3375 20.355 36.1625C20.985 35.9875 21.6267 35.9 22.28 35.9C24.38 35.9 25.9783 36.705 27.075 38.315L27.075 38.315L29.28 36.6C28.3 35.48 27.2383 34.6983 26.095 34.255C24.9517 33.8117 23.68 33.59 22.28 33.59C21.2767 33.59 20.2967 33.73 19.34 34.01C18.3833 34.29 17.5258 34.7217 16.7675 35.305C16.0092 35.8883 15.4025 36.6233 14.9475 37.51C14.4925 38.3967 14.265 39.435 14.265 40.625C14.265 41.7683 14.4458 42.7192 14.8075 43.4775C15.1692 44.2358 15.6475 44.8658 16.2425 45.3675C16.8375 45.8692 17.5142 46.2833 18.2725 46.61C19.0308 46.9367 19.8125 47.2283 20.6175 47.485C21.4225 47.7417 22.2042 47.9983 22.9625 48.255C23.7208 48.5117 24.3975 48.8325 24.9925 49.2175C25.5875 49.6025 26.0658 50.0808 26.4275 50.6525C26.7892 51.2242 26.97 51.9417 26.97 52.805C26.97 53.5283 26.8067 54.17 26.48 54.73C26.1533 55.29 25.7392 55.7625 25.2375 56.1475C24.7358 56.5325 24.17 56.8242 23.54 57.0225C22.91 57.2208 22.28 57.32 21.65 57.32C20.3433 57.32 19.2117 57.0458 18.255 56.4975C17.2983 55.9492 16.5517 55.22 16.015 54.31L16.015 54.31L13.74 55.955C14.6967 57.2617 15.8575 58.2008 17.2225 58.7725C18.5875 59.3442 20.0283 59.63 21.545 59.63ZM42.755 59L42.755 36.53L51.05 36.53L51.05 34.22L31.94 34.22L31.94 36.53L40.235 36.53L40.235 59L42.755 59ZM57.42 59L57.42 34.22L54.9 34.22L54.9 59L57.42 59ZM75.375 59.63C76.8917 59.63 78.4842 59.4142 80.1525 58.9825C81.8208 58.5508 83.355 57.9267 84.755 57.11L84.755 57.11L84.755 44.965L76.32 44.965L76.32 47.275L82.235 47.275L82.235 55.57C81.3017 56.1067 80.2458 56.5325 79.0675 56.8475C77.8892 57.1625 76.6583 57.32 75.375 57.32C73.7883 57.32 72.365 57.0283 71.105 56.445C69.845 55.8617 68.7775 55.08 67.9025 54.1C67.0275 53.12 66.3567 51.9825 65.89 50.6875C65.4233 49.3925 65.19 48.0333 65.19 46.61C65.19 45.1867 65.4233 43.8275 65.89 42.5325C66.3567 41.2375 67.0275 40.1 67.9025 39.12C68.7775 38.14 69.845 37.3583 71.105 36.775C72.365 36.1917 73.7883 35.9 75.375 35.9C76.915 35.9 78.2683 36.1567 79.435 36.67C80.6017 37.1833 81.605 37.8833 82.445 38.77L82.445 38.77L84.335 36.915C83.215 35.795 81.9375 34.9608 80.5025 34.4125C79.0675 33.8642 77.3583 33.59 75.375 33.59C73.5317 33.59 71.8225 33.9167 70.2475 34.57C68.6725 35.2233 67.3075 36.1275 66.1525 37.2825C64.9975 38.4375 64.0933 39.8083 63.44 41.395C62.7867 42.9817 62.46 44.72 62.46 46.61C62.46 48.5 62.7867 50.2383 63.44 51.825C64.0933 53.4117 64.9975 54.7825 66.1525 55.9375C67.3075 57.0925 68.6725 57.9967 70.2475 58.65C71.8225 59.3033 73.5317 59.63 75.375 59.63Z" fill="#000000" fill-rule="nonzero" opacity="1" stroke="none"/>
<path d="M68 45L83 45L83 47.3L68 47.3L68 45Z" fill="#000000" fill-rule="evenodd" opacity="1" stroke="none"/>
<path d="M75 50L75.3 50C75.8523 50 76.3 50.4477 76.3 51L76.3 54L74 54L74 51C74 50.4477 74.4477 50 75 50Z" fill="#000000" fill-rule="evenodd" opacity="1" stroke="none"/>
</g>
</svg>
