<?xml version="1.0" encoding="UTF-8" standalone="no"?>
<!DOCTYPE svg PUBLIC "-//W3C//DTD SVG 1.1//EN" "http://www.w3.org/Graphics/SVG/1.1/DTD/svg11.dtd">
<!-- Created with Vectornator (http://vectornator.io/) -->
<svg height="100%" stroke-miterlimit="10" style="fill-rule:nonzero;clip-rule:evenodd;stroke-linecap:round;stroke-linejoin:round;" version="1.1" viewBox="0 0 100 100" width="100%" xml:space="preserve" xmlns="http://www.w3.org/2000/svg" xmlns:vectornator="http://vectornator.io" xmlns:xlink="http://www.w3.org/1999/xlink">
<defs/>
<g id="Layer-1" vectornator:layerName="Layer 1">
<path d="M0 0L0 100L100 100L100 0L0 0ZM22.2812 33.5938C23.6812 33.5937 24.9504 33.8067 26.0938 34.25C27.2371 34.6933 28.3012 35.4738 29.2812 36.5938L27.0625 38.3125C25.9658 36.7025 24.3813 35.9062 22.2812 35.9062C21.6279 35.9062 20.9738 35.9813 20.3438 36.1562C19.7137 36.3313 19.1579 36.6071 18.6562 36.9688C18.1546 37.3304 17.7408 37.8033 17.4375 38.375C17.1342 38.9467 17 39.605 17 40.375C17 41.495 17.3075 42.3817 17.9375 43C18.5675 43.6183 19.3479 44.1033 20.2812 44.5C21.2146 44.8967 22.2354 45.2475 23.3438 45.5625C24.4521 45.8775 25.4729 46.3187 26.4062 46.8438C27.3396 47.3687 28.12 48.0429 28.75 48.9062C29.38 49.7696 29.6875 50.9754 29.6875 52.4688C29.6875 53.5888 29.4471 54.5704 28.9688 55.4688C28.4904 56.3671 27.8754 57.1433 27.0938 57.75C26.3121 58.3567 25.4371 58.7983 24.4688 59.125C23.5004 59.4517 22.5113 59.625 21.5312 59.625C20.0146 59.625 18.5837 59.3529 17.2188 58.7812C15.8538 58.2096 14.7067 57.2754 13.75 55.9688L16 54.3125C16.5367 55.2225 17.2933 55.9517 18.25 56.5C19.2067 57.0483 20.3496 57.3125 21.6562 57.3125C22.2863 57.3125 22.9012 57.2296 23.5312 57.0312C24.1612 56.8329 24.7483 56.5413 25.25 56.1562C25.7517 55.7712 26.1421 55.2787 26.4688 54.7188C26.7954 54.1587 26.9687 53.5358 26.9688 52.8125C26.9688 51.9492 26.7992 51.2279 26.4375 50.6562C26.0758 50.0846 25.595 49.6038 25 49.2188C24.405 48.8337 23.7271 48.5067 22.9688 48.25C22.2104 47.9933 21.43 47.7567 20.625 47.5C19.82 47.2433 19.0396 46.9517 18.2812 46.625C17.5229 46.2983 16.845 45.8767 16.25 45.375C15.655 44.8733 15.1742 44.2271 14.8125 43.4688C14.4508 42.7104 14.25 41.7683 14.25 40.625C14.25 39.435 14.4825 38.3867 14.9375 37.5C15.3925 36.6133 16.0229 35.8958 16.7812 35.3125C17.5396 34.7292 18.3871 34.28 19.3438 34C20.3004 33.72 21.2779 33.5938 22.2812 33.5938ZM75.375 33.5938C77.3583 33.5937 79.065 33.8579 80.5 34.4062C81.935 34.9546 83.2238 35.7863 84.3438 36.9062L82.4375 38.7812C81.5975 37.8946 80.6042 37.1696 79.4375 36.6562C78.2708 36.1429 76.915 35.9062 75.375 35.9062C73.7883 35.9062 72.3538 36.1979 71.0938 36.7812C69.8338 37.3646 68.7813 38.145 67.9062 39.125C67.0313 40.105 66.3417 41.2362 65.875 42.5312C65.4083 43.8263 65.1875 45.2017 65.1875 46.625C65.1875 48.0483 65.4083 49.3925 65.875 50.6875C66.3417 51.9825 67.0312 53.1137 67.9062 54.0938C68.7812 55.0738 69.8337 55.8542 71.0938 56.4375C72.3538 57.0208 73.7883 57.3125 75.375 57.3125C76.6583 57.3125 77.8842 57.1588 79.0625 56.8438C80.2408 56.5288 81.3167 56.0992 82.25 55.5625L82.25 47.3125L68 47.3125L68 45L76.3125 45L76.3125 44.9688L84.75 44.9688L84.75 57.125C83.35 57.9417 81.8246 58.5371 80.1562 58.9688C78.4879 59.4004 76.8917 59.625 75.375 59.625C73.5317 59.625 71.825 59.3096 70.25 58.6562C68.675 58.0029 67.3113 57.0925 66.1562 55.9375C65.0012 54.7825 64.0908 53.3992 63.4375 51.8125C62.7842 50.2258 62.4688 48.515 62.4688 46.625C62.4687 44.735 62.7842 42.9929 63.4375 41.4062C64.0908 39.8196 65.0012 38.4363 66.1562 37.2812C67.3113 36.1262 68.675 35.2158 70.25 34.5625C71.825 33.9092 73.5317 33.5938 75.375 33.5938ZM31.9375 34.2188L51.0625 34.2188L51.0625 36.5312L42.75 36.5312L42.75 59L40.25 59L40.25 36.5312L31.9375 36.5312L31.9375 34.2188ZM54.9062 34.2188L57.4062 34.2188L57.4062 59L54.9062 59L54.9062 34.2188ZM75 50L75.3125 50C75.8648 50 76.3125 50.4477 76.3125 51L76.3125 54L74 54L74 51C74 50.4477 74.4477 50 75 50Z" fill="#000000" fill-rule="nonzero" opacity="1" stroke="none"/>
</g>
</svg>
