<?xml version="1.0" encoding="UTF-8" standalone="no"?>
<!DOCTYPE svg PUBLIC "-//W3C//DTD SVG 1.1//EN" "http://www.w3.org/Graphics/SVG/1.1/DTD/svg11.dtd">
<!-- Created with Vectornator (http://vectornator.io/) -->
<svg height="100%" stroke-miterlimit="10" style="fill-rule:nonzero;clip-rule:evenodd;stroke-linecap:round;stroke-linejoin:round;" version="1.1" viewBox="0 0 500 500" width="100%" xml:space="preserve" xmlns="http://www.w3.org/2000/svg" xmlns:vectornator="http://vectornator.io" xmlns:xlink="http://www.w3.org/1999/xlink">
<defs/>
<g id="Maintainabiliy-in-App" vectornator:layerName="Maintainabiliy-in-App">
<path d="M249.434 434.09C149.199 434.09 67.941 352.803 67.941 252.53C67.941 152.257 149.199 70.971 249.434 70.971C349.669 70.971 430.926 152.258 430.926 252.53C430.926 352.802 349.669 434.09 249.434 434.09L249.434 434.09ZM248.517 95.645C161.774 95.645 91.456 166.158 91.456 253.143C91.456 340.126 161.774 410.64 248.517 410.64C335.258 410.64 405.578 340.127 405.578 253.143C405.577 166.158 335.258 95.645 248.517 95.645L248.517 95.645ZM298.993 266.995L351 266.995L351 290.994L298.993 290.994L298.993 266.995L298.993 266.995ZM298.993 216.995L351 216.995L351 240.995L298.993 240.995L298.993 216.995L298.993 216.995ZM298.993 166.995L351 166.995L351 190.994L298.993 190.994L298.993 166.995L298.993 166.995ZM243.006 357.999C223.121 357.999 207.001 341.945 207.001 322.141C207.001 307.244 216.017 294.421 229 289.004L229 150.004L257 178.004L257 289.004C269.964 294.429 279.011 307.257 279.011 322.141C279.011 341.945 262.891 357.999 243.006 357.999L243.006 357.999Z" fill="#000000" fill-rule="evenodd" opacity="1" stroke="none"/>
</g>
</svg>
